<svg width="19" height="18" viewBox="0 0 19 18" fill="none" xmlns="http://www.w3.org/2000/svg">
<path id="Vector" d="M9.51637 2.25739C9.9831 1.8151 10.5383 1.46374 11.15 1.22349C11.7617 0.983249 12.4179 0.858848 13.081 0.857434C13.7441 0.85602 14.4009 0.977622 15.0138 1.21526C15.6267 1.45289 16.1835 1.80188 16.6524 2.24218C17.1212 2.68247 17.4929 3.20541 17.7459 3.78096C17.999 4.35651 18.1284 4.97333 18.1269 5.596C18.1254 6.21868 17.993 6.83494 17.7371 7.4094C17.4813 7.98386 17.1072 8.50521 16.6362 8.94351L8.65806 16.4357C8.08279 16.9577 7.31215 17.2466 6.5122 17.2402C5.71225 17.2337 4.94702 16.9324 4.38139 16.4011C3.81576 15.8699 3.49501 15.1512 3.48825 14.4C3.48149 13.6488 3.78927 12.9251 4.34526 12.385L11.4314 5.73049C11.549 5.62379 11.7066 5.56474 11.8701 5.56608C12.0337 5.56741 12.1901 5.62902 12.3058 5.73763C12.4214 5.84624 12.4871 5.99316 12.4885 6.14675C12.4899 6.30034 12.427 6.44831 12.3134 6.55879L5.22728 13.2133C4.902 13.5331 4.72292 13.9597 4.72832 14.402C4.73373 14.8442 4.9232 15.2669 5.25621 15.5796C5.58921 15.8923 6.03931 16.0703 6.51023 16.0753C6.98114 16.0804 7.43547 15.9122 7.77603 15.6068L15.7542 8.11462C16.1096 7.78518 16.3922 7.39296 16.5856 6.96054C16.779 6.52812 16.8794 6.06405 16.881 5.59504C16.8827 5.12603 16.7855 4.66135 16.5951 4.22775C16.4047 3.79416 16.1249 3.40021 15.7717 3.06858C15.4186 2.73696 14.999 2.47422 14.5373 2.29548C14.0755 2.11675 13.5807 2.02555 13.0813 2.02714C12.5818 2.02873 12.0877 2.12308 11.6272 2.30475C11.1668 2.48642 10.7492 2.75182 10.3984 3.08569L1.70917 11.2456C1.65163 11.3016 1.5828 11.3462 1.5067 11.3769C1.43059 11.4076 1.34874 11.4238 1.26592 11.4244C1.18309 11.4251 1.10095 11.4103 1.02429 11.3808C0.947633 11.3514 0.877987 11.3079 0.819419 11.2529C0.760851 11.1979 0.714533 11.1325 0.683169 11.0605C0.651805 10.9885 0.636023 10.9114 0.636742 10.8336C0.637462 10.7558 0.65467 10.6789 0.687361 10.6075C0.720053 10.536 0.767574 10.4714 0.827151 10.4173L9.51637 2.25739Z" fill="black"/>
</svg>
