<svg width="104" height="80" viewBox="0 0 104 80" fill="none" xmlns="http://www.w3.org/2000/svg">
<g id="Layer_1" clip-path="url(#clip0_221_143)">
<path id="Vector" d="M54.779 55.3H49.969C49.329 57.96 48.929 60.67 48.009 63.2C43.259 76.33 28.569 82.6 15.579 77.15C2.999 71.86 -2.761 56.86 3.079 44.45C5.659 38.98 8.309 33.54 11.079 28.16C11.489 27.36 12.929 26.31 13.479 26.51C14.979 27.06 14.269 28.36 13.759 29.43C13.059 30.9 12.359 32.38 11.919 33.31C16.049 32.32 20.349 30.85 24.759 30.41C27.679 30.12 30.779 31.21 33.749 31.88C34.859 32.13 36.519 32.54 35.919 34.27C35.299 36.05 33.909 35.12 32.779 34.71C20.679 30.35 7.83899 36.95 4.529 49.26C1.909 58.98 6.519 69.22 15.579 73.8C24.829 78.47 35.729 75.98 42.159 67.73C48.229 59.94 47.989 48.58 41.589 41.03C40.999 40.33 40.189 39.78 39.759 39C39.319 38.2 38.709 36.85 39.059 36.38C40.069 34.99 41.129 36.12 41.899 36.94C43.369 38.5 44.739 40.17 46.289 41.95C46.389 41.38 46.539 40.88 46.549 40.37C46.569 35.14 46.609 29.9 46.549 24.67C46.459 17.68 41.979 11.94 35.549 10.44C28.909 8.88998 22.389 12.02 19.119 18.33C18.429 19.65 17.919 21.09 17.089 22.31C16.739 22.83 15.779 22.95 15.099 23.26C14.899 22.5 14.339 21.58 14.569 20.99C16.429 16.31 18.829 12.01 23.429 9.33998C24.189 8.89999 24.709 7.88998 25.149 7.03998C27.979 1.51998 33.019 -0.990015 38.709 0.359985C43.909 1.58998 47.339 6.32998 47.439 12.24C47.469 13.87 47.639 15.52 48.009 17.11C48.379 18.7 49.079 20.21 49.619 21.71C49.859 21.79 50.009 21.89 50.169 21.88C51.729 21.81 54.169 22.3 54.659 21.54C55.899 19.6 56.419 17.14 56.909 14.82C57.299 12.98 57.049 11 57.389 9.13999C58.249 4.46999 61.859 1.07998 66.609 0.229985C71.309 -0.610015 75.969 1.31998 78.309 5.44998C79.559 7.65998 81.149 9.31998 83.079 10.94C85.049 12.6 86.829 14.77 87.999 17.07C92.589 26.08 97.049 35.16 101.269 44.35C105.649 53.87 104.249 62.86 97.539 70.82C91.219 78.31 80.759 81 71.489 77.89C62.209 74.78 55.639 66.33 54.889 56.57C54.859 56.24 54.829 55.91 54.769 55.3H54.779ZM79.249 76.1C90.979 76.11 100.659 66.48 100.679 54.78C100.699 43.06 91.079 33.34 79.389 33.28C67.539 33.22 57.869 42.88 57.889 54.76C57.899 66.53 67.469 76.08 79.249 76.09V76.1ZM58.019 42.04C67.109 29.34 80.969 27.37 93.029 34.23C90.179 28.37 87.669 22.82 84.809 17.45C81.839 11.86 75.809 9.22998 69.419 10.32C63.899 11.26 58.649 16.15 58.139 22.1C57.579 28.64 58.009 35.27 58.009 42.04H58.019ZM49.789 25.27V52.06H54.699V25.03C53.359 25.03 52.199 25.01 51.049 25.04C50.649 25.05 50.259 25.19 49.789 25.28V25.27ZM75.689 7.30998C73.789 3.81998 70.159 2.33998 66.299 3.32998C62.689 4.25998 60.269 7.51999 60.339 11.64C64.839 7.85999 69.899 6.35998 75.689 7.30998ZM44.279 11.73C44.169 7.19998 41.459 3.92998 37.489 3.22998C33.599 2.54998 30.149 4.16998 28.969 7.31998C34.749 6.29998 39.759 8.00998 44.279 11.73Z" fill="#72BE44"/>
<path id="Vector_2" d="M25.0695 36.51C35.0695 36.43 43.3895 44.61 43.4295 54.59C43.4795 64.6 35.3595 72.84 25.3395 72.95C15.4595 73.06 7.10952 64.92 7.03952 55.1C6.96952 44.76 14.8995 36.59 25.0695 36.51ZM10.0595 54.62C10.0395 63.02 16.7195 69.82 25.1095 69.93C33.3295 70.03 40.3695 63.09 40.4295 54.81C40.4895 46.47 33.6995 39.65 25.2895 39.61C16.7995 39.57 10.0795 46.19 10.0495 54.62H10.0595Z" fill="#72BE44"/>
<path id="Vector_3" d="M94.3487 52.63C94.2587 48.62 91.4687 44.15 86.1587 41.21C85.5887 40.89 84.8387 40.67 84.5087 40.18C84.2187 39.73 84.1687 38.56 84.4087 38.44C85.0287 38.11 85.9887 37.87 86.5687 38.13C92.7187 40.9 96.4187 45.67 97.2387 52.36C98.5587 63.08 91.1687 71.94 80.3487 72.9C70.5587 73.77 61.7387 65.86 61.0387 55.57C60.3787 46.01 68.2587 37.1 77.9287 36.65C78.8387 36.61 79.7987 37.46 80.7287 37.9C79.8787 38.48 79.0687 39.49 78.1687 39.58C70.0887 40.42 64.1487 46.65 64.0287 54.61C63.9187 62.23 69.6687 68.73 77.4487 69.77C86.3987 70.96 94.3487 63.89 94.3487 52.65V52.63Z" fill="#72BE44"/>
</g>
<defs>
<clipPath id="clip0_221_143">
<rect width="103.01" height="79.16" fill="white" transform="translate(0.789062)"/>
</clipPath>
</defs>
</svg>
