<svg width="205" height="47" viewBox="0 0 205 47" fill="none" xmlns="http://www.w3.org/2000/svg">
<g clip-path="url(#clip0_277_1368)">
<path d="M32.334 5.52695H38.7034V43.7681H32.334V5.52695ZM107.985 17.5489C107.985 18.9228 107.65 20.0677 107.091 20.9837C106.532 21.8996 105.638 22.7011 104.633 23.1591C103.515 23.6171 102.286 23.846 100.833 23.846H95.9165V11.0227H100.833C102.286 11.0227 103.515 11.2517 104.633 11.8241C105.638 12.2821 106.532 13.0836 107.091 13.9995C107.65 14.9155 107.985 16.0604 107.985 17.5489ZM112.79 23.6171C113.907 21.7851 114.466 19.7243 114.466 17.3199C114.466 14.9155 113.907 12.8546 112.79 11.0227C111.672 9.30527 110.108 7.93133 108.097 6.90089C106.085 5.87044 103.739 5.41246 101.057 5.41246H89.5471V43.6536H95.8048V29.2273H99.7158L109.102 43.6536H116.701L106.085 28.4258C106.756 28.1968 107.538 28.0823 108.097 27.7389C110.108 26.8229 111.672 25.449 112.79 23.6171ZM127.317 38.0433V26.0214H142.737V20.4112H127.317V11.1372H143.743V5.52695H121.171V43.7681H143.743V38.0433H127.317ZM168.103 37.9288H157.711V5.52695H151.453V43.7681H165.422L168.103 37.9288ZM202.744 5.75594C202.744 5.98493 202.632 6.21392 202.521 6.32841C202.409 6.44291 202.074 6.44291 201.627 6.44291H200.844V5.06898H201.627C202.074 5.06898 202.297 5.18347 202.521 5.18347C202.632 5.41246 202.744 5.52695 202.744 5.75594ZM202.968 6.5574C203.079 6.32841 203.191 6.09943 203.191 5.87044C203.191 5.52695 203.079 5.18347 202.856 5.06898C202.632 4.83999 202.185 4.83999 201.627 4.83999H200.286V8.6183H200.844V6.90089H201.85L202.632 8.6183H203.191L202.297 6.78639C202.632 6.78639 202.856 6.6719 202.968 6.5574ZM204.532 6.78639C204.532 7.24437 204.42 7.58785 204.309 7.93133C204.197 8.27482 203.973 8.6183 203.638 8.84729C203.303 9.19077 202.968 9.41976 202.632 9.53426C202.297 9.76324 201.962 9.76324 201.515 9.76324C201.18 9.76324 200.733 9.64875 200.398 9.53426C200.062 9.41976 199.727 9.19077 199.392 8.84729C199.057 8.50381 198.945 8.27482 198.721 7.81684C198.61 7.47336 198.498 7.01538 198.498 6.6719C198.498 6.32841 198.61 5.87044 198.721 5.52695C198.833 5.18347 199.057 4.83999 199.392 4.49651C199.615 4.26752 199.951 4.03853 200.286 3.80954C200.621 3.69505 201.068 3.58055 201.403 3.58055C201.85 3.58055 202.185 3.69505 202.521 3.80954C202.856 3.92403 203.191 4.15302 203.526 4.49651C203.75 4.72549 203.973 5.06898 204.197 5.52695C204.42 5.98493 204.532 6.32841 204.532 6.78639ZM204.867 6.78639C204.867 6.32841 204.756 5.87044 204.644 5.52695C204.532 5.06898 204.197 4.72549 203.973 4.38201C203.638 4.03853 203.303 3.80954 202.856 3.69505C202.409 3.58055 202.074 3.46606 201.627 3.46606C201.18 3.46606 200.733 3.58055 200.398 3.69505C200.062 3.80954 199.615 4.15302 199.392 4.38201C199.057 4.72549 198.833 5.06898 198.61 5.52695C198.498 5.98493 198.386 6.32841 198.386 6.78639C198.386 7.24437 198.498 7.70235 198.61 8.04583C198.721 8.50381 199.057 8.84729 199.28 9.19077C199.615 9.53426 199.951 9.76324 200.398 9.99223C200.844 10.1067 201.18 10.2212 201.627 10.2212C202.074 10.2212 202.521 10.1067 202.856 9.99223C203.303 9.87774 203.638 9.53426 203.973 9.19077C204.309 8.84729 204.532 8.50381 204.644 8.16032C204.756 7.58785 204.867 7.24437 204.867 6.78639ZM186.653 16.2894L191.681 28.4258H181.513L186.653 16.2894ZM204.867 43.7681L186.653 3.35156L168.439 43.7681H175.479L179.725 33.9215H193.469L197.716 43.7681H204.867Z" fill="#AAAAAA"/>
<mask id="mask0_277_1368" style="mask-type:luminance" maskUnits="userSpaceOnUse" x="64" y="4" width="20" height="41">
<path d="M64.0645 10.794C71.5513 10.794 77.5855 16.9767 77.5855 24.6478C77.5855 32.319 71.5513 38.5016 64.0645 38.5016V44.4554C74.7919 44.4554 83.508 35.5248 83.508 24.5333C83.508 13.5419 74.7919 4.61133 64.0645 4.61133V10.794Z" fill="white"/>
</mask>
<g mask="url(#mask0_277_1368)">
<path d="M64.0625 4.72461H83.506V44.4541H64.0625V4.72461Z" fill="url(#paint0_linear_277_1368)"/>
</g>
<mask id="mask1_277_1368" style="mask-type:luminance" maskUnits="userSpaceOnUse" x="44" y="2" width="29" height="43">
<path d="M63.402 4.72543C53.0097 5.06892 44.6289 13.885 44.6289 24.6474C44.6289 35.6389 53.345 44.5695 64.0724 44.5695V38.6158C56.5856 38.6158 50.5514 32.4331 50.5514 24.7619C50.5514 17.3198 56.3621 11.2516 63.5137 10.9081V12.8545L72.2298 7.4733L63.5137 2.43555L63.402 4.72543Z" fill="white"/>
</mask>
<g mask="url(#mask1_277_1368)">
<path d="M44.7324 2.43555H72.2215V44.455H44.7324V2.43555Z" fill="url(#paint1_linear_277_1368)"/>
</g>
<path d="M19.1441 31.9755C19.1441 33.3495 18.8089 34.6089 18.1384 35.5249C17.468 36.4408 16.6858 37.1278 15.5683 37.5858C14.4509 38.0437 13.2217 38.2727 11.769 38.2727H6.62878V25.9073H11.8808C12.9982 25.9073 13.8922 26.0218 14.7861 26.2508C15.6801 26.4798 16.4623 26.8233 17.1327 27.3958C17.8032 27.9682 18.3619 28.5407 18.6972 29.3422C19.0324 30.0291 19.1441 30.9451 19.1441 31.9755ZM17.021 15.8318C17.021 16.8623 16.7975 17.7782 16.2388 18.5797C15.7918 19.3812 15.0096 19.9536 14.1157 20.2971C13.2217 20.7551 12.216 20.8696 10.9868 20.8696H6.51703V10.7941H10.9868C12.7747 10.7941 14.2274 11.2521 15.2331 12.0535C16.4623 12.9695 17.021 14.2289 17.021 15.8318ZM21.6025 24.7624C20.4851 23.9609 19.1441 23.3885 17.6915 23.045H17.8032C19.5911 22.358 20.9321 21.3276 21.9378 20.0681C22.9435 18.6942 23.5022 17.0913 23.5022 15.2594C23.5022 13.084 22.9435 11.2521 21.9378 9.87813C20.9321 8.5042 19.5911 7.35925 17.8032 6.67229C16.0153 5.87083 14.0039 5.52734 11.5455 5.52734H0.371094V43.7684H12.216C14.8979 43.7684 17.2445 43.425 19.2559 42.6235C21.2673 41.822 22.8317 40.6771 23.9492 38.9597C25.0666 37.3568 25.6253 35.2959 25.6253 32.777C25.6253 30.9451 25.2901 29.3422 24.5079 28.0827C23.8374 26.7088 22.8317 25.5639 21.6025 24.7624Z" fill="#AAAAAA"/>
</g>
<defs>
<linearGradient id="paint0_linear_277_1368" x1="73.7852" y1="4.7254" x2="73.7852" y2="44.5077" gradientUnits="userSpaceOnUse">
<stop stop-color="white"/>
<stop offset="0.75" stop-color="#B0B2B4"/>
<stop offset="1" stop-color="#B0B2B4"/>
</linearGradient>
<linearGradient id="paint1_linear_277_1368" x1="58.4783" y1="44.5248" x2="58.4783" y2="2.46247" gradientUnits="userSpaceOnUse">
<stop stop-color="#BBBBBB"/>
<stop offset="0.25" stop-color="#B0B2B4"/>
<stop offset="0.75" stop-color="#5E5E5E"/>
<stop offset="1" stop-color="#3A3A3A"/>
</linearGradient>
<clipPath id="clip0_277_1368">
<rect width="204.492" height="45.7977" fill="white" transform="translate(0.369141 0.603516)"/>
</clipPath>
</defs>
</svg>
