<svg width="284" height="64" viewBox="0 0 284 64" fill="none" xmlns="http://www.w3.org/2000/svg">
<g clip-path="url(#clip0_130_886)">
<path d="M45.1094 6.96879H53.9151V59.8372H45.1094V6.96879ZM149.697 23.5891C149.697 25.4885 149.233 27.0714 148.461 28.3377C147.689 29.604 146.453 30.7121 145.062 31.3452C143.517 31.9784 141.818 32.2949 139.81 32.2949H133.012V14.5666H139.81C141.818 14.5666 143.517 14.8832 145.062 15.6747C146.453 16.3078 147.689 17.4158 148.461 18.6821C149.233 19.9484 149.697 21.5313 149.697 23.5891ZM156.34 31.9784C157.885 29.4458 158.657 26.5966 158.657 23.2725C158.657 19.9484 157.885 17.0993 156.34 14.5666C154.795 12.1923 152.632 10.2928 149.851 8.86825C147.071 7.44365 143.826 6.8105 140.119 6.8105H124.207V59.6789H132.858V39.7345H138.265L151.242 59.6789H161.747L147.071 38.6265C147.998 38.3099 149.079 38.1516 149.851 37.6768C152.632 36.4105 154.795 34.511 156.34 31.9784ZM176.423 51.9227V35.3024H197.742V27.5463H176.423V14.7249H199.133V6.96879H167.926V59.8372H199.133V51.9227H176.423ZM232.811 51.7644H218.443V6.96879H209.792V59.8372H229.103L232.811 51.7644ZM280.702 7.28536C280.702 7.60194 280.547 7.91852 280.393 8.07681C280.238 8.23509 279.775 8.23509 279.157 8.23509H278.075V6.33563H279.157C279.775 6.33563 280.084 6.49392 280.393 6.49392C280.547 6.8105 280.702 6.96879 280.702 7.28536ZM281.011 8.39338C281.165 8.07681 281.32 7.76023 281.32 7.44365C281.32 6.96879 281.165 6.49392 280.856 6.33563C280.547 6.01905 279.929 6.01905 279.157 6.01905H277.303V11.2426H278.075V8.86825H279.466L280.547 11.2426H281.32L280.084 8.70996C280.547 8.70996 280.856 8.55167 281.011 8.39338ZM283.173 8.70996C283.173 9.34311 283.019 9.81798 282.864 10.2928C282.71 10.7677 282.401 11.2426 281.938 11.5592C281.474 12.034 281.011 12.3506 280.547 12.5089C280.084 12.8255 279.62 12.8255 279.002 12.8255C278.539 12.8255 277.921 12.6672 277.457 12.5089C276.994 12.3506 276.53 12.034 276.067 11.5592C275.604 11.0843 275.449 10.7677 275.14 10.1346C274.986 9.65969 274.831 9.02654 274.831 8.55167C274.831 8.07681 274.986 7.44365 275.14 6.96879C275.295 6.49392 275.604 6.01905 276.067 5.54419C276.376 5.22761 276.839 4.91103 277.303 4.59446C277.766 4.43617 278.384 4.27788 278.848 4.27788C279.466 4.27788 279.929 4.43617 280.393 4.59446C280.856 4.75275 281.32 5.06932 281.783 5.54419C282.092 5.86077 282.401 6.33563 282.71 6.96879C283.019 7.60194 283.173 8.07681 283.173 8.70996ZM283.637 8.70996C283.637 8.07681 283.482 7.44365 283.328 6.96879C283.173 6.33563 282.71 5.86077 282.401 5.3859C281.938 4.91103 281.474 4.59446 280.856 4.43617C280.238 4.27788 279.775 4.11959 279.157 4.11959C278.539 4.11959 277.921 4.27788 277.457 4.43617C276.994 4.59446 276.376 5.06932 276.067 5.3859C275.604 5.86077 275.295 6.33563 274.986 6.96879C274.831 7.60194 274.677 8.07681 274.677 8.70996C274.677 9.34311 274.831 9.97627 274.986 10.4511C275.14 11.0843 275.604 11.5592 275.913 12.034C276.376 12.5089 276.839 12.8255 277.457 13.142C278.075 13.3003 278.539 13.4586 279.157 13.4586C279.775 13.4586 280.393 13.3003 280.856 13.142C281.474 12.9837 281.938 12.5089 282.401 12.034C282.864 11.5592 283.173 11.0843 283.328 10.6094C283.482 9.81798 283.637 9.34311 283.637 8.70996ZM258.456 21.8479L265.407 38.6265H251.349L258.456 21.8479ZM283.637 59.8372L258.456 3.9613L233.274 59.8372H243.007L248.877 46.2243H267.879L273.75 59.8372H283.637Z" fill="#0066B0"/>
<mask id="mask0_130_886" style="mask-type:luminance" maskUnits="userSpaceOnUse" x="88" y="5" width="28" height="56">
<path d="M88.9844 14.2489C99.335 14.2489 107.677 22.7965 107.677 33.4018C107.677 44.0071 99.335 52.5547 88.9844 52.5547V60.7857C103.815 60.7857 115.865 48.4392 115.865 33.2435C115.865 18.0478 103.815 5.70129 88.9844 5.70129V14.2489Z" fill="white"/>
</mask>
<g mask="url(#mask0_130_886)">
<path d="M88.9766 5.85962H115.857V60.7858H88.9766V5.85962Z" fill="url(#paint0_linear_130_886)"/>
</g>
<mask id="mask1_130_886" style="mask-type:luminance" maskUnits="userSpaceOnUse" x="62" y="2" width="39" height="59">
<path d="M88.0553 5.86072C73.6881 6.33558 62.1016 18.5238 62.1016 33.4029C62.1016 48.5986 74.1515 60.9451 88.9823 60.9451V52.7141C78.6316 52.7141 70.2894 44.1665 70.2894 33.5612C70.2894 23.2725 78.3227 14.8832 88.2098 14.4083V17.0992L100.26 9.65964L88.2098 2.69495L88.0553 5.86072Z" fill="white"/>
</mask>
<g mask="url(#mask1_130_886)">
<path d="M62.2422 2.6947H100.246V60.7866H62.2422V2.6947Z" fill="url(#paint1_linear_130_886)"/>
</g>
<path d="M26.8835 43.5341C26.8835 45.4336 26.42 47.1748 25.4931 48.4411C24.5662 49.7074 23.4847 50.6571 21.9399 51.2903C20.395 51.9234 18.6957 52.24 16.6873 52.24H9.58094V35.1448H16.8418C18.3867 35.1448 19.6226 35.3031 20.8585 35.6197C22.0944 35.9363 23.1758 36.4111 24.1027 37.2026C25.0296 37.994 25.802 38.7855 26.2655 39.8935C26.729 40.8432 26.8835 42.1095 26.8835 43.5341ZM23.9482 21.2155C23.9482 22.64 23.6392 23.9064 22.8668 25.0144C22.2489 26.1224 21.1674 26.9138 19.9316 27.3887C18.6957 28.0219 17.3053 28.1801 15.6059 28.1801H9.42646V14.2508H15.6059C18.0777 14.2508 20.086 14.8839 21.4764 15.9919C23.1758 17.2582 23.9482 18.9994 23.9482 21.2155ZM30.2822 33.562C28.7373 32.4539 26.8835 31.6625 24.8751 31.1876H25.0296C27.5014 30.2379 29.3552 28.8133 30.7456 27.0721C32.136 25.1727 32.9084 22.9566 32.9084 20.424C32.9084 17.4165 32.136 14.8839 30.7456 12.9844C29.3552 11.085 27.5014 9.5021 25.0296 8.55237C22.5578 7.44435 19.7771 6.96948 16.3784 6.96948H0.929688V59.8379H17.3053C21.013 59.8379 24.2572 59.363 27.0379 58.255C29.8187 57.1469 31.9815 55.5641 33.5264 53.1897C35.0713 50.9737 35.8437 48.1245 35.8437 44.6422C35.8437 42.1095 35.3802 39.8935 34.2988 38.1523C33.3719 36.2529 31.9815 34.67 30.2822 33.562Z" fill="#0066B0"/>
</g>
<defs>
<linearGradient id="paint0_linear_130_886" x1="102.418" y1="5.86071" x2="102.418" y2="60.8597" gradientUnits="userSpaceOnUse">
<stop stop-color="white"/>
<stop offset="0.75" stop-color="#B0B2B4"/>
<stop offset="1" stop-color="#B0B2B4"/>
</linearGradient>
<linearGradient id="paint1_linear_130_886" x1="81.2458" y1="60.8831" x2="81.2458" y2="2.73192" gradientUnits="userSpaceOnUse">
<stop stop-color="#B0B2B4"/>
<stop offset="0.25" stop-color="#B0B2B4"/>
<stop offset="0.75" stop-color="#0066B0"/>
<stop offset="1" stop-color="#0066B0"/>
</linearGradient>
<clipPath id="clip0_130_886">
<rect width="282.711" height="63.3154" fill="white" transform="translate(0.921875 0.162109)"/>
</clipPath>
</defs>
</svg>
