<svg width="75" height="74" viewBox="0 0 75 74" fill="none" xmlns="http://www.w3.org/2000/svg">
<g id="Layer_1" clip-path="url(#clip0_221_79)">
<path id="Vector" d="M37.2985 0C40.8853 0.0689315 44.4071 0.551452 47.852 1.58542C48.6342 1.8206 49.3029 2.17337 49.5137 3.02893C49.8784 4.49677 48.6423 5.57129 47.0496 5.22258C45.0151 4.7806 42.9887 4.17644 40.9258 3.98181C29.2781 2.8789 19.4743 6.69447 11.847 15.5704C5.95827 22.423 3.44959 30.5326 4.05751 39.5464C5.01397 53.7382 15.377 65.9391 29.2781 69.3492C48.1844 73.9878 67.0542 61.4788 70.1019 42.2672C70.876 37.4055 70.5882 32.5924 69.1981 27.8564C69.1414 27.6618 69.1008 27.4631 69.0481 27.2685C68.728 26.0075 69.1738 25.0749 70.2478 24.7707C71.3218 24.4626 72.2174 25.0059 72.5943 26.2589C74.2155 31.6355 74.6694 37.1095 73.7575 42.6524C72.108 52.7002 67.2447 60.8544 59.0134 66.8555C51.6981 72.1916 43.4507 74.7299 34.4048 73.8175C18.7489 72.2362 7.93198 63.9482 2.43639 49.2455C-3.81302 32.5154 3.63197 13.3281 19.2271 4.74411C24.8686 1.63814 30.883 0.0892055 37.2985 0Z" fill="#72BE44"/>
<path id="Vector_2" d="M11.5959 36.85C11.6324 22.6744 23.1018 11.1385 37.2096 11.098C37.8783 11.098 38.5632 11.1304 39.2198 11.248C40.3383 11.4507 40.9908 12.3833 40.8328 13.4376C40.6909 14.3864 39.8682 14.9743 38.7375 14.8811C28.3177 14.0417 18.3965 21.2471 15.8757 31.7693C12.7672 44.7487 22.0116 57.7038 35.2967 58.8716C48.8938 60.0637 60.197 49.136 59.3865 35.5808C59.3054 34.2306 59.966 33.375 61.117 33.3304C62.2599 33.2858 62.9935 34.0643 63.0786 35.4186C63.9256 48.4548 54.515 60.2623 41.6474 62.3019C29.9916 64.1468 18.8099 58.2552 13.9668 47.7209C12.3781 44.2662 11.5838 40.6128 11.5919 36.85H11.5959Z" fill="#72BE44"/>
<path id="Vector_3" d="M62.2538 12.0139C64.0938 12.0139 65.7392 12.0261 67.3887 12.0099C68.3452 12.0017 69.1192 12.2775 69.5002 13.2304C69.8487 14.1143 69.4718 14.7874 68.8558 15.3997C65.3056 18.9436 61.7837 22.5118 58.197 26.0192C57.7674 26.4368 57.0257 26.7044 56.4137 26.7369C54.5657 26.8301 52.7095 26.7369 50.8573 26.7936C50.444 26.8058 49.9333 27.0085 49.6415 27.3005C45.9251 30.9701 42.2411 34.6721 38.549 38.366C38.2856 38.6296 38.0302 38.9013 37.7506 39.1364C36.8468 39.8947 35.8742 39.8703 35.1365 39.0918C34.4516 38.366 34.4678 37.255 35.246 36.4603C37.1589 34.5099 39.0921 32.5879 41.0212 30.6538C42.999 28.6751 44.997 26.7166 46.9342 24.7014C47.2625 24.3608 47.4814 23.7809 47.5016 23.3025C47.5665 21.5508 47.5462 19.7951 47.5219 18.0434C47.5097 17.1838 47.7813 16.4985 48.4054 15.8822C51.8989 12.4234 55.3722 8.94444 58.8292 5.4492C59.4939 4.78016 60.2396 4.47605 61.1069 4.79638C62.0106 5.13293 62.27 5.91956 62.2579 6.84405C62.2335 8.52274 62.2498 10.2014 62.2498 12.0099L62.2538 12.0139ZM63.3035 16.1052C63.2103 15.9714 63.1171 15.8335 63.0238 15.6997C62.2295 15.6997 61.4351 15.7159 60.6408 15.6997C59.2872 15.6673 58.6063 14.9901 58.5698 13.6318C58.5496 12.8451 58.5698 12.0545 58.5698 11.0002C56.053 13.5142 53.747 15.8133 51.4531 18.1204C51.3477 18.2259 51.2707 18.4164 51.2707 18.5665C51.2586 20.0384 51.2626 21.5143 51.2626 23.0916C52.6487 23.0916 53.9253 23.1403 55.1938 23.0673C55.6437 23.043 56.1787 22.8281 56.5029 22.5199C58.1159 20.9872 59.6519 19.3774 61.2487 17.8285C61.8891 17.2081 62.6226 16.6769 63.3116 16.1052H63.3035Z" fill="#72BE44"/>
<path id="Vector_4" d="M37.4326 51.6094C29.7485 51.6337 23.5437 45.9773 22.6886 38.1759C21.9023 30.9948 27.0575 23.9841 34.2634 22.4757C35.2117 22.277 36.2006 22.2122 37.1692 22.1878C38.3891 22.1513 39.1794 22.8812 39.2078 23.9436C39.2361 25.0424 38.4418 25.7966 37.1814 25.8534C32.8003 26.0439 29.5581 28.0835 27.5155 31.9396C25.4972 35.7511 26.1051 40.6858 28.9015 43.9742C31.8114 47.3924 36.4438 48.7711 40.5938 47.4533C44.9384 46.0746 47.9618 42.3604 48.3387 37.9326C48.3711 37.5636 48.3874 37.1906 48.436 36.8256C48.59 35.6781 49.356 34.9929 50.3813 35.0618C51.3905 35.1307 52.1443 35.9295 52.1159 37.0568C52.0632 39.4491 51.4918 41.7157 50.3611 43.8364C47.8038 48.6291 42.8796 51.5932 37.4286 51.6094H37.4326Z" fill="#72BE44"/>
</g>
<defs>
<clipPath id="clip0_221_79">
<rect width="74" height="74" fill="white" transform="translate(0.227539)"/>
</clipPath>
</defs>
</svg>
