<svg width="98" height="95" viewBox="0 0 98 95" fill="none" xmlns="http://www.w3.org/2000/svg">
<g clip-path="url(#clip0_325_538)">
<path d="M79.5045 70.6402C79.1945 70.61 78.8769 70.6288 78.5631 70.6288H5.05369C3.68127 70.6288 3.27295 70.2742 3.27295 69.0406C3.26917 49.8913 3.26917 30.7457 3.27295 11.5964C3.27295 10.4156 3.68127 10.0119 4.86087 10.0044C6.81174 9.99305 8.76262 10.0081 10.7135 9.99683C11.8364 9.99305 12.4829 9.49508 12.5094 8.63872C12.5396 7.74086 11.8742 7.17875 10.7097 7.17121C8.79286 7.15989 6.87223 7.16366 4.95539 7.17121C2.0631 7.17875 0.433594 8.78585 0.433594 11.653C0.433594 30.7683 0.433594 49.8837 0.433594 69.0029C0.433594 71.8247 2.05554 73.4469 4.87221 73.4582C7.63973 73.4658 10.411 73.4582 13.1785 73.4582H14.1994C14.1994 74.3674 14.1994 75.1181 14.2031 75.8689C14.2031 78.5889 15.3827 79.781 18.0935 79.7848C22.1843 79.7923 26.2713 79.7885 30.3621 79.7885H31.5379C31.3262 80.2261 31.1901 80.5317 31.0389 80.826C29.122 84.5683 27.2014 88.3069 25.2883 92.0455C25.1447 92.3246 24.9934 92.6038 24.8876 92.8981C24.604 93.6639 24.8535 94.2939 25.5605 94.641C26.2562 94.9843 26.9141 94.8183 27.3715 94.1392C27.5303 93.9053 27.6513 93.6488 27.7799 93.396C29.9576 89.1557 32.1466 84.9229 34.2941 80.6675C34.6193 80.0187 34.9709 79.7621 35.7195 79.7697C40.3131 79.8074 44.9029 79.8036 49.4966 79.7697C50.1922 79.7659 50.5476 79.9922 50.8614 80.6109C53.024 84.8965 55.2282 89.1595 57.4248 93.4224C57.595 93.7582 57.7651 94.109 58.0146 94.3769C58.5099 94.905 59.2131 95.0107 59.7084 94.5542C60.0751 94.2184 60.2264 93.5771 60.3133 93.0414C60.3625 92.7585 60.0827 92.4114 59.9239 92.1058C57.9957 88.3371 56.0637 84.5721 54.1318 80.8033C53.9805 80.5129 53.8407 80.2148 53.6592 79.8376C54.0524 79.8149 54.2981 79.7885 54.5477 79.7885C58.7935 79.7848 63.0393 79.7999 67.2851 79.781C69.7085 79.7734 70.9826 78.5059 71.0015 76.1443C71.0091 75.2728 71.0015 74.4051 71.0015 73.4582C72.7104 73.4582 74.3097 73.462 75.9052 73.4582C77.0999 73.4582 78.2984 73.4884 79.4894 73.4394C80.3287 73.4016 80.858 72.8094 80.8618 72.0473C80.8618 71.2853 80.3325 70.7232 79.5007 70.6402H79.5045ZM68.1357 76.3895C68.1244 76.5819 67.8333 76.8422 67.6178 76.9101C67.3304 77.0044 66.9977 76.9478 66.6801 76.9478H18.4792C17.5214 76.9478 17.0425 76.4687 17.0425 75.5105V73.4884H68.1584C68.1584 74.473 68.1887 75.435 68.1357 76.3895Z" fill="#72BE44"/>
<path d="M96.9232 73.7613C96.7568 72.9201 96.3976 72.0826 95.9704 71.3356C93.4297 66.8652 90.8399 62.4211 88.2387 57.9281C88.5715 57.5244 88.8966 57.1434 89.2028 56.751C92.4127 52.6314 93.7889 47.9422 93.0328 42.8078C91.4751 32.2673 82.129 25.5107 71.5769 27.1216C62.0418 28.5778 55.0058 38.0318 56.348 47.5838C57.8452 58.2676 67.3841 65.2317 78.095 63.4246C78.7528 63.3114 79.0288 63.4661 79.3388 64.0094C81.7661 68.2572 84.2236 72.49 86.6773 76.7265C86.8966 77.1076 87.1196 77.4886 87.3805 77.8394C88.8323 79.7898 91.5809 80.5255 93.8002 79.5786C96.0725 78.6053 97.4109 76.2059 96.9232 73.7613ZM74.9153 60.9159C66.1364 60.9159 59.0815 54.0499 59.0777 45.5051C59.0702 36.6736 65.989 29.6681 74.6998 29.6794C83.2557 29.6945 90.424 36.7453 90.3749 45.1015C90.3219 53.8952 83.4599 60.9197 74.9153 60.9159ZM92.4845 77.0397C91.4297 77.3905 90.2426 77.1 89.6565 76.1192C86.976 71.5959 84.3559 67.0425 81.7131 62.4966C83.1952 61.644 84.5979 60.8291 86.0686 59.9803C86.1518 60.0935 86.2917 60.2444 86.3937 60.4179C88.8437 64.6431 91.2974 68.8684 93.7284 73.1049C94.6774 74.7611 94.1027 76.5002 92.4845 77.0397Z" fill="#72BE44"/>
<path d="M66.5976 18.6854C66.0456 16.8407 64.7677 15.6938 62.8735 15.3581C61.0058 15.0299 59.4444 15.6863 58.3139 17.1953C57.1835 18.7081 57.0776 20.3831 57.8829 22.0769C58.1135 22.5636 58.2723 22.8956 57.8943 23.4162C55.5615 26.6115 53.278 29.8408 50.9528 33.0437C50.7864 33.2738 50.3857 33.5341 50.1513 33.4888C48.5482 33.1644 47.172 33.6133 45.8601 34.6281C44.3062 33.7491 42.7863 32.9229 41.3118 32.0251C41.0472 31.8629 40.8166 31.4026 40.8203 31.0857C40.8733 28.2639 38.8317 26.0343 36.1171 26.0192C33.4063 26.0041 31.3004 28.2261 31.4214 31.0518C31.444 31.6327 31.2248 31.8855 30.7711 32.1307C29.531 32.806 28.2985 33.5001 27.0848 34.2245C26.5782 34.5263 26.2342 34.5527 25.6822 34.1905C24.0073 33.0852 22.2379 33.104 20.5328 34.1679C18.9562 35.1487 18.1433 37.0916 18.476 38.8911C18.9411 41.396 21.115 43.0069 23.6859 42.7541C26.0451 42.5165 27.8939 40.3963 27.7843 37.9329C27.754 37.2463 27.9809 36.9256 28.5442 36.6276C29.7919 35.9674 31.0168 35.2581 32.2342 34.5414C32.6577 34.2886 32.9564 34.2546 33.41 34.5602C35.1794 35.7523 37.0093 35.7561 38.7825 34.564C39.2324 34.2584 39.5349 34.2848 39.9583 34.5376C41.2022 35.2695 42.4498 36.0013 43.7315 36.6653C44.2986 36.9595 44.4461 37.2991 44.4158 37.9215C44.3251 39.9549 45.4896 41.7054 47.3195 42.4448C49.1342 43.1804 51.312 42.6825 52.5823 41.2414C53.9396 39.7022 54.208 37.6311 53.191 35.8202C52.9188 35.3374 52.9944 35.0657 53.2817 34.6696C55.6031 31.463 57.9094 28.2488 60.2005 25.0233C60.4916 24.6121 60.745 24.5064 61.278 24.6008C64.6845 25.2119 67.5844 21.9826 66.5976 18.6854ZM23.0772 39.9398C22.0678 39.9247 21.2171 39.0571 21.2398 38.0649C21.2587 37.0803 22.1623 36.205 23.1377 36.2239C24.1245 36.2428 24.9865 37.1331 24.9714 38.1215C24.9525 39.1325 24.098 39.9549 23.0772 39.9398ZM36.0755 32.5872C35.0774 32.5721 34.2191 31.7006 34.2342 30.7085C34.2494 29.7163 35.1379 28.8486 36.1208 28.8637C37.1152 28.8826 37.9848 29.7691 37.9696 30.7537C37.9545 31.7459 37.0736 32.5985 36.0755 32.5872ZM49.0473 39.9398C48.0227 39.9172 47.2136 39.0684 47.2401 38.046C47.2628 37.0463 48.1512 36.1937 49.138 36.2277C50.1286 36.2616 50.9944 37.1633 50.9641 38.1366C50.9339 39.1363 50.053 39.9662 49.0473 39.9398ZM62.0266 21.8393C61.0134 21.8053 60.2157 20.9452 60.2421 19.9228C60.2686 18.9118 61.1495 18.0743 62.1401 18.112C63.1457 18.1535 63.97 19.0363 63.9397 20.036C63.9057 21.0395 63.0248 21.8732 62.0266 21.8393Z" fill="#72BE44"/>
<path d="M84.7758 11.9826C84.7758 8.6892 83.2408 7.17264 79.91 7.16887H50.454C50.454 6.23328 50.4654 5.42219 50.454 4.6111C50.42 2.39663 49.0438 0.929115 46.8245 0.887617C43.9965 0.831029 41.1647 0.827257 38.3367 0.887617C36.1514 0.932887 34.8017 2.36645 34.7563 4.54697C34.7412 5.38824 34.7563 6.22574 34.7563 7.16887H33.6485C28.2723 7.16887 22.896 7.16887 17.5198 7.17264C17.1757 7.17264 16.8204 7.16887 16.4914 7.24809C15.7542 7.4254 15.3383 7.93469 15.3912 8.68165C15.4442 9.4173 15.8978 9.88509 16.6578 9.9794C17.0283 10.0209 17.4102 10.002 17.7882 10.002H80.0423C81.5886 10.002 81.9364 10.3453 81.9402 11.8732C81.944 15.857 81.9402 19.8408 81.9402 23.8246C81.9402 24.1716 81.8381 24.6055 82.0045 24.8394C82.3145 25.2845 82.7606 25.8768 83.203 25.9221C83.6453 25.9674 84.2351 25.5033 84.5943 25.111C84.8174 24.8658 84.772 24.3376 84.772 23.9377C84.7834 19.9502 84.7796 15.9664 84.7796 11.9826H84.7758ZM47.6185 7.13115H37.607C37.607 6.21065 37.5616 5.28261 37.641 4.36966C37.6599 4.13576 38.0607 3.75474 38.2913 3.75096C41.1458 3.70569 43.9965 3.69815 46.851 3.75474C47.1118 3.76228 47.5391 4.27912 47.5806 4.59978C47.6903 5.39578 47.6185 6.21442 47.6185 7.13115Z" fill="#72BE44"/>
<path d="M38.3891 42.7889C36.8806 42.7813 35.372 42.7813 33.8635 42.7889C32.2567 42.7926 31.7992 43.2529 31.7954 44.8713C31.7917 47.9459 31.7954 51.0167 31.7954 54.0876C31.7954 57.1584 31.7879 60.2972 31.7992 63.3982C31.803 64.8355 32.2983 65.3372 33.7161 65.3448C35.2851 65.3561 36.8579 65.3523 38.4269 65.3448C39.909 65.3372 40.4005 64.8544 40.4042 63.3604C40.408 57.1848 40.408 51.0092 40.4042 44.8336C40.4005 43.2717 39.9279 42.7964 38.3891 42.7889ZM37.493 62.4399H34.6877V45.6598H37.493V62.4399Z" fill="#72BE44"/>
<path d="M53.3739 51.794C53.3663 50.5113 52.8786 50.0473 51.5818 50.0322C49.9787 50.0096 48.3757 50.0171 46.7727 50.0285C45.2603 50.036 44.7953 50.5 44.7915 51.9902C44.7878 53.8727 44.7915 55.7552 44.7915 57.6376C44.7915 59.5201 44.784 61.5271 44.7953 63.4737C44.8029 64.8356 45.3057 65.3336 46.6857 65.3449C48.2887 65.3562 49.8956 65.3562 51.4986 65.3449C52.8446 65.3336 53.3663 64.8658 53.3739 63.5567C53.3928 59.6371 53.3928 55.7137 53.3739 51.794ZM50.474 62.4627H47.6838V52.9182H50.474V62.4627Z" fill="#72BE44"/>
<path d="M27.4085 51.8345C27.3972 50.5631 26.9057 50.0501 25.6467 50.0312C23.9794 50.0086 22.312 50.0124 20.6447 50.0312C19.3101 50.0425 18.8148 50.5216 18.8111 51.8533C18.7921 55.7428 18.7921 59.6323 18.8111 63.5255C18.8148 64.8384 19.3404 65.3326 20.6636 65.3439C22.2667 65.359 23.8697 65.3552 25.4728 65.3439C26.9057 65.3364 27.4009 64.8422 27.4085 63.4124C27.4198 61.5299 27.4123 59.6474 27.4123 57.7649C27.4123 55.7881 27.4236 53.8113 27.4085 51.8345ZM24.5162 62.4843H21.7222V52.9474H24.5162V62.4843Z" fill="#72BE44"/>
<path d="M60.6388 62.5157C62.0604 62.5157 63.3421 62.5044 64.6275 62.5157C65.7315 62.527 66.3515 63.0552 66.3402 63.9417C66.3289 64.7868 65.7202 65.3262 64.6729 65.3376C62.9451 65.3602 61.2211 65.364 59.4932 65.3376C58.3363 65.3225 57.8221 64.7981 57.8032 63.6625C57.7843 62.4403 57.7843 61.218 57.8032 59.9994C57.8184 58.9808 58.3817 58.3697 59.2361 58.381C60.0528 58.3961 60.5821 58.9846 60.6312 59.9579C60.6502 60.3654 60.635 60.7728 60.635 61.1802C60.635 61.5839 60.635 61.9838 60.635 62.5119L60.6388 62.5157Z" fill="#72BE44"/>
<path d="M88.1313 45.9771C87.6209 52.496 83.4394 57.1853 77.0234 58.5019C69.753 59.9996 62.0856 54.3295 61.3786 46.9429C60.717 40.0127 64.5356 34.3426 71.2351 32.3885C72.3428 32.0678 73.5149 31.9848 74.1047 31.8867C77.5943 31.9131 80.2371 32.7808 82.6114 34.4634C83.3827 35.0104 83.5755 35.8252 83.1256 36.5043C82.6719 37.1833 81.8666 37.3531 81.0499 36.7948C79.0424 35.4291 76.8646 34.6671 74.4223 34.7312C68.8154 34.8783 64.3465 39.3261 64.1197 44.9774C63.9004 50.4249 68.0063 55.1594 73.4922 55.7894C81.2919 56.6797 87.2958 49.1272 84.6492 41.7481C84.532 41.4237 84.4073 41.0992 84.3127 40.7672C84.0594 39.8958 84.3619 39.1866 85.0954 38.8961C85.8175 38.6094 86.5509 38.9263 86.9366 39.76C87.8515 41.7292 88.2977 43.8117 88.1313 45.9771Z" fill="#72BE44"/>
</g>
<defs>
<clipPath id="clip0_325_538">
<rect width="96.5872" height="94" fill="white" transform="translate(0.433594 0.841797)"/>
</clipPath>
</defs>
</svg>
