<svg width="261" height="31" viewBox="0 0 261 31" fill="none" xmlns="http://www.w3.org/2000/svg">
<g clip-path="url(#clip0_277_1391)">
<path d="M0.501953 15.5886V15.5082C0.501953 7.33207 6.65146 0.568359 15.2191 0.568359C19.9166 0.568359 22.9075 2.09565 25.6091 4.32343C25.9388 4.61051 26.2744 5.0641 26.2744 5.64401C26.2744 6.51101 25.4876 7.25169 24.614 7.25169C24.157 7.25169 23.781 7.04499 23.5322 6.87848C21.2876 4.89759 18.7538 3.57701 15.1786 3.57701C8.73408 3.58275 3.90935 8.77898 3.90935 15.4221V15.5025C3.90935 22.1858 8.77458 27.428 15.1728 27.428C18.7885 27.428 21.3224 26.1878 23.8215 23.9198C24.0703 23.6729 24.4463 23.4662 24.8628 23.4662C25.6959 23.4662 26.4421 24.2069 26.4421 25.0337C26.4421 25.5275 26.1934 25.9409 25.9041 26.1878C23.0347 28.7888 19.8761 30.4366 15.0976 30.4366C6.69774 30.4366 0.501953 23.8796 0.501953 15.5886Z" fill="#8C8C8C"/>
<path d="M31.4668 2.50908C31.4668 1.60189 32.2131 0.855469 33.0866 0.855469C33.9602 0.855469 34.7469 1.59615 34.7469 2.50908V13.8948H51.5409V2.50908C51.5409 1.60189 52.2872 0.855469 53.2012 0.855469C54.1153 0.855469 54.821 1.59615 54.821 2.50908V28.5017C54.821 29.4089 54.0748 30.1496 53.2012 30.1496C52.3277 30.1496 51.5409 29.4089 51.5409 28.5017V16.9494H34.7469V28.5017C34.7469 29.4089 34.0007 30.1496 33.0866 30.1496C32.1726 30.1496 31.4668 29.4089 31.4668 28.5017V2.50908Z" fill="#8C8C8C"/>
<path d="M60.7305 15.5887V15.5084C60.7305 7.54463 66.7585 0.574219 75.6096 0.574219C84.4607 0.574219 90.4078 7.46425 90.4078 15.428V15.5084C90.4078 23.4721 84.3798 30.4425 75.5286 30.4425C66.6775 30.4425 60.7305 23.5525 60.7305 15.5887ZM87.0004 15.5887V15.5084C87.0004 8.95135 82.1814 3.58286 75.5286 3.58286C68.8758 3.58286 64.1379 8.86522 64.1379 15.4222V15.5026C64.1379 22.0596 68.9626 27.4281 75.6096 27.4281C82.2566 27.4281 87.0004 22.1458 87.0004 15.5887Z" fill="#8C8C8C"/>
<path d="M95.0645 15.5887V15.5084C95.0645 7.33793 101.214 0.574219 109.782 0.574219C114.479 0.574219 117.47 2.10151 120.172 4.32928C120.501 4.61637 120.837 5.06996 120.837 5.64987C120.837 6.51687 120.044 7.25755 119.177 7.25755C118.72 7.25755 118.343 7.05085 118.095 6.88434C115.85 4.90345 113.316 3.58286 109.741 3.58286C103.297 3.58286 98.4776 8.7791 98.4776 15.4222V15.5026C98.4776 22.1859 103.343 27.4281 109.741 27.4281C113.357 27.4281 115.891 26.1879 118.39 23.9199C118.639 23.673 119.015 23.4663 119.431 23.4663C120.264 23.4663 121.01 24.207 121.01 25.0338C121.01 25.5276 120.762 25.941 120.472 26.1879C117.603 28.7889 114.444 30.4368 109.666 30.4368C101.272 30.4368 95.076 23.8797 95.076 15.583L95.0645 15.5887Z" fill="#8C8C8C"/>
<path d="M123.912 15.5887V15.5084C123.912 7.54463 129.94 0.574219 138.791 0.574219C147.642 0.574219 153.589 7.46425 153.589 15.428V15.5084C153.589 23.4721 147.561 30.4425 138.71 30.4425C129.859 30.4425 123.912 23.5525 123.912 15.5887ZM150.182 15.5887V15.5084C150.182 8.95135 145.363 3.58286 138.71 3.58286C132.057 3.58286 127.32 8.86522 127.32 15.4222V15.5026C127.32 22.0596 132.138 27.4281 138.791 27.4281C145.444 27.4281 150.182 22.1458 150.182 15.5887Z" fill="#8C8C8C"/>
<path d="M156.293 3.24975C156.212 3.00286 156.125 2.75597 156.125 2.50908C156.125 1.64208 156.918 0.855469 157.832 0.855469C158.665 0.855469 159.289 1.47557 159.538 2.21625L167.562 25.1543L175.169 2.13587C175.418 1.39519 175.916 0.855469 176.789 0.855469H176.997C177.831 0.855469 178.369 1.38945 178.617 2.13587L186.225 25.1543L194.289 2.13587C194.538 1.39519 195.082 0.855469 195.868 0.855469C196.742 0.855469 197.529 1.64208 197.529 2.46314C197.529 2.71004 197.407 2.99712 197.32 3.24975L188.006 28.9094C187.717 29.7362 187.133 30.3103 186.3 30.3103H186.051C185.218 30.3103 184.64 29.7304 184.344 28.9094L176.778 6.71199L169.251 28.9094C168.962 29.7362 168.378 30.3103 167.545 30.3103H167.296C166.463 30.3103 165.884 29.7764 165.589 28.9094L156.281 3.24975H156.293Z" fill="#8C8C8C"/>
<path d="M203.102 2.50908C203.102 1.60189 203.848 0.855469 204.721 0.855469C205.595 0.855469 206.382 1.59615 206.382 2.50908V28.5017C206.382 29.4089 205.635 30.1496 204.721 30.1496C203.807 30.1496 203.102 29.4089 203.102 28.5017V2.50908Z" fill="#8C8C8C"/>
<path d="M212.867 26.4747C212.491 26.2278 212.242 25.7742 212.242 25.2345C212.242 24.3273 212.948 23.6268 213.821 23.6268C214.238 23.6268 214.614 23.7933 214.817 24C217.559 26.3082 220.301 27.4221 224.003 27.4221C227.908 27.4221 230.488 25.3608 230.488 22.5129V22.4325C230.488 19.7512 229.036 18.2239 222.921 16.9435C216.228 15.5023 213.15 13.3549 213.15 8.61228V8.5319C213.15 3.99596 217.183 0.654297 222.713 0.654297C226.537 0.654297 229.32 1.60168 231.981 3.50218C232.311 3.74907 232.687 4.20266 232.687 4.82276C232.687 5.68976 231.981 6.39025 231.107 6.39025C230.731 6.39025 230.442 6.30986 230.153 6.10316C227.7 4.32898 225.334 3.5883 222.632 3.5883C218.849 3.5883 216.436 5.64957 216.436 8.25056V8.33094C216.436 11.0525 217.935 12.5798 224.333 13.9406C230.818 15.3415 233.809 17.6956 233.809 22.111V22.1914C233.809 27.1407 229.649 30.3618 223.876 30.3618C219.635 30.3618 216.101 29.0412 212.861 26.4862L212.867 26.4747Z" fill="#8C8C8C"/>
<path d="M239.51 28.2955V2.71622C239.51 1.80904 240.256 1.06836 241.13 1.06836H259.214C260.047 1.06836 260.712 1.72865 260.712 2.55546C260.712 3.38226 260.047 4.04256 259.214 4.04256H242.796V13.901H257.345C258.178 13.901 258.843 14.6015 258.843 15.3881C258.843 16.2149 258.178 16.8752 257.345 16.8752H242.796V26.9806H259.422C260.255 26.9806 260.92 27.6409 260.92 28.4677C260.92 29.2945 260.255 29.9548 259.422 29.9548H241.13C240.256 29.9548 239.51 29.2141 239.51 28.3069V28.2955Z" fill="#8C8C8C"/>
</g>
<defs>
<clipPath id="clip0_277_1391">
<rect width="260.414" height="29.8683" fill="white" transform="translate(0.501953 0.568359)"/>
</clipPath>
</defs>
</svg>
