<svg width="280" height="33" viewBox="0 0 280 33" fill="none" xmlns="http://www.w3.org/2000/svg">
<g clip-path="url(#clip0_130_984)">
<path d="M0.59375 16.2544V16.1683C0.59375 7.40855 7.18215 0.162109 16.3613 0.162109C21.394 0.162109 24.5984 1.7984 27.4928 4.18518C27.8461 4.49275 28.2055 4.97872 28.2055 5.60002C28.2055 6.52889 27.3626 7.32243 26.4267 7.32243C25.9371 7.32243 25.5342 7.10098 25.2677 6.92259C22.8629 4.80033 20.1482 3.38548 16.3179 3.38548C9.41341 3.39164 4.24433 8.95873 4.24433 16.076V16.1621C4.24433 23.3224 9.4568 28.9387 16.3117 28.9387C20.1854 28.9387 22.9001 27.61 25.5776 25.1802C25.8441 24.9157 26.247 24.6942 26.6933 24.6942C27.5858 24.6942 28.3853 25.4878 28.3853 26.3736C28.3853 26.9026 28.1188 27.3455 27.8089 27.61C24.7347 30.3966 21.3506 32.1621 16.2311 32.1621C7.23174 32.1621 0.59375 25.1371 0.59375 16.2544Z" fill="#753C2C"/>
<path d="M33.7734 2.24135C33.7734 1.26942 34.573 0.469727 35.5089 0.469727C36.4447 0.469727 37.2877 1.26327 37.2877 2.24135V14.4397H55.2803V2.24135C55.2803 1.26942 56.0798 0.469727 57.0591 0.469727C58.0383 0.469727 58.7945 1.26327 58.7945 2.24135V30.0891C58.7945 31.061 57.995 31.8546 57.0591 31.8546C56.1232 31.8546 55.2803 31.061 55.2803 30.0891V17.7123H37.2877V30.0891C37.2877 31.061 36.4881 31.8546 35.5089 31.8546C34.5296 31.8546 33.7734 31.061 33.7734 30.0891V2.24135Z" fill="#753C2C"/>
<path d="M65.1172 16.2543V16.1682C65.1172 7.63611 71.5754 0.168213 81.0583 0.168213C90.5411 0.168213 96.9126 7.54999 96.9126 16.0821V16.1682C96.9126 24.7003 90.4543 32.1682 80.9715 32.1682C71.4887 32.1682 65.1172 24.7864 65.1172 16.2543ZM93.262 16.2543V16.1682C93.262 9.14322 88.0991 3.39159 80.9715 3.39159C73.8439 3.39159 68.7678 9.05095 68.7678 16.0759V16.1621C68.7678 23.1871 73.9368 28.9387 81.0583 28.9387C88.1797 28.9387 93.262 23.2793 93.262 16.2543Z" fill="#753C2C"/>
<path d="M101.906 16.2543V16.1682C101.906 7.41466 108.495 0.168213 117.674 0.168213C122.707 0.168213 125.911 1.80451 128.805 4.19128C129.159 4.49885 129.518 4.98482 129.518 5.60612C129.518 6.535 128.669 7.32854 127.739 7.32854C127.25 7.32854 126.847 7.10708 126.58 6.92869C124.175 4.80643 121.461 3.39159 117.63 3.39159C110.726 3.39159 105.563 8.95868 105.563 16.0759V16.1621C105.563 23.3224 110.775 28.9387 117.63 28.9387C121.504 28.9387 124.219 27.61 126.896 25.1801C127.163 24.9156 127.566 24.6942 128.012 24.6942C128.904 24.6942 129.704 25.4877 129.704 26.3735C129.704 26.9025 129.437 27.3455 129.128 27.61C126.053 30.3966 122.669 32.1621 117.55 32.1621C108.557 32.1621 101.919 25.1371 101.919 16.2482L101.906 16.2543Z" fill="#753C2C"/>
<path d="M132.812 16.2543V16.1682C132.812 7.63611 139.271 0.168213 148.754 0.168213C158.236 0.168213 164.608 7.54999 164.608 16.0821V16.1682C164.608 24.7003 158.15 32.1682 148.667 32.1682C139.184 32.1682 132.812 24.7864 132.812 16.2543ZM160.957 16.2543V16.1682C160.957 9.14322 155.794 3.39159 148.667 3.39159C141.539 3.39159 136.463 9.05095 136.463 16.0759V16.1621C136.463 23.1871 141.626 28.9387 148.754 28.9387C155.881 28.9387 160.957 23.2793 160.957 16.2543Z" fill="#753C2C"/>
<path d="M167.508 3.03489C167.421 2.77038 167.328 2.50587 167.328 2.24135C167.328 1.31248 168.177 0.469727 169.157 0.469727C170.049 0.469727 170.718 1.13409 170.985 1.92763L179.581 26.5028L187.732 1.84151C187.998 1.04797 188.531 0.469727 189.467 0.469727H189.69C190.583 0.469727 191.159 1.04181 191.426 1.84151L199.576 26.5028L208.216 1.84151C208.482 1.04797 209.065 0.469727 209.908 0.469727C210.844 0.469727 211.687 1.31248 211.687 2.19214C211.687 2.45665 211.557 2.76423 211.464 3.03489L201.485 30.5259C201.175 31.4117 200.549 32.0268 199.657 32.0268H199.39C198.498 32.0268 197.878 31.4055 197.562 30.5259L189.455 6.74424L181.391 30.5259C181.081 31.4117 180.455 32.0268 179.563 32.0268H179.296C178.404 32.0268 177.784 31.4547 177.468 30.5259L167.495 3.03489H167.508Z" fill="#753C2C"/>
<path d="M217.648 2.24135C217.648 1.26942 218.448 0.469727 219.384 0.469727C220.32 0.469727 221.163 1.26327 221.163 2.24135V30.0891C221.163 31.061 220.363 31.8546 219.384 31.8546C218.405 31.8546 217.648 31.061 217.648 30.0891V2.24135Z" fill="#753C2C"/>
<path d="M228.115 27.9176C227.712 27.6531 227.445 27.1671 227.445 26.5889C227.445 25.6169 228.201 24.8665 229.137 24.8665C229.584 24.8665 229.986 25.0449 230.203 25.2663C233.141 27.7392 236.079 28.9326 240.046 28.9326C244.229 28.9326 246.994 26.7242 246.994 23.6731V23.587C246.994 20.7142 245.438 19.0779 238.887 17.7061C231.716 16.1621 228.418 13.8615 228.418 8.78035V8.69423C228.418 3.83456 232.738 0.254395 238.664 0.254395C242.76 0.254395 245.742 1.26939 248.593 3.30553C248.946 3.57004 249.349 4.05601 249.349 4.72037C249.349 5.64924 248.593 6.39972 247.657 6.39972C247.254 6.39972 246.944 6.3136 246.634 6.09215C244.006 4.19134 241.471 3.3978 238.577 3.3978C234.523 3.3978 231.939 5.60618 231.939 8.3928V8.47892C231.939 11.3947 233.544 13.031 240.399 14.4889C247.347 15.9899 250.551 18.512 250.551 23.2425V23.3286C250.551 28.6312 246.095 32.0822 239.909 32.0822C235.366 32.0822 231.579 30.6673 228.108 27.9299L228.115 27.9176Z" fill="#753C2C"/>
<path d="M256.664 29.8676V2.46274C256.664 1.49081 257.464 0.697266 258.399 0.697266H277.774C278.667 0.697266 279.379 1.40469 279.379 2.2905C279.379 3.17631 278.667 3.88373 277.774 3.88373H260.184V14.4458H275.772C276.665 14.4458 277.378 15.1963 277.378 16.0391C277.378 16.9249 276.665 17.6323 275.772 17.6323H260.184V28.4589H277.997C278.89 28.4589 279.603 29.1663 279.603 30.0521C279.603 30.9379 278.89 31.6454 277.997 31.6454H258.399C257.464 31.6454 256.664 30.8518 256.664 29.8799V29.8676Z" fill="#753C2C"/>
</g>
<defs>
<clipPath id="clip0_130_984">
<rect width="279" height="32" fill="white" transform="translate(0.59375 0.162109)"/>
</clipPath>
</defs>
</svg>
