<svg width="95" height="95" viewBox="0 0 95 95" fill="none" xmlns="http://www.w3.org/2000/svg">
<g clip-path="url(#clip0_361_223)">
<path d="M94.4677 34.342C94.4529 32.2356 93.3332 30.6354 91.5482 29.4898C91.1676 29.2458 90.835 28.843 90.6169 28.4402C89.7041 26.7366 88.8652 24.9922 87.9524 23.2886C87.6974 22.8156 87.6161 22.4645 87.8896 21.9508C89.3087 19.2715 88.9872 16.2929 87.0914 14.0201C85.2362 11.7954 82.2871 10.9713 79.4046 11.8102C79.072 11.9062 78.5694 11.8139 78.2848 11.6106C76.2116 10.1324 74.1643 8.6098 72.1317 7.07244C71.8471 6.8581 71.5626 6.49594 71.4998 6.15964C70.4761 0.701286 64.8773 -1.70453 60.2652 1.33692C59.9881 1.5217 59.5224 1.59192 59.1935 1.50692C52.8187 -0.0969559 46.3847 -0.444339 39.8879 0.579333C33.6202 1.56605 27.7812 3.73165 22.382 7.07244C21.5394 7.59352 21.3066 8.39176 21.75 9.09761C22.2231 9.85151 22.9954 9.9439 24.0043 9.32674C28.8862 6.34072 34.145 4.3562 39.7844 3.41753C41.7357 3.09601 43.7202 2.95189 45.7416 2.71907V45.8168H40.0394V44.7561C40.0357 42.3577 40.0653 39.9593 40.0283 37.5609C39.9803 34.1388 37.386 31.5667 33.9713 31.5556C29.3888 31.5371 24.8063 31.5334 20.2238 31.5556C17.6627 31.5704 15.4047 33.2038 14.6508 35.6281C14.4106 36.4005 14.3552 37.2578 14.3441 38.0783C14.3072 40.6245 14.3293 43.1744 14.3293 45.7909H2.78808C2.78808 45.5803 2.78068 45.462 2.79177 45.34C2.82873 44.819 2.86568 44.2979 2.91003 43.7768C3.9374 31.903 8.92272 21.9951 17.7219 13.9832C18.0397 13.6949 18.3982 13.4436 18.6716 13.1147C19.1742 12.5197 19.1816 11.8582 18.6494 11.2817C18.1505 10.7384 17.5186 10.6867 16.8941 11.0747C16.5836 11.2669 16.3139 11.5256 16.0367 11.7695C10.7483 16.4444 6.6869 22.0136 3.87457 28.4846C1.44658 34.076 0.160528 39.9223 0.00161843 46.0126C-0.0427284 47.6313 0.82573 48.5404 2.42961 48.6439C2.7659 48.6661 3.10589 48.655 3.44219 48.655H44.7438C44.4925 49.1058 44.3226 49.42 44.1452 49.7304C37.3564 61.4897 30.564 73.2527 23.7789 85.012C22.7811 86.7452 23.1248 87.9425 24.8802 88.8812C31.3031 92.3181 38.1583 94.2324 45.4275 94.4541C58.5579 94.8532 70.04 90.6403 79.6189 81.6268C88.4994 73.2711 93.5069 62.9383 94.3014 50.754C94.6599 45.3031 94.501 39.8115 94.4677 34.342ZM37.2382 45.8131H34.3076V39.5934C34.3076 39.2867 34.3223 38.9763 34.2965 38.6732C34.2226 37.8085 33.6571 37.2652 32.8774 37.2837C32.1013 37.2985 31.5507 37.8602 31.5396 38.7361C31.5174 40.7354 31.5322 42.731 31.5322 44.7303V45.8242H22.8439V39.708C22.8402 39.3384 22.8661 38.9652 22.8217 38.5993C22.722 37.7493 22.1159 37.2024 21.3361 37.2911C20.5083 37.3835 20.0759 37.8898 20.0722 38.7176C20.0612 40.8056 20.0685 42.8973 20.0649 44.989C20.0649 45.2329 20.0427 45.4768 20.0279 45.7983H17.1084V40.898C17.1084 39.7302 17.0788 38.5587 17.1269 37.3946C17.1934 35.6318 18.5201 34.3383 20.2903 34.3309C24.8728 34.3125 29.4516 34.3125 34.0341 34.3309C35.7193 34.3383 37.1495 35.5246 37.2086 37.1876C37.3158 40.0406 37.2382 42.8973 37.2382 45.8131ZM81.633 14.2381C84.0019 14.2308 85.9864 16.2042 85.9938 18.5767C86.0012 20.9678 84.0573 22.9116 81.6589 22.9153C79.2383 22.919 77.3203 21.0121 77.3166 18.6026C77.3129 16.1968 79.242 14.2455 81.633 14.2381ZM64.4412 2.78189C66.8175 2.78559 68.7946 4.75163 68.7983 7.12418C68.802 9.49674 66.8323 11.4554 64.4449 11.4554C62.0576 11.4554 60.1211 9.54108 60.1174 7.12788C60.1174 4.71837 62.0465 2.78189 64.4412 2.78189ZM48.6279 2.82254C51.7691 2.87798 54.8401 3.33253 57.9592 4.08273C57.124 6.26312 57.0686 8.38067 58.1477 10.4317C58.9348 11.9247 60.1174 13.0149 61.6769 13.6764C65.2432 15.1842 68.2513 13.9536 71.2226 9.70369C72.9632 11.0082 74.7001 12.3091 76.267 13.4806C75.5686 15.0586 74.944 16.4666 74.2825 17.9596C72.3386 16.8103 70.003 17.2316 67.7266 17.202C64.4671 17.1576 61.2039 17.1835 57.9444 17.1946C54.1638 17.202 51.6176 19.6965 51.5991 23.4771C51.5696 28.9835 51.5806 34.4862 51.6028 39.9889C51.6065 40.6245 51.4217 41.0827 50.9672 41.5262C50.2318 42.2505 49.5629 43.0488 48.8644 43.8138C48.7868 43.7546 48.7092 43.6955 48.6279 43.6401V2.82254ZM60.0878 24.2901C60.0028 23.4845 59.4337 22.9412 58.7168 22.9338C57.9629 22.9301 57.3605 23.5066 57.3494 24.3677C57.3162 26.3337 57.3346 28.2998 57.331 30.2695C57.331 30.9754 57.2127 31.7071 57.3531 32.3834C57.8927 34.9961 56.3036 36.4522 54.4299 37.9046C54.4078 37.5498 54.3745 37.2652 54.3745 36.977C54.3708 32.5829 54.3671 28.1889 54.3745 23.7912C54.3745 21.1636 55.5792 19.97 58.2105 19.9663C62.3939 19.9663 66.5736 19.9626 70.7569 19.9737C71.23 19.9737 71.7067 20.0439 72.1871 20.0845C68.1627 24.1201 64.2047 28.0965 60.11 32.206V25.4875C60.11 25.0883 60.1322 24.6855 60.0878 24.2901ZM71.5811 84.3246V83.3083C71.5811 80.5699 71.5958 77.8352 71.5774 75.0968C71.5515 71.3679 69.0385 68.8328 65.3245 68.8143C60.9267 68.7884 56.5253 68.7921 52.1276 68.8106C48.4209 68.8291 45.9375 71.2755 45.8562 74.9711C45.8193 76.4456 45.8377 77.9239 45.8525 79.4021C45.8599 80.5403 46.3958 81.2018 47.2605 81.187C48.1327 81.1723 48.6168 80.5366 48.6242 79.3577C48.6353 77.9423 48.6131 76.5269 48.6316 75.1152C48.6611 72.8351 49.9139 71.5897 52.1978 71.586C56.566 71.5749 60.9341 71.5749 65.3023 71.586C67.4901 71.5934 68.7909 72.8979 68.7983 75.1041C68.8168 78.5484 68.7909 81.9927 68.8168 85.4369C68.8205 85.9839 68.6357 86.2758 68.1627 86.4939C67.442 86.8265 66.7436 87.1997 65.8492 87.6543V86.5456C65.8492 83.227 65.8492 79.9047 65.8418 76.5824C65.8418 76.2165 65.8344 75.8359 65.731 75.4922C65.5314 74.8159 65.0214 74.4981 64.323 74.5609C63.6245 74.62 63.1773 75.0228 63.1071 75.7213C63.0443 76.3015 63.0702 76.8891 63.0702 77.473C63.0702 80.9801 63.0517 84.4835 63.0849 87.9906C63.0923 88.6262 62.9002 88.944 62.2978 89.1103C59.7294 89.8236 57.1683 90.559 54.4299 91.3351C54.4041 90.7438 54.3745 90.3927 54.3745 90.0453C54.3708 85.5848 54.3745 81.1242 54.3671 76.6674C54.3671 76.2978 54.3708 75.9209 54.2821 75.5661C54.1195 74.8824 53.6391 74.535 52.9369 74.5535C52.2311 74.5757 51.7802 74.9526 51.6472 75.6437C51.5843 75.9726 51.5954 76.3163 51.5954 76.6563C51.5917 81.2055 51.5917 85.7585 51.5917 90.3114V91.5051C50.5902 91.579 49.6626 91.6455 48.6279 91.7231V87.3882C48.6242 86.9891 48.639 86.5863 48.602 86.1871C48.5244 85.4111 48.0883 84.9491 47.2975 84.8974C46.5436 84.8457 45.9301 85.3483 45.8858 86.165C45.823 87.3623 45.8525 88.5634 45.8488 89.7608C45.8451 90.3705 45.8488 90.9803 45.8488 91.6935C38.8531 91.4422 32.3748 89.709 26.2032 86.4421C26.3547 86.1502 26.4767 85.8841 26.6208 85.6291C33.5795 73.5779 40.5494 61.5266 47.4897 49.4643C47.8444 48.8434 48.2325 48.6217 48.9383 48.6365C51.1187 48.6845 53.3065 48.655 55.4906 48.6513C55.7973 48.6513 56.1077 48.6587 56.4108 48.618C57.209 48.5108 57.7412 47.9232 57.7153 47.2063C57.6894 46.4857 57.1351 45.9129 56.3221 45.8907C54.8143 45.8574 53.3065 45.8759 51.7987 45.8759H50.6826C58.8942 37.6385 66.9468 29.56 75.0623 21.4186C76.0416 23.3403 77.4681 24.7557 79.545 25.384C81.596 26.0048 83.5547 25.7203 85.5355 24.5783C86.2414 25.8977 86.9214 27.1726 87.7085 28.6546H86.5555C82.8008 28.6546 79.0498 28.6509 75.2951 28.6546C71.2817 28.6619 68.8131 31.138 68.8057 35.1661C68.7983 38.3628 68.8057 41.5632 68.8057 44.7598V45.8759C67.0909 45.8759 65.4686 45.8722 63.8462 45.8759C63.4471 45.8759 63.0443 45.8574 62.6489 45.9055C61.9098 45.9905 61.47 46.4228 61.4367 47.1767C61.3998 47.9676 61.8063 48.4628 62.586 48.5921C62.9778 48.6587 63.3843 48.6513 63.7834 48.6513C72.6712 48.655 81.5628 48.655 90.4543 48.655H91.5999C92.8047 60.0225 81.9176 79.4169 71.5811 84.3246ZM91.7256 45.0333C91.7256 45.2772 91.7034 45.5174 91.6923 45.8168H88.7728V37.6607C88.7728 37.0768 88.7913 36.4929 88.7654 35.909C88.7285 34.9925 88.152 34.3938 87.3574 34.4049C86.5592 34.4159 86.0085 35.0146 86.0049 35.9496C85.9901 38.9282 85.9975 41.9106 85.9975 44.8929V45.8279H77.3129V44.8116C77.3129 41.8884 77.324 38.9689 77.3055 36.0494C77.2981 34.7892 76.3114 34.0649 75.3136 34.549C74.6705 34.8594 74.5301 35.4248 74.5301 36.0863C74.5449 38.9763 74.5375 41.8662 74.5375 44.7561V45.8131H71.6513C71.6254 45.5433 71.5847 45.2809 71.5847 45.0185C71.5811 41.6666 71.5737 38.3185 71.5847 34.9666C71.5921 32.7197 72.8782 31.441 75.151 31.4373C79.4859 31.4262 83.8208 31.4262 88.1557 31.4373C90.4063 31.441 91.7182 32.7529 91.7256 34.9814C91.733 38.3332 91.7293 41.6851 91.7256 45.0333Z" fill="white"/>
<path d="M27.2177 14.3576C23.2782 14.3317 20.0963 17.4619 20.0705 21.3902C20.0446 25.3593 23.2265 28.5855 27.1733 28.5855C31.0537 28.5892 34.2836 25.3667 34.2984 21.4789C34.3169 17.5727 31.1424 14.3871 27.2177 14.3576ZM27.2177 25.8101C24.8414 25.8434 22.868 23.8995 22.8458 21.5048C22.8274 19.0805 24.7121 17.1514 27.1253 17.1366C29.5422 17.1182 31.4935 19.0177 31.523 21.4124C31.5526 23.7665 29.5829 25.7806 27.2177 25.8101Z" fill="white"/>
<path d="M58.6528 51.6154C54.717 51.6487 51.5795 54.8232 51.6017 58.7479C51.6239 62.6689 54.8205 65.8545 58.7156 65.8471C62.6071 65.836 65.8222 62.6245 65.837 58.7331C65.8518 54.7936 62.6145 51.5859 58.6528 51.6154ZM58.6935 63.068C56.3024 63.0569 54.3734 61.1057 54.3807 58.7035C54.3881 56.2903 56.3061 54.3871 58.7267 54.3945C61.1325 54.4019 63.0727 56.3458 63.0579 58.7331C63.0432 61.1093 61.0586 63.0791 58.6935 63.068Z" fill="white"/>
</g>
<defs>
<clipPath id="clip0_361_223">
<rect width="94.5326" height="94.4809" fill="white"/>
</clipPath>
</defs>
</svg>
