<svg width="95" height="95" viewBox="0 0 95 95" fill="none" xmlns="http://www.w3.org/2000/svg">
<g clip-path="url(#clip0_325_568)">
<path d="M94.9286 34.8518C94.9139 32.7453 93.7941 31.1451 92.0091 29.9995C91.6285 29.7556 91.2959 29.3528 91.0779 28.95C90.1651 27.2463 89.3262 25.502 88.4134 23.7984C88.1584 23.3253 88.0771 22.9742 88.3505 22.4606C89.7696 19.7813 89.4481 16.8026 87.5523 14.5299C85.6971 12.3051 82.748 11.481 79.8655 12.3199C79.5329 12.416 79.0303 12.3236 78.7458 12.1204C76.6725 10.6421 74.6252 9.11957 72.5926 7.58221C72.3081 7.36787 72.0235 7.0057 71.9607 6.6694C70.937 1.21105 65.3382 -1.19476 60.7262 1.84669C60.449 2.03147 59.9834 2.10168 59.6545 2.01669C53.2796 0.41281 46.8456 0.0654267 40.3488 1.0891C34.0811 2.07582 28.2421 4.24142 22.8429 7.58221C22.0003 8.10328 21.7675 8.90153 22.211 9.60738C22.684 10.3613 23.4564 10.4537 24.4653 9.83651C29.3471 6.85049 34.6059 4.86597 40.2453 3.92729C42.1966 3.60578 44.1811 3.46165 46.2026 3.22883V46.3265H40.5003V45.2659C40.4966 42.8675 40.5262 40.4691 40.4892 38.0706C40.4412 34.6485 37.8469 32.0764 34.4322 32.0653C29.8497 32.0469 25.2672 32.0432 20.6847 32.0653C18.1237 32.0801 15.8657 33.7136 15.1118 36.1379C14.8716 36.9102 14.8161 37.7676 14.8051 38.588C14.7681 41.1343 14.7903 43.6842 14.7903 46.3007H3.24901C3.24901 46.09 3.24162 45.9718 3.25271 45.8498C3.28966 45.3287 3.32662 44.8077 3.37097 44.2866C4.39833 32.4127 9.38365 22.5049 18.1828 14.4929C18.5006 14.2047 18.8591 13.9534 19.1326 13.6245C19.6352 13.0295 19.6425 12.368 19.1104 11.7915C18.6115 11.2482 17.9795 11.1965 17.355 11.5845C17.0446 11.7767 16.7748 12.0354 16.4976 12.2793C11.2093 16.9542 7.14784 22.5234 4.33551 28.9943C1.90752 34.5857 0.621465 40.4321 0.462556 46.5224C0.418209 48.1411 1.28667 49.0502 2.89054 49.1536C3.22684 49.1758 3.56683 49.1647 3.90313 49.1647H45.2048C44.9535 49.6156 44.7835 49.9297 44.6061 50.2401C37.8173 61.9994 31.0249 73.7624 24.2398 85.5217C23.242 87.2549 23.5857 88.4523 25.3411 89.391C31.764 92.8279 38.6193 94.7422 45.8885 94.9639C59.0188 95.363 70.5009 91.1501 80.0799 82.1366C88.9603 73.7809 93.9678 63.4481 94.7623 51.2638C95.1208 45.8129 94.9619 40.3212 94.9286 34.8518ZM37.6991 46.3228H34.7685V40.1032C34.7685 39.7965 34.7833 39.486 34.7574 39.183C34.6835 38.3182 34.1181 37.775 33.3383 37.7935C32.5623 37.8083 32.0116 38.37 32.0005 39.2458C31.9783 41.2451 31.9931 43.2407 31.9931 45.24V46.3339H23.3049V40.2178C23.3012 39.8482 23.327 39.475 23.2827 39.1091C23.1829 38.2591 22.5768 37.7122 21.7971 37.8009C20.9693 37.8933 20.5369 38.3995 20.5332 39.2273C20.5221 41.3153 20.5295 43.407 20.5258 45.4987C20.5258 45.7426 20.5036 45.9865 20.4888 46.3081H17.5693V41.4077C17.5693 40.2399 17.5398 39.0684 17.5878 37.9043C17.6543 36.1416 18.981 34.8481 20.7512 34.8407C25.3337 34.8222 29.9125 34.8222 34.495 34.8407C36.1802 34.8481 37.6104 36.0344 37.6695 37.6974C37.7767 40.5504 37.6991 43.407 37.6991 46.3228ZM82.0939 14.7479C84.4628 14.7405 86.4473 16.714 86.4547 19.0865C86.4621 21.4775 84.5182 23.4214 82.1198 23.4251C79.6992 23.4288 77.7812 21.5219 77.7775 19.1124C77.7738 16.7066 79.7029 14.7553 82.0939 14.7479ZM64.9022 3.29166C67.2784 3.29535 69.2555 5.26139 69.2592 7.63395C69.2629 10.0065 67.2932 11.9652 64.9059 11.9652C62.5185 11.9652 60.582 10.0508 60.5783 7.63764C60.5783 5.22813 62.5074 3.29166 64.9022 3.29166ZM49.0888 3.33231C52.2301 3.38774 55.3011 3.8423 58.4201 4.5925C57.5849 6.77288 57.5295 8.89044 58.6086 10.9415C59.3958 12.4345 60.5783 13.5247 62.1379 14.1862C65.7041 15.694 68.7123 14.4634 71.6835 10.2135C73.4241 11.518 75.161 12.8188 76.728 13.9903C76.0295 15.5683 75.405 16.9763 74.7435 18.4693C72.7996 17.32 70.464 17.7413 68.1875 17.7118C64.928 17.6674 61.6648 17.6933 58.4053 17.7044C54.6248 17.7118 52.0785 20.2063 52.0601 23.9868C52.0305 29.4932 52.0416 34.9959 52.0638 40.4986C52.0675 41.1343 51.8827 41.5925 51.4281 42.036C50.6927 42.7603 50.0238 43.5586 49.3253 44.3235C49.2477 44.2644 49.1701 44.2053 49.0888 44.1498V3.33231ZM60.5488 24.7999C60.4638 23.9942 59.8947 23.451 59.1777 23.4436C58.4238 23.4399 57.8214 24.0164 57.8104 24.8775C57.7771 26.8435 57.7956 28.8095 57.7919 30.7793C57.7919 31.4851 57.6736 32.2169 57.8141 32.8931C58.3536 35.5059 56.7645 36.962 54.8909 38.4143C54.8687 38.0596 54.8354 37.775 54.8354 37.4867C54.8317 33.0927 54.828 28.6987 54.8354 24.301C54.8354 21.6734 56.0402 20.4797 58.6714 20.476C62.8548 20.476 67.0345 20.4723 71.2179 20.4834C71.6909 20.4834 72.1676 20.5536 72.6481 20.5943C68.6236 24.6299 64.6656 28.6063 60.571 32.7158V25.9972C60.571 25.5981 60.5931 25.1953 60.5488 24.7999ZM72.042 84.8343V83.8181C72.042 81.0796 72.0568 78.3449 72.0383 75.6065C72.0124 71.8777 69.4994 69.3425 65.7854 69.3241C61.3877 69.2982 56.9863 69.3019 52.5885 69.3204C48.8819 69.3388 46.3985 71.7853 46.3172 75.4809C46.2802 76.9554 46.2987 78.4336 46.3135 79.9118C46.3208 81.0501 46.8567 81.7116 47.7215 81.6968C48.5936 81.682 49.0777 81.0464 49.0851 79.8675C49.0962 78.4521 49.074 77.0367 49.0925 75.625C49.1221 73.3448 50.3749 72.0994 52.6587 72.0957C57.0269 72.0846 61.3951 72.0846 65.7632 72.0957C67.951 72.1031 69.2518 73.4076 69.2592 75.6139C69.2777 79.0582 69.2518 82.5024 69.2777 85.9467C69.2814 86.4937 69.0966 86.7856 68.6236 87.0036C67.903 87.3362 67.2045 87.7095 66.3102 88.1641V87.0554C66.3102 83.7368 66.3102 80.4144 66.3028 77.0921C66.3028 76.7263 66.2954 76.3456 66.1919 76.0019C65.9923 75.3256 65.4824 75.0078 64.7839 75.0707C64.0854 75.1298 63.6383 75.5326 63.5681 76.2311C63.5052 76.8113 63.5311 77.3989 63.5311 77.9828C63.5311 81.4899 63.5126 84.9933 63.5459 88.5003C63.5533 89.136 63.3611 89.4538 62.7587 89.6201C60.1903 90.3333 57.6293 91.0688 54.8909 91.8448C54.865 91.2535 54.8354 90.9025 54.8354 90.5551C54.8317 86.0945 54.8354 81.634 54.828 77.1771C54.828 76.8076 54.8317 76.4306 54.743 76.0758C54.5804 75.3922 54.1 75.0448 53.3979 75.0633C52.692 75.0854 52.2411 75.4624 52.1081 76.1535C52.0453 76.4824 52.0564 76.826 52.0564 77.166C52.0527 81.7153 52.0527 86.2682 52.0527 90.8212V92.0148C51.0512 92.0887 50.1236 92.1553 49.0888 92.2329V87.898C49.0851 87.4988 49.0999 87.096 49.063 86.6969C48.9853 85.9208 48.5493 85.4589 47.7584 85.4072C47.0045 85.3554 46.3911 85.858 46.3467 86.6747C46.2839 87.8721 46.3135 89.0732 46.3098 90.2705C46.3061 90.8803 46.3098 91.4901 46.3098 92.2033C39.3141 91.952 32.8357 90.2188 26.6641 86.9519C26.8156 86.66 26.9376 86.3939 27.0817 86.1389C34.0405 74.0876 41.0103 62.0364 47.9506 49.9741C48.3054 49.3532 48.6934 49.1315 49.3993 49.1463C51.5796 49.1943 53.7674 49.1647 55.9515 49.161C56.2582 49.161 56.5687 49.1684 56.8717 49.1278C57.6699 49.0206 58.2021 48.433 58.1762 47.7161C58.1504 46.9954 57.596 46.4226 56.783 46.4004C55.2752 46.3672 53.7674 46.3857 52.2596 46.3857H51.1436C59.3551 38.1482 67.4078 30.0697 75.5232 21.9284C76.5025 23.8501 77.929 25.2655 80.0059 25.8937C82.057 26.5146 84.0156 26.23 85.9965 25.0881C86.7023 26.4074 87.3823 27.6824 88.1694 29.1643H87.0164C83.2617 29.1643 79.5107 29.1606 75.756 29.1643C71.7427 29.1717 69.274 31.6477 69.2666 35.6759C69.2592 38.8726 69.2666 42.0729 69.2666 45.2696V46.3857C67.5519 46.3857 65.9295 46.382 64.3072 46.3857C63.908 46.3857 63.5052 46.3672 63.1098 46.4152C62.3707 46.5002 61.9309 46.9326 61.8977 47.6865C61.8607 48.4774 62.2672 48.9726 63.047 49.1019C63.4387 49.1684 63.8452 49.161 64.2443 49.161C73.1322 49.1647 82.0237 49.1647 90.9153 49.1647H92.0609C93.2656 60.5323 82.3785 79.9266 72.042 84.8343ZM92.1865 45.5431C92.1865 45.787 92.1644 46.0272 92.1533 46.3265H89.2338V38.1704C89.2338 37.5865 89.2522 37.0026 89.2264 36.4187C89.1894 35.5022 88.6129 34.9035 87.8184 34.9146C87.0201 34.9257 86.4695 35.5244 86.4658 36.4594C86.451 39.438 86.4584 42.4203 86.4584 45.4026V46.3376H77.7738V45.3213C77.7738 42.3981 77.7849 39.4786 77.7664 36.5592C77.759 35.299 76.7723 34.5746 75.7745 35.0587C75.1315 35.3692 74.9911 35.9346 74.9911 36.5961C75.0058 39.486 74.9984 42.376 74.9984 45.2659V46.3228H72.1122C72.0863 46.0531 72.0457 45.7907 72.0457 45.5283C72.042 42.1764 72.0346 38.8282 72.0457 35.4763C72.0531 33.2294 73.3391 31.9508 75.6119 31.9471C79.9468 31.936 84.2817 31.936 88.6166 31.9471C90.8672 31.9508 92.1791 33.2627 92.1865 35.4911C92.1939 38.843 92.1902 42.1949 92.1865 45.5431Z" fill="#72BE44"/>
<path d="M27.6786 14.8673C23.7392 14.8415 20.5573 17.9716 20.5314 21.9C20.5055 25.869 23.6874 29.0953 27.6343 29.0953C31.5146 29.099 34.7446 25.8764 34.7593 21.9887C34.7778 18.0825 31.6033 14.8969 27.6786 14.8673ZM27.6786 26.3199C25.3024 26.3532 23.329 24.4093 23.3068 22.0146C23.2883 19.5903 25.173 17.6612 27.5862 17.6464C30.0031 17.6279 31.9544 19.5275 31.984 21.9222C32.0135 24.2763 30.0438 26.2903 27.6786 26.3199Z" fill="#72BE44"/>
<path d="M59.1138 52.1252C55.178 52.1585 52.0404 55.333 52.0626 59.2576C52.0848 63.1786 55.2815 66.3642 59.1766 66.3568C63.068 66.3457 66.2832 63.1343 66.2979 59.2429C66.3127 55.3034 63.0754 52.0956 59.1138 52.1252ZM59.1544 63.5778C56.7634 63.5667 54.8343 61.6154 54.8417 59.2133C54.8491 56.8001 56.7671 54.8969 59.1877 54.9043C61.5935 54.9117 63.5337 56.8555 63.5189 59.2429C63.5041 61.6191 61.5196 63.5889 59.1544 63.5778Z" fill="#72BE44"/>
</g>
<defs>
<clipPath id="clip0_325_568">
<rect width="94.5326" height="94.4809" fill="white" transform="translate(0.460938 0.509766)"/>
</clipPath>
</defs>
</svg>
