<svg width="80" height="79" viewBox="0 0 80 79" fill="none" xmlns="http://www.w3.org/2000/svg">
<mask id="path-1-inside-1_221_89" fill="white">
<path fill-rule="evenodd" clip-rule="evenodd" d="M40.0993 7.34912C38.3047 7.34912 36.5513 7.88669 35.0651 8.89251C33.5789 9.89833 32.428 11.3263 31.7609 12.9923C31.0938 14.6583 30.9411 16.4859 31.3224 18.2395C31.7036 19.9931 32.6015 21.5923 33.9001 22.8309L33.2469 23.9937L27.3775 34.5206C27.0024 35.2276 26.5959 35.9174 26.1592 36.5881C26.0988 36.6757 26.0334 36.7596 25.9632 36.8396C25.8726 36.7815 25.7853 36.7183 25.7019 36.6502C25.0974 36.1243 24.5165 35.5717 23.9611 34.9942L23.6998 34.7362C22.7737 33.7935 21.824 32.8743 20.8516 31.9795C21.3647 30.6119 21.4586 29.1223 21.1213 27.7011C20.784 26.2798 20.0308 24.9913 18.9579 24.0001C17.885 23.0089 16.541 22.3599 15.0975 22.136C13.654 21.9121 12.1766 22.1234 10.8538 22.743C9.53098 23.3626 8.42283 24.3624 7.67081 25.6146C6.91879 26.8669 6.55702 28.3149 6.63168 29.7737C6.70634 31.2325 7.21405 32.636 8.09 33.8049C8.96594 34.9739 10.1704 35.8553 11.5495 36.3366L11.5822 36.9017C11.6606 37.9632 11.7978 39.2337 11.9513 40.6839L12.5555 46.292L12.8397 49.0029C13.2055 52.5402 13.5582 55.9207 14.0808 58.7721C14.4074 60.575 14.8255 62.2735 15.4004 63.7465C15.9719 65.2098 16.7624 66.6044 17.9284 67.6496C19.9861 69.4917 22.4684 70.2952 25.4276 70.6741C28.2855 71.0399 31.8881 71.0399 36.3759 71.0399H43.8228C48.3105 71.0399 51.9132 71.0399 54.7711 70.6741C57.7335 70.2952 60.2126 69.4917 62.2703 67.6496C63.4363 66.6044 64.2267 65.2098 64.7983 63.7465C65.3731 62.2735 65.7912 60.575 66.1211 58.7721C66.6437 55.9207 66.9932 52.5402 67.359 49.0062L67.6431 46.2952L68.2474 40.6872C68.4009 39.2337 68.5413 37.9632 68.6132 36.9017L68.6491 36.3366C70.0283 35.8553 71.2327 34.9739 72.1087 33.8049C72.9846 32.636 73.4923 31.2325 73.567 29.7737C73.6416 28.3149 73.2799 26.8669 72.5278 25.6146C71.7758 24.3624 70.6677 23.3626 69.3449 22.743C68.0221 22.1234 66.5446 21.9121 65.1012 22.136C63.6577 22.3599 62.3137 23.0089 61.2408 24.0001C60.1678 24.9913 59.4146 26.2798 59.0773 27.7011C58.74 29.1223 58.8339 30.6119 59.347 31.9795C58.4847 32.7536 57.5375 33.6975 56.4956 34.7362L56.2376 34.9942C55.3949 35.8369 54.8919 36.3333 54.4967 36.6502C54.4134 36.7183 54.3261 36.7816 54.2354 36.8396C54.1653 36.7596 54.0999 36.6756 54.0394 36.5881C53.6027 35.9174 53.1962 35.2276 52.8212 34.5206L46.9518 23.9937L46.2986 22.8309C47.5972 21.5923 48.495 19.9931 48.8763 18.2395C49.2576 16.4859 49.1048 14.6583 48.4377 12.9923C47.7706 11.3263 46.6198 9.89833 45.1336 8.89251C43.6473 7.88669 41.8939 7.34912 40.0993 7.34912ZM36.0166 16.3312C36.0166 15.2483 36.4467 14.2099 37.2124 13.4442C37.9781 12.6786 39.0165 12.2484 40.0993 12.2484C41.1821 12.2484 42.2206 12.6786 42.9863 13.4442C43.7519 14.2099 44.1821 15.2483 44.1821 16.3312C44.1821 17.414 43.7519 18.4524 42.9863 19.2181C42.2206 19.9838 41.1821 20.4139 40.0993 20.4139C39.0165 20.4139 37.9781 19.9838 37.2124 19.2181C36.4467 18.4524 36.0166 17.414 36.0166 16.3312ZM37.5027 26.4237C37.764 25.9501 38.009 25.5157 38.2343 25.1172C39.464 25.3776 40.7346 25.3776 41.9643 25.1172C42.193 25.5157 42.4314 25.9501 42.696 26.4237L48.598 37.0062C49.1042 37.9142 49.5713 38.7536 50.0286 39.4036C50.5152 40.0927 51.175 40.857 52.1908 41.3045C53.0661 41.6899 54.0329 41.8238 54.9801 41.6932C56.0776 41.5396 56.9235 40.9877 57.58 40.4585C58.194 39.9588 58.8767 39.2794 59.6181 38.5445L59.6965 38.4662C60.9213 37.2446 61.8195 36.3595 62.5054 35.7324C62.8974 35.961 63.3089 36.157 63.7433 36.3137L63.727 36.5554C63.6616 37.5157 63.531 38.7013 63.3677 40.2005L62.7732 45.7694L62.4728 48.611C62.2441 50.7993 62.0351 52.8407 61.7901 54.7089H18.4085C18.1533 52.6783 17.9246 50.6444 17.7226 48.6077C17.6312 47.6866 17.5299 46.7394 17.4287 45.7661L16.8277 40.2005C16.6805 38.9072 16.5563 37.6114 16.4553 36.3137C16.8897 36.157 17.3046 35.961 17.6965 35.7324C18.3824 36.3595 19.2773 37.2446 20.5054 38.4662L20.5805 38.5445C21.322 39.2794 22.0046 39.9588 22.6187 40.4585C23.2752 40.9877 24.1211 41.5396 25.2185 41.6932C26.1657 41.8238 27.1325 41.6899 28.0079 41.3012C29.0204 40.857 29.6867 40.0927 30.1701 39.4036C30.6862 38.6274 31.1637 37.8262 31.6007 37.0029L37.5027 26.4237ZM19.2545 59.6082C19.4668 60.5097 19.7019 61.2936 19.9632 61.9599C20.3878 63.0377 20.8157 63.6583 21.1946 63.998C22.23 64.9223 23.6083 65.5005 26.0514 65.814C28.5599 66.1374 31.8489 66.1406 36.5457 66.1406H43.653C48.3497 66.1406 51.6388 66.1374 54.1472 65.814C56.5903 65.5037 57.9687 64.9223 59.0041 63.998C59.3829 63.6583 59.8141 63.0377 60.2354 61.9632C60.4967 61.2936 60.7319 60.5097 60.9442 59.6082H19.2545ZM11.5201 29.3959C11.5202 28.9127 11.6631 28.4403 11.931 28.0381C12.1989 27.6359 12.5798 27.3219 13.0257 27.1357C13.4716 26.9495 13.9626 26.8993 14.437 26.9914C14.9113 27.0836 15.3478 27.314 15.6916 27.6537C16.0353 27.9933 16.2709 28.427 16.3687 28.9003C16.4665 29.3735 16.4222 29.8651 16.2413 30.3132C16.0604 30.7613 15.751 31.1459 15.352 31.4185C14.9531 31.6912 14.4824 31.8398 13.9992 31.8456H13.9698C13.3201 31.8456 12.697 31.5875 12.2376 31.1281C11.7782 30.6687 11.5201 30.0456 11.5201 29.3959ZM63.7792 29.3959C63.7792 28.9114 63.9229 28.4378 64.1921 28.035C64.4612 27.6321 64.8438 27.3182 65.2914 27.1328C65.7391 26.9474 66.2316 26.8988 66.7068 26.9934C67.182 27.0879 67.6185 27.3212 67.961 27.6638C68.3036 28.0064 68.5369 28.4429 68.6315 28.918C68.726 29.3932 68.6775 29.8858 68.4921 30.3334C68.3066 30.781 67.9927 31.1636 67.5898 31.4327C67.187 31.7019 66.7134 31.8456 66.2289 31.8456H66.1995C65.5541 31.8404 64.9371 31.5797 64.4835 31.1206C64.0298 30.6615 63.7766 30.0413 63.7792 29.3959Z"/>
</mask>
<path fill-rule="evenodd" clip-rule="evenodd" d="M40.0993 7.34912C38.3047 7.34912 36.5513 7.88669 35.0651 8.89251C33.5789 9.89833 32.428 11.3263 31.7609 12.9923C31.0938 14.6583 30.9411 16.4859 31.3224 18.2395C31.7036 19.9931 32.6015 21.5923 33.9001 22.8309L33.2469 23.9937L27.3775 34.5206C27.0024 35.2276 26.5959 35.9174 26.1592 36.5881C26.0988 36.6757 26.0334 36.7596 25.9632 36.8396C25.8726 36.7815 25.7853 36.7183 25.7019 36.6502C25.0974 36.1243 24.5165 35.5717 23.9611 34.9942L23.6998 34.7362C22.7737 33.7935 21.824 32.8743 20.8516 31.9795C21.3647 30.6119 21.4586 29.1223 21.1213 27.7011C20.784 26.2798 20.0308 24.9913 18.9579 24.0001C17.885 23.0089 16.541 22.3599 15.0975 22.136C13.654 21.9121 12.1766 22.1234 10.8538 22.743C9.53098 23.3626 8.42283 24.3624 7.67081 25.6146C6.91879 26.8669 6.55702 28.3149 6.63168 29.7737C6.70634 31.2325 7.21405 32.636 8.09 33.8049C8.96594 34.9739 10.1704 35.8553 11.5495 36.3366L11.5822 36.9017C11.6606 37.9632 11.7978 39.2337 11.9513 40.6839L12.5555 46.292L12.8397 49.0029C13.2055 52.5402 13.5582 55.9207 14.0808 58.7721C14.4074 60.575 14.8255 62.2735 15.4004 63.7465C15.9719 65.2098 16.7624 66.6044 17.9284 67.6496C19.9861 69.4917 22.4684 70.2952 25.4276 70.6741C28.2855 71.0399 31.8881 71.0399 36.3759 71.0399H43.8228C48.3105 71.0399 51.9132 71.0399 54.7711 70.6741C57.7335 70.2952 60.2126 69.4917 62.2703 67.6496C63.4363 66.6044 64.2267 65.2098 64.7983 63.7465C65.3731 62.2735 65.7912 60.575 66.1211 58.7721C66.6437 55.9207 66.9932 52.5402 67.359 49.0062L67.6431 46.2952L68.2474 40.6872C68.4009 39.2337 68.5413 37.9632 68.6132 36.9017L68.6491 36.3366C70.0283 35.8553 71.2327 34.9739 72.1087 33.8049C72.9846 32.636 73.4923 31.2325 73.567 29.7737C73.6416 28.3149 73.2799 26.8669 72.5278 25.6146C71.7758 24.3624 70.6677 23.3626 69.3449 22.743C68.0221 22.1234 66.5446 21.9121 65.1012 22.136C63.6577 22.3599 62.3137 23.0089 61.2408 24.0001C60.1678 24.9913 59.4146 26.2798 59.0773 27.7011C58.74 29.1223 58.8339 30.6119 59.347 31.9795C58.4847 32.7536 57.5375 33.6975 56.4956 34.7362L56.2376 34.9942C55.3949 35.8369 54.8919 36.3333 54.4967 36.6502C54.4134 36.7183 54.3261 36.7816 54.2354 36.8396C54.1653 36.7596 54.0999 36.6756 54.0394 36.5881C53.6027 35.9174 53.1962 35.2276 52.8212 34.5206L46.9518 23.9937L46.2986 22.8309C47.5972 21.5923 48.495 19.9931 48.8763 18.2395C49.2576 16.4859 49.1048 14.6583 48.4377 12.9923C47.7706 11.3263 46.6198 9.89833 45.1336 8.89251C43.6473 7.88669 41.8939 7.34912 40.0993 7.34912ZM36.0166 16.3312C36.0166 15.2483 36.4467 14.2099 37.2124 13.4442C37.9781 12.6786 39.0165 12.2484 40.0993 12.2484C41.1821 12.2484 42.2206 12.6786 42.9863 13.4442C43.7519 14.2099 44.1821 15.2483 44.1821 16.3312C44.1821 17.414 43.7519 18.4524 42.9863 19.2181C42.2206 19.9838 41.1821 20.4139 40.0993 20.4139C39.0165 20.4139 37.9781 19.9838 37.2124 19.2181C36.4467 18.4524 36.0166 17.414 36.0166 16.3312ZM37.5027 26.4237C37.764 25.9501 38.009 25.5157 38.2343 25.1172C39.464 25.3776 40.7346 25.3776 41.9643 25.1172C42.193 25.5157 42.4314 25.9501 42.696 26.4237L48.598 37.0062C49.1042 37.9142 49.5713 38.7536 50.0286 39.4036C50.5152 40.0927 51.175 40.857 52.1908 41.3045C53.0661 41.6899 54.0329 41.8238 54.9801 41.6932C56.0776 41.5396 56.9235 40.9877 57.58 40.4585C58.194 39.9588 58.8767 39.2794 59.6181 38.5445L59.6965 38.4662C60.9213 37.2446 61.8195 36.3595 62.5054 35.7324C62.8974 35.961 63.3089 36.157 63.7433 36.3137L63.727 36.5554C63.6616 37.5157 63.531 38.7013 63.3677 40.2005L62.7732 45.7694L62.4728 48.611C62.2441 50.7993 62.0351 52.8407 61.7901 54.7089H18.4085C18.1533 52.6783 17.9246 50.6444 17.7226 48.6077C17.6312 47.6866 17.5299 46.7394 17.4287 45.7661L16.8277 40.2005C16.6805 38.9072 16.5563 37.6114 16.4553 36.3137C16.8897 36.157 17.3046 35.961 17.6965 35.7324C18.3824 36.3595 19.2773 37.2446 20.5054 38.4662L20.5805 38.5445C21.322 39.2794 22.0046 39.9588 22.6187 40.4585C23.2752 40.9877 24.1211 41.5396 25.2185 41.6932C26.1657 41.8238 27.1325 41.6899 28.0079 41.3012C29.0204 40.857 29.6867 40.0927 30.1701 39.4036C30.6862 38.6274 31.1637 37.8262 31.6007 37.0029L37.5027 26.4237ZM19.2545 59.6082C19.4668 60.5097 19.7019 61.2936 19.9632 61.9599C20.3878 63.0377 20.8157 63.6583 21.1946 63.998C22.23 64.9223 23.6083 65.5005 26.0514 65.814C28.5599 66.1374 31.8489 66.1406 36.5457 66.1406H43.653C48.3497 66.1406 51.6388 66.1374 54.1472 65.814C56.5903 65.5037 57.9687 64.9223 59.0041 63.998C59.3829 63.6583 59.8141 63.0377 60.2354 61.9632C60.4967 61.2936 60.7319 60.5097 60.9442 59.6082H19.2545ZM11.5201 29.3959C11.5202 28.9127 11.6631 28.4403 11.931 28.0381C12.1989 27.6359 12.5798 27.3219 13.0257 27.1357C13.4716 26.9495 13.9626 26.8993 14.437 26.9914C14.9113 27.0836 15.3478 27.314 15.6916 27.6537C16.0353 27.9933 16.2709 28.427 16.3687 28.9003C16.4665 29.3735 16.4222 29.8651 16.2413 30.3132C16.0604 30.7613 15.751 31.1459 15.352 31.4185C14.9531 31.6912 14.4824 31.8398 13.9992 31.8456H13.9698C13.3201 31.8456 12.697 31.5875 12.2376 31.1281C11.7782 30.6687 11.5201 30.0456 11.5201 29.3959ZM63.7792 29.3959C63.7792 28.9114 63.9229 28.4378 64.1921 28.035C64.4612 27.6321 64.8438 27.3182 65.2914 27.1328C65.7391 26.9474 66.2316 26.8988 66.7068 26.9934C67.182 27.0879 67.6185 27.3212 67.961 27.6638C68.3036 28.0064 68.5369 28.4429 68.6315 28.918C68.726 29.3932 68.6775 29.8858 68.4921 30.3334C68.3066 30.781 67.9927 31.1636 67.5898 31.4327C67.187 31.7019 66.7134 31.8456 66.2289 31.8456H66.1995C65.5541 31.8404 64.9371 31.5797 64.4835 31.1206C64.0298 30.6615 63.7766 30.0413 63.7792 29.3959Z" fill="#72BE44" stroke="#EAEAEA" stroke-width="0.4" mask="url(#path-1-inside-1_221_89)"/>
</svg>
