<svg width="79" height="79" viewBox="0 0 79 79" fill="none" xmlns="http://www.w3.org/2000/svg">
<path d="M71.9811 39.1947H6.65723M39.3192 6.53271V71.8566M42.5854 39.1947C42.5854 42.6597 43.9618 45.9827 46.412 48.4329C48.8621 50.883 52.1852 52.2594 55.6501 52.2594M36.053 39.1947C36.053 42.6597 34.6765 45.9827 32.2264 48.4329C29.7763 50.883 26.4532 52.2594 22.9882 52.2594" stroke="#72BE44" stroke-width="4.34" stroke-linecap="round"/>
<path d="M39.3192 32.7763C39.3194 30.4109 40.1102 28.1135 41.5661 26.2493C43.022 24.3851 45.0593 23.0611 47.3541 22.4878C52.5898 21.1813 57.3356 25.9238 56.0258 31.1628C55.4525 33.4576 54.1285 35.4949 52.2643 36.9507C50.4001 38.4066 48.1027 39.1975 45.7373 39.1976H39.3192M39.3192 32.7763V39.1976M39.3192 32.7763C39.3191 30.4109 38.5282 28.1135 37.0724 26.2493C35.6165 24.3851 33.5792 23.0611 31.2844 22.4878C26.0487 21.1813 21.3029 25.9238 22.6127 31.1628C23.186 33.4576 24.51 35.4949 26.3742 36.9507C28.2384 38.4066 30.5358 39.1975 32.9012 39.1976H39.3192" stroke="#72BE44" stroke-width="4.34"/>
<path d="M71.9811 39.1947C71.9811 54.5915 71.9811 62.2899 67.1961 67.0716C62.4177 71.8566 54.716 71.8566 39.3192 71.8566C23.9223 71.8566 16.2239 71.8566 11.4389 67.0716C6.65723 62.2932 6.65723 54.5915 6.65723 39.1947C6.65723 23.7978 6.65723 16.0994 11.4389 11.3144C16.2272 6.53271 23.9223 6.53271 39.3192 6.53271C54.716 6.53271 62.4144 6.53271 67.1961 11.3144C70.3774 14.4957 71.4422 18.9671 71.8015 26.1299" stroke="#72BE44" stroke-width="4.34" stroke-linecap="round"/>
</svg>
