<svg width="87" height="70" viewBox="0 0 87 70" fill="none" xmlns="http://www.w3.org/2000/svg">
<g clip-path="url(#clip0_325_558)">
<path d="M65.5182 18.7839C65.0763 16.6377 64.1072 14.5917 63.3014 12.5347C63.0192 11.8106 62.3509 11.4839 61.5414 11.7401C60.7988 11.9777 60.4312 12.5272 60.5203 13.2959C60.5574 13.6486 60.7468 13.9939 60.9064 14.3244C62.8893 18.3346 63.4871 22.5379 62.6108 26.9268C62.0947 29.5223 61.0847 31.9098 59.4769 34.1414C56.7626 31.4308 53.6139 29.5891 49.9824 28.4529C55.6338 23.6778 54.8949 16.7268 51.1409 12.88C47.179 8.82154 40.7144 8.71757 36.5371 12.6572C32.6532 16.3184 31.6172 23.5738 37.4617 28.4752C33.834 29.5668 30.7075 31.4197 27.9784 34.1303C27.8001 33.8852 27.6925 33.7404 27.5922 33.5919C21.2873 24.2013 24.7591 11.0531 34.9813 5.93643C40.759 3.04761 46.6294 3.10702 52.4591 5.91044C53.729 6.51939 54.583 6.40057 55.0174 5.50942C55.4481 4.63683 55.0248 3.87193 53.7661 3.24069C49.5517 1.13163 45.0922 0.400146 40.4471 1.09822C28.5428 2.89166 20.3367 13.6041 21.6252 25.5901C23.0548 38.8756 36.099 47.9506 49.0913 44.6978C60.6205 41.809 67.9206 30.3874 65.5182 18.7839ZM36.3144 20.0538C36.3478 16.0139 39.6896 12.724 43.7406 12.7315C47.8214 12.7389 51.1483 16.0881 51.1298 20.18C51.1149 24.257 47.7471 27.5766 43.6589 27.5469C39.5819 27.5172 36.2735 24.1419 36.3144 20.0538ZM29.9909 36.503C36.604 28.8242 50.1272 28.2821 57.5052 36.5141C49.9824 44.4565 37.083 44.1743 29.9909 36.503Z" fill="#72BE44"/>
<path d="M37.7409 47.6274C36.8498 47.6385 36.3448 48.318 36.2854 49.406C36.2148 50.6647 36.148 51.9383 35.9066 53.1711C35.4907 55.3247 34.6033 57.2927 33.2369 59.1307C31.2875 56.175 28.7031 54.1588 25.5061 52.8815C30.1995 48.3849 28.8034 42.7966 26.026 40.1083C22.7844 36.9744 17.6714 36.8036 14.3333 39.7741C12.6958 41.2296 11.7044 43.0379 11.463 45.2176C11.1252 48.266 12.2317 50.7724 14.4855 52.8146C11.2031 54.7034 8.60765 56.7951 6.6991 59.0898C6.49859 58.8039 6.29065 58.544 6.12727 58.2581C2.81516 52.5473 2.73718 46.7808 6.19411 41.1591C8.99753 36.5957 13.2268 34.093 18.5848 33.5323C19.6245 33.4246 20.1444 32.7823 20.0478 31.8837C19.955 31.0037 19.2569 30.5061 18.2432 30.5989C6.65825 31.6535 -1.48836 42.7372 1.19252 53.9917C3.00453 61.5962 7.83903 66.5755 15.3953 68.4506C23.0517 70.3481 29.6314 68.0719 34.7964 62.0938C37.9303 58.466 39.3413 54.1551 39.267 49.3688C39.2484 48.3032 38.6172 47.6162 37.7409 47.6274ZM14.3853 46.157C14.4224 43.0639 16.9511 40.5798 20.0255 40.6058C23.1594 40.6355 25.6398 43.1753 25.599 46.3166C25.5618 49.4505 23.0295 51.8938 19.8659 51.8492C16.7877 51.8009 14.3444 49.2612 14.3853 46.157ZM8.80816 61.5182C11.4148 57.1516 15.1873 54.7752 20.2483 54.868C25.1088 54.9608 28.7217 57.3298 31.1575 61.5108C25.3613 67.4852 15.0165 67.7006 8.80816 61.5182Z" fill="#72BE44"/>
<path d="M79.7484 34.9652C76.7259 32.34 73.1242 30.9513 69.1363 30.5911C68.1931 30.5057 67.5025 31.0293 67.3985 31.8684C67.2908 32.7299 67.8032 33.3648 68.7501 33.5245C69.2996 33.6136 69.8566 33.647 70.4024 33.751C77.7322 35.1694 83.0048 40.9359 83.7029 48.4253C84.0668 52.3167 83.0011 55.8627 80.7175 59.1488C78.7681 56.2117 76.2061 54.1584 72.9162 52.8699C74.8433 51.0913 75.9981 49.0157 76.039 46.4239C76.0798 43.8396 75.1478 41.66 73.2541 39.9037C70.0794 36.9554 65.0852 36.8849 61.84 39.7329C60.221 41.1513 59.2148 42.9261 58.94 45.0612C58.5427 48.1691 59.6492 50.7386 62.0145 52.8848C58.6838 54.1472 56.144 56.2266 54.2169 59.1006C54.0906 58.9558 53.9978 58.8704 53.931 58.7701C52.0187 55.9184 51.0904 52.7771 51.1461 49.3387C51.1647 48.3139 50.5929 47.6493 49.7314 47.6307C48.8922 47.6084 48.2053 48.2842 48.1942 49.257C48.1793 50.2113 48.2239 51.173 48.3353 52.1199C49.6126 63.3595 60.7 71.2239 71.6909 68.5802C79.2546 66.7608 84.2302 61.9671 86.109 54.4517C88.0324 46.7692 85.7377 40.171 79.7484 34.9652ZM61.8437 46.2903C61.8214 43.1489 64.3203 40.6129 67.4468 40.6054C70.5658 40.6017 73.0833 43.1378 73.0648 46.2717C73.0462 49.3722 70.5621 51.8451 67.4616 51.8488C64.3575 51.8525 61.8659 49.387 61.8437 46.2903ZM56.2888 61.5104C58.7023 57.3665 62.2818 54.9938 67.1015 54.8713C72.2033 54.7413 76.0056 57.114 78.6048 61.4658C73.2764 67.2843 62.5974 67.9193 56.2888 61.5104Z" fill="#72BE44"/>
<path d="M12.5712 9.19287C11.9883 9.40824 11.4944 9.75727 11.0414 9.709C10.5996 9.66444 10.0017 9.30056 9.83094 8.9181C9.64528 8.49852 9.6787 7.7299 9.95719 7.40314C10.9375 6.25579 12.0291 5.19754 13.1393 4.17643C13.7706 3.59718 14.5095 3.70115 15.2076 4.37323C16.0987 5.22725 16.9676 6.10726 17.8327 6.98727C18.6199 7.78931 18.709 8.61734 18.1075 9.27456C17.5208 9.91322 16.7745 9.9058 15.8833 9.25228C15.8165 9.20401 15.7385 9.16688 15.5417 9.05549C15.5417 9.43423 15.5417 9.72757 15.5417 10.0172C15.5417 14.0942 15.5417 18.1712 15.5417 22.2445C15.5417 22.4933 15.5492 22.7384 15.5417 22.9872C15.4972 23.9414 14.9254 24.5653 14.0862 24.5838C13.2136 24.6024 12.5824 23.9563 12.5787 22.9538C12.5638 18.6911 12.5712 14.4321 12.5712 10.1694C12.5712 9.83525 12.5712 9.50106 12.5712 9.18916V9.19287Z" fill="#72BE44"/>
<path d="M71.9023 9.28559C71.208 9.44897 70.6139 9.75716 70.0717 9.6829C69.0172 9.53808 68.5605 8.1865 69.2883 7.3659C70.2945 6.24082 71.3825 5.17887 72.4964 4.16147C73.1202 3.59336 73.8629 3.71589 74.5646 4.39168C75.4744 5.27169 76.3692 6.16656 77.2529 7.07628C77.951 7.79663 78.0216 8.58381 77.4869 9.22618C76.9262 9.89826 76.139 9.92425 75.2701 9.29673C75.181 9.23361 75.0956 9.16306 74.8765 8.99597V10.0468C74.8765 14.2166 74.8765 18.3828 74.8765 22.5526C74.8765 22.8311 74.8914 23.1133 74.8394 23.3844C74.6946 24.1233 74.0262 24.6283 73.2985 24.5837C72.4667 24.5317 71.9097 23.9042 71.9097 22.9276C71.8986 18.6353 71.906 14.3429 71.906 10.0505C71.906 9.73859 71.906 9.42669 71.906 9.28559H71.9023Z" fill="#72BE44"/>
<path d="M58.3586 9.91361C57.5826 9.88761 56.9031 9.17841 56.9142 8.40607C56.9253 7.57804 57.6457 6.91711 58.4923 6.96538C59.3055 7.00993 59.9033 7.67087 59.8661 8.49519C59.8327 9.30094 59.1495 9.94331 58.3586 9.91361Z" fill="#72BE44"/>
</g>
<defs>
<clipPath id="clip0_325_558">
<rect width="86.0927" height="68.2623" fill="white" transform="translate(0.679688 0.841797)"/>
</clipPath>
</defs>
</svg>
