<svg width="115" height="101" viewBox="0 0 115 101" fill="none" xmlns="http://www.w3.org/2000/svg">
<g clip-path="url(#clip0_325_584)">
<path d="M114.963 55.7923C114.959 53.9958 114.229 53.1178 112.441 52.8355C108.494 52.2128 104.624 51.3392 100.95 49.704C100.179 49.359 99.8165 48.9558 99.7941 48.0598C99.7583 46.5366 99.606 45.009 99.4044 43.4992C99.2431 42.2896 98.4591 41.7162 97.4242 41.8864C96.47 42.0432 95.9951 42.8003 96.1071 43.992C96.2057 45.009 96.3087 46.0259 96.4252 47.2355C95.8249 46.8816 95.4038 46.6576 95.0095 46.3978C93.8985 45.6586 92.7919 45.6182 91.6719 46.3664C86.4034 49.8787 80.6063 51.944 74.3478 52.8176C72.287 53.1043 71.6418 53.9645 71.6329 56.0746C71.6284 58.2339 71.6642 60.3978 71.6015 62.5571C71.5881 62.9155 71.2431 63.3859 70.9161 63.5875C69.9036 64.2058 68.8015 64.6717 67.7801 65.2765C66.3913 66.1008 65.4863 66.0874 64.2005 65.0704C63.1477 64.2371 62.0994 63.3949 61.0645 62.5482C59.7295 61.4506 59.4697 60.3888 60.1685 58.7894C60.9884 56.9168 61.871 55.0666 62.6639 53.1805C63.2553 51.7693 64.2812 51.151 65.7775 51.0838C68.013 50.9763 70.2441 50.8061 72.4706 50.6314C75.9382 50.3626 78.9308 47.585 79.4101 44.225C79.6073 42.8407 79.334 42.3299 78.0706 41.7699C76.6729 41.1472 75.2572 40.5827 73.8818 39.9197C71.933 38.9744 71.4313 36.8957 72.6991 35.144C73.3129 34.3018 73.9894 33.5043 74.621 32.6755C76.0233 30.8298 77.8914 30.1398 80.1359 30.5251C84.2486 31.233 88.3522 31.9722 92.447 32.7427C92.765 32.801 93.1503 33.137 93.2847 33.4416C93.7148 34.4272 94.015 35.4711 94.4271 36.4656C94.7945 37.3616 95.686 37.7648 96.5327 37.4288C97.4108 37.0839 97.7737 36.4074 97.5855 35.4666C97.5407 35.2515 97.4735 35.0365 97.4018 34.8259C92.6486 21.0813 83.6975 11.0775 70.4681 5.06081C67.2066 3.58241 63.654 2.73121 60.1999 1.70977C58.6498 1.24833 57.5343 2.13089 57.709 3.44353C57.8479 4.47841 58.6095 4.80545 59.501 4.99361C70.5353 7.32769 79.5759 12.9187 86.5737 21.7443C88.3298 23.9619 89.7858 26.4259 91.3807 28.7734C90.7849 28.9661 90.4534 28.9482 90.1308 28.8899C87.053 28.3434 83.9753 27.7744 80.8975 27.2413C77.2777 26.6096 74.2761 27.6579 71.9868 30.5834C71.4402 31.2912 70.8802 31.9901 70.3337 32.6979C67.2828 36.6493 68.4521 41.2278 73.0261 43.2438C73.958 43.656 74.8943 44.0727 75.8665 44.5027C75.0422 46.2499 73.7833 47.1594 71.9913 47.2938C69.8722 47.4506 67.7577 47.6163 65.6341 47.7238C62.7983 47.8672 60.7644 49.1306 59.622 51.7783C58.7797 53.7271 57.8658 55.6445 57.0236 57.5888C55.805 60.3933 56.4367 63.0544 58.7887 65.0256C59.9311 65.9843 61.1004 66.9072 62.2697 67.8301C64.5186 69.5997 67.126 69.6938 69.5362 68.1347C70.15 67.736 70.7951 67.391 71.5746 66.9296C71.6015 67.4896 71.6239 67.848 71.6329 68.2019C71.6821 70.2135 71.6911 72.225 71.7807 74.2365C71.8613 76.0419 72.4886 76.8438 73.6175 76.7677C74.7823 76.6915 75.1721 75.8269 75.1452 74.0394C75.0601 68.3005 75.0332 62.5616 75.0332 56.8227C75.0332 56.5405 75.4454 56.0925 75.7455 56.0074C76.7132 55.7431 77.7212 55.6311 78.7023 55.4295C83.6482 54.4259 88.2223 52.5085 92.4783 49.807C92.9621 49.4979 93.3474 49.2829 93.9701 49.6861C99.3013 53.1491 105.143 55.2413 111.55 56.0477C111.572 56.3882 111.603 56.6032 111.603 56.8227C111.603 62.0419 111.715 67.2611 111.568 72.4758C111.344 80.4458 107.916 86.7984 101.389 91.4038C99.2924 92.8867 97.021 94.1232 94.9513 95.6419C93.7551 96.5155 92.9129 96.4662 91.7391 95.6195C89.5618 94.056 87.2233 92.7255 85.0146 91.2112C81.9458 89.1146 79.5759 86.3683 77.8153 83.0934C77.6047 82.6992 77.4255 82.287 77.1925 81.9062C76.6549 81.0237 75.7276 80.7325 74.9033 81.1671C74.1148 81.5882 73.7609 82.4887 74.2178 83.3712C75.0601 85.0109 76.0053 86.5968 76.9058 88.2051C53.126 105.359 18.8809 95.6688 7.65847 68.6231C8.08855 68.3587 8.57239 68.1347 8.96663 67.8077C11.7174 65.5498 14.5577 65.3302 17.8953 66.6877C21.7346 68.2512 25.4127 65.8813 26.1295 61.8134C26.6089 59.0806 26.8239 58.8567 29.4671 58.2474C34.0098 57.208 35.8735 51.4647 32.527 48.2256C29.6508 45.4435 27.4018 42.2314 25.1215 39.0147C23.6745 36.9808 21.8153 35.6099 19.3692 35.0678C18.7554 34.929 18.1148 34.8842 17.501 34.7498C15.3193 34.2614 13.5586 32.4336 13.2406 30.225C12.9538 28.2359 12.7254 26.2333 12.5641 24.2307C12.5238 23.7335 12.6985 23.0973 13.0121 22.721C14.6383 20.7811 16.39 18.9488 17.9983 16.9955C19.1542 15.5978 20.3638 15.1722 21.9855 16.1712C22.5455 16.5207 23.2265 16.664 23.8492 16.9104C25.677 17.6362 26.2953 18.7965 25.8697 20.7005C25.4306 22.6627 24.9871 24.625 24.5391 26.5827C24.1852 28.1149 24.3913 29.5888 25.2425 30.8791C26.8194 33.2714 28.4322 35.6503 30.157 37.935C31.613 39.8659 34.1218 40.399 36.2991 39.4672C38.4674 38.5398 39.7308 36.3491 39.471 33.9658C39.2873 32.2992 39.1036 30.6327 38.9244 28.9661C38.781 27.5907 39.3097 26.6006 40.5417 25.9331C41.917 25.1895 43.279 24.4234 44.6095 23.5991C46.6076 22.3626 47.8575 20.5616 48.3234 18.2544C48.6146 16.8298 48.8162 15.3917 49.0895 13.9626C49.645 11.0237 48.9954 8.42529 46.957 6.19873C46.4374 5.63425 45.9401 5.04289 45.4338 4.46049C45.4697 4.33057 45.501 4.20065 45.5324 4.07073C47.4185 4.07073 49.309 4.07969 51.1951 4.06625C52.4809 4.05729 53.2514 3.38529 53.2335 2.34593C53.2156 1.34689 52.4854 0.665931 51.2444 0.724171C48.3458 0.849611 45.407 0.804811 42.5622 1.28417C27.2764 3.83777 15.5388 11.7898 7.45687 25.0058C5.87991 27.5907 4.77335 30.4759 3.51895 33.249C3.06199 34.2659 3.50999 35.2247 4.40599 35.5696C5.31543 35.9146 6.18007 35.489 6.63255 34.4451C6.84311 33.9702 6.98647 33.464 7.20151 32.9891C7.90935 31.4211 8.63959 29.8621 9.36087 28.3031C9.68791 29.0557 9.77303 29.7142 9.85367 30.3773C10.3196 34.1987 13.3122 37.5722 17.062 38.056C19.7858 38.4099 21.6137 39.6957 23.0966 41.9312C25.005 44.8118 26.9225 47.7194 29.606 49.9952C30.5513 50.7971 31.0799 51.7648 30.7036 53.0506C30.3228 54.3722 29.3551 54.9053 28.0649 55.1024C26.013 55.4205 24.463 56.5405 23.5714 58.3997C23.1593 59.2509 22.998 60.241 22.8233 61.1862C22.4559 63.2112 20.9641 64.1834 18.9974 63.5875C18.285 63.3725 17.5772 63.135 16.8828 62.8707C14.2172 61.8762 11.6994 62.1674 9.29815 63.6771C8.35735 64.2685 7.39415 64.8285 6.37271 65.4422C6.23383 65.0659 6.11287 64.7658 6.01431 64.4567C3.69367 57.2215 3.25463 49.8563 4.50007 42.3747C4.73303 40.9591 4.26263 40.1302 3.22327 39.9331C2.20631 39.7405 1.42231 40.4438 1.19383 41.8058C-0.127769 49.6099 0.275431 57.3245 2.60503 64.9002C12.4879 97.08 50.6306 110.395 78.3618 91.3635C78.6575 91.1619 78.9711 90.9827 79.2802 90.7901C79.791 91.2605 80.1852 91.7219 80.669 92.0534C84.4815 94.6518 88.294 97.2502 92.1468 99.7904C93.0204 100.368 94.006 100.203 94.893 99.6291C97.6751 97.8282 100.524 96.1168 103.235 94.2128C110.833 88.8771 114.739 81.4986 114.941 72.2294C115.062 66.7549 114.972 61.2714 114.963 55.7923ZM32.285 7.65921C34.9238 6.66465 37.6566 5.92993 40.349 5.06977C41.0345 4.85025 41.5228 5.02945 41.9842 5.61633C42.7638 6.61089 43.6284 7.54273 44.4841 8.47905C45.6444 9.74241 46.1148 11.2163 45.8505 12.9008C45.6041 14.4464 45.3353 15.9875 45.0441 17.5242C44.7574 19.0429 43.8927 20.1629 42.5577 20.9245C41.2988 21.6458 40.031 22.3536 38.7721 23.0794C36.5321 24.3696 35.4076 26.305 35.5689 28.8944C35.6764 30.6058 35.8825 32.3082 36.093 34.0061C36.2274 35.0903 35.981 35.9594 34.9148 36.385C33.8306 36.8151 33.0556 36.3088 32.4418 35.4263C31.1068 33.4954 29.7673 31.569 28.4188 29.6471C27.8319 28.8093 27.6348 27.9312 27.8946 26.9053C28.3606 25.064 28.7414 23.2048 29.158 21.3546C29.9196 17.9543 28.495 15.208 25.2783 13.8819C24.557 13.5818 23.8313 13.295 22.9174 12.9232C25.9279 10.7011 28.9698 8.90465 32.285 7.65921Z" fill="#72BE44"/>
<path d="M104.389 67.9461C103.028 68.0447 101.675 68.2104 100.34 68.3403C99.2599 64.5592 97.4948 61.5397 94.8068 58.8383C93.8301 57.8571 92.9565 57.7407 92.0919 58.6053C89.6772 61.0335 87.7194 63.7663 86.6711 67.077C86.5277 67.5205 86.3933 67.964 86.2813 68.3314C84.6685 68.188 83.1856 68.0043 81.7028 67.9327C80.4304 67.8744 79.6464 68.4971 79.6644 69.6306C79.7136 73.2415 80.2602 76.7538 82.2807 79.8629C83.4007 81.5877 84.9194 82.7704 86.9936 83.1512C89.4711 83.5992 91.5229 82.757 93.2791 81.068C97.5306 85.0283 103.341 83.6082 105.492 77.6005C106.307 75.3291 106.612 72.8427 106.912 70.4235C107.163 68.412 106.41 67.7938 104.389 67.9461ZM90.6762 78.8549C89.2157 80.3691 86.8816 80.2616 85.4884 78.5368C83.8576 76.5163 83.3872 74.0837 83.114 71.3823C85.793 71.6645 88.2167 72.1349 90.2461 73.7387C91.9351 75.0738 92.0919 77.381 90.6762 78.8549ZM89.9863 69.6037C89.7578 69.4335 89.6951 68.8063 89.7847 68.4523C90.394 66.1048 91.6976 64.1426 93.3373 62.2117C94.9367 64.1695 96.2224 66.1407 96.8765 68.4792C97.0647 69.1557 96.9751 69.5141 96.2896 69.868C95.2458 70.4101 94.3005 71.1359 93.3373 71.7675C92.2621 71.0866 91.0839 70.4056 89.9863 69.6037ZM102.037 77.1122C101.782 77.8155 101.253 78.4696 100.702 78.9983C99.3853 80.2751 97.2573 80.181 95.985 78.8863C94.7172 77.596 94.6634 75.4546 95.9626 74.1643C96.5316 73.6043 97.2215 73.0623 97.9607 72.7979C99.7124 72.1663 101.527 71.7048 103.319 71.1807C103.462 71.333 103.605 71.4898 103.749 71.6421C103.189 73.4699 102.692 75.3202 102.037 77.1122Z" fill="#72BE44"/>
<path d="M50.3563 68.6852C49.1019 67.2157 47.7669 65.8045 46.3557 64.4785C44.7742 62.9956 42.8389 62.3953 40.684 62.8791C38.108 63.4615 35.5454 64.0932 32.9918 64.7697C31.4283 65.1818 30.1694 66.1002 29.2913 67.4756C28.1982 69.1869 27.916 71.1357 27.6875 72.8113C27.7233 75.1633 28.3909 77.1165 30.1381 78.1201C33.1934 79.8807 34.7704 82.394 35.7246 85.7271C36.6923 89.1095 40.563 90.7133 43.9096 89.5665C46.8664 88.554 48.1835 86.305 48.5329 83.3258C48.8376 80.7901 49.1422 78.3485 50.8715 76.1533C52.5784 73.9985 52.1662 70.8087 50.3563 68.6852ZM47.9953 74.4554C45.7374 76.9597 45.5717 80.0465 45.1685 83.0973C44.9848 84.4593 44.5323 85.6285 43.1883 86.2423C41.4411 87.0442 39.4833 86.2737 38.771 84.4413C38.3544 83.3706 38.0453 82.2551 37.7003 81.153C37.1985 79.5671 36.2667 78.3082 34.8779 77.3898C34.0715 76.8522 33.2606 76.3191 32.4766 75.7546C31.5717 75.1095 31.0789 74.2269 31.0609 72.6007C31.2536 71.9242 31.388 70.6743 31.9614 69.6797C32.3915 68.9271 33.3054 68.2417 34.1477 67.9773C36.4101 67.2605 38.7576 66.7901 41.0648 66.2122C42.3461 65.8897 43.4302 66.2436 44.3262 67.1575C45.4283 68.273 46.508 69.4065 47.5563 70.5668C48.6315 71.7585 48.9765 73.3668 47.9953 74.4554Z" fill="#72BE44"/>
<path d="M60.7874 21.2781C58.6863 21.52 56.6031 21.9725 54.5333 22.4339C52.2844 22.9357 50.7522 24.7187 50.4028 27.0438C50.0847 29.1808 51.1644 31.4253 53.1042 32.5229C54.0092 33.0336 54.9589 33.4726 55.9176 33.8848C57.6828 34.6419 59.4255 34.5075 61.0338 33.4681C62.2837 32.6617 63.5068 31.7971 64.676 30.8787C66.0111 29.8304 66.6562 28.3968 66.6741 27.344C66.6876 23.4598 63.9996 20.9062 60.7874 21.2781ZM62.6376 28.1728C61.5087 29.0733 60.3394 29.9469 59.1029 30.695C57.7007 31.5373 54.1212 29.808 53.7717 28.2086C53.5522 27.1961 54.0629 26.0537 55.0844 25.7984C57.0959 25.2921 59.1477 24.9427 61.5221 24.4589C61.988 24.8531 62.7228 25.2518 63.108 25.8656C63.6098 26.6541 63.3768 27.5814 62.6376 28.1728Z" fill="#72BE44"/>
</g>
<defs>
<clipPath id="clip0_325_584">
<rect width="114.558" height="99.4291" fill="white" transform="translate(0.445312 0.71875)"/>
</clipPath>
</defs>
</svg>
