<svg width="81" height="85" viewBox="0 0 81 85" fill="none" xmlns="http://www.w3.org/2000/svg">
<g clip-path="url(#clip0_325_551)">
<path d="M80.0864 18.5043C78.7411 15.3207 77.4623 12.1083 76.1525 8.91142C75.2445 6.69802 74.3143 4.49351 73.424 2.27345C72.9778 1.16342 72.6293 0.87925 71.4593 0.87925C50.7062 0.868149 29.9531 0.857049 9.19996 0.841509C8.99571 0.841509 8.79147 0.834849 8.58944 0.848169C8.04775 0.88591 7.63482 1.13012 7.41947 1.64073C6.55143 3.71426 5.68339 5.79002 4.82422 7.86799C3.70753 10.572 2.5975 13.2805 1.48526 15.989C1.04568 17.0546 0.550611 18.1047 0.184301 19.197C-0.23529 20.4468 0.13324 21.6856 0.575031 22.849C2.19123 27.1026 6.98656 29.5091 11.3468 27.9573C13.9265 27.0404 15.7225 25.2999 16.6638 22.7513C17.1589 21.4081 17.4297 20.0517 16.7903 18.5842C15.2763 15.0965 13.8909 11.5533 12.4523 8.03228C11.8529 6.56482 11.2557 5.09736 10.6363 3.5744H38.931C38.9465 3.77643 38.9709 3.95625 38.9732 4.13608C38.9754 5.37265 38.9443 6.61366 38.9843 7.85023C39.002 8.40081 38.7534 8.55621 38.2783 8.60505C37.6589 8.66944 37.0328 8.7205 36.429 8.86258C33.3853 9.58188 30.6746 10.965 28.3679 13.0851C24.9113 16.262 23.0331 20.2359 22.6269 24.8892C22.4271 27.1625 22.7001 29.4248 23.4949 31.5693C23.9989 32.9369 24.696 34.2379 25.3553 35.5432C25.5529 35.9318 25.5995 36.1782 25.2576 36.4912C24.6893 37.0129 24.1565 37.5746 23.6104 38.1207C21.0351 40.696 18.4576 43.2691 15.8868 45.8488C15.3118 46.4282 15.2141 47.1209 15.7469 47.6648C16.0466 47.9689 16.5661 48.1998 16.9924 48.2109C19.1902 48.2642 21.3903 48.2353 23.5904 48.2375C23.8013 48.2375 24.0144 48.2553 24.2653 48.2686V48.8347C24.2653 51.0703 24.2764 53.3082 24.2586 55.5438C24.252 56.2187 24.545 56.6627 25.1244 56.938C25.5818 57.1555 26.1812 56.9868 26.6296 56.5361C30.6613 52.5067 34.6907 48.4773 38.7201 44.4457C39.5659 43.5998 41.0578 43.5998 41.8925 44.4368C45.1383 47.6936 48.3907 50.9438 51.6408 54.1984C52.4312 54.991 53.2215 55.7835 54.0118 56.5783C54.4314 56.9979 54.9443 57.1466 55.4815 56.9224C56.041 56.6915 56.3695 56.2542 56.3407 55.5926C56.314 54.9843 56.334 54.3738 56.334 53.7633V48.2264H57.06C59.2046 48.2264 61.3491 48.2198 63.4915 48.2287C64.1997 48.2331 64.7747 48.0044 65.0566 47.3273C65.3364 46.6546 65.0256 46.1351 64.5438 45.6578C61.4934 42.6275 58.4653 39.5771 55.4038 36.56C54.9975 36.1604 55.0197 35.894 55.3039 35.45C56.9534 32.8747 57.7993 30.0286 57.9769 26.9894C58.0945 25.0068 57.8104 23.0687 57.2576 21.1573C56.4694 18.4333 55.1041 16.0356 53.1505 14.0042C50.1845 10.9184 46.5924 9.01799 42.2833 8.60061C41.8348 8.55621 41.6483 8.37639 41.6594 7.89686C41.6883 6.64252 41.6839 5.38375 41.6572 4.1272C41.6483 3.67874 41.7793 3.52334 42.2478 3.52334C51.2856 3.53 60.3212 3.52112 69.3591 3.5189C69.5478 3.5189 69.7387 3.5522 70.0162 3.57884C69.7143 4.32478 69.4523 4.98636 69.1815 5.64128C67.4121 9.91933 65.6405 14.1952 63.8756 18.4754C63.7224 18.8484 63.5514 19.2347 63.5093 19.6254C63.376 20.8997 63.6513 22.1208 64.1686 23.2774C65.8137 26.9583 69.9563 29.2139 74.15 28.0794C76.3967 27.4733 78.1372 26.2035 79.2916 24.2076C80.3151 22.4382 80.9678 20.5889 80.0864 18.5021V18.5043ZM9.2155 25.6995C6.55365 25.997 3.63871 24.2942 2.93717 21.2505H14.1973C14.0685 23.0665 12.0838 25.3776 9.2155 25.6995ZM13.8266 18.4421H3.40117C5.12615 14.2329 6.82894 10.0792 8.53172 5.92544C8.585 5.92544 8.63828 5.92544 8.69157 5.92544C10.3944 10.0792 12.0994 14.2307 13.8266 18.4444V18.4421ZM27.0537 52.2736C27.0359 52.0161 27.0115 51.8274 27.0115 51.6409C27.007 50.2001 27.0159 48.7593 27.0004 47.3207C27.0004 47.0321 26.9382 46.7368 26.8516 46.4615C26.6452 45.811 26.2611 45.538 25.5884 45.5357C23.7813 45.5313 21.972 45.5335 20.0827 45.5335C20.1848 45.3892 20.2403 45.2871 20.318 45.2094C22.5025 43.016 24.6982 40.8314 26.8738 38.6269C27.2268 38.2695 27.4311 38.2695 27.8018 38.6358C29.8132 40.6227 32.1398 42.1102 34.8616 42.9405C35.1746 43.0359 35.4855 43.1425 35.794 43.2491C35.8606 43.2735 35.9161 43.3223 35.9739 43.3579C33.0167 46.3128 30.0752 49.2543 27.0537 52.2736ZM60.5455 45.5357H55.2529C54.145 45.538 53.6589 46.0175 53.6455 47.1675C53.6278 48.646 53.6411 50.1246 53.6389 51.6032C53.6367 51.8007 53.6211 51.9961 53.6034 52.3491C50.5463 49.2854 47.6092 46.3416 44.7187 43.4467C46.2328 42.7607 47.8467 42.1879 49.292 41.3332C50.7328 40.4784 52.0049 39.3418 53.3369 38.3405C55.6724 40.6716 58.0812 43.0759 60.5455 45.5357ZM55.3084 26.148C55.3283 34.4199 48.5216 41.18 40.2275 41.1378C32.071 41.0956 25.2732 34.4155 25.2932 26.0503C25.3131 17.9027 32.1132 11.0915 40.3851 11.1226C48.4706 11.1515 55.3905 17.8627 55.3084 26.148ZM71.9299 5.77892C71.9766 5.77226 72.021 5.7656 72.0676 5.75894C73.7881 9.96373 75.5087 14.1685 77.2692 18.4688H66.7372C68.4866 14.1952 70.2072 9.98593 71.9299 5.77892ZM72.7225 25.7106C69.7942 26.0481 66.9614 24.2232 66.2888 21.195H77.651C77.5778 22.9045 75.5953 25.382 72.7225 25.7106Z" fill="#72BE44"/>
<path d="M74.092 55.9524C73.3772 54.0143 70.9573 52.7888 68.8083 54.0254C66.6482 55.2686 64.4525 56.4519 62.2724 57.6619C59.9969 58.9273 57.7568 60.266 55.4324 61.4382C52.6396 62.8457 49.789 64.14 46.934 65.4187C46.177 65.7584 45.3134 65.865 44.4942 66.0603C44.2012 66.1314 44.028 66.0182 43.9503 65.6851C43.5729 64.0778 42.5894 62.9767 41.0398 62.4305C39.8854 62.0221 38.7109 61.6713 37.5365 61.3227C35.3298 60.6634 33.112 60.0395 30.9074 59.3669C29.4999 58.9362 28.1191 58.6032 26.605 58.8008C25.3595 58.965 24.2073 59.3336 23.0862 59.8264C21.894 60.3504 20.7662 61.0297 19.5518 61.4892C17.9356 62.0998 16.2617 62.5615 14.5789 63.0988C14.4701 62.8834 14.428 62.8013 14.3858 62.7214C13.7775 61.5714 12.8673 60.9209 11.5219 60.932C9.73031 60.9453 7.9365 60.932 6.14491 60.9409C5.90959 60.9409 5.66316 60.9653 5.44115 61.0386C4.0403 61.5092 3.19224 62.6903 3.1878 64.1666C3.18336 66.1247 3.18558 68.085 3.18558 70.0431C3.18558 73.8305 3.17892 77.618 3.19002 81.4076C3.19446 83.1548 4.64415 84.5823 6.3869 84.6001C8.10522 84.6178 9.82355 84.6222 11.5419 84.5978C12.8206 84.5801 14.1194 83.7476 14.4679 82.4866C14.6011 82.0026 14.6522 81.4964 14.7587 80.8948C16.8412 80.9725 18.9391 81.0391 21.0371 81.1301C22.4557 81.1923 23.8743 81.2455 25.2863 81.3765C26.7226 81.512 28.159 81.7029 29.5843 81.936C30.9896 82.1624 32.3749 82.5021 33.7802 82.7374C35.6406 83.0505 37.4744 83.3923 39.408 83.1171C41.3195 82.8462 43.1599 82.4089 44.8716 81.5763C46.9229 80.5795 48.961 79.5294 50.8858 78.3128C53.3744 76.7388 55.8165 75.0693 58.1476 73.2733C60.7051 71.3041 63.1716 69.2084 65.5714 67.046C68.2333 64.6462 70.8041 62.1397 73.355 59.62C74.374 58.6143 74.5938 57.3133 74.092 55.9524ZM11.937 72.7694C11.9348 75.5378 11.937 78.3084 11.9348 81.079C11.9348 81.785 11.886 81.8383 11.18 81.8405C9.66593 81.845 8.15185 81.845 6.63777 81.8405C5.99395 81.8383 5.90293 81.7428 5.90293 81.0946C5.90071 75.5378 5.90071 69.9787 5.90293 64.4197C5.90293 63.7248 5.97397 63.6538 6.66219 63.6516C8.19625 63.6494 9.72809 63.6693 11.2599 63.6405C11.8038 63.6294 11.9504 63.827 11.9459 64.3487C11.9259 67.1548 11.937 69.961 11.937 72.7694ZM71.2903 57.9549C70.1359 59.116 68.9792 60.2749 67.7915 61.4027C66.4572 62.6681 65.1208 63.9357 63.7266 65.1368C61.5998 66.9683 59.4618 68.7932 57.2507 70.5227C55.1638 72.1566 53.0059 73.7107 50.8214 75.2114C48.3127 76.9342 45.6708 78.4505 42.8158 79.5228C40.78 80.2887 38.6643 80.7771 36.4509 80.3819C35.0101 80.1222 33.5693 79.8647 32.1263 79.6138C30.9585 79.4073 29.7885 79.1986 28.6163 79.0099C24.1762 78.2995 19.6984 78.2662 15.2205 78.2662C15.0562 78.2662 14.8919 78.2507 14.6699 78.2396V65.8028C15.367 65.6119 16.0752 65.3743 16.8012 65.23C18.8725 64.8193 20.7662 63.9535 22.6555 63.0522C23.7589 62.5238 24.8755 61.9843 26.0433 61.6335C27.1111 61.3116 28.2389 61.3494 29.3445 61.7135C30.6655 62.1464 32.0153 62.4994 33.3473 62.899C34.9391 63.3785 36.5264 63.8736 38.116 64.3598C38.7287 64.5485 39.3414 64.735 39.9542 64.9148C41.3217 65.3166 41.7635 66.6797 41.0775 67.9518C40.5492 68.9331 39.1816 69.8344 37.4322 69.2461C35.5984 68.6289 33.7203 68.145 31.8687 67.5877C30.5545 67.1926 29.2513 66.7663 27.9414 66.36C27.049 66.0848 26.2542 66.5199 26.0544 67.3768C25.8901 68.0961 26.4473 68.7666 27.2887 68.9975C28.6452 69.3682 29.9839 69.8056 31.3315 70.2096C32.941 70.6936 34.5506 71.1776 36.1623 71.6505C36.7218 71.8125 37.2857 71.9724 37.8584 72.0789C39.8609 72.4519 42.2386 71.3596 43.2576 69.5592C43.5063 69.1218 43.8237 68.9065 44.2678 68.8487C47.8465 68.3759 51.0079 66.7574 54.1315 65.119C58.4961 62.8302 62.7853 60.3948 67.1077 58.0215C68.0868 57.482 69.0658 56.9448 70.0471 56.4075C70.611 56.0967 71.0306 56.1633 71.3969 56.6184C71.7432 57.0491 71.7299 57.5131 71.2903 57.9549Z" fill="#72BE44"/>
<path d="M51.5666 21.8596C51.3379 21.6709 50.9649 21.5821 50.6586 21.5798C48.534 21.5554 46.4072 21.5776 44.2826 21.551C44.0583 21.5488 43.7853 21.3823 43.6276 21.2091C43.4789 21.047 43.4478 20.7762 43.3768 20.5497C42.7996 18.7137 42.2312 16.8778 41.6451 15.0462C41.4098 14.3047 40.9414 13.9451 40.2998 13.9473C39.6471 13.9495 39.2097 14.3025 38.9633 15.0529C38.3128 17.0354 37.6535 19.0157 37.0407 21.0115C36.9031 21.46 36.7033 21.5776 36.2659 21.5732C34.1413 21.5532 32.0167 21.5599 29.8899 21.5643C29.1351 21.5665 28.8199 21.7952 28.5734 22.6299C28.4158 23.1605 28.68 23.6001 29.0996 23.9109C30.2518 24.7612 31.4195 25.587 32.5762 26.4284C33.3133 26.9635 34.0414 27.5118 34.7563 28.0402C34.6075 28.4798 34.4743 28.8572 34.3522 29.2368C33.7728 31.0484 33.2067 32.8622 32.6184 34.6693C32.4186 35.2798 32.665 35.9281 33.1956 36.2522C33.9371 36.7029 34.4965 36.3077 35.0493 35.9059C36.7943 34.6338 38.5304 33.3484 40.302 32.0452C41.1012 32.6313 41.8494 33.1885 42.6064 33.7369C43.732 34.5561 44.8509 35.3864 45.9942 36.1812C46.5936 36.5985 47.0643 36.5453 47.6038 36.099C48.0789 35.7083 48.1965 35.2399 47.9923 34.616C47.8435 34.1654 47.7059 33.708 47.5594 33.2551C47.0865 31.8076 46.6336 30.3513 46.1274 28.9171C45.8299 28.0779 45.8033 28.038 46.5093 27.5229C46.5537 27.4919 46.607 27.4719 46.6514 27.4386C48.2587 26.2686 49.8749 25.1097 51.4645 23.9176C52.2615 23.3181 52.3036 22.4679 51.5666 21.8596ZM46.0342 24.5836C45.2794 25.1364 44.5223 25.6847 43.7586 26.2242C42.9705 26.777 42.7751 27.4341 43.0726 28.1579C43.4523 29.0859 43.7276 30.056 44.0406 31.0106C44.0761 31.1217 44.0583 31.2482 44.0717 31.4724C43.0793 30.7553 42.1646 30.0982 41.2522 29.4322C40.5728 28.9349 40.0178 28.9416 39.3385 29.4433C38.4305 30.1115 37.5136 30.7664 36.4569 31.5301C36.6611 30.8575 36.8054 30.3424 36.9741 29.834C37.185 29.1924 37.4181 28.5597 37.6379 27.9203C37.8466 27.3076 37.4803 26.6394 36.7455 26.1443C35.9285 25.5915 35.1426 24.9921 34.2079 24.315C34.5054 24.2772 34.6497 24.2461 34.794 24.2439C35.6798 24.2395 36.5679 24.2661 37.4537 24.2328C38.4904 24.1928 38.9744 23.851 39.2097 22.9829C39.4939 21.9373 39.8824 20.9205 40.2265 19.8926C40.2776 19.8926 40.3264 19.8904 40.3775 19.8904C40.7216 20.9227 41.1012 21.9439 41.4032 22.9874C41.6474 23.8288 42.0581 24.1906 43.1037 24.2261C44.1338 24.2639 45.1661 24.235 46.3184 24.235C46.1763 24.4149 46.1208 24.5214 46.0342 24.5836Z" fill="#72BE44"/>
</g>
<defs>
<clipPath id="clip0_325_551">
<rect width="80.4993" height="83.7717" fill="white" transform="translate(0 0.841797)"/>
</clipPath>
</defs>
</svg>
