<svg width="472" height="472" viewBox="0 0 472 472" fill="none" xmlns="http://www.w3.org/2000/svg">
<path d="M353.45 243.732C345.683 249.805 336.708 254.316 327.387 257.613C318.066 260.91 308.4 262.992 298.562 264.381C291.658 265.248 284.754 265.942 277.849 266.116C277.159 243.558 275.606 221.001 273.362 198.617C269.91 161.831 267.321 130.25 260.762 93.9849C262.66 119.839 262.142 150.378 261.625 197.923C261.107 234.535 259.209 269.759 255.238 305.851C252.995 325.459 250.578 348.017 247.126 357.386C244.71 357.386 241.603 359.121 238.151 358.601C231.419 357.733 224.342 357.733 217.265 355.651C202.939 351.487 188.786 346.281 174.977 340.208C161.169 334.309 147.361 327.715 134.242 320.08C127.684 316.262 121.125 312.272 115.084 307.76C109.042 303.249 103.001 298.39 99.0312 291.796C101.966 299.084 107.489 304.81 112.84 310.363C118.363 315.915 124.404 320.774 130.446 325.633C142.7 335.176 155.646 344.025 168.936 352.007C182.227 359.989 195.863 367.624 210.361 374.218C217.611 377.515 225.033 380.464 233.145 382.893C235.734 383.587 238.496 384.109 241.43 384.629C240.394 388.793 227.622 430.265 203.457 468.612C214.332 470.174 225.378 471.041 236.597 471.041C242.466 471.041 248.162 470.868 253.857 470.347C261.107 451.086 265.94 429.571 269.737 408.228C277.159 365.195 278.54 346.629 278.886 309.496C278.886 299.431 278.886 289.194 278.54 279.13C286.135 278.088 293.557 276.527 300.979 274.618C311.162 272.015 321.001 268.545 330.321 264.033C339.642 259.348 348.617 253.796 356.039 246.334C363.461 239.046 369.33 230.024 372.092 220.133C367.777 229.677 361.218 237.658 353.45 243.732Z" fill="white"/>
<path d="M235.505 0C160.082 0 92.883 35.2304 49.4834 90.0916C70.133 222.074 239.006 238.024 239.006 238.024C239.006 238.024 253.531 141.272 250.031 65.2024C274.88 96.0511 277.33 110.598 286.78 131.982C286.78 99.5565 317.055 50.1288 362.029 36.4573C325.454 13.3209 282.055 0 235.505 0Z" fill="white"/>
<path d="M57.7758 166.178C42.0187 145.309 35.891 123.743 33.7901 114.004C12.2554 149.309 0 190.874 0 235.049C0 302.701 28.7128 363.572 74.5833 406.528C120.979 402.529 146.716 383.224 146.716 363.397C134.985 358.702 83.8621 331.571 83.8621 271.049C83.8621 271.049 138.487 306.875 172.102 306.875C188.559 285.832 197.488 261.31 198.539 253.136C134.11 239.048 89.4651 208.439 57.7758 166.178Z" fill="white"/>
<path d="M471.063 235.334C471.063 160.27 436.946 93.2914 383.874 49.5181C293.068 65.1639 299.961 201.758 305.302 235.334C339.592 241.839 383.703 194.55 383.703 194.55C389.561 247.289 343.727 285.085 313.4 293.347C313.4 293.347 333.216 342.043 395.936 342.043C415.924 342.043 434.534 338.878 450.73 332.901C463.654 303.192 471.063 270.142 471.063 235.334Z" fill="white"/>
</svg>
