<svg width="85" height="84" viewBox="0 0 85 84" fill="none" xmlns="http://www.w3.org/2000/svg">
<g clip-path="url(#clip0_325_467)">
<path d="M39.8017 42.636C38.5589 40.1808 37.3532 37.7087 36.0698 35.274C34.3609 32.0389 32.5304 28.8649 30.8823 25.5993C30.2845 24.4158 29.913 23.0661 29.7104 21.7504C29.3861 19.6683 31.0782 17.7184 33.1789 17.5319C34.0806 17.4505 34.8641 17.7863 35.4281 18.4679C36.1103 19.2885 36.7757 20.1396 37.3127 21.0552C40.3218 26.1791 43.2871 31.3268 46.276 36.4608C46.5968 37.0136 46.965 37.5392 47.5019 38.0038C47.4108 37.6511 47.3365 37.2883 47.225 36.9424C45.8707 32.7646 44.4455 28.6105 43.1858 24.4022C42.6758 22.6931 42.409 20.8857 42.2503 19.1054C42.105 17.4912 42.9392 16.2501 44.334 15.4091C45.587 14.6529 46.8738 14.6868 47.8599 15.7787C48.6401 16.6401 49.373 17.637 49.8019 18.7052C51.0211 21.7301 52.0816 24.8193 53.1927 27.8882C53.912 29.872 54.6111 31.8626 55.3271 33.8497C55.4284 34.1312 55.5703 34.3991 55.8675 34.6297C55.6784 32.6595 55.4757 30.6926 55.3035 28.719C55.0265 25.5213 54.4896 22.3303 54.8813 19.1054C55.0029 18.1118 55.2562 17.1555 56.0701 16.4773C57.3501 15.4125 59.0759 15.4769 60.1161 16.8334C60.8895 17.8405 61.5819 19.0104 61.9399 20.221C63.1726 24.3751 64.4053 28.5427 65.3307 32.7714C66.6512 38.8142 68.7519 44.5621 71.3591 50.1234C73.8043 55.3423 75.0201 60.8087 75.2768 66.5294C75.3207 67.5162 75.6247 68.3402 76.3035 69.1168C78.6372 71.7889 80.8966 74.5255 83.183 77.2384C83.2911 77.3672 83.4093 77.4893 83.5106 77.6249C84.0375 78.3303 84.0003 79.0865 83.4127 79.5918C82.825 80.097 82.055 80.0292 81.4674 79.3917C81.0655 78.9576 80.7007 78.493 80.3191 78.0386C78.3028 75.6479 76.344 73.2098 74.2501 70.8903C73.1592 69.6797 72.7269 68.33 72.5682 66.7701C72.3081 64.1929 72.2068 61.5615 71.5955 59.0623C70.9302 56.346 69.8056 53.7383 68.7991 51.117C67.9413 48.8857 66.999 46.6815 66.0264 44.4977C64.1858 40.3741 63.4765 35.9284 62.308 31.6116C61.3657 28.1324 60.4403 24.6498 59.4339 21.1909C59.157 20.2448 58.6099 19.3767 58.1674 18.4306C57.3603 18.8443 57.4447 19.475 57.4548 19.9837C57.4818 21.6758 57.546 23.3679 57.6743 25.0533C57.9513 28.6783 58.3059 32.3 58.5626 35.9284C58.6132 36.6677 58.4781 37.4612 58.2552 38.1733C57.7486 39.7875 56.033 40.2046 55.084 38.8278C53.9965 37.2476 53.0711 35.5012 52.3923 33.7039C50.8691 29.6753 49.5587 25.5687 48.1301 21.5062C47.8025 20.5805 47.377 19.6852 46.9312 18.807C46.7117 18.3729 46.3469 18.0067 46.0294 17.5862C45.2257 17.9965 44.8541 18.6069 44.9521 19.3428C45.1378 20.7297 45.3202 22.1438 45.7322 23.4731C47.0089 27.6169 48.4071 31.7201 49.7174 35.8538C50.0822 37.0034 50.3355 38.1937 50.5753 39.3771C50.6665 39.8349 50.653 40.3402 50.5651 40.8014C50.2646 42.3986 48.7279 43.0938 47.4513 42.1103C46.5766 41.4389 45.7525 40.5945 45.1649 39.6654C43.2871 36.6914 41.5106 33.6496 39.7308 30.618C38.1637 27.9459 36.6439 25.2466 35.087 22.5677C34.7493 21.9844 34.3812 21.4079 33.9624 20.8823C33.7665 20.6381 33.2329 20.3194 33.162 20.3838C32.8377 20.672 32.4054 21.0925 32.4122 21.4554C32.4257 22.137 32.6182 22.8627 32.912 23.4832C33.8779 25.5145 34.908 27.5186 35.9449 29.5159C37.951 33.3885 40.001 37.2374 41.9733 41.1303C42.4529 42.073 42.7636 43.1209 43.027 44.1552C43.4897 45.9728 42.2807 47.1427 40.5008 46.5425C39.6768 46.2644 38.8155 45.7896 38.2279 45.1623C36.1171 42.9038 34.1279 40.5301 32.0643 38.2208C30.7708 36.7728 29.4605 35.3418 28.096 33.9616C27.7921 33.6564 27.2416 33.5988 26.8025 33.4258C26.7384 33.9311 26.4918 34.511 26.6505 34.9315C26.9849 35.8131 27.4476 36.6779 28.0082 37.4409C31.5544 42.2799 35.1748 47.0613 38.6906 51.9207C39.974 53.6942 41.0783 55.6034 42.1793 57.5024C42.6082 58.2416 42.9122 59.0996 43.0844 59.9405C43.4526 61.7615 42.1624 63.0196 40.3623 62.5415C39.3255 62.2634 38.2988 61.7887 37.3903 61.2054C35.499 59.9914 33.7226 58.5943 31.8381 57.3701C30.3115 56.3799 28.731 55.461 27.1065 54.6403C26.1406 54.1554 25.3706 54.4606 24.8032 55.2507C24.4418 55.756 24.4013 56.2409 24.9518 56.6512C29.788 60.2559 34.1583 64.41 38.6467 68.425C42.9831 72.3077 47.9173 75.1495 53.6148 76.533C53.777 76.5737 53.9323 76.6517 54.0978 76.6788C57.1576 77.1671 58.7314 79.1543 59.4812 82.0028C59.7277 82.9387 59.5183 83.5796 58.7449 83.8814C57.958 84.19 57.3028 83.834 56.9212 82.898C55.4757 79.3442 56.2525 80.0495 52.8246 79.1645C45.5161 77.279 39.5417 73.2301 34.1988 68.0893C30.987 65 27.6333 62.0939 24.0399 59.4624C23.6785 59.1979 23.3374 58.8995 23.0098 58.5909C21.6218 57.2684 21.4191 55.4508 22.4728 53.8468C23.6144 52.1106 25.509 51.2459 27.4375 51.9648C29.2308 52.6328 30.9532 53.5721 32.5844 54.5928C34.7966 55.9798 36.8871 57.56 39.0385 59.0487C39.3559 59.2691 39.7105 59.4421 40.2036 59.5268C39.9672 59.0521 39.7882 58.54 39.491 58.106C37.2417 54.8031 35.0229 51.4765 32.6925 48.2312C30.4095 45.0504 27.9981 41.9679 25.6644 38.8244C24.7187 37.5494 23.8879 36.1828 23.8508 34.5347C23.8339 33.8531 23.9386 33.1037 24.2155 32.4899C25.0463 30.635 26.968 29.9296 28.6127 31.0792C30.1359 32.144 31.5071 33.4835 32.7668 34.867C34.7189 37.0102 36.5122 39.2958 38.3799 41.5135C38.7581 41.9645 39.1837 42.3748 39.5856 42.8055C39.6632 42.7479 39.7375 42.6902 39.8152 42.6292L39.8017 42.636Z" fill="#72BE44"/>
<path d="M81.1081 57.2622C79.2303 54.7901 77.6024 52.7046 76.0388 50.5682C72.9215 46.3124 71.1822 41.4259 69.9259 36.38C68.2946 29.8217 66.8964 23.2057 65.3226 16.6339C64.3466 12.5544 63.2557 8.49532 61.4387 4.68715C61.2226 4.23275 60.9592 3.80209 60.7194 3.36125C60.591 3.3782 60.4965 3.36464 60.4323 3.40533C55.9304 6.36912 50.8611 7.75267 45.6634 8.82764C41.4891 9.68897 37.3147 10.5706 33.1809 11.6015C29.9218 12.412 27.0951 14.1686 24.427 16.1862C20.4114 19.2212 16.4397 22.3241 12.3262 25.2234C9.4183 27.2716 6.30782 29.0282 3.05886 31.0561C3.33918 31.9581 3.63638 33.1856 4.09569 34.3488C5.44661 37.7873 7.56755 40.7816 9.66147 43.7827C12.9138 48.4488 16.281 53.0437 18.8747 58.1303C20.1142 60.5583 21.1476 63.0914 22.2486 65.5872C22.3905 65.9094 22.5661 66.3943 22.4276 66.6249C22.1642 67.0624 21.742 67.5201 21.2861 67.6897C20.6681 67.9203 20.1108 67.5337 19.8845 66.9098C16.7504 58.1981 11.2792 50.87 6.09505 43.369C4.02815 40.3781 2.07945 37.3024 1.01898 33.7791C0.664364 32.599 0.488745 31.3612 0.272599 30.1439C0.147639 29.4317 0.404313 28.8383 1.10679 28.5636C6.16935 26.5799 10.4585 23.338 14.7646 20.1233C17.2198 18.2887 19.6988 16.4779 22.0764 14.545C26.6459 10.8284 31.9144 8.77338 37.6119 7.61703C42.0396 6.7184 46.4672 5.81299 50.8509 4.73802C54.1438 3.93095 57.18 2.45244 59.9392 0.438152C60.8747 -0.243452 61.5299 -0.131547 62.2425 0.811169C63.8771 2.97806 64.8329 5.48066 65.6874 8.02057C67.734 14.0906 68.9937 20.364 70.4156 26.5968C71.2363 30.1913 72.0637 33.7892 73.0026 37.3566C74.4582 42.8807 76.9743 47.8757 80.6825 52.2468C81.6653 53.4032 82.5232 54.668 83.462 55.8651C83.9855 56.5331 83.9957 57.1672 83.5431 57.8827C82.3475 59.7614 80.8041 61.3077 79.0918 62.7014C78.4603 63.2135 77.6768 63.1457 77.1972 62.6099C76.6669 62.0198 76.7075 61.2602 77.3559 60.66C78.592 59.5172 79.8551 58.405 81.1148 57.2724L81.1081 57.2622Z" fill="#72BE44"/>
<path d="M20.7467 70.4466C19.2067 69.8362 17.6801 69.1919 16.1333 68.6019C15.2046 68.2458 14.5865 67.6388 14.2319 66.7063C13.6443 65.1837 13.0127 63.678 12.425 62.1521C12.1718 61.4976 11.8138 60.9889 11.0539 60.9788C10.2501 60.9652 9.8887 61.5044 9.62865 62.186C9.041 63.712 8.40945 65.2176 7.8218 66.7402C7.47056 67.6388 6.8694 68.239 5.97442 68.5849C4.431 69.1851 2.90446 69.8294 1.36104 70.4297C0.699092 70.6874 0.229649 71.0807 0.246535 71.8437C0.263422 72.5592 0.72611 72.9289 1.35429 73.1764C2.84367 73.7597 4.31279 74.3938 5.81231 74.9533C6.83225 75.3365 7.49758 75.9876 7.87921 77.0185C8.43647 78.5207 9.07478 79.9958 9.65567 81.4913C9.90897 82.1526 10.2906 82.6409 11.0471 82.6307C11.807 82.6205 12.1684 82.1153 12.4217 81.4608C13.0093 79.9382 13.6443 78.4326 14.2285 76.9066C14.5831 75.9774 15.1944 75.3636 16.1266 75.011C17.6767 74.4209 19.1999 73.7732 20.7399 73.1662C21.3715 72.9153 21.7869 72.5219 21.8274 71.8064C21.7903 71.0943 21.3782 70.6942 20.7467 70.4466ZM11.0572 77.4831C10.196 74.5328 8.44998 72.5864 5.38677 71.8336C8.35879 70.9756 10.2298 69.1614 11.0336 66.1467C11.8442 69.1614 13.6814 70.9858 16.6872 71.7861C13.7186 72.6271 11.8306 74.4243 11.0572 77.4831Z" fill="#72BE44"/>
<path d="M17.7575 8.01298C16.6059 7.56197 15.4745 7.06688 14.3127 6.64978C13.4312 6.33102 12.8537 5.77488 12.5329 4.88303C12.1107 3.7199 11.621 2.58389 11.1718 1.42754C10.8983 0.72559 10.6078 0.0372048 9.7027 0.0236406C8.79421 0.0100763 8.48349 0.678116 8.20993 1.39024C7.77089 2.51946 7.28118 3.62834 6.87928 4.76774C6.54493 5.71384 5.96403 6.33102 5.01164 6.66673C3.90051 7.06009 2.82315 7.54163 1.72553 7.97229C1.00617 8.25714 0.259789 8.51825 0.246279 9.47453C0.23277 10.4308 0.958888 10.7191 1.68501 11.0039C2.80964 11.4447 3.91402 11.9364 5.04879 12.3434C5.97079 12.6723 6.53142 13.2691 6.86239 14.1847C7.32171 15.4564 7.80466 16.7212 8.3788 17.942C8.6017 18.4134 9.10492 18.7491 9.33795 18.9932C10.3714 18.9525 10.7801 18.549 11.0266 17.9149C11.5197 16.6568 12.06 15.4157 12.516 14.1474C12.8503 13.2217 13.4414 12.6553 14.3532 12.3264C15.4914 11.9229 16.5957 11.4346 17.717 10.9937C18.4195 10.719 19.1051 10.424 19.1186 9.51522C19.1287 8.60642 18.4634 8.28766 17.7575 8.01298ZM9.80402 13.7947C9.1961 12.8147 8.7807 11.8313 8.08497 11.126C7.39938 10.4274 6.4301 10.0137 5.46082 9.39315C7.575 8.79971 9.00022 7.42294 9.68243 5.2357C10.4018 7.40598 11.7324 8.81666 13.975 9.47453C11.8 10.1833 10.3579 11.5397 9.80402 13.7947Z" fill="#72BE44"/>
<path d="M82.8843 6.84627C81.861 6.33422 80.7262 6.0392 79.7097 5.51359C79.1862 5.2423 78.683 4.73703 78.4094 4.21142C77.8927 3.21784 77.5448 2.13948 77.1396 1.08825C76.893 0.457513 76.4979 0.020066 75.7819 0.0234571C75.0659 0.0268481 74.6809 0.471077 74.4377 1.10181C74.0628 2.07166 73.6272 3.02116 73.2894 4.00456C73.0091 4.81503 72.5296 5.33386 71.7156 5.61532C70.7396 5.95782 69.7939 6.39526 68.8247 6.76489C68.1627 7.01583 67.6899 7.40919 67.7034 8.16879C67.7169 8.88769 68.1695 9.2641 68.7976 9.50826C69.8446 9.91179 70.9152 10.2712 71.9081 10.7833C72.408 11.0444 72.8943 11.5259 73.151 12.0312C73.6711 13.0553 74.0324 14.1574 74.4546 15.2324C74.691 15.8292 75.0794 16.2463 75.7549 16.2599C76.4675 16.2768 76.8795 15.8529 77.1294 15.2188C77.5381 14.171 77.9771 13.1367 78.3655 12.0787C78.6154 11.3937 79.068 10.9664 79.7468 10.7155C80.7972 10.3221 81.8576 9.9457 82.8607 9.45061C83.3268 9.21663 83.6611 8.71475 84.2352 8.15522C83.6712 7.59231 83.3504 7.07687 82.8843 6.84627ZM75.792 11.2207C75.201 9.6812 74.2925 8.71136 72.695 8.14844C74.2756 7.56518 75.1976 6.6089 75.7886 5.04562C76.3932 6.62585 77.2949 7.57196 78.9397 8.14505C77.2983 8.67745 76.3864 9.67103 75.792 11.2207Z" fill="#72BE44"/>
<path d="M25.8629 81.3657C28.6086 80.7926 31.3105 80.3043 33.9718 79.6532C36.5588 79.0191 39.1053 78.2222 41.6686 77.4931C42.6447 77.215 43.2762 77.432 43.5971 78.1577C43.9584 78.9818 43.5532 79.7651 42.513 80.0669C39.6862 80.8875 36.8661 81.7658 34.0022 82.4406C31.3848 83.0578 28.7133 83.4478 26.0622 83.9158C25.5961 83.9971 25.1098 83.9971 24.6336 83.987C23.769 83.9734 23.2793 83.5156 23.1712 82.6679C22.9044 80.5145 22.6342 78.3612 22.364 76.2113C22.2526 75.333 22.7186 74.631 23.4988 74.5191C24.2486 74.4106 24.8902 74.8888 25.0287 75.7467C25.3158 77.5202 25.5556 79.3039 25.8595 81.3623L25.8629 81.3657Z" fill="#72BE44"/>
</g>
<defs>
<clipPath id="clip0_325_467">
<rect width="84" height="84" fill="white" transform="translate(0.234375)"/>
</clipPath>
</defs>
</svg>
