<svg width="181" height="41" viewBox="0 0 181 41" fill="none" xmlns="http://www.w3.org/2000/svg">
<g clip-path="url(#clip0_277_1379)">
<path d="M1.75024 40.1481H1.16716C0.708213 40.1481 0.332031 40.024 0.332031 39.565V39.1474C0.332031 38.6885 0.708213 38.523 1.16716 38.523H1.75024C5.16597 38.523 5.91833 37.8158 5.91833 34.5242V1.86029C5.91833 1.44273 6.21175 1.07031 6.62555 1.07031H7.04312C7.46068 1.07031 7.75034 1.44649 7.75034 1.86029V34.5242C7.75034 38.3988 6.33213 40.1481 1.75024 40.1481Z" fill="#9E9F9F"/>
<path d="M24.7049 32.2708C17.9148 32.2708 14.8301 28.0614 14.8301 21.023V1.86029C14.8301 1.44273 15.1235 1.07031 15.5373 1.07031H15.9549C16.3724 1.07031 16.6621 1.44649 16.6621 1.86029V21.023C16.6621 27.0645 18.8703 30.563 24.7049 30.563C30.5394 30.563 32.7025 27.0645 32.7025 21.023V1.86029C32.7025 1.44273 32.9921 1.07031 33.4097 1.07031H33.8273C34.2448 1.07031 34.5345 1.44649 34.5345 1.86029V21.023C34.5345 28.0651 31.4949 32.2708 24.7011 32.2708H24.7049Z" fill="#9E9F9F"/>
<path d="M42.7478 32.0226H42.3303C41.9127 32.0226 41.623 31.6464 41.623 31.2326V1.86029C41.623 1.44273 41.9165 1.07031 42.3303 1.07031H42.7478C43.1654 1.07031 43.4551 1.44649 43.4551 1.86029V31.2326C43.4551 31.6501 43.1616 32.0226 42.7478 32.0226Z" fill="#9E9F9F"/>
<path d="M67.1185 31.8569C66.0351 31.9811 63.7442 32.2745 59.9109 32.2745C54.7045 32.2745 49.7051 29.2763 49.7051 19.3188V13.819C49.7051 3.86145 54.7045 0.863281 59.9109 0.863281C63.7442 0.863281 66.0351 1.1567 67.1185 1.28084C67.4947 1.32222 67.9085 1.57427 67.9085 1.98807V2.48839C67.9085 2.90595 67.7016 2.98871 67.3668 2.98871H67.1148C65.6138 2.82319 62.4915 2.61253 59.9071 2.61253C55.2425 2.61253 51.5333 5.6107 51.5333 13.819V19.3188C51.5333 27.5271 55.2425 30.5252 59.9071 30.5252C62.4915 30.5252 65.6138 30.3183 67.1148 30.149H67.3668C67.7016 30.149 67.9085 30.2318 67.9085 30.6494V31.1497C67.9085 31.5672 67.491 31.8155 67.1185 31.8569Z" fill="#9E9F9F"/>
<path d="M90.4917 2.19119L83.9085 16.7306C83.2013 18.273 82.5768 18.8974 81.9486 19.1457V31.2287C81.9486 31.6462 81.6589 32.0187 81.2414 32.0187H80.8238C80.4063 32.0187 80.1166 31.6425 80.1166 31.2287V19.1457C79.4921 18.8974 78.8677 18.2692 78.1567 16.7306L71.5773 2.19119C71.4945 1.98429 71.4531 1.77363 71.4531 1.64949C71.4531 1.27331 71.7014 1.06641 72.1603 1.06641H72.5779C72.8262 1.06641 73.1196 1.31469 73.2438 1.56673L79.7856 16.1475C80.3273 17.3551 80.5342 17.6071 81.0345 17.6071C81.5348 17.6071 81.7417 17.3588 82.2834 16.1475L88.8252 1.56673C88.9494 1.31469 89.2428 1.06641 89.491 1.06641H89.9086C90.3676 1.06641 90.6158 1.27331 90.6158 1.64949C90.6158 1.77363 90.5745 1.98429 90.4917 2.19119Z" fill="#9E9F9F"/>
<path d="M104.09 32.2706C101.381 32.2706 99.2972 31.9771 97.6307 31.8116C97.2546 31.7702 96.8821 31.5596 96.8821 31.1458V30.6041C96.8821 30.1865 97.2583 30.0624 97.6721 30.0624H97.8376C100.004 30.2279 101.795 30.5213 104.086 30.5213C110.376 30.5213 111.835 27.73 111.835 24.3143C111.835 21.2296 110.045 20.1462 105.421 17.2722L102.796 15.6471C99.0038 13.3148 96.2539 11.3135 96.2539 7.60808C96.2539 2.14968 101.129 0.859375 106.005 0.859375C108.213 0.859375 110.421 1.10766 112.212 1.27694C112.629 1.31832 112.919 1.52522 112.919 1.9014V2.4431C112.919 2.86066 112.584 3.02618 112.129 3.02618C111.211 3.02618 108.089 2.60862 105.963 2.60862C100.463 2.60862 98.1311 4.19235 98.1311 7.64946C98.1311 10.2338 100.046 11.7724 103.755 14.022L106.422 15.6471C111.045 18.4384 113.754 20.481 113.754 24.3143C113.754 28.1476 112.129 32.2706 104.09 32.2706Z" fill="#121212"/>
<path d="M133.922 32.0226H124.424C121.256 32.0226 119.383 30.8564 119.383 27.3579V1.86029C119.383 1.44273 119.676 1.07031 120.09 1.07031H120.508C120.925 1.07031 121.215 1.44649 121.215 1.86029V27.3579C121.215 29.9423 122.422 30.3147 124.424 30.3147H133.922C134.381 30.3147 134.712 30.5667 134.712 30.9805V31.3153C134.712 31.7329 134.377 32.0226 133.922 32.0226Z" fill="#121212"/>
<path d="M141.047 32.0226H140.629C140.212 32.0226 139.922 31.6464 139.922 31.2326V1.86029C139.922 1.44273 140.212 1.07031 140.629 1.07031H141.047C141.464 1.07031 141.754 1.44649 141.754 1.86029V31.2326C141.754 31.6501 141.464 32.0226 141.047 32.0226Z" fill="#121212"/>
<path d="M171.879 32.0223H171.461C171.044 32.0223 170.754 31.6461 170.754 31.2323V2.90204C170.754 2.69514 170.63 2.60862 170.461 2.60862C170.254 2.60862 170.171 2.69138 170.043 2.9848L162.835 18.1901C162.252 19.3976 161.628 19.691 160.71 19.691C159.792 19.691 159.168 19.3976 158.585 18.1901L151.377 2.9848C151.253 2.69138 151.17 2.60862 150.959 2.60862C150.794 2.60862 150.666 2.69138 150.666 2.90204V31.2323C150.666 31.6499 150.376 32.0223 149.959 32.0223H149.541C149.124 32.0223 148.834 31.6461 148.834 31.2323V2.90204C148.834 1.52522 149.665 0.859375 150.959 0.859375C151.96 0.859375 152.543 1.44246 152.874 2.14968L160.165 17.4415C160.33 17.8177 160.458 17.9832 160.706 17.9832C160.955 17.9832 161.082 17.8177 161.248 17.4415L168.538 2.14968C168.873 1.44246 169.456 0.859375 170.453 0.859375C171.743 0.859375 172.579 1.52522 172.579 2.90204V31.2323C172.579 31.6499 172.285 32.0223 171.871 32.0223H171.879Z" fill="#121212"/>
</g>
<defs>
<clipPath id="clip0_277_1379">
<rect width="179.777" height="39.2884" fill="white" transform="translate(0.332031 0.859375)"/>
</clipPath>
</defs>
</svg>
