<svg width="181" height="40" viewBox="0 0 181 40" fill="none" xmlns="http://www.w3.org/2000/svg">
<g clip-path="url(#clip0_130_1082)">
<path d="M2.01196 39.5542H1.42887C0.969932 39.5542 0.59375 39.4301 0.59375 38.9711V38.5536C0.59375 38.0946 0.969932 37.9291 1.42887 37.9291H2.01196C5.42769 37.9291 6.18005 37.2219 6.18005 33.9303V1.26642C6.18005 0.848861 6.47347 0.47644 6.88727 0.47644H7.30484C7.7224 0.47644 8.01206 0.852622 8.01206 1.26642V33.9303C8.01206 37.805 6.59385 39.5542 2.01196 39.5542Z" fill="#9E9F9F"/>
<path d="M24.9685 31.677C18.1784 31.677 15.0938 27.4675 15.0938 20.4291V1.26642C15.0938 0.848861 15.3872 0.47644 15.801 0.47644H16.2185C16.6361 0.47644 16.9258 0.852622 16.9258 1.26642V20.4291C16.9258 26.4706 19.1339 29.9691 24.9685 29.9691C30.8031 29.9691 32.9662 26.4706 32.9662 20.4291V1.26642C32.9662 0.848861 33.2558 0.47644 33.6734 0.47644H34.0909C34.5085 0.47644 34.7982 0.852622 34.7982 1.26642V20.4291C34.7982 27.4713 31.7586 31.677 24.9648 31.677H24.9685Z" fill="#9E9F9F"/>
<path d="M43.0076 31.4287H42.59C42.1725 31.4287 41.8828 31.0525 41.8828 30.6387V1.26642C41.8828 0.848861 42.1762 0.47644 42.59 0.47644H43.0076C43.4252 0.47644 43.7148 0.852622 43.7148 1.26642V30.6387C43.7148 31.0563 43.4214 31.4287 43.0076 31.4287Z" fill="#9E9F9F"/>
<path d="M67.3822 31.2629C66.2988 31.3871 64.0079 31.6805 60.1746 31.6805C54.9682 31.6805 49.9688 28.6823 49.9688 18.7248V13.225C49.9688 3.26746 54.9682 0.269287 60.1746 0.269287C64.0079 0.269287 66.2988 0.562709 67.3822 0.686849C67.7584 0.728229 68.1722 0.980271 68.1722 1.39407V1.89439C68.1722 2.31195 67.9653 2.39471 67.6305 2.39471H67.3784C65.8775 2.22919 62.7552 2.01853 60.1708 2.01853C55.5061 2.01853 51.797 5.0167 51.797 13.225V18.7248C51.797 26.9331 55.5061 29.9312 60.1708 29.9312C62.7552 29.9312 65.8775 29.7243 67.3784 29.555H67.6305C67.9653 29.555 68.1722 29.6378 68.1722 30.0554V30.5557C68.1722 30.9733 67.7546 31.2215 67.3822 31.2629Z" fill="#9E9F9F"/>
<path d="M90.7495 1.59756L84.1663 16.137C83.4591 17.6793 82.8346 18.3038 82.2064 18.5521V30.635C82.2064 31.0526 81.9168 31.425 81.4992 31.425H81.0816C80.6641 31.425 80.3744 31.0488 80.3744 30.635V18.5521C79.7499 18.3038 79.1255 17.6756 78.4145 16.137L71.8351 1.59756C71.7523 1.39066 71.7109 1.18 71.7109 1.05586C71.7109 0.679678 71.9592 0.472778 72.4182 0.472778H72.8357C73.084 0.472778 73.3774 0.721058 73.5016 0.9731L80.0434 15.5539C80.5851 16.7615 80.792 17.0135 81.2923 17.0135C81.7926 17.0135 81.9995 16.7652 82.5412 15.5539L89.083 0.9731C89.2072 0.721058 89.5006 0.472778 89.7489 0.472778H90.1664C90.6254 0.472778 90.8736 0.679678 90.8736 1.05586C90.8736 1.18 90.8323 1.39066 90.7495 1.59756Z" fill="#9E9F9F"/>
<path d="M104.352 31.6768C101.643 31.6768 99.5589 31.3834 97.8925 31.2179C97.5163 31.1765 97.1439 30.9658 97.1439 30.552V30.0103C97.1439 29.5928 97.52 29.4686 97.9338 29.4686H98.0994C100.266 29.6341 102.057 29.9276 104.348 29.9276C110.637 29.9276 112.097 27.1363 112.097 23.7206C112.097 20.6359 110.306 19.5525 105.683 16.6784L103.057 15.0533C99.2655 12.721 96.5156 10.7197 96.5156 7.01433C96.5156 1.55593 101.391 0.265625 106.266 0.265625C108.474 0.265625 110.683 0.513905 112.473 0.683187C112.891 0.724567 113.18 0.931467 113.18 1.30765V1.84935C113.18 2.26691 112.846 2.43243 112.391 2.43243C111.473 2.43243 108.35 2.01487 106.225 2.01487C100.725 2.01487 98.3928 3.5986 98.3928 7.05571C98.3928 9.64008 100.308 11.1787 104.017 13.4282L106.684 15.0533C111.307 17.8446 114.016 19.8873 114.016 23.7206C114.016 27.5539 112.391 31.6768 104.352 31.6768Z" fill="#121212"/>
<path d="M134.18 31.4287H124.681C121.514 31.4287 119.641 30.2625 119.641 26.764V1.26642C119.641 0.848861 119.934 0.47644 120.348 0.47644H120.765C121.183 0.47644 121.473 0.852622 121.473 1.26642V26.764C121.473 29.3484 122.68 29.7208 124.681 29.7208H134.18C134.639 29.7208 134.97 29.9729 134.97 30.3867V30.7215C134.97 31.139 134.635 31.4287 134.18 31.4287Z" fill="#121212"/>
<path d="M141.312 31.4287H140.895C140.477 31.4287 140.188 31.0525 140.188 30.6387V1.26642C140.188 0.848861 140.477 0.47644 140.895 0.47644H141.312C141.73 0.47644 142.02 0.852622 142.02 1.26642V30.6387C142.02 31.0563 141.73 31.4287 141.312 31.4287Z" fill="#121212"/>
<path d="M172.139 31.4285H171.721C171.304 31.4285 171.014 31.0524 171.014 30.6386V2.30829C171.014 2.10139 170.89 2.01487 170.72 2.01487C170.514 2.01487 170.431 2.09763 170.303 2.39105L163.095 17.5963C162.512 18.8039 161.888 19.0973 160.97 19.0973C160.052 19.0973 159.427 18.8039 158.844 17.5963L151.637 2.39105C151.513 2.09763 151.43 2.01487 151.219 2.01487C151.054 2.01487 150.926 2.09763 150.926 2.30829V30.6386C150.926 31.0561 150.636 31.4285 150.219 31.4285H149.801C149.383 31.4285 149.094 31.0524 149.094 30.6386V2.30829C149.094 0.931467 149.925 0.265625 151.219 0.265625C152.22 0.265625 152.803 0.848707 153.134 1.55593L160.424 16.8477C160.59 17.2239 160.718 17.3894 160.966 17.3894C161.214 17.3894 161.342 17.2239 161.508 16.8477L168.798 1.55593C169.133 0.848707 169.716 0.265625 170.713 0.265625C172.003 0.265625 172.838 0.931467 172.838 2.30829V30.6386C172.838 31.0561 172.545 31.4285 172.131 31.4285H172.139Z" fill="#121212"/>
</g>
<defs>
<clipPath id="clip0_130_1082">
<rect width="179.777" height="39.2884" fill="white" transform="translate(0.59375 0.265625)"/>
</clipPath>
</defs>
</svg>
