<svg width="138" height="109" viewBox="0 0 138 109" fill="none" xmlns="http://www.w3.org/2000/svg">
<g clip-path="url(#clip0_277_1406)">
<path d="M138.001 43.8636C138.001 44.8903 137.174 45.7058 136.129 45.7058C135.085 45.7058 134.246 44.8903 134.246 43.8636C134.246 42.8369 135.079 42.0332 136.141 42.0332C137.203 42.0332 138.001 42.8369 138.001 43.8636ZM134.71 43.8636C134.71 44.6791 135.32 45.3244 136.135 45.3244C136.927 45.3362 137.526 44.6791 137.526 43.8754C137.526 43.0716 136.927 42.4028 136.112 42.4028C135.296 42.4028 134.71 43.0599 134.71 43.8636ZM135.836 44.814H135.414V42.9836C135.584 42.9601 135.813 42.9249 136.118 42.9249C136.464 42.9249 136.622 42.9836 136.739 43.0716C136.851 43.1479 136.933 43.2828 136.933 43.4647C136.933 43.6876 136.763 43.8343 136.552 43.8988V43.9223C136.728 43.981 136.816 44.1218 136.874 44.3682C136.933 44.6498 136.974 44.7495 137.009 44.814H136.563C136.505 44.7495 136.475 44.5911 136.417 44.3682C136.382 44.1804 136.27 44.0866 136.035 44.0866H135.836V44.8082V44.814ZM135.848 43.7874H136.047C136.282 43.7874 136.47 43.7111 136.47 43.5175C136.47 43.3473 136.346 43.2359 136.077 43.2359C135.965 43.2359 135.889 43.2476 135.842 43.2594V43.7815L135.848 43.7874Z" fill="#1D1D1B"/>
<path opacity="0.05" d="M97.6546 84.849C109.476 71.3203 109.611 49.1793 97.3906 35.7152L104.906 29.2207C120.288 46.199 120.206 74.1188 105.287 91.2144L97.6546 84.849Z" fill="#8C9091"/>
<path opacity="0.06" d="M96.2578 86.5671C109.106 73.7366 109.74 51.531 98.6749 37.5213L106.554 31.4727C120.575 49.1843 119.654 77.1451 103.497 93.3666L96.2578 86.5671Z" fill="#8C9091"/>
<path opacity="0.07" d="M94.7207 88.1444C107.897 75.8888 110.367 54.0587 99.9714 39.3097L108.191 33.7422C121.326 52.3573 118.217 79.9016 101.561 95.3487L94.7207 88.1444Z" fill="#8C9091"/>
<path opacity="0.08" d="M92.9922 89.5476C106.885 78.2424 110.915 56.4944 101.276 41.106L109.812 36.0195C121.974 55.4384 116.94 82.8595 99.4045 97.1332L92.9863 89.5476H92.9922Z" fill="#8C9091"/>
<path opacity="0.09" d="M91.2891 90.9661C106.179 80.5644 110.79 58.881 102.231 43.1171L111.042 38.5293C121.89 58.4527 115.953 85.7682 97.2497 98.9155L91.2891 90.972V90.9661Z" fill="#8C9091"/>
<path opacity="0.1" d="M89.541 92.3338C104.712 82.4953 110.802 61.4514 103.199 45.1067L112.269 41.0469C121.896 61.6626 114.17 88.2564 95.0323 100.623L89.541 92.3397V92.3338Z" fill="#8C9091"/>
<path opacity="0.11" d="M87.5859 93.3788C103.233 84.5963 110.883 63.9689 104.183 47.0962L113.47 43.5703C121.947 64.8196 112.338 90.9031 92.5844 101.968L87.5859 93.3788Z" fill="#8C9091"/>
<path opacity="0.12" d="M85.6445 94.4354C102.107 86.7734 110.537 66.3279 104.764 49.2381L114.233 46.2695C121.52 67.8239 110.836 93.6199 90.1267 103.306L85.6445 94.4354Z" fill="#8C9091"/>
<path opacity="0.13" d="M83.6973 95.5076C100.488 88.5261 109.892 68.7435 105.357 51.3663L114.996 48.9609C120.769 70.8732 108.813 95.8654 87.6573 104.624L83.7031 95.5076H83.6973Z" fill="#8C9091"/>
<path opacity="0.13" d="M81.6035 96.218C98.6053 90.2398 109.47 71.2726 105.968 53.4964L115.73 51.6543C120.195 74.0241 106.496 98.0425 85.0297 105.54L81.6094 96.2121L81.6035 96.218Z" fill="#8C9091"/>
<path opacity="0.14" d="M79.4844 96.8676C96.8147 92.1097 109.088 73.6119 106.172 55.7008L116.028 54.4277C119.636 76.9853 104.242 100.358 82.3591 106.378L79.4844 96.8676Z" fill="#8C9091"/>
<path opacity="0.15" d="M77.3867 97.5388C95.1864 93.8721 107.9 75.7381 106.374 57.9208L116.283 57.2227C118.219 79.745 102.138 102.531 79.6806 107.207L77.3867 97.5447V97.5388Z" fill="#8C9091"/>
<path opacity="0.16" d="M75.2246 97.9968C93.0243 95.0283 106.934 78.179 106.588 60.133L116.521 60.0098C117.007 82.7903 99.4542 104.057 76.9612 107.783L75.2246 97.9968Z" fill="#8C9091"/>
<path opacity="0.17" d="M73.0137 98.2071C90.7547 96.4588 106.343 80.5189 106.448 62.332L116.369 62.7896C116.128 85.7168 96.6449 105.851 74.1753 108.075L73.0137 98.2071Z" fill="#8C9091"/>
<path opacity="0.18" d="M70.8027 98.4292C88.9427 98.0713 104.818 82.3778 106.22 64.5312L116.1 65.5697C114.281 88.1214 94.2755 107.787 71.3953 108.344L70.8027 98.4233V98.4292Z" fill="#8C9091"/>
<path opacity="0.19" d="M68.5977 98.6689C86.6848 98.7569 103.329 84.5594 106.01 66.7422L115.807 68.3438C112.446 90.872 91.431 108.771 68.6153 108.601L68.5977 98.6689Z" fill="#8C9091"/>
<path opacity="0.2" d="M66.3952 98.4413C84.2829 99.7437 102.047 86.6961 105.661 68.9258L115.353 71.0906C110.789 93.5308 88.4248 110.01 65.8262 108.362L66.3952 98.4413Z" fill="#8C9091"/>
<path opacity="0.21" d="M64.1889 98.2177C82.0824 100.928 100.539 88.52 104.986 71.0371L114.537 73.7651C108.888 95.824 85.5908 111.424 63.0508 108.08L64.1889 98.2177Z" fill="#8C9091"/>
<path opacity="0.22" d="M61.9787 98.0116C79.7842 101.555 98.6282 90.1561 104.331 73.1484L113.706 76.4338C106.542 97.9295 82.6883 112.238 60.2656 107.78L61.9787 98.0058V98.0116Z" fill="#8C9091"/>
<path opacity="0.23" d="M59.8153 97.567C77.3275 101.82 96.8344 92.0757 103.693 75.2734L112.856 79.1103C104.273 100.307 79.6156 112.662 57.5449 107.235L59.8153 97.567Z" fill="#8C9091"/>
<path opacity="0.24" d="M57.7028 96.8977C74.7926 102.424 95.2146 93.8235 102.642 77.2266L111.559 81.5855C102.167 102.453 76.4352 113.383 54.8633 106.414L57.6969 96.8977H57.7028Z" fill="#8C9091"/>
<path opacity="0.25" d="M55.5824 96.248C72.4433 103.106 93.0649 94.8693 101.583 79.1758L110.237 84.051C99.5066 103.886 73.4583 114.141 52.1973 105.582L55.5882 96.248H55.5824Z" fill="#8C9091"/>
<path opacity="0.26" d="M53.4834 95.5611C70.0511 102.73 90.919 96.4704 100.54 81.1289L108.895 86.5028C96.821 105.857 70.4207 113.818 49.5527 104.684L53.4834 95.5611Z" fill="#8C9091"/>
<path opacity="0.27" d="M51.5427 94.4754C67.3946 102.659 89.0487 98.0658 99.2509 82.9355L107.288 88.7729C94.3874 107.769 67.1071 113.765 47.084 103.363L51.5427 94.4813V94.4754Z" fill="#8C9091"/>
<path opacity="0.28" d="M49.5941 93.4251C64.9767 102.947 86.7774 98.8166 97.848 84.625L105.522 90.9376C91.5354 108.819 64.0556 114.011 44.6309 102.02L49.6 93.4251H49.5941Z" fill="#8C9091"/>
<path opacity="0.29" d="M47.6475 92.3806C62.6252 102.542 84.3967 99.6788 96.4352 86.3496L103.733 93.0905C88.5503 109.94 61.0764 113.524 42.1797 100.67L47.6475 92.3806Z" fill="#8C9091"/>
<path opacity="0.29" d="M45.8922 91.0253C60.1308 101.855 82.1427 100.887 94.9381 87.9688L101.826 95.1203C85.7038 111.377 57.9307 112.726 39.9492 98.9982L45.8863 91.0253H45.8922Z" fill="#8C9091"/>
<path opacity="0.3" d="M44.1799 89.6175C57.6616 101.597 79.8496 101.556 93.214 89.3711L99.6791 96.9157C82.7888 112.251 54.828 112.322 37.791 97.2149L44.1799 89.6175Z" fill="#8C9091"/>
<path opacity="0.31" d="M42.4675 88.209C55.2981 101.116 77.4274 101.732 91.4958 90.7786L97.5209 98.6811C79.7389 112.574 51.8426 111.647 35.6504 95.4309L42.4675 88.209Z" fill="#8C9091"/>
<path opacity="0.32" d="M40.9055 86.6426C53.1259 99.8896 74.8563 102.377 89.793 92.1984L95.3429 100.435C76.5224 113.336 49.0779 110.192 33.6836 93.4597L40.9055 86.6426Z" fill="#8C9091"/>
<path opacity="0.33" d="M39.5095 84.9238C50.7267 98.9101 72.551 102.964 87.8396 93.2428L92.9026 101.791C73.5776 114.017 46.0803 108.948 31.9004 91.3127L39.5154 84.9238H39.5095Z" fill="#8C9091"/>
<path opacity="0.34" d="M38.0901 83.2227C48.4331 98.218 70.1224 102.73 85.8922 94.3049L90.4447 103.128C70.5155 113.824 43.2058 107.974 30.123 89.1539L38.0959 83.2227H38.0901Z" fill="#8C9091"/>
<path opacity="0.35" d="M36.7389 81.4629C46.5364 96.7281 67.4982 102.724 83.9426 95.367L87.9731 104.449C67.2342 113.812 40.7342 106.15 28.4375 86.9131L36.7389 81.457V81.4629Z" fill="#8C9091"/>
<path opacity="0.36" d="M35.6963 79.5039C44.3967 95.1153 65.0652 103.071 81.8792 96.1361L85.3641 105.435C64.1676 114.123 38.0489 104.197 27.0957 84.4613L35.6963 79.498V79.5039Z" fill="#8C9091"/>
<path opacity="0.37" d="M34.6459 77.5625C42.2316 94.048 62.683 102.572 79.761 96.7878L82.6944 106.286C61.1518 113.561 35.3675 102.742 25.7695 82.0153L34.6518 77.5625H34.6459Z" fill="#8C9091"/>
<path opacity="0.38" d="M33.5661 75.6191C40.5241 92.4038 60.2128 101.896 77.6487 97.4551L80.0189 107.1C58.0538 112.761 33.1731 100.705 24.4434 79.5498L33.572 75.625L33.5661 75.6191Z" fill="#8C9091"/>
<path opacity="0.39" d="M32.8867 73.5195C38.7886 90.5037 57.7206 101.557 75.5085 97.972L77.3037 107.734C54.928 112.275 30.9566 98.3651 23.541 76.9046L32.8808 73.5195H32.8867Z" fill="#8C9091"/>
<path opacity="0.4" d="M32.2346 71.4023C36.9104 88.7503 55.4082 101.111 73.2958 98.1722L74.522 108.034C51.9879 111.648 28.6324 96.1423 22.707 74.2301L32.2287 71.4023H32.2346Z" fill="#8C9091"/>
<path opacity="0.41" d="M31.5707 69.2891C35.214 87.077 53.2542 99.9075 71.089 98.3998L71.7461 108.315C49.2178 110.209 26.5371 93.988 21.8965 71.5536L31.5649 69.2949L31.5707 69.2891Z" fill="#8C9091"/>
<path opacity="0.42" d="M31.1314 67.125C34.0237 84.9247 50.8202 98.9227 68.8721 98.6411L68.9601 108.573C46.1737 108.972 24.9655 91.3194 21.3398 68.8205L31.1255 67.1191L31.1314 67.125Z" fill="#8C9091"/>
<path opacity="0.43" d="M30.9186 64.9141C32.5848 82.6668 48.4895 98.3251 66.6705 98.4718L66.1894 108.398C43.2622 108.093 23.1687 88.5159 21.0508 66.0405L30.9186 64.9082V64.9141Z" fill="#8C9091"/>
<path opacity="0.44" d="M30.698 62.707C30.9796 80.8587 46.6731 96.7399 64.4727 98.2359L63.4109 108.116C40.8768 106.197 21.2467 86.1563 20.7773 63.2585L30.698 62.707Z" fill="#8C9091"/>
<path opacity="0.45" d="M30.4678 60.502C30.327 78.5774 44.4364 95.2682 62.2537 98.0256L60.6169 107.829C38.1004 104.362 20.3066 83.2884 20.5354 60.4727L30.4678 60.502Z" fill="#8C9091"/>
<path opacity="0.45" d="M30.7195 58.2957C29.3408 76.1599 42.2945 94.024 60.0883 97.6438L57.8824 107.336C35.4481 102.748 19.0623 80.2607 20.8047 57.6973L30.7254 58.2957H30.7195Z" fill="#8C9091"/>
<path opacity="0.46" d="M30.9452 56.0894C28.1585 73.977 40.549 92.4572 57.979 96.9863L55.21 106.52C33.2039 100.776 17.6394 77.4619 21.0832 54.916L30.9452 56.0894Z" fill="#8C9091"/>
<path opacity="0.47" d="M31.1495 53.8772C27.5884 71.6768 38.8526 90.5501 55.8602 96.3288L52.5396 105.686C31.0557 98.435 16.8875 74.5398 21.3756 52.1289L31.1495 53.8713V53.8772Z" fill="#8C9091"/>
<path opacity="0.48" d="M31.618 51.7256C27.2883 69.2143 36.9449 88.7563 53.7355 95.6908L49.8635 104.837C28.6963 96.1719 16.4407 71.4495 21.9555 49.4141L31.618 51.7256Z" fill="#8C9091"/>
<path opacity="0.49" d="M32.2934 49.613C26.6672 66.6969 35.2385 87.1366 51.8003 94.6166L47.3944 103.528C26.5792 94.0593 15.6964 68.3044 22.7835 46.7383L32.2993 49.6188L32.2934 49.613Z" fill="#8C9091"/>
<path opacity="0.5" d="M32.9387 47.4945C26.016 64.3379 34.2059 84.9712 49.8466 93.5542L44.9362 102.19C25.1594 91.3894 14.9631 65.3176 23.6106 44.0801L32.9329 47.5004L32.9387 47.4945Z" fill="#8C9091"/>
<path opacity="0.51" d="M33.6549 45.4112C26.4212 61.9319 32.5754 82.8351 47.8875 92.5093L42.4843 100.84C23.1886 88.6901 15.3331 62.2605 24.5556 41.4395L33.6607 45.4112H33.6549Z" fill="#8C9091"/>
<path opacity="0.52" d="M34.7266 43.4705C26.4545 59.2872 31.0188 80.953 46.108 91.208L40.2237 99.2103C21.3035 86.2565 15.3605 58.9704 25.8737 38.9707L34.7266 43.4646V43.4705Z" fill="#8C9091"/>
<path opacity="0.53" d="M35.7954 41.516C26.1915 56.8634 30.2924 78.6642 44.4018 89.7934L38.0658 97.4377C20.2779 83.381 15.1327 55.9013 27.2065 36.5059L35.7954 41.516Z" fill="#8C9091"/>
<path opacity="0.54" d="M36.8287 39.5577C26.6616 54.5296 29.3838 76.2834 42.6837 88.3923L35.9193 95.6671C19.1053 80.4018 15.6791 52.9397 28.5566 34.0664L36.8287 39.5577Z" fill="#8C9091"/>
<path opacity="0.55" d="M38.2011 37.8317C27.3359 52.0116 28.169 74.0705 41.0875 86.8717L33.9125 93.7299C17.6675 77.5788 16.4766 49.7646 30.2575 31.8594L38.2011 37.8317Z" fill="#8C9091"/>
<path opacity="0.56" d="M39.6149 36.1194C27.547 49.5542 27.5587 71.7363 39.6794 85.1476L32.1172 91.5834C16.8519 74.6403 16.8402 46.6853 32.0409 29.7012L39.6149 36.1194Z" fill="#8C9091"/>
<path opacity="0.57" d="M41.022 34.407C28.1093 47.2082 27.3701 69.2965 38.2705 83.4294L30.3445 89.4135C16.5108 71.561 17.5961 43.7234 33.8235 27.5488L41.022 34.407Z" fill="#8C9091"/>
<path opacity="0.58" d="M42.6133 32.8685C29.331 45.0185 26.7086 66.7606 36.8756 81.7148L28.6153 87.2354C15.7261 68.3856 19.0408 40.9294 35.8196 25.6113L42.6074 32.8685H42.6133Z" fill="#8C9091"/>
<path opacity="0.59" d="M44.3252 31.4549C30.2626 42.6193 26.1853 64.4376 35.8243 79.7556L27.2647 84.7834C15.1265 65.4232 20.2364 37.9317 37.9656 23.8223L44.3193 31.4549H44.3252Z" fill="#8C9091"/>
<path opacity="0.6" d="M46.0318 30.0413C30.9777 40.3315 26.4369 62.0091 34.7676 77.8082L25.9265 82.3256C15.3429 62.3611 21.239 35.0515 40.1298 22.0449L46.0318 30.0413Z" fill="#8C9091"/>
<path opacity="0.6" d="M47.806 28.7214C32.5173 38.4543 26.4276 59.375 33.7083 75.8664L24.609 79.8675C15.3219 59.0875 23.0953 32.6286 42.3793 20.4082L47.806 28.7214Z" fill="#8C9091"/>
<path opacity="0.61" d="M49.765 27.6768C34.1302 36.3068 26.04 56.9518 32.9686 73.7835L23.6581 77.2331C14.9929 56.0073 25.072 29.9179 44.8311 19.0469L49.765 27.671V27.6768Z" fill="#8C9091"/>
<path opacity="0.62" d="M51.7063 26.6147C35.1856 34.1475 26.6202 54.5931 32.3109 71.6711L22.8186 74.5634C15.6494 53.0149 26.5029 27.2424 47.2828 17.7148L51.7063 26.6088V26.6147Z" fill="#8C9091"/>
<path opacity="0.63" d="M53.6425 25.5407C36.8636 32.4928 27.2715 52.0877 31.6481 69.5529L21.9974 71.8938C16.4122 49.8818 28.5974 25.0949 49.7587 16.4062L53.6425 25.5407Z" fill="#8C9091"/>
<path opacity="0.64" d="M55.7611 24.8906C38.7711 30.7163 27.595 49.613 31.1678 67.401L21.3938 69.1668C16.8823 46.7735 30.9449 22.8549 52.4171 15.5273L55.7611 24.8848V24.8906Z" fill="#8C9091"/>
<path opacity="0.65" d="M57.8799 24.2385C40.485 28.8146 28.1004 47.3065 30.9516 65.1942L21.0896 66.3968C17.5696 43.8451 33.1164 20.519 55.0756 14.6934L57.8799 24.2327V24.2385Z" fill="#8C9091"/>
<path opacity="0.66" d="M59.9963 23.5649C42.2084 27.2022 29.2957 45.1368 30.7272 62.9893L20.8124 63.6229C19.0055 41.0653 35.3209 18.496 57.7611 13.8848L59.9963 23.5649Z" fill="#8C9091"/>
<path opacity="0.67" d="M62.1615 23.1666C44.356 25.9767 30.2876 42.7145 30.487 60.784L20.5605 60.8368C20.2554 38.0329 37.9906 16.9009 60.5071 13.3691L62.1615 23.1666Z" fill="#8C9091"/>
<path opacity="0.68" d="M64.3672 22.9538C46.591 24.5143 30.9209 40.4132 30.6863 58.5766L20.7656 58.0486C21.1646 35.1448 40.777 15.0806 63.2818 13.0801L64.3672 22.9538Z" fill="#8C9091"/>
<path opacity="0.69" d="M66.5727 22.7253C48.4034 22.9307 32.5046 38.589 30.9147 56.3651L21.0469 55.2622C23.0826 32.7692 43.1527 13.1684 66.0564 12.8047L66.5727 22.7253Z" fill="#8C9091"/>
<path opacity="0.7" d="M68.7782 22.5266C50.7146 22.3154 33.9592 36.3486 31.1256 54.16L21.3281 52.4821C24.8834 29.9773 46.0388 12.2715 68.8369 12.5942L68.7724 22.5266H68.7782Z" fill="#8C9091"/>
<path opacity="0.71" d="M70.9971 22.7148C53.133 21.383 35.1749 34.1784 31.5317 52.0015L21.8516 49.7545C26.4745 27.2791 49.0732 11.0869 71.6308 12.8L70.9971 22.7089V22.7148Z" fill="#8C9091"/>
<path opacity="0.72" d="M73.202 22.884C55.2909 20.2439 36.8166 32.4585 32.1994 49.8885L22.6719 47.0842C28.5151 25.0781 51.853 9.72489 74.4164 13.022L73.202 22.884Z" fill="#8C9091"/>
<path opacity="0.73" d="M75.401 23.1887C57.6248 19.6569 38.7046 30.7744 32.8496 47.7703L23.5039 44.4087C30.8491 22.9247 54.797 8.93844 77.1727 13.403L75.401 23.1887Z" fill="#8C9091"/>
<path opacity="0.74" d="M77.5491 23.7116C60.1073 19.3056 40.6708 28.8743 33.7187 45.659L24.3848 41.7576C33.0851 20.5963 57.9014 8.45807 79.8899 14.0608L77.5432 23.7174L77.5491 23.7116Z" fill="#8C9091"/>
<path opacity="0.84" d="M107.681 24.6602C95.9649 33.2374 81.9258 23.9445 75.2612 23.1525C66.4787 21.4101 57.1506 23.3813 49.518 27.8107L44.5195 19.2218C54.182 13.6132 65.9507 11.2196 77.0036 13.3785C89.2827 15.9657 95.5894 21.4746 102.295 16.3236L107.681 24.6661V24.6602Z" fill="#8C9091"/>
<path d="M124.014 8.87983C116.399 16.1839 117.01 16.9876 107.511 24.7611C95.6722 33.2033 81.8326 23.8576 75.127 23.1242L76.8224 13.3385C89.125 15.8671 95.5021 21.4933 102.178 16.3834C108.192 11.4201 110.093 8.59236 116.933 1.91016L124.009 8.89156L124.014 8.87983Z" fill="#8C9091"/>
<path d="M125.375 0.384766H108.362C108.186 0.384766 108.045 0.537301 108.045 0.707436V1.00664C108.045 1.11811 108.115 1.22957 108.227 1.28824C109.124 1.77518 109.887 2.10958 110.597 2.41465C111.811 2.93679 112.867 3.40026 114.246 4.54428L109.817 9.27872L116.962 16.2249L121.591 11.2851C122.635 12.4937 123.04 13.5321 123.492 14.7172C123.815 15.5385 124.143 16.3892 124.718 17.41C124.777 17.5156 124.882 17.5743 125.006 17.5743H125.393C125.563 17.5684 125.71 17.4217 125.71 17.2399V0.701569C125.71 0.525567 125.563 0.384766 125.387 0.384766H125.375Z" fill="#8C9091"/>
<path d="M5.13034 41.9922H11.0205L7.45356 67.8058H17.1278L16.4531 73.168H0.871094L5.13034 41.9922Z" fill="#1D1D1B"/>
<path d="M52.5501 47.9473H57.0206L53.524 73.1683H49.1064L49.3762 71.2147C48.4024 72.1182 47.4989 72.7459 46.6541 73.1038C45.8093 73.4617 44.8647 73.6377 43.8146 73.6377C41.4034 73.6377 39.4849 72.7518 38.0593 70.98C36.6337 69.2083 35.9238 67.1432 35.9238 64.7906C35.9238 62.9954 36.3814 61.2882 37.2908 59.6631C38.2001 58.038 39.4263 56.7767 40.9575 55.8673C42.4946 54.958 44.0962 54.5063 45.7741 54.5063C46.9005 54.5063 47.9389 54.7644 48.8893 55.2807C49.8397 55.7969 50.6258 56.5479 51.2419 57.5394L52.5501 47.9531V47.9473ZM44.8765 69.66C45.9735 69.66 46.9298 69.4136 47.7512 68.9267C48.5666 68.4397 49.253 67.6712 49.8104 66.6211C50.3677 65.5768 50.6434 64.5032 50.6434 63.412C50.6434 61.9687 50.2269 60.813 49.3938 59.933C48.5608 59.0588 47.4578 58.6188 46.0909 58.6188C44.501 58.6188 43.1516 59.2055 42.037 60.373C40.9281 61.5463 40.3767 63.0541 40.3767 64.908C40.3767 66.3336 40.7991 67.4835 41.638 68.3517C42.477 69.22 43.5564 69.6542 44.8823 69.6542L44.8765 69.66Z" fill="#1D1D1B" stroke="#1D1D1B" stroke-width="0.293336"/>
<path d="M60.2355 54.9742H64.6591L62.2068 73.1728H57.748L60.2355 54.9742ZM63.3038 47.5293C64.0606 47.5293 64.7119 47.7992 65.2516 48.3389C65.7913 48.8786 66.0612 49.5298 66.0612 50.2867C66.0612 51.0435 65.7913 51.6947 65.2516 52.2344C64.7119 52.7741 64.0606 53.044 63.3038 53.044C62.547 53.044 61.8958 52.7741 61.3561 52.2344C60.8163 51.6947 60.5465 51.0435 60.5465 50.2867C60.5465 49.5298 60.8163 48.8786 61.3561 48.3389C61.8958 47.7992 62.547 47.5293 63.3038 47.5293Z" fill="#1D1D1B" stroke="#1D1D1B" stroke-width="0.293336"/>
<path d="M68.0148 54.9752H71.9925L71.6757 57.451C72.8666 55.4915 74.304 54.5059 75.976 54.5059C76.3808 54.5059 76.7973 54.6115 77.2315 54.8285L75.6005 58.8883C75.2602 58.7651 75.0138 58.7064 74.8554 58.7064C73.9813 58.7064 73.2069 59.211 72.5205 60.2201C71.8341 61.2291 71.2943 63.2649 70.9013 66.3332L70.0213 73.1738H65.5332L68.0207 54.9752H68.0148Z" fill="#1D1D1B" stroke="#1D1D1B" stroke-width="0.293336"/>
<path d="M91.1535 67.8468L95.0842 69.8826C94.2042 71.0383 93.0367 71.9535 91.5818 72.6282C90.1268 73.3029 88.5135 73.6373 86.7417 73.6373C83.9667 73.6373 81.7726 72.857 80.1768 71.2964C78.5752 69.7359 77.7773 67.6591 77.7773 65.0718C77.7773 62.115 78.7806 59.6158 80.7811 57.5683C82.7817 55.5208 85.1988 54.5 88.0324 54.5C89.7396 54.5 91.2591 54.8755 92.5908 55.6205C93.9226 56.3656 94.9727 57.4568 95.7413 58.8824C96.5098 60.3081 96.897 61.8569 96.897 63.5348C96.897 64.0569 96.8383 64.6729 96.7327 65.3769H82.2126C82.2537 66.6441 82.6702 67.6532 83.4563 68.3983C84.2425 69.1492 85.3278 69.5247 86.7065 69.5247C88.3785 69.5247 89.8628 68.9674 91.1535 67.8468ZM92.2916 62.0974C91.9572 60.9827 91.3999 60.1379 90.6196 59.563C89.8393 58.988 88.8948 58.7006 87.7919 58.7006C86.6889 58.7006 85.715 58.9939 84.8292 59.5865C83.9491 60.179 83.2803 61.0121 82.8227 62.0974H92.2916Z" fill="#1D1D1B" stroke="#1D1D1B" stroke-width="0.293336"/>
<path d="M118.539 58.7358L114.761 60.7891C113.693 59.4339 112.256 58.7534 110.449 58.7534C109.235 58.7534 108.161 59.0115 107.222 59.5278C106.29 60.0441 105.539 60.795 104.981 61.7747C104.424 62.7545 104.148 63.787 104.148 64.8782C104.148 66.2804 104.588 67.4068 105.468 68.2516C106.348 69.0964 107.557 69.5188 109.094 69.5188C111.223 69.5188 112.854 68.8031 113.993 67.3657L117.501 69.8474C116.509 71.0324 115.271 71.9594 113.793 72.6282C112.315 73.297 110.666 73.6314 108.847 73.6314C106.014 73.6314 103.779 72.8511 102.148 71.2906C100.511 69.73 99.6953 67.6649 99.6953 65.1012C99.6953 62.1678 100.704 59.6686 102.723 57.5976C104.741 55.5267 107.34 54.4941 110.519 54.4941C114.098 54.4941 116.773 55.9022 118.533 58.7241L118.539 58.7358Z" fill="#1D1D1B" stroke="#1D1D1B" stroke-width="0.293336"/>
<path d="M124.755 48.2148H129.196L128.275 54.9733H131.102L130.569 58.8219H127.752L125.799 73.1719H121.34L123.3 58.8219H121.105L121.628 54.9733H123.828L124.755 48.2148Z" fill="#1D1D1B" stroke="#1D1D1B" stroke-width="0.293336"/>
</g>
<defs>
<clipPath id="clip0_277_1406">
<rect width="137.129" height="108.235" fill="white" transform="translate(0.871094 0.384766)"/>
</clipPath>
</defs>
</svg>
