<svg width="235" height="185" viewBox="0 0 235 185" fill="none" xmlns="http://www.w3.org/2000/svg">
<g clip-path="url(#clip0_130_994)">
<path d="M234.4 74.2721C234.4 76.0221 232.99 77.4121 231.21 77.4121C229.43 77.4121 228 76.0221 228 74.2721C228 72.5221 229.42 71.1521 231.23 71.1521C233.04 71.1521 234.4 72.5221 234.4 74.2721ZM228.79 74.2721C228.79 75.6621 229.83 76.7621 231.22 76.7621C232.57 76.7821 233.59 75.6621 233.59 74.2921C233.59 72.9221 232.57 71.7821 231.18 71.7821C229.79 71.7821 228.79 72.9021 228.79 74.2721ZM230.71 75.8921H229.99V72.7721C230.28 72.7321 230.67 72.6721 231.19 72.6721C231.78 72.6721 232.05 72.7721 232.25 72.9221C232.44 73.0521 232.58 73.2821 232.58 73.5921C232.58 73.9721 232.29 74.2221 231.93 74.3321V74.3721C232.23 74.4721 232.38 74.7121 232.48 75.1321C232.58 75.6121 232.65 75.7821 232.71 75.8921H231.95C231.85 75.7821 231.8 75.5121 231.7 75.1321C231.64 74.8121 231.45 74.6521 231.05 74.6521H230.71V75.8821V75.8921ZM230.73 74.1421H231.07C231.47 74.1421 231.79 74.0121 231.79 73.6821C231.79 73.3921 231.58 73.2021 231.12 73.2021C230.93 73.2021 230.8 73.2221 230.72 73.2421V74.1321L230.73 74.1421Z" fill="#1D1D1B"/>
<path opacity="0.05" d="M165.63 144.132C185.78 121.072 186.01 83.3321 165.18 60.3821L177.99 49.3121C204.21 78.2521 204.07 125.842 178.64 154.982L165.63 144.132Z" fill="#8C9091"/>
<path opacity="0.06" d="M163.25 147.062C185.15 125.192 186.23 87.3421 167.37 63.4621L180.8 53.1521C204.7 83.3421 203.13 131.002 175.59 158.652L163.25 147.062Z" fill="#8C9091"/>
<path opacity="0.07" d="M160.625 149.752C183.085 128.862 187.295 91.6521 169.575 66.5121L183.585 57.0221C205.975 88.7521 200.675 135.702 172.285 162.032L160.625 149.752Z" fill="#8C9091"/>
<path opacity="0.08" d="M157.674 152.142C181.354 132.872 188.224 95.8021 171.794 69.5721L186.344 60.9021C207.074 94.0021 198.494 140.742 168.604 165.072L157.664 152.142H157.674Z" fill="#8C9091"/>
<path opacity="0.09" d="M154.773 154.562C180.153 136.832 188.013 99.8721 173.423 73.0021L188.443 65.1821C206.933 99.1421 196.813 145.702 164.933 168.112L154.773 154.572V154.562Z" fill="#8C9091"/>
<path opacity="0.1" d="M151.797 156.892C177.657 140.122 188.037 104.252 175.077 76.3922L190.537 69.4722C206.947 104.612 193.777 149.942 161.157 171.022L151.797 156.902V156.892Z" fill="#8C9091"/>
<path opacity="0.11" d="M148.469 158.672C175.139 143.702 188.179 108.542 176.759 79.7821L192.589 73.7721C207.039 109.992 190.659 154.452 156.989 173.312L148.469 158.672Z" fill="#8C9091"/>
<path opacity="0.12" d="M145.156 160.472C173.216 147.412 187.586 112.562 177.746 83.4321L193.886 78.3721C206.306 115.112 188.096 159.082 152.796 175.592L145.156 160.472Z" fill="#8C9091"/>
<path opacity="0.13" d="M141.836 162.302C170.456 150.402 186.486 116.682 178.756 87.0622L195.186 82.9622C205.026 120.312 184.646 162.912 148.586 177.842L141.846 162.302H141.836Z" fill="#8C9091"/>
<path opacity="0.13" d="M138.266 163.512C167.246 153.322 185.766 120.992 179.796 90.6921L196.436 87.5521C204.046 125.682 180.696 166.622 144.106 179.402L138.276 163.502L138.266 163.512Z" fill="#8C9091"/>
<path opacity="0.14" d="M134.656 164.622C164.196 156.512 185.116 124.982 180.146 94.4521L196.946 92.2821C203.096 130.732 176.856 170.572 139.556 180.832L134.656 164.622Z" fill="#8C9091"/>
<path opacity="0.15" d="M131.078 165.762C161.418 159.512 183.088 128.602 180.488 98.2321L197.378 97.0421C200.678 135.432 173.268 174.272 134.988 182.242L131.078 165.772V165.762Z" fill="#8C9091"/>
<path opacity="0.16" d="M127.398 166.542C157.738 161.482 181.448 132.762 180.858 102.002L197.788 101.792C198.618 140.622 168.698 176.872 130.358 183.222L127.398 166.542Z" fill="#8C9091"/>
<path opacity="0.17" d="M123.625 166.902C153.865 163.922 180.435 136.752 180.615 105.752L197.525 106.532C197.115 145.612 163.905 179.932 125.605 183.722L123.625 166.902Z" fill="#8C9091"/>
<path opacity="0.18" d="M119.859 167.282C150.779 166.672 177.839 139.922 180.229 109.502L197.069 111.272C193.969 149.712 159.869 183.232 120.869 184.182L119.859 167.272V167.282Z" fill="#8C9091"/>
<path opacity="0.19" d="M116.094 167.692C146.924 167.842 175.294 143.642 179.864 113.272L196.564 116.002C190.834 154.402 155.014 184.912 116.124 184.622L116.094 167.692Z" fill="#8C9091"/>
<path opacity="0.2" d="M112.345 167.302C142.835 169.522 173.115 147.282 179.275 116.992L195.795 120.682C188.015 158.932 149.895 187.022 111.375 184.212L112.345 167.302Z" fill="#8C9091"/>
<path opacity="0.21" d="M108.588 166.922C139.088 171.542 170.548 150.392 178.128 120.592L194.408 125.242C184.778 162.842 145.068 189.432 106.648 183.732L108.588 166.922Z" fill="#8C9091"/>
<path opacity="0.22" d="M104.818 166.572C135.168 172.612 167.288 153.182 177.008 124.192L192.988 129.792C180.778 166.432 140.118 190.822 101.898 183.222L104.818 166.562V166.572Z" fill="#8C9091"/>
<path opacity="0.23" d="M101.128 165.812C130.978 173.062 164.228 156.452 175.918 127.812L191.538 134.352C176.908 170.482 134.878 191.542 97.2578 182.292L101.128 165.812Z" fill="#8C9091"/>
<path opacity="0.24" d="M97.5275 164.672C126.658 174.092 161.467 159.432 174.128 131.142L189.327 138.572C173.317 174.142 129.458 192.772 92.6875 180.892L97.5175 164.672H97.5275Z" fill="#8C9091"/>
<path opacity="0.25" d="M93.9184 163.562C122.658 175.252 157.808 161.212 172.328 134.462L187.078 142.772C168.788 176.582 124.388 194.062 88.1484 179.472L93.9284 163.562H93.9184Z" fill="#8C9091"/>
<path opacity="0.26" d="M90.3328 162.392C118.573 174.612 154.143 163.942 170.543 137.792L184.783 146.952C164.203 179.942 119.203 193.512 83.6328 177.942L90.3328 162.392Z" fill="#8C9091"/>
<path opacity="0.27" d="M87.0297 160.542C114.05 174.492 150.96 166.662 168.35 140.872L182.05 150.822C160.06 183.202 113.56 193.422 79.4297 175.692L87.0297 160.552V160.542Z" fill="#8C9091"/>
<path opacity="0.28" d="M83.71 158.752C109.93 174.982 147.09 167.942 165.96 143.752L179.04 154.512C155.2 184.992 108.36 193.842 75.25 173.402L83.72 158.752H83.71Z" fill="#8C9091"/>
<path opacity="0.29" d="M80.3825 156.972C105.912 174.292 143.022 169.412 163.542 146.692L175.982 158.182C150.103 186.902 103.272 193.012 71.0625 171.102L80.3825 156.972Z" fill="#8C9091"/>
<path opacity="0.29" d="M77.3956 154.662C101.666 173.122 139.186 171.472 160.996 149.452L172.736 161.642C145.256 189.352 97.9156 191.652 67.2656 168.252L77.3856 154.662H77.3956Z" fill="#8C9091"/>
<path opacity="0.3" d="M74.4759 152.262C97.4559 172.682 135.276 172.612 158.056 151.842L169.076 164.702C140.286 190.842 92.6259 190.962 63.5859 165.212L74.4759 152.262Z" fill="#8C9091"/>
<path opacity="0.31" d="M71.5575 149.862C93.4275 171.862 131.148 172.912 155.128 154.242L165.398 167.712C135.088 191.392 87.5375 189.812 59.9375 162.172L71.5575 149.862Z" fill="#8C9091"/>
<path opacity="0.32" d="M68.8959 147.192C89.7259 169.772 126.766 174.012 152.226 156.662L161.686 170.702C129.606 192.692 82.8259 187.332 56.5859 158.812L68.8959 147.192Z" fill="#8C9091"/>
<path opacity="0.33" d="M66.5169 144.262C85.6369 168.102 122.837 175.012 148.897 158.442L157.527 173.012C124.587 193.852 77.7169 185.212 53.5469 155.152L66.5269 144.262H66.5169Z" fill="#8C9091"/>
<path opacity="0.34" d="M64.0956 141.362C81.7256 166.922 118.696 174.612 145.576 160.252L153.336 175.292C119.366 193.522 72.8156 183.552 50.5156 151.472L64.1056 141.362H64.0956Z" fill="#8C9091"/>
<path opacity="0.35" d="M61.7984 138.362C78.4984 164.382 114.228 174.602 142.258 162.062L149.128 177.542C113.778 193.502 68.6084 180.442 47.6484 147.652L61.7984 138.352V138.362Z" fill="#8C9091"/>
<path opacity="0.36" d="M60.0194 135.022C74.8494 161.632 110.079 175.192 138.739 163.372L144.679 179.222C108.549 194.032 64.0294 177.112 45.3594 143.472L60.0194 135.012V135.022Z" fill="#8C9091"/>
<path opacity="0.37" d="M58.2238 131.712C71.1538 159.812 106.014 174.342 135.124 164.482L140.124 180.672C103.404 193.072 59.4538 174.632 43.0938 139.302L58.2338 131.712H58.2238Z" fill="#8C9091"/>
<path opacity="0.38" d="M56.3859 128.402C68.2459 157.012 101.806 173.192 131.526 165.622L135.566 182.062C98.1259 191.712 55.7159 171.162 40.8359 135.102L56.3959 128.412L56.3859 128.402Z" fill="#8C9091"/>
<path opacity="0.39" d="M55.2269 124.822C65.2869 153.772 97.5569 172.612 127.877 166.502L130.937 183.142C92.7969 190.882 51.9369 167.172 39.2969 130.592L55.2169 124.822H55.2269Z" fill="#8C9091"/>
<path opacity="0.4" d="M54.115 121.212C62.085 150.782 93.615 171.852 124.105 166.842L126.195 183.652C87.785 189.812 47.975 163.382 37.875 126.032L54.105 121.212H54.115Z" fill="#8C9091"/>
<path opacity="0.41" d="M52.99 117.612C59.2 147.932 89.95 169.802 120.35 167.232L121.47 184.132C83.07 187.362 44.41 159.712 36.5 121.472L52.98 117.622L52.99 117.612Z" fill="#8C9091"/>
<path opacity="0.42" d="M52.2369 113.922C57.1669 144.262 85.7969 168.122 116.567 167.642L116.717 184.572C77.8769 185.252 41.7269 155.162 35.5469 116.812L52.2269 113.912L52.2369 113.922Z" fill="#8C9091"/>
<path opacity="0.43" d="M51.8747 110.152C54.7147 140.412 81.8247 167.102 112.815 167.352L111.995 184.272C72.9147 183.752 38.6647 150.382 35.0547 112.072L51.8747 110.142V110.152Z" fill="#8C9091"/>
<path opacity="0.44" d="M51.4959 106.392C51.9759 137.332 78.7259 164.402 109.066 166.952L107.256 183.792C68.8459 180.522 35.3859 146.362 34.5859 107.332L51.4959 106.392Z" fill="#8C9091"/>
<path opacity="0.45" d="M51.1056 102.632C50.8656 133.442 74.9156 161.892 105.286 166.592L102.496 183.302C64.1156 177.392 33.7856 141.472 34.1756 102.582L51.1056 102.632Z" fill="#8C9091"/>
<path opacity="0.45" d="M51.5383 98.872C49.1883 129.322 71.2683 159.772 101.598 165.942L97.8383 182.462C59.5983 174.642 31.6683 136.312 34.6383 97.8521L51.5483 98.872H51.5383Z" fill="#8C9091"/>
<path opacity="0.46" d="M51.9134 95.1121C47.1634 125.602 68.2834 157.102 97.9934 164.822L93.2734 181.072C55.7634 171.282 29.2334 131.542 35.1034 93.1121L51.9134 95.1121Z" fill="#8C9091"/>
<path opacity="0.47" d="M52.2634 91.3421C46.1934 121.682 65.3934 153.852 94.3834 163.702L88.7234 179.652C52.1034 167.292 27.9534 126.562 35.6034 88.3621L52.2634 91.3321V91.3421Z" fill="#8C9091"/>
<path opacity="0.48" d="M53.0694 87.6721C45.6894 117.482 62.1494 150.792 90.7694 162.612L84.1694 178.202C48.0894 163.432 27.1994 121.292 36.5994 83.7321L53.0694 87.6721Z" fill="#8C9091"/>
<path opacity="0.49" d="M54.2161 84.0721C44.6261 113.192 59.2361 148.032 87.4661 160.782L79.9561 175.972C44.4761 159.832 25.9261 115.932 38.0061 79.1721L54.2261 84.0821L54.2161 84.0721Z" fill="#8C9091"/>
<path opacity="0.5" d="M55.315 80.4621C43.515 109.172 57.475 144.342 84.135 158.972L75.765 173.692C42.055 155.282 24.675 110.842 39.415 74.6421L55.305 80.4721L55.315 80.4621Z" fill="#8C9091"/>
<path opacity="0.51" d="M56.5331 76.9121C44.2031 105.072 54.693 140.702 80.793 157.192L71.583 171.392C38.6931 150.682 25.303 105.632 41.023 70.1421L56.5431 76.9121H56.5331Z" fill="#8C9091"/>
<path opacity="0.52" d="M58.3644 73.6021C44.2644 100.562 52.0444 137.492 77.7644 154.972L67.7344 168.612C35.4844 146.532 25.3544 100.022 43.2744 65.9321L58.3644 73.5921V73.6021Z" fill="#8C9091"/>
<path opacity="0.53" d="M60.1844 70.2721C43.8144 96.4321 50.8044 133.592 74.8544 152.562L64.0544 165.592C33.7344 141.632 24.9644 94.7921 45.5444 61.7321L60.1844 70.2721Z" fill="#8C9091"/>
<path opacity="0.54" d="M61.95 66.9321C44.62 92.4521 49.26 129.532 71.93 150.172L60.4 162.572C31.74 136.552 25.9 89.7421 47.85 57.5721L61.95 66.9321Z" fill="#8C9091"/>
<path opacity="0.55" d="M64.2894 63.9921C45.7694 88.1621 47.1894 125.762 69.2094 147.582L56.9794 159.272C29.2894 131.742 27.2594 84.3321 50.7494 53.8121L64.2894 63.9921Z" fill="#8C9091"/>
<path opacity="0.56" d="M66.6938 61.0721C46.1238 83.9721 46.1438 121.782 66.8038 144.642L53.9138 155.612C27.8938 126.732 27.8738 79.0821 53.7838 50.1321L66.6938 61.0721Z" fill="#8C9091"/>
<path opacity="0.57" d="M69.0998 58.1522C47.0898 79.9722 45.8298 117.622 64.4098 141.712L50.8998 151.912C27.3198 121.482 29.1698 74.0322 56.8298 46.4622L69.0998 58.1522Z" fill="#8C9091"/>
<path opacity="0.58" d="M71.8078 55.5321C49.1678 76.2421 44.6978 113.302 62.0278 138.792L47.9478 148.202C25.9778 116.072 31.6278 69.2721 60.2278 43.1621L71.7978 55.5321H71.8078Z" fill="#8C9091"/>
<path opacity="0.59" d="M74.7225 53.1221C50.7525 72.1521 43.8025 109.342 60.2325 135.452L45.6425 144.022C24.9525 111.022 33.6625 64.1621 63.8825 40.1121L74.7125 53.1221H74.7225Z" fill="#8C9091"/>
<path opacity="0.6" d="M77.6354 50.7122C51.9754 68.2522 44.2354 105.202 58.4354 132.132L43.3654 139.832C25.3254 105.802 35.3754 59.2522 67.5754 37.0822L77.6354 50.7122Z" fill="#8C9091"/>
<path opacity="0.6" d="M80.6529 48.4621C54.5929 65.0521 44.2129 100.712 56.6229 128.822L41.1129 135.642C25.2829 100.222 38.5329 55.1221 71.4029 34.2921L80.6529 48.4621Z" fill="#8C9091"/>
<path opacity="0.61" d="M83.9939 46.6822C57.3439 61.3922 43.5539 96.5822 55.3639 125.272L39.4939 131.152C24.7239 94.9722 41.9039 50.5022 75.5839 31.9722L83.9939 46.6722V46.6822Z" fill="#8C9091"/>
<path opacity="0.62" d="M87.307 44.8721C59.147 57.7121 44.547 92.5621 54.247 121.672L38.067 126.602C25.847 89.8722 44.347 45.9421 79.767 29.7021L87.307 44.8621V44.8721Z" fill="#8C9091"/>
<path opacity="0.63" d="M90.6053 43.0422C62.0053 54.8922 45.6553 88.2922 53.1153 118.062L36.6653 122.052C27.1453 84.5322 47.9153 42.2822 83.9853 27.4722L90.6053 43.0422Z" fill="#8C9091"/>
<path opacity="0.64" d="M94.2201 41.9322C65.2601 51.8622 46.2101 84.0722 52.3001 114.392L35.6401 117.402C27.9501 79.2322 51.9201 38.4622 88.5201 25.9722L94.2201 41.9222V41.9322Z" fill="#8C9091"/>
<path opacity="0.65" d="M97.8242 40.8221C68.1742 48.6221 47.0642 80.1421 51.9242 110.632L35.1142 112.682C29.1142 74.2421 55.6142 34.4821 93.0442 24.5521L97.8242 40.8121V40.8221Z" fill="#8C9091"/>
<path opacity="0.66" d="M101.437 39.6721C71.117 45.8721 49.107 76.4421 51.547 106.872L34.647 107.952C31.567 69.5021 59.377 31.0321 97.627 23.1721L101.437 39.6721Z" fill="#8C9091"/>
<path opacity="0.67" d="M105.128 38.9921C74.7775 43.7821 50.7975 72.3121 51.1375 103.112L34.2175 103.202C33.6975 64.3321 63.9275 28.3121 102.308 22.2921L105.128 38.9921Z" fill="#8C9091"/>
<path opacity="0.68" d="M108.883 38.6321C78.5825 41.2921 51.8725 68.3921 51.4725 99.3521L34.5625 98.4521C35.2425 59.4121 68.6725 25.2121 107.033 21.8021L108.883 38.6321Z" fill="#8C9091"/>
<path opacity="0.69" d="M112.647 38.2422C81.6769 38.5922 54.5769 65.2822 51.8669 95.5822L35.0469 93.7022C38.5169 55.3622 72.7269 21.9522 111.767 21.3322L112.647 38.2422Z" fill="#8C9091"/>
<path opacity="0.7" d="M116.403 37.9021C85.6134 37.5421 57.0534 61.4621 52.2234 91.8221L35.5234 88.9621C41.5834 50.6021 77.6434 20.4221 116.503 20.9721L116.393 37.9021H116.403Z" fill="#8C9091"/>
<path opacity="0.71" d="M120.184 38.2221C89.7341 35.9521 59.1241 57.7621 52.9141 88.1421L36.4141 84.3121C44.2941 46.0021 82.8141 18.4021 121.264 21.3221L120.184 38.2121V38.2221Z" fill="#8C9091"/>
<path opacity="0.72" d="M123.943 38.512C93.4125 34.012 61.9225 54.832 54.0525 84.542L37.8125 79.762C47.7725 42.252 87.5525 16.0821 126.012 21.7021L123.943 38.512Z" fill="#8C9091"/>
<path opacity="0.73" d="M127.694 39.0321C97.3944 33.0121 65.1444 51.9621 55.1644 80.9321L39.2344 75.2021C51.7544 38.5821 92.5744 14.7421 130.714 22.3521L127.694 39.0321Z" fill="#8C9091"/>
<path opacity="0.74" d="M131.354 39.9221C101.624 32.4121 68.4944 48.7221 56.6444 77.3321L40.7344 70.6821C55.5644 34.6121 97.8644 13.9221 135.344 23.4721L131.344 39.9321L131.354 39.9221Z" fill="#8C9091"/>
<path opacity="0.84" d="M182.715 41.5422C162.745 56.1622 138.815 40.3222 127.455 38.9722C112.485 36.0022 96.5847 39.3622 83.5747 46.9122L75.0547 32.2722C91.5247 22.7122 111.585 18.6322 130.425 22.3122C151.355 26.7222 162.105 36.1122 173.535 27.3322L182.715 41.5522V41.5422Z" fill="#8C9091"/>
<path d="M210.557 14.6421C197.577 27.0921 198.617 28.4621 182.427 41.7121C162.247 56.1021 138.657 40.1721 127.227 38.9221L130.117 22.2421C151.087 26.5521 161.957 36.1421 173.337 27.4321C183.587 18.9721 186.827 14.1521 198.487 2.76208L210.547 14.6621L210.557 14.6421Z" fill="#8C9091"/>
<path d="M212.876 0.162109H183.876C183.576 0.162109 183.336 0.422109 183.336 0.712109V1.22211C183.336 1.41211 183.456 1.60211 183.646 1.70211C185.176 2.53211 186.476 3.10211 187.686 3.62211C189.756 4.51211 191.556 5.30211 193.906 7.25211L186.356 15.3221L198.536 27.1621L206.426 18.7421C208.206 20.8021 208.896 22.5721 209.666 24.5921C210.216 25.9921 210.776 27.4421 211.756 29.1821C211.856 29.3621 212.036 29.4621 212.246 29.4621H212.906C213.196 29.4521 213.446 29.2021 213.446 28.8921V0.702109C213.446 0.402109 213.196 0.162109 212.896 0.162109H212.876Z" fill="#8C9091"/>
<path d="M7.91625 71.0822H17.9562L11.8763 115.082H28.3662L27.2162 124.222H0.65625L7.91625 71.0822Z" fill="#1D1D1B"/>
<path d="M88.7462 81.2321H96.3662L90.4062 124.222H82.8763L83.3363 120.892C81.6763 122.432 80.1363 123.502 78.6963 124.112C77.2563 124.722 75.6462 125.022 73.8562 125.022C69.7462 125.022 66.4762 123.512 64.0462 120.492C61.6162 117.472 60.4062 113.952 60.4062 109.942C60.4062 106.882 61.1863 103.972 62.7363 101.202C64.2863 98.4321 66.3763 96.2821 68.9863 94.7321C71.6063 93.1821 74.3363 92.4121 77.1963 92.4121C79.1163 92.4121 80.8862 92.8521 82.5062 93.7321C84.1262 94.6121 85.4663 95.8921 86.5163 97.5821L88.7462 81.2421V81.2321ZM75.6663 118.242C77.5363 118.242 79.1663 117.822 80.5663 116.992C81.9563 116.162 83.1262 114.852 84.0762 113.062C85.0262 111.282 85.4962 109.452 85.4962 107.592C85.4962 105.132 84.7862 103.162 83.3662 101.662C81.9462 100.172 80.0663 99.4221 77.7363 99.4221C75.0263 99.4221 72.7262 100.422 70.8262 102.412C68.9362 104.412 67.9962 106.982 67.9962 110.142C67.9962 112.572 68.7162 114.532 70.1462 116.012C71.5762 117.492 73.4162 118.232 75.6762 118.232L75.6663 118.242Z" fill="#1D1D1B" stroke="#1D1D1B" stroke-width="0.5"/>
<path d="M101.849 93.2121H109.389L105.209 124.232H97.6094L101.849 93.2121ZM107.079 80.5221C108.369 80.5221 109.479 80.9821 110.399 81.9021C111.319 82.8221 111.779 83.9321 111.779 85.2221C111.779 86.5121 111.319 87.6221 110.399 88.5421C109.479 89.4621 108.369 89.9221 107.079 89.9221C105.789 89.9221 104.679 89.4621 103.759 88.5421C102.839 87.6221 102.379 86.5121 102.379 85.2221C102.379 83.9321 102.839 82.8221 103.759 81.9021C104.679 80.9821 105.789 80.5221 107.079 80.5221Z" fill="#1D1D1B" stroke="#1D1D1B" stroke-width="0.5"/>
<path d="M115.105 93.2121H121.885L121.345 97.4321C123.375 94.0921 125.825 92.4121 128.675 92.4121C129.365 92.4121 130.075 92.5921 130.815 92.9621L128.035 99.8821C127.455 99.6721 127.035 99.5721 126.765 99.5721C125.275 99.5721 123.955 100.432 122.785 102.152C121.615 103.872 120.695 107.342 120.025 112.572L118.525 124.232H110.875L115.115 93.2121H115.105Z" fill="#1D1D1B" stroke="#1D1D1B" stroke-width="0.5"/>
<path d="M154.55 115.152L161.25 118.622C159.75 120.592 157.76 122.152 155.28 123.302C152.8 124.452 150.05 125.022 147.03 125.022C142.3 125.022 138.56 123.692 135.84 121.032C133.11 118.372 131.75 114.832 131.75 110.422C131.75 105.382 133.46 101.122 136.87 97.6321C140.28 94.1421 144.4 92.4021 149.23 92.4021C152.14 92.4021 154.73 93.0421 157 94.3121C159.27 95.5821 161.06 97.4421 162.37 99.8721C163.68 102.302 164.34 104.942 164.34 107.802C164.34 108.692 164.24 109.742 164.06 110.942H139.31C139.38 113.102 140.09 114.822 141.43 116.092C142.77 117.372 144.62 118.012 146.97 118.012C149.82 118.012 152.35 117.062 154.55 115.152ZM156.49 105.352C155.92 103.452 154.97 102.012 153.64 101.032C152.31 100.052 150.7 99.5621 148.82 99.5621C146.94 99.5621 145.28 100.062 143.77 101.072C142.27 102.082 141.13 103.502 140.35 105.352H156.49Z" fill="#1D1D1B" stroke="#1D1D1B" stroke-width="0.5"/>
<path d="M201.229 99.6221L194.789 103.122C192.969 100.812 190.519 99.6521 187.439 99.6521C185.369 99.6521 183.539 100.092 181.939 100.972C180.349 101.852 179.069 103.132 178.119 104.802C177.169 106.472 176.699 108.232 176.699 110.092C176.699 112.482 177.449 114.402 178.949 115.842C180.449 117.282 182.509 118.002 185.129 118.002C188.759 118.002 191.539 116.782 193.479 114.332L199.459 118.562C197.769 120.582 195.659 122.162 193.139 123.302C190.619 124.442 187.809 125.012 184.709 125.012C179.879 125.012 176.069 123.682 173.289 121.022C170.499 118.362 169.109 114.842 169.109 110.472C169.109 105.472 170.829 101.212 174.269 97.6821C177.709 94.1521 182.139 92.3921 187.559 92.3921C193.659 92.3921 198.219 94.7921 201.219 99.6021L201.229 99.6221Z" fill="#1D1D1B" stroke="#1D1D1B" stroke-width="0.5"/>
<path d="M211.814 81.6921H219.384L217.814 93.2121H222.634L221.724 99.7721H216.924L213.594 124.232H205.994L209.334 99.7721H205.594L206.484 93.2121H210.234L211.814 81.6921Z" fill="#1D1D1B" stroke="#1D1D1B" stroke-width="0.5"/>
</g>
<defs>
<clipPath id="clip0_130_994">
<rect width="233.74" height="184.49" fill="white" transform="translate(0.65625 0.162109)"/>
</clipPath>
</defs>
</svg>
