<svg width="176" height="37" viewBox="0 0 176 37" fill="none" xmlns="http://www.w3.org/2000/svg">
<g clip-path="url(#clip0_227_98)">
<path d="M27.8617 19.1451C27.2521 19.6221 26.5476 19.9764 25.8161 20.2354C25.0845 20.4944 24.3258 20.6579 23.5536 20.767C23.0117 20.8352 22.4698 20.8897 21.9279 20.9033C21.8737 19.1314 21.7518 17.3596 21.5757 15.6013C21.3047 12.7118 21.1015 10.2312 20.5867 7.38257C20.7357 9.41338 20.6951 11.8122 20.6545 15.5468C20.6138 18.4227 20.4648 21.1895 20.1532 24.0245C19.9771 25.5647 19.7874 27.3365 19.5165 28.0725C19.3268 28.0725 19.0829 28.2088 18.812 28.1679C18.2836 28.0998 17.7281 28.0998 17.1727 27.9363C16.0483 27.6091 14.9374 27.2002 13.8535 26.7232C12.7697 26.2598 11.6859 25.7418 10.6563 25.1421C10.1415 24.8423 9.62668 24.5288 9.15252 24.1744C8.67835 23.8201 8.20419 23.4384 7.89258 22.9205C8.12291 23.4929 8.55641 23.9427 8.97641 24.3789C9.4099 24.815 9.88407 25.1966 10.3583 25.5783C11.3201 26.3279 12.3362 27.023 13.3794 27.65C14.4225 28.277 15.4928 28.8767 16.6308 29.3946C17.1998 29.6536 17.7824 29.8853 18.4191 30.0761C18.6223 30.1306 18.8391 30.1715 19.0693 30.2124C18.9881 30.5395 17.9856 33.7971 16.0889 36.8092C16.9424 36.9319 17.8095 37 18.69 37C19.1507 37 19.5977 36.9864 20.0448 36.9455C20.6138 35.4326 20.9931 33.7425 21.2912 32.0661C21.8737 28.6859 21.9821 27.2275 22.0092 24.3107C22.0092 23.5202 22.0092 22.716 21.9821 21.9255C22.5782 21.8437 23.1608 21.7211 23.7433 21.5711C24.5426 21.3667 25.3148 21.0941 26.0464 20.7397C26.778 20.3717 27.4824 19.9356 28.065 19.3495C28.6475 18.777 29.1081 18.0683 29.3249 17.2914C28.9862 18.041 28.4714 18.668 27.8617 19.1451Z" fill="white"/>
<path d="M18.6085 0C12.6886 0 7.41422 2.76732 4.00781 7.07662C5.62859 17.4437 18.8833 18.6966 18.8833 18.6966C18.8833 18.6966 20.0233 11.0968 19.7486 5.1216C21.699 7.54473 21.8913 8.68742 22.6331 10.3671C22.6331 7.82007 25.0093 3.93757 28.5393 2.86369C25.6686 1.04635 22.2622 0 18.6085 0Z" fill="white"/>
<path d="M4.65783 13.0532C3.42107 11.4139 2.94011 9.71993 2.77521 8.95496C1.08497 11.7281 0.123047 14.993 0.123047 18.4629C0.123047 23.777 2.3767 28.5583 5.97704 31.9325C9.61858 31.6183 11.6387 30.1019 11.6387 28.5446C10.7179 28.1758 6.70533 26.0447 6.70533 21.2907C6.70533 21.2907 10.9928 24.1049 13.6312 24.1049C14.9229 22.4519 15.6237 20.5257 15.7062 19.8836C10.6492 18.7771 7.14511 16.3728 4.65783 13.0532Z" fill="white"/>
<path d="M37.0952 18.4836C37.0952 12.5874 34.4174 7.32629 30.2518 3.88794C23.1244 5.11691 23.6655 15.8462 24.0847 18.4836C26.7761 18.9946 30.2383 15.2801 30.2383 15.2801C30.6981 19.4226 27.1006 22.3915 24.7203 23.0405C24.7203 23.0405 26.2757 26.8655 31.1985 26.8655C32.7674 26.8655 34.228 26.6169 35.4993 26.1475C36.5137 23.8138 37.0952 21.2178 37.0952 18.4836Z" fill="white"/>
<path d="M55.3292 27.2387L48.2603 11.8618V24.0642C48.2603 25.1964 48.3786 25.8993 48.6226 26.1731C48.8292 26.3727 49.0757 26.5261 49.346 26.623C49.6163 26.7199 49.904 26.7583 50.1902 26.7355H50.8557V27.2387H44.4893V26.7355H45.1326C45.4486 26.7615 45.766 26.7073 46.0554 26.578C46.345 26.4486 46.5972 26.2483 46.7888 25.9955C47.0455 25.3731 47.147 24.6976 47.0846 24.0272V12.1208C47.1202 11.5275 47.0242 10.9338 46.8036 10.3819C46.6619 10.0887 46.4209 9.85533 46.1234 9.7233C45.6058 9.51203 45.0471 9.42095 44.4893 9.4569V8.9537H49.6652L56.283 23.265L62.8045 8.9537H67.9805V9.4569H67.352C67.0408 9.42366 66.7266 9.47004 66.4382 9.59171C66.1498 9.71337 65.8966 9.90633 65.7031 10.1525C65.4449 10.7743 65.3432 11.4503 65.4073 12.1208V24.0642C65.4073 25.1964 65.5256 25.8993 65.7696 26.1731C65.9791 26.3735 66.2281 26.5272 66.5011 26.6241C66.7734 26.721 67.0636 26.759 67.352 26.7355H67.9805V27.2387H60.2168V26.7355H60.8823C61.1953 26.764 61.5104 26.7108 61.797 26.5811C62.0829 26.4514 62.3312 26.2497 62.5161 25.9955C62.7768 25.3741 62.8784 24.6978 62.8119 24.0272V11.8618L55.7654 27.2387H55.3292ZM80.6249 26.7355V27.2387H72.7943V26.7355H73.4524C73.7592 26.7638 74.0686 26.718 74.3539 26.6021C74.6398 26.4863 74.893 26.3037 75.0939 26.0696C75.3817 25.4193 75.4938 24.7049 75.4193 23.9976V12.1948C75.4581 11.5805 75.4008 10.9638 75.2492 10.3671C75.1303 10.1206 74.9362 9.91842 74.6946 9.7899C74.3163 9.57271 73.8886 9.45789 73.4524 9.4569H72.7943V8.9537H80.6249V9.4569H79.9668C79.663 9.42921 79.3574 9.47534 79.0758 9.59127C78.7936 9.70721 78.544 9.88956 78.3474 10.1228C78.0393 10.7671 77.9186 11.4852 77.9999 12.1948V23.9976C77.9673 24.6193 78.0246 25.2423 78.17 25.8475C78.2963 26.0944 78.4984 26.2941 78.7467 26.4173C79.1202 26.6242 79.5398 26.7336 79.9668 26.7355H80.6249ZM100.685 22.1847L101.114 22.2735L99.5539 27.2387H85.4239V26.7355H86.1041C86.4196 26.7674 86.7382 26.7159 87.0272 26.586C87.3168 26.4561 87.567 26.2526 87.7531 25.9955C88.0137 25.3639 88.1154 24.6778 88.0488 23.9976V12.1948C88.1345 11.458 88.0033 10.7123 87.6717 10.0489C87.4684 9.84287 87.2231 9.68328 86.9526 9.58104C86.6821 9.47886 86.3925 9.43655 86.1041 9.4569H85.4239V8.9537H93.6908V9.4569C92.9963 9.40504 92.2988 9.49828 91.6425 9.7307C91.3036 9.88499 91.0232 10.1445 90.8439 10.4707C90.6486 11.1404 90.5765 11.8398 90.6295 12.5352V24.0124C90.5907 24.5379 90.6665 25.0655 90.8513 25.559C90.9616 25.7503 91.1372 25.895 91.3467 25.966C92.0387 26.0936 92.7437 26.1383 93.4467 26.0992H94.7851C95.7803 26.1467 96.7773 26.0444 97.7429 25.7957C98.343 25.5584 98.8724 25.1712 99.2803 24.671C99.8712 23.9179 100.345 23.0796 100.685 22.1847ZM116.287 8.53912V14.8586H115.785C115.684 13.8466 115.388 12.8639 114.912 11.9653C114.487 11.2402 113.87 10.6462 113.13 10.2485C112.398 9.83769 111.573 9.62112 110.734 9.61946C109.877 9.58751 109.043 9.89609 108.412 10.4779C108.133 10.7187 107.907 11.0158 107.751 11.3499C107.594 11.6841 107.51 12.0476 107.503 12.4167C107.503 12.9789 107.706 13.5223 108.072 13.9484C108.634 14.6218 109.958 15.5245 112.058 16.6493C113.272 17.264 114.439 17.969 115.548 18.7583C116.149 19.2213 116.639 19.8128 116.982 20.4899C117.314 21.1326 117.486 21.8458 117.485 22.5692C117.488 23.2462 117.347 23.9161 117.071 24.5338C116.794 25.1516 116.388 25.703 115.881 26.1507C114.748 27.1638 113.265 27.6948 111.747 27.6307C111.252 27.6339 110.757 27.5942 110.268 27.5123C109.681 27.3762 109.101 27.2108 108.531 27.0165C107.996 26.811 107.441 26.667 106.874 26.5873C106.776 26.5848 106.679 26.6018 106.587 26.6374C106.496 26.673 106.413 26.7264 106.342 26.7945C106.169 27.0408 106.07 27.3305 106.054 27.6307H105.551V21.363H106.054C106.19 22.3972 106.508 23.3992 106.993 24.323C107.438 25.0203 108.064 25.5832 108.804 25.9509C109.628 26.3887 110.548 26.6126 111.481 26.6021C112.448 26.6559 113.399 26.3353 114.136 25.7067C114.442 25.4492 114.69 25.1278 114.86 24.7648C115.029 24.4018 115.118 24.006 115.119 23.6052C115.112 23.1266 114.982 22.6578 114.742 22.2436C114.457 21.737 114.062 21.2999 113.588 20.9635C112.665 20.3427 111.71 19.7697 110.727 19.2467C109.566 18.627 108.452 17.9247 107.392 17.1451C106.787 16.6771 106.284 16.0904 105.913 15.421C105.564 14.7868 105.386 14.0729 105.395 13.3491C105.388 12.7115 105.516 12.0796 105.771 11.4954C106.026 10.9111 106.402 10.3877 106.874 9.95986C107.389 9.48083 107.993 9.10806 108.651 8.86299C109.31 8.61793 110.01 8.50533 110.712 8.53172C111.785 8.56274 112.839 8.81465 113.81 9.27172C114.137 9.45357 114.496 9.57154 114.868 9.61946C114.971 9.62408 115.075 9.60817 115.173 9.57259C115.271 9.53707 115.36 9.48256 115.437 9.41232C115.626 9.1638 115.748 8.87076 115.792 8.56132L116.287 8.53912ZM130.196 26.7355V27.2387H122.365V26.7355H123.024C123.329 26.7638 123.637 26.718 123.921 26.6021C124.206 26.4862 124.458 26.3036 124.658 26.0696C124.953 25.4215 125.068 24.7057 124.99 23.9976V12.1948C125.024 11.5805 124.967 10.9645 124.82 10.3671C124.7 10.1188 124.503 9.91632 124.258 9.7899C123.883 9.57265 123.457 9.45783 123.024 9.4569H122.365V8.9537H130.196V9.4569H129.53C129.228 9.42983 128.923 9.47621 128.643 9.5922C128.362 9.70813 128.113 9.89017 127.918 10.1228C127.606 10.766 127.483 11.4845 127.563 12.1948V23.9976C127.528 24.6197 127.588 25.2436 127.741 25.8475C127.867 26.0944 128.07 26.2941 128.317 26.4173C128.688 26.6251 129.105 26.7346 129.53 26.7355H130.196ZM134.07 8.9537H139.032L150.197 22.6731V12.1208C150.284 11.4031 150.152 10.6759 149.82 10.034C149.612 9.82814 149.363 9.66984 149.089 9.57012C148.814 9.47047 148.521 9.4318 148.23 9.4569H147.609V8.9537H153.998V9.4569H153.347C153.039 9.42829 152.727 9.47688 152.442 9.59824C152.157 9.71967 151.907 9.91015 151.713 10.1525C151.458 10.7754 151.356 11.4505 151.417 12.1208V27.5347H150.937L138.891 12.8164V24.0642C138.804 24.7883 138.933 25.522 139.261 26.1731C139.466 26.3725 139.711 26.5258 139.981 26.6227C140.249 26.7197 140.536 26.7582 140.821 26.7355H141.428V27.2387H135.083V26.7355H135.726C136.041 26.7616 136.358 26.7074 136.646 26.578C136.935 26.4486 137.186 26.2482 137.375 25.9955C137.635 25.3741 137.737 24.6978 137.671 24.0272V11.3587C137.308 10.9151 136.905 10.5064 136.466 10.1377C136.093 9.89159 135.683 9.70443 135.253 9.5827C134.867 9.48428 134.469 9.44192 134.07 9.4569V8.9537ZM172.535 8.53943L173.001 14.3187H172.535C172.186 13.102 171.552 11.9859 170.686 11.0627C170.126 10.5369 169.467 10.1275 168.747 9.85823C168.028 9.58893 167.262 9.46517 166.494 9.49397C165.446 9.44617 164.405 9.67551 163.474 10.1587C162.543 10.642 161.757 11.3622 161.192 12.2467C160.151 13.9065 159.623 15.8374 159.676 17.7966C159.657 19.443 160.002 21.0734 160.689 22.5695C161.233 23.8636 162.153 24.9644 163.329 25.7293C164.331 26.3746 165.495 26.7234 166.686 26.7356C167.345 26.7362 168.002 26.6491 168.638 26.4767C169.278 26.3133 169.892 26.0644 170.465 25.7367V20.4531C170.508 19.8456 170.435 19.2353 170.25 18.655C170.118 18.369 169.887 18.1404 169.599 18.0112C169.108 17.8305 168.584 17.7549 168.061 17.7892V17.2638H175.123V17.7892H174.798C174.511 17.7553 174.22 17.8024 173.959 17.9254C173.697 18.0484 173.476 18.2421 173.319 18.4848C173.102 19.117 173.014 19.7863 173.06 20.4531V26.04C171.102 27.1417 168.887 27.701 166.642 27.6606C163.117 27.6606 160.438 26.5285 158.604 24.2641C157.248 22.6066 156.52 20.5232 156.549 18.3812C156.569 16.6398 157.032 14.9322 157.894 13.4189C158.755 11.9057 159.987 10.6366 161.473 9.73076C163.48 8.66288 165.788 8.30312 168.024 8.70956C168.811 8.8987 169.582 9.14604 170.332 9.44956C170.653 9.58591 170.991 9.67804 171.337 9.72336C171.424 9.72435 171.51 9.70394 171.587 9.66398C171.665 9.62396 171.731 9.56556 171.781 9.49397C171.935 9.2082 172.012 8.88649 172.003 8.56157L172.535 8.53943Z" fill="white"/>
</g>
<defs>
<clipPath id="clip0_227_98">
<rect width="175" height="37" fill="white" transform="translate(0.123047)"/>
</clipPath>
</defs>
</svg>
