<svg width="206" height="71" viewBox="0 0 206 71" fill="none" xmlns="http://www.w3.org/2000/svg">
<g clip-path="url(#clip0_130_962)">
<path d="M7.615 68.3063L1.515 56.3763L1.465 56.2863H1.125V70.6063H2.405V60.5963L7.415 70.5563L7.455 70.6363H7.775L12.805 60.5963V70.6063H14.085V56.2863H13.745L7.615 68.3063Z" fill="#6F7072"/>
<path d="M26.1275 63.1663L21.7075 56.5463H20.1875L25.4975 64.4863V70.6063H26.7775V64.4863L32.0775 56.5463H30.5475L26.1275 63.1663Z" fill="#6F7072"/>
<path d="M51.4259 62.7963C48.7259 62.1963 47.9859 61.6263 47.9859 60.1463C47.9859 58.5063 49.1459 57.5263 51.0959 57.5263C52.3659 57.5263 53.7259 58.0263 54.7559 58.8763L54.9059 58.9963L55.5659 57.9063L55.4559 57.8163C54.2159 56.8363 52.6659 56.3063 51.1059 56.3063C48.4359 56.3063 46.7159 57.8363 46.7159 60.1963C46.7159 62.3363 47.8259 63.2963 51.1059 64.0263C53.7659 64.6263 54.7559 65.3863 54.7559 66.8263C54.7559 68.5363 53.3959 69.6363 51.2859 69.6363C49.7659 69.6363 48.2559 69.0663 47.2459 68.1063L47.1159 67.9763L46.3359 69.0363L46.4559 69.1363C47.8059 70.2963 49.3859 70.8563 51.2959 70.8563C54.1359 70.8563 56.0459 69.2163 56.0459 66.7663C56.0459 64.6463 54.7959 63.5763 51.4459 62.8063L51.4259 62.7963Z" fill="#6F7072"/>
<path d="M72.1856 56.5262H70.7156L64.0456 67.9062V56.5262H62.7656V70.6062H63.8156L67.3956 64.5762L71.2856 70.5262L71.3356 70.6062H72.8656L68.1156 63.3662L72.1856 56.5262Z" fill="#6F7072"/>
<path d="M80.3659 56.5262H79.0859V70.6062H80.3659V56.5262Z" fill="#6F7072"/>
<path d="M97.275 67.6763L88.445 56.2863H88.125V70.6063H89.405V59.4363L98.185 70.7863L98.235 70.8463H98.555V56.5263H97.275V67.6763Z" fill="#6F7072"/>
<path d="M116.882 64.0762H123.242V62.8662H116.882V57.7562H124.072V56.5262H115.602V70.6062H124.222V69.3762H116.882V64.0762Z" fill="#6F7072"/>
<path d="M141.062 56.5262H139.522L135.242 62.3962L131.042 56.5962L130.992 56.5262H129.422L134.412 63.4262L129.242 70.6062H130.782L135.242 64.4462L139.732 70.6062H141.272L136.102 63.4262L141.062 56.5262Z" fill="#6F7072"/>
<path d="M151.692 56.5262H147.492V70.6062H148.772V65.1462H151.692C154.762 65.1462 156.592 63.5362 156.592 60.8462C156.592 58.1562 154.712 56.5262 151.692 56.5262ZM148.772 57.7362H151.642C153.962 57.7362 155.292 58.8662 155.292 60.8462C155.292 62.8262 153.962 63.9362 151.642 63.9362H148.772V57.7362Z" fill="#6F7072"/>
<path d="M164.389 64.0762H170.759V62.8662H164.389V57.7562H171.579V56.5262H163.109V70.6062H171.729V69.3762H164.389V64.0762Z" fill="#6F7072"/>
<path d="M187.091 60.7662C187.091 58.1462 185.181 56.5262 182.101 56.5262H178.211V70.6062H179.491V65.0162H182.091C182.301 65.0162 182.511 65.0062 182.721 64.9862L186.311 70.6062H187.841L184.081 64.7462C186.021 64.1762 187.091 62.7662 187.091 60.7762V60.7662ZM179.501 57.7362H182.051C184.431 57.7362 185.801 58.8462 185.801 60.7762C185.801 62.7062 184.471 63.7962 182.051 63.7962H179.501V57.7462V57.7362Z" fill="#6F7072"/>
<path d="M192.508 56.5262V57.7362H197.688V70.6062H198.978V57.7362H204.158V56.5262H192.508Z" fill="#6F7072"/>
<path d="M38.8288 42.4163H35.9487V10.6263L19.9688 42.5263H19.6287L3.59875 10.6263V42.4163H0.71875V0.17627H0.94875L19.8088 37.0463L38.6087 0.17627H38.8387V42.4163H38.8288Z" fill="url(#paint0_linear_130_962)"/>
<path d="M53.0988 42.4162H50.2188V0.90625H53.0988V42.4062V42.4162Z" fill="url(#paint1_linear_130_962)"/>
<path d="M124.169 3.61625H102.489V20.0462H121.689V22.6963H102.489V39.6862H124.629V42.3963H99.6094V0.90625H124.169V3.61625Z" fill="url(#paint2_linear_130_962)"/>
<path d="M165.036 21.6362C165.036 34.7363 157.016 42.4162 143.126 42.4162H131.266V0.90625H143.126C156.906 0.90625 165.036 8.52625 165.036 21.6262V21.6362ZM134.156 3.67625V39.6963H143.076C155.276 39.6963 162.156 33.0362 162.156 21.6262C162.156 10.2162 155.156 3.67625 143.076 3.67625H134.156Z" fill="url(#paint3_linear_130_962)"/>
<path d="M203.766 42.4163H200.656L196.026 31.4663H175.016L170.446 42.4163H167.336L185.406 0.17627H185.636L203.766 42.4163ZM176.206 28.8563H194.896L185.526 6.72627L176.206 28.8563Z" fill="url(#paint4_linear_130_962)"/>
<path d="M81.4469 23.8662L79.7969 26.6562L90.2569 42.5562H93.7169L81.4469 23.8662Z" fill="url(#paint5_linear_130_962)"/>
<path d="M79.65 21.1163L91.67 0.866272H88.38L67.39 36.7163V0.866272H64.5V42.5563H66.88L78 23.8363L79.65 21.1163Z" fill="url(#paint6_linear_130_962)"/>
<path d="M205.699 3.81625C205.699 5.91625 204.239 7.45625 202.249 7.45625C200.259 7.45625 198.789 5.91625 198.789 3.81625C198.789 1.71625 200.229 0.15625 202.249 0.15625C204.269 0.15625 205.699 1.72625 205.699 3.81625ZM205.239 3.81625C205.239 1.97625 203.979 0.60625 202.249 0.60625C200.519 0.60625 199.239 1.97625 199.239 3.81625C199.239 5.65625 200.479 7.01625 202.249 7.01625C204.019 7.01625 205.239 5.66625 205.239 3.81625ZM202.799 4.21625L203.889 5.90625H203.349L202.319 4.29625H201.419V5.90625H200.949V1.75625H202.179C203.039 1.75625 203.689 2.18625 203.689 3.02625C203.689 3.65625 203.329 4.04625 202.789 4.21625H202.799ZM203.239 3.02625C203.239 2.46625 202.839 2.19625 202.159 2.19625H201.419V3.87625H202.159C202.829 3.87625 203.239 3.59625 203.239 3.02625Z" fill="url(#paint7_linear_130_962)"/>
</g>
<defs>
<linearGradient id="paint0_linear_130_962" x1="-40.5212" y1="-7.61373" x2="226.479" y2="120.386" gradientUnits="userSpaceOnUse">
<stop stop-color="#7C5019"/>
<stop offset="0.25" stop-color="#FDDB59"/>
<stop offset="0.56" stop-color="#7E4D19"/>
<stop offset="0.83" stop-color="#FDD30D"/>
<stop offset="1" stop-color="#915519"/>
</linearGradient>
<linearGradient id="paint1_linear_130_962" x1="-34.7013" y1="-19.7437" x2="232.299" y2="108.256" gradientUnits="userSpaceOnUse">
<stop stop-color="#7C5019"/>
<stop offset="0.25" stop-color="#FDDB59"/>
<stop offset="0.56" stop-color="#7E4D19"/>
<stop offset="0.83" stop-color="#FDD30D"/>
<stop offset="1" stop-color="#915519"/>
</linearGradient>
<linearGradient id="paint2_linear_130_962" x1="-23.4506" y1="-43.2238" x2="243.549" y2="84.7763" gradientUnits="userSpaceOnUse">
<stop stop-color="#7C5019"/>
<stop offset="0.25" stop-color="#FDDB59"/>
<stop offset="0.56" stop-color="#7E4D19"/>
<stop offset="0.83" stop-color="#FDD30D"/>
<stop offset="1" stop-color="#915519"/>
</linearGradient>
<linearGradient id="paint3_linear_130_962" x1="-18.0944" y1="-54.3837" x2="248.906" y2="73.6163" gradientUnits="userSpaceOnUse">
<stop stop-color="#7C5019"/>
<stop offset="0.25" stop-color="#FDDB59"/>
<stop offset="0.56" stop-color="#7E4D19"/>
<stop offset="0.83" stop-color="#FDD30D"/>
<stop offset="1" stop-color="#915519"/>
</linearGradient>
<linearGradient id="paint4_linear_130_962" x1="-11.2341" y1="-68.7037" x2="255.766" y2="59.2963" gradientUnits="userSpaceOnUse">
<stop stop-color="#7C5019"/>
<stop offset="0.25" stop-color="#FDDB59"/>
<stop offset="0.56" stop-color="#7E4D19"/>
<stop offset="0.83" stop-color="#FDD30D"/>
<stop offset="1" stop-color="#915519"/>
</linearGradient>
<linearGradient id="paint5_linear_130_962" x1="-32.8231" y1="-23.6838" x2="234.177" y2="104.316" gradientUnits="userSpaceOnUse">
<stop stop-color="#7C5019"/>
<stop offset="0.25" stop-color="#FDDB59"/>
<stop offset="0.56" stop-color="#7E4D19"/>
<stop offset="0.83" stop-color="#FDD30D"/>
<stop offset="1" stop-color="#915519"/>
</linearGradient>
<linearGradient id="paint6_linear_130_962" x1="-29.78" y1="-30.0037" x2="237.22" y2="97.9962" gradientUnits="userSpaceOnUse">
<stop stop-color="#7C5019"/>
<stop offset="0.25" stop-color="#FDDB59"/>
<stop offset="0.56" stop-color="#7E4D19"/>
<stop offset="0.83" stop-color="#FDD30D"/>
<stop offset="1" stop-color="#915519"/>
</linearGradient>
<linearGradient id="paint7_linear_130_962" x1="0.399386" y1="-92.9537" x2="267.399" y2="35.0459" gradientUnits="userSpaceOnUse">
<stop stop-color="#7C5019"/>
<stop offset="0.25" stop-color="#FDDB59"/>
<stop offset="0.56" stop-color="#7E4D19"/>
<stop offset="0.83" stop-color="#FDD30D"/>
<stop offset="1" stop-color="#915519"/>
</linearGradient>
<clipPath id="clip0_130_962">
<rect width="204.98" height="70.69" fill="white" transform="translate(0.71875 0.15625)"/>
</clipPath>
</defs>
</svg>
