<svg width="113" height="112" viewBox="0 0 113 112" fill="none" xmlns="http://www.w3.org/2000/svg">
<g clip-path="url(#clip0_325_690)">
<path d="M108.749 100.605V50.4356H79.8148V32.5265H63.2735C63.5191 32.0355 63.6857 31.6836 63.8743 31.3447C65.51 28.3642 67.1457 25.3837 68.799 22.4119C70.2593 19.7833 70.9302 16.994 70.8206 13.9874C70.4961 5.20662 61.8001 -1.36267 53.1742 0.696752C44.0353 2.87782 39.2422 12.6144 43.2898 21.0302C44.9957 24.5799 47.0305 27.9732 48.9074 31.4359C49.0871 31.7662 49.2362 32.105 49.4818 32.609H32.8835V50.466H3.91001V100.635H0.371094V111.314H112.371V100.605H108.749ZM87.1557 54.133H105.109V100.557H101.566V86.3407H90.7473V100.526H87.1557V54.133ZM97.8953 89.9556V100.531H94.3915V89.9556H97.8953ZM79.9332 54.1851H83.4239V93.3923H79.9332V54.1851ZM47.0436 20.5349C44.2195 15.3429 45.3772 9.60352 49.9247 6.06688C55.5423 1.69605 64.4356 4.40718 66.5669 11.172C66.9308 12.332 67.0931 13.5529 67.3518 14.7477C67.2159 16.7984 66.716 18.6971 65.7337 20.4741C63.0762 25.2838 60.4494 30.1064 57.7568 34.8944C57.4762 35.394 56.8228 35.998 56.3536 35.9936C55.8756 35.9849 55.2441 35.368 54.959 34.864C52.284 30.1108 49.6529 25.3272 47.0436 20.5349ZM36.5496 36.2152C36.8435 36.1891 37.1241 36.1457 37.4048 36.1457C41.8164 36.1413 46.2323 36.1544 50.6439 36.1283C51.271 36.124 51.6087 36.3151 51.9244 36.8582C54.1565 40.6946 58.5506 40.6903 60.8309 36.906C61.0326 36.5715 61.4975 36.1761 61.8439 36.1761C66.4748 36.1283 71.1056 36.1457 75.7409 36.15C75.8768 36.15 76.0128 36.1935 76.2057 36.2239V86.2191H63.6112V68.4751H49.1442V86.2104H36.5496V36.2152ZM59.9056 72.0247V86.2278H52.8278V72.0247H59.9056ZM36.5453 89.9425H76.1882V93.3619H36.5453V89.9425ZM83.4151 97.1548V100.579H29.3315V97.1548H83.4151ZM29.3095 54.1373H32.809V93.3532H29.3095V54.1373ZM7.61119 54.133H25.5733V100.557H22.0519V86.3798H11.2027V100.526H7.61119V54.133ZM18.3288 89.9947V100.552H14.8601V89.9947H18.3288ZM108.714 107.713H4.02403V104.285H108.714V107.713Z" fill="#72BE44"/>
<path d="M72.5752 61.3359H60.0859V64.6988H72.5752V61.3359Z" fill="#72BE44"/>
<path d="M52.6519 61.3027H40.1758V64.7003H52.6519V61.3027Z" fill="#72BE44"/>
<path d="M52.6533 47.0117H40.1641V50.3702H52.6533V47.0117Z" fill="#72BE44"/>
<path d="M72.5629 54.1504H60.043V57.561H72.5629V54.1504Z" fill="#72BE44"/>
<path d="M52.6958 54.1504H40.1758V57.561H52.6958V54.1504Z" fill="#72BE44"/>
<path d="M72.5629 46.9863H60.043V50.4013H72.5629V46.9863Z" fill="#72BE44"/>
<path d="M94.2549 57.7129H90.7773V61.1583H94.2549V57.7129Z" fill="#72BE44"/>
<path d="M101.487 57.6875H98.0273V61.1894H101.487V57.6875Z" fill="#72BE44"/>
<path d="M94.2296 64.834H90.8047V68.3446H94.2296V64.834Z" fill="#72BE44"/>
<path d="M94.2296 71.998H90.8047V75.5043H94.2296V71.998Z" fill="#72BE44"/>
<path d="M101.463 71.998H98.0078V75.4999H101.463V71.998Z" fill="#72BE44"/>
<path d="M94.2451 79.1797H90.7852V82.6816H94.2451V79.1797Z" fill="#72BE44"/>
<path d="M101.46 79.1855H98V82.6092H101.46V79.1855Z" fill="#72BE44"/>
<path d="M101.467 64.8477H98.0469V68.3713H101.467V64.8477Z" fill="#72BE44"/>
<path d="M21.9526 57.6836H18.4883V61.1942H21.9526V57.6836Z" fill="#72BE44"/>
<path d="M14.7251 64.916H11.2695V68.3571H14.7251V64.916Z" fill="#72BE44"/>
<path d="M21.9644 64.8555H18.5V68.3487H21.9644V64.8555Z" fill="#72BE44"/>
<path d="M14.7402 57.6836H11.2539V61.1811H14.7402V57.6836Z" fill="#72BE44"/>
<path d="M14.7353 72.0254H11.2578V75.4925H14.7353V72.0254Z" fill="#72BE44"/>
<path d="M21.957 72.0156H18.4883V75.5219H21.957V72.0156Z" fill="#72BE44"/>
<path d="M14.6915 79.1895H11.2578V82.6913H14.6915V79.1895Z" fill="#72BE44"/>
<path d="M21.9585 79.2109H18.4766V82.6824H21.9585V79.2109Z" fill="#72BE44"/>
<path d="M56.4242 7.49262C52.4818 7.44917 49.1621 10.7077 49.1446 14.6311C49.1271 18.5587 52.3985 21.8086 56.3672 21.8086C60.3358 21.8086 63.6116 18.5587 63.5941 14.6311C63.5766 10.7468 60.349 7.53606 56.4242 7.49262ZM56.3891 18.2242C54.3982 18.2372 52.78 16.634 52.78 14.6528C52.7844 12.6585 54.3762 11.0988 56.4022 11.1161C58.4195 11.1292 59.9894 12.7237 59.9543 14.718C59.9192 16.6601 58.3449 18.2068 56.3891 18.2242Z" fill="#72BE44"/>
</g>
<defs>
<clipPath id="clip0_325_690">
<rect width="112" height="111" fill="white" transform="translate(0.371094 0.314453)"/>
</clipPath>
</defs>
</svg>
