<svg width="100" height="93" viewBox="0 0 100 93" fill="none" xmlns="http://www.w3.org/2000/svg">
<g clip-path="url(#clip0_325_678)">
<path d="M97.2587 80.9737C96.9623 80.745 96.6952 80.2792 96.6869 79.9216C96.6117 76.7986 94.9171 74.3493 92.1164 73.4136C89.3031 72.478 86.4982 73.4011 84.5615 75.8921C84.4029 76.0917 84.1858 76.3412 83.9604 76.3786C82.6581 76.6073 81.3434 76.7778 80.0786 76.9649V63.1089H81.1889C82.7583 63.0923 83.3302 62.5392 83.3343 60.9881C83.3427 58.9796 83.351 56.9752 83.3302 54.9708C83.3135 53.7981 82.6874 53.1868 81.527 53.1411C81.0512 53.1244 80.5753 53.1411 80.0536 53.1411V9.97201H81.0512C82.8209 9.95953 83.3343 9.44804 83.3343 7.67653C83.3385 5.94661 83.3385 4.21669 83.3343 2.48676C83.3343 0.444956 82.8877 0 80.8341 0H19.1804C17.1143 0 16.6677 0.440798 16.6677 2.47845V60.5847C16.6677 60.8301 16.6593 61.0713 16.6718 61.3125C16.7261 62.4685 17.3355 63.0632 18.5126 63.1048C18.9842 63.1214 19.4559 63.1048 19.9275 63.1048V77.019C18.7672 76.8069 17.6486 76.6323 16.5508 76.3786C16.1334 76.2788 15.6409 76.0958 15.3904 75.7839C13.5121 73.4136 10.653 72.4904 7.87311 73.4219C5.1016 74.3493 3.3694 76.8277 3.31514 79.8301C3.30679 80.2252 3.048 80.7367 2.73495 80.982C0.35579 82.8492 -0.575006 85.7019 0.35579 88.4714C1.28659 91.2243 3.76175 92.9917 6.78788 92.9917C35.6008 93 64.4137 93 93.2266 92.9917C96.2528 92.9917 98.7196 91.2243 99.6462 88.4589C100.577 85.6936 99.642 82.8367 97.2587 80.9737ZM70.2406 48.1551H66.7428V39.8839H76.585V53.0745H73.3377V51.1949C73.3377 48.3838 73.1081 48.1551 70.2406 48.1551ZM29.9993 53.1078H26.7603V39.9296H36.6109V48.1551C35.1458 48.1551 33.6683 48.1509 32.1907 48.1592C30.5545 48.1634 30.0077 48.704 29.9993 50.3299C29.9952 51.224 29.9993 52.1139 29.9993 53.1078ZM36.6109 24.9591V36.449H26.7478V24.9591H36.6109ZM26.7562 21.5326V10.0427H36.6193V21.5326H26.7562ZM33.422 51.5525H69.9484V64.7099H33.422V51.5525ZM49.9426 24.9591V36.449H40.0795V24.9591H49.9426ZM40.092 21.5658V10.0469H49.93V21.5658H40.092ZM49.9384 39.9296V48.1052H40.0878V39.9296H49.9384ZM63.2742 24.9633V36.449H53.4111V24.9633H63.2742ZM53.4153 21.5367V10.0385H63.2784V21.5367H53.4153ZM63.2492 39.913V48.0844H53.3903V39.913H63.2492ZM76.5975 24.9882V36.4781H66.7178V24.9882H76.5975ZM66.747 21.5034V10.0178H76.6059V21.5034H66.747ZM73.3961 56.551H79.9576V59.7156H73.3961V56.551ZM20.0861 3.39747H79.9409V6.64107H25.8462C23.7801 6.64107 23.3335 7.08187 23.3335 9.11952V54.0476C23.3335 56.0063 23.801 56.4637 25.8003 56.4637C27.1527 56.4678 28.5009 56.4637 29.9576 56.4637V59.7239H20.0861V3.39747ZM26.3805 87.6896C25.7794 89.0162 24.6859 89.6607 23.2292 89.6649C20.4869 89.6732 17.7487 89.6691 15.0064 89.6691C12.2641 89.6691 9.66375 89.6774 6.9924 89.6649C5.04733 89.6566 3.69079 88.6045 3.38609 86.8954C3.10644 85.3235 3.98297 83.9345 5.72769 83.2068C6.88388 82.7203 7.20528 82.0549 6.87971 80.8198C6.35796 78.8529 7.19693 77.1604 8.97921 76.5782C10.7198 76.0085 12.3852 76.8527 13.1407 78.6907C13.6582 79.9424 14.2676 80.246 15.5783 79.9133C17.5651 79.406 19.0134 80.1379 19.819 82.0549C20.3282 83.2692 20.9794 83.5935 22.2858 83.2151C23.7008 82.8034 24.9113 83.1195 25.8671 84.209C26.7687 85.2361 26.944 86.4463 26.3805 87.6896ZM48.2646 89.6192H41.7449V76.4493H48.2521V81.348H45.0215V84.6498H48.2646V89.6192ZM58.3072 89.5901H51.7332V84.7496H54.9346V81.4103H51.7582V76.4618H58.3072V89.5901ZM70.9502 82.9531C69.6771 85.0864 69.7147 87.2821 70.8917 89.6691H61.7132V76.4327H64.9229V73.135H35.0624V76.3703H38.2596V89.6108H29.2397C31.6481 84.1466 27.8163 79.8676 23.3961 79.6472V63.1588H29.9993C29.9993 64.1527 29.9868 65.1424 30.0035 66.128C30.0244 67.4795 30.6254 68.0866 31.9945 68.0866C45.1133 68.0908 58.2362 68.0908 71.3592 68.0866C72.7158 68.0825 73.3168 67.467 73.3335 66.1113C73.346 65.1507 73.3377 64.1901 73.3377 63.1671H76.5808V79.6555C74.2017 79.8468 72.2149 80.8282 70.9502 82.9531ZM96.6159 86.8954C96.3279 88.5005 95.0256 89.6358 93.3226 89.6566C90.5136 89.6899 87.7003 89.6649 84.8912 89.6649C82.0821 89.6649 79.3398 89.7023 76.5641 89.6524C74.6483 89.6192 73.25 88.0556 73.3335 86.1843C73.4128 84.3795 74.9864 82.949 76.7979 83.0446C77.1402 83.0654 77.4782 83.1611 77.8122 83.2484C78.9976 83.552 79.6779 83.2359 80.1454 82.1547C81.0428 80.0796 82.3785 79.4018 84.5239 79.9382C85.7385 80.2377 86.3646 79.905 86.8613 78.6907C87.6168 76.8527 89.2822 76.0085 91.0228 76.5782C92.7049 77.1271 93.6315 78.803 93.2099 80.5204C92.7842 82.2337 92.9679 82.6038 94.5707 83.2983C96.0316 83.9304 96.8789 85.4233 96.6159 86.8954Z" fill="#72BE44"/>
<path d="M13.2645 39.8136H10.0547V3.40625H13.2645V39.8136Z" fill="#72BE44"/>
<path d="M83.3984 28.2773H86.6124V49.7392H83.3984V28.2773Z" fill="#72BE44"/>
<path d="M10.0625 43.2266H13.2598V46.4327H10.0625V43.2266Z" fill="#72BE44"/>
<path d="M66.6211 56.5293H43.418V59.7313H66.6211V56.5293Z" fill="#72BE44"/>
<path d="M39.9222 56.4805H36.75V59.7158H39.9222V56.4805Z" fill="#72BE44"/>
</g>
<defs>
<clipPath id="clip0_325_678">
<rect width="100" height="93" fill="white"/>
</clipPath>
</defs>
</svg>
