<svg width="317" height="57" viewBox="0 0 317 57" fill="none" xmlns="http://www.w3.org/2000/svg">
<g clip-path="url(#clip0_130_897)">
<path d="M313.22 6.72992H3.85156V49.8954H313.22V6.72992Z" fill="white"/>
<path d="M316.527 3.39124V53.2315H0.515625V3.39124H316.527ZM3.853 6.72861V49.8941H313.221V6.72861H3.853Z" fill="#18371F"/>
<path d="M310.349 9.58984H6.71094V47.0251H310.349V9.58984Z" fill="#008C56"/>
<path d="M137.594 28.2947L166.402 56.5365L195.211 28.2947L166.402 0.0214844L137.594 28.2947Z" fill="#18371F"/>
<path d="M166.413 52.7556L141.445 28.292L166.413 3.79694L191.349 28.292L166.413 52.7556Z" fill="url(#paint0_linear_130_897)"/>
<path d="M168.14 35.6303C172.705 17.0859 166.377 13.0873 166.377 13.0873C164.236 14.5041 162.882 18.4712 162.913 23.0994C162.913 27.7277 164.708 30.5928 164.708 30.5928C164.708 30.5928 165.684 27.7277 165.81 24.2329C165.967 19.9825 165.369 16.9914 165.369 16.9914H165.778C167.762 22.2494 167.825 28.6093 164.991 32.6393C164.991 32.6393 160.898 29.1445 160.772 23.0365C160.615 16.9599 163.228 11.4186 166.377 9.74994C166.377 9.74994 174.72 14.0319 170.186 32.3559C175.854 20.3603 182.591 21.7141 182.591 21.7141C183.851 24.4848 182.969 28.6407 179.947 32.5763C176.893 36.5434 171.981 37.0472 171.981 37.0472C172.044 33.3005 175.035 29.1445 177.491 27.6017L177.774 27.8221C177.774 27.8221 177.302 28.3889 175.507 31.0651C173.933 33.4579 173.177 35.8822 173.177 35.8822C173.177 35.8822 176.294 34.5913 178.53 31.5058C180.765 28.4518 181.741 25.996 181.017 23.9495C181.017 23.9495 173.65 25.9331 168.99 37.9287C167.951 40.6679 165.747 45.611 165.306 46.9333L163.858 48.2557C163.858 48.2557 166.503 42.431 168.171 35.5989L168.14 35.6303Z" fill="#18371F"/>
<path d="M164.991 41.4221C159.859 27.4429 151.484 24.7667 151.484 24.7667C150.602 27.0651 151.421 29.8357 153.971 33.4564C156.458 37.0772 160.268 38.8403 160.268 38.8403C160.268 38.8403 159.481 36.0067 157.718 33.236C155.671 30.0561 155.105 29.4264 155.105 29.4264L155.451 29.1745C158.222 31.0951 161.59 36.0067 161.59 40.2886C161.59 40.2886 155.703 39.3126 152.302 34.6214C148.902 29.9616 148.209 25.2389 149.689 22.1534C149.689 22.1534 159.985 22.8776 165.243 40.572L164.991 41.4221Z" fill="#18371F"/>
<path d="M304.153 42.7171C302.138 42.7171 300.344 41.3003 300.344 38.9074C300.344 36.5146 302.138 35.0978 304.153 35.0978C306.168 35.0978 307.963 36.4831 307.963 38.9074C307.963 41.3317 306.137 42.7171 304.153 42.7171ZM304.153 35.9793C302.642 35.9793 301.414 37.1443 301.414 38.9074C301.414 40.6706 302.642 41.8355 304.153 41.804C305.602 41.804 306.861 40.6391 306.861 38.9074C306.861 37.1758 305.602 35.9793 304.153 35.9793ZM303.524 40.9539H302.642V36.8609H304.185C305.255 36.8609 305.854 37.1758 305.854 38.0888C305.854 38.8445 305.413 39.1278 304.878 39.1593L305.917 40.9539H304.878L303.933 39.2538H303.524V40.9539ZM304.279 38.5296C304.657 38.5296 304.909 38.4352 304.909 37.9944C304.909 37.5851 304.437 37.5536 304.122 37.5536H303.492V38.5296H304.279Z" fill="white"/>
<path d="M211.808 28.481C212.658 29.6774 213.099 31.3146 213.099 33.3297C213.099 38.871 210.36 41.4842 204.724 41.4842H204.567L198.647 41.3268C198.427 41.7046 198.175 42.0509 197.734 42.4602L205.669 42.6491H205.826C211.462 42.6491 214.201 40.0359 214.201 34.4946C214.201 31.7239 213.351 29.646 211.777 28.481H211.808Z" fill="#18371F"/>
<path d="M231.414 19.9218C232.894 21.8424 233.618 24.6445 233.618 28.2967C233.618 36.5457 230.249 41.4888 224.551 41.4888C222.095 41.4888 220.237 40.9536 218.789 39.8201C220.3 41.8037 222.504 42.6537 225.653 42.6537C231.32 42.6537 234.689 37.7421 234.689 29.4617C234.689 24.9594 233.555 21.7479 231.383 19.8903L231.414 19.9218Z" fill="#18371F"/>
<path d="M252.861 38.3991L252.703 30.6854V29.1741C252.703 24.9237 252.892 21.5548 253.27 19.8546C253.427 19.2564 253.585 18.9416 253.962 18.5008H252.231C252.231 18.5008 252.231 18.6267 252.168 18.6897C251.79 20.4214 251.57 23.7587 251.57 28.0092V29.5204L251.727 37.2342C251.727 39.9419 251.916 40.3197 253.144 41.2957H248.516V42.4921H254.277C253.081 41.5161 252.892 41.1068 252.892 38.4306L252.861 38.3991Z" fill="#18371F"/>
<path d="M267.758 28.9852L267.727 26.4979L263.791 18.5008H262.438L267.758 28.9852Z" fill="#18371F"/>
<path d="M259.797 36.2904L259.703 28.2933L258.569 26.0579L258.695 35.1254C258.695 38.5258 259.073 39.7852 260.805 41.265H256.775C256.554 41.6428 256.239 41.9576 255.578 42.4614H261.907C260.206 40.9501 259.797 39.6907 259.797 36.2904Z" fill="#18371F"/>
<path d="M295.65 24.6127L296.216 22.9755L294.611 18.5676H293.383L295.65 24.6127Z" fill="#18371F"/>
<path d="M299.496 28.4188L301.385 23.7906C302.235 21.5866 303.368 19.6346 304.376 18.4697H302.77C301.951 19.6976 301.133 21.3033 300.535 22.909L298.614 27.6002L297.984 29.1745C297.575 30.182 297.512 32.1655 297.512 33.9916V38.1476C297.512 39.5959 297.89 40.5404 298.834 41.2331H293.765C293.545 41.6739 293.199 42.0202 292.758 42.4295H299.968C299.023 41.7054 298.614 40.7608 298.614 39.344V35.1565C298.614 33.2989 298.551 30.9691 298.929 29.9616L299.527 28.3873L299.496 28.4188Z" fill="#18371F"/>
<path d="M27.8833 28.7974L27.9148 26.3416L22.7828 16.0776H21.5234L27.8833 28.7974Z" fill="#18371F"/>
<path d="M18.9095 35.6916V35.3767L18.815 26.498L17.7131 24.2626L17.8075 34.1803V34.5266C17.8075 38.2418 18.2483 39.6272 20.1374 41.2958H15.5406C15.2888 41.6737 14.9424 41.9885 14.2812 42.4923H21.2708C19.3818 40.8236 18.941 39.4382 18.941 35.6916H18.9095Z" fill="#18371F"/>
<path d="M40.7879 32.6396H44.0309L43.6845 31.4747H39.6545C39.6545 31.4747 38.4266 36.5752 38.4266 36.6696C38.2692 37.4568 38.1747 38.1494 38.1747 38.7476C38.1747 39.7551 38.4896 40.5108 39.2767 41.2979H35.4356C35.1837 41.7072 34.9318 42.085 34.6484 42.4943H40.4101C39.623 41.7072 39.3082 40.9201 39.3082 39.9441C39.3082 39.3458 39.4026 38.6532 39.5286 37.8661C39.5286 37.8031 40.7879 32.7026 40.7879 32.7026V32.6396Z" fill="#18371F"/>
<path d="M42.3555 26.7503L41.5684 24.2316L40.7812 27.443H42.1981L42.3555 26.7503Z" fill="#18371F"/>
<path d="M50.4798 30.402L47.0795 18.5008H45.8516L48.9371 29.2371C50.7002 35.471 52.0226 39.1233 53.3134 41.2957H48.6852L49 42.4921H54.8877C53.5968 40.3197 52.2744 36.6675 50.5113 30.4335L50.4798 30.402Z" fill="#18371F"/>
<path d="M85.1186 38.3991L84.9611 30.6854V29.1741C84.9611 24.9237 85.15 21.5548 85.5593 19.8546C85.7168 19.2564 85.8427 18.9416 86.2205 18.5008H84.4889C84.4889 18.5008 84.4259 18.6267 84.4259 18.6897C84.0481 20.4214 83.8277 23.7587 83.8277 28.0092V29.5204L83.9851 37.2342C83.9851 39.9419 84.174 40.3197 85.3704 41.2957H80.7422V42.4921H86.5039C85.276 41.5161 85.15 41.1068 85.1186 38.4306V38.3991Z" fill="#18371F"/>
<path d="M116.853 26.249H116.664C116.412 27.0676 116.097 27.6658 115.656 28.1066V31.4755C116.066 31.9163 116.286 32.546 116.506 33.522H116.727L116.821 26.249H116.853Z" fill="#18371F"/>
<path d="M104.009 38.5249C103.285 37.7693 102.561 36.4784 102.561 36.4784L98.5625 28.072C101.176 26.4348 101.837 24.5143 101.837 21.9955C101.837 21.1454 101.711 20.2953 101.428 19.5397C101.302 19.2563 101.176 19.0044 101.018 18.7526C101.711 19.1619 102.183 19.823 102.561 20.7046C102.844 21.4602 102.97 22.2788 102.97 23.1604C102.97 25.1125 102.593 26.6237 100.137 28.6073L103.474 35.6598C103.474 35.6598 103.883 36.4155 104.293 36.9822C104.293 36.9822 104.293 37.7063 104.009 38.5249Z" fill="#18371F"/>
<path d="M105.513 41.2353H102.207C101.074 41.2353 100.224 41.0779 99.5312 40.6056C100.444 41.9595 101.483 42.4317 103.341 42.4317H105.954L110.74 42.3688L113.605 42.4317H117.918C118.391 42.4317 118.454 42.3688 118.548 42.0854L119.461 36.7015L119.146 36.4811C118.768 37.5831 118.328 38.4017 117.761 39.0314L117.478 40.9205C117.415 41.2038 117.32 41.2353 116.848 41.2353H112.534L109.701 41.1724H105.608L105.513 41.2353Z" fill="#18371F"/>
<path d="M135.773 22.1845C136.057 22.7197 136.34 23.3494 136.592 24.0421H136.875L137.001 18.5008H136.749L136.655 18.5323H136.214H135.836L135.773 22.1845Z" fill="#18371F"/>
<path d="M134.711 29.3014L134.586 29.2069C135.845 30.7497 136.538 32.5128 136.538 34.3074C136.538 38.4634 133.578 41.4859 129.611 41.4859C128.005 41.4859 126.463 41.1081 125.203 40.3525V40.6988C126.588 42.0212 128.603 42.6824 130.713 42.6824C134.711 42.6824 137.608 39.6598 137.608 35.5353C137.608 33.2684 136.569 31.0645 134.649 29.3328L134.711 29.3014Z" fill="#18371F"/>
<path d="M195.791 13.6891L199.191 13.7835C199.695 13.7835 200.577 13.6891 201.836 13.5317C203.19 13.3742 204.67 13.2798 205.74 13.2798C208.29 13.2798 209.518 13.7206 210.337 15.0429C210.841 15.7986 211.092 16.8376 211.092 17.908C211.092 21.2454 209.235 24.0475 206.401 24.9921C209.959 25.244 212.006 27.8257 212.006 32.1391C212.006 37.6804 209.266 40.2936 203.631 40.2936H203.473L195.571 40.1047C196.578 39.1287 196.83 38.499 196.893 36.7044C197.082 32.7058 197.208 26.4404 197.208 22.8196C197.208 15.6411 197.05 14.6651 195.539 13.6891H195.822H195.791ZM201.773 33.7448V34.3116C201.773 37.8378 202.025 38.4046 203.568 38.4046C205.646 38.4046 207.22 35.9173 207.22 32.5484C207.22 28.7702 205.457 26.4404 202.655 26.4404C202.182 26.4404 202.056 26.4404 201.742 26.5978V33.7763L201.773 33.7448ZM202.592 24.8032C204.859 24.8032 206.527 22.5363 206.527 19.4508C206.527 16.7116 205.331 15.1374 203.253 15.1374C202.277 15.1374 201.867 15.3893 201.867 15.956V24.7402C202.214 24.8032 202.371 24.8032 202.592 24.8032Z" fill="white"/>
<path d="M223.46 40.3217C219.115 40.3217 216.565 38.653 215.148 34.7489C214.487 32.8913 214.109 30.7188 214.109 28.4519C214.109 23.3514 215.904 18.7547 218.643 17.0545C220.029 16.2044 221.729 15.7636 223.586 15.7636C229.442 15.7636 232.496 19.6992 232.496 27.1296C232.496 35.41 229.096 40.3531 223.429 40.3531L223.46 40.3217ZM223.46 17.9046C220.595 17.9046 218.706 21.9976 218.706 28.263C218.706 34.1507 220.595 38.1492 223.397 38.1492C226.2 38.1492 227.994 34.3081 227.994 28.0741C227.994 21.8402 226.2 17.8731 223.429 17.8731L223.46 17.9046Z" fill="white"/>
<path d="M259.885 16.1382L268.385 33.2029V21.4276L268.417 21.1128C268.417 18.0587 268.165 17.4605 266.433 16.1382H272.258C271.723 16.6734 271.471 17.0198 271.313 17.5235C270.778 18.9088 270.495 22.1518 270.495 25.9614V26.4337L270.369 40.1295H266.496L257.46 22.3092L257.586 33.9585C257.586 37.3589 257.964 38.6182 259.696 40.1295H253.367C254.186 39.4998 254.469 39.185 254.721 38.6497C255.351 37.2014 255.571 33.6751 255.571 23.8204C255.571 20.0738 255.445 19.0663 254.784 17.5865C254.343 16.6419 254.249 16.516 253.808 16.1382H259.916H259.885Z" fill="white"/>
<path d="M296.471 16.1414C297.573 16.8655 297.857 17.4637 297.857 18.7231C297.857 19.6047 297.542 21.2419 297.038 22.6587L295.464 27.2555L291.276 16.2358H274.243C273.771 16.2358 273.55 16.1414 273.267 16.0154L273.078 22.029C273.928 19.7306 275.565 18.4398 277.738 18.4398C278.021 18.4398 278.179 18.4712 278.588 18.5342V35.1896C278.588 38.2751 278.305 38.9678 276.762 40.1642H284.35C283.185 39.3771 282.901 38.527 282.901 35.8193L282.838 18.4083C283.185 18.3768 283.311 18.3768 283.563 18.3768C285.641 18.3768 286.868 19.3843 288.096 22.092C288.096 22.092 290.615 27.5388 291.119 28.9556C291.812 30.7188 291.937 31.7263 291.937 34.8748C291.937 38.3381 291.78 38.9678 290.395 40.1327H297.636C296.723 39.4086 296.314 38.464 296.314 37.0157V32.8283C296.314 31.0021 296.597 29.0186 297.006 28.0111L297.605 26.4369L299.525 21.7457C300.375 19.5417 301.635 17.2748 302.611 16.1414H296.471Z" fill="white"/>
<path d="M19.218 13.7166L28.569 32.5129V19.5412V19.1949C28.569 15.826 28.3171 15.1963 26.3965 13.7166H32.7879C32.1897 14.3148 31.9378 14.6926 31.7489 15.2593C31.1822 16.7706 30.8359 20.3283 30.8359 24.5473V25.051L30.6785 40.1007H26.428L16.4789 20.4858L16.6048 33.0167V33.3315C16.6048 37.0467 17.0456 38.432 18.9347 40.1322H11.9766C12.8581 39.4395 13.2045 39.0932 13.4563 38.495C14.1805 36.9208 14.4009 33.0167 14.4009 22.1859C14.4009 18.0614 14.2435 16.9595 13.5508 15.3223C13.0785 14.2833 12.9526 14.1259 12.4803 13.7166H19.1866H19.218Z" fill="white"/>
<path d="M47.8023 28.0414C49.5654 34.2754 50.8563 37.9276 52.1786 40.1H46.7318L44.0241 30.2768H38.5458C38.5458 30.2768 37.3179 35.4088 37.3179 35.4718C37.1604 36.2589 37.066 36.9516 37.066 37.5498C37.066 38.5573 37.3808 39.3129 38.1679 40.1H32.4062C34.0435 37.8331 34.8621 35.7237 37.2549 27.7895C38.7662 22.5945 39.6162 19.2257 39.6162 18.0293C39.6162 17.2107 39.4588 16.7699 39.018 16.1087H44.4019L47.8337 28.0414H47.8023ZM39.144 28.1044H43.4574L41.1275 20.3906L39.1755 28.1044H39.144Z" fill="white"/>
<path d="M61.9364 38.115L61.8734 20.704C62.2198 20.6725 62.3457 20.6725 62.5976 20.6725C62.8809 20.6725 63.1643 20.704 63.4162 20.767C63.0384 20.2317 62.7235 19.8539 62.3457 19.602C62.0938 19.5705 61.779 19.5391 61.4641 19.5391C61.1808 19.5391 61.0863 19.5391 60.74 19.5391L60.8344 36.9816C60.8344 39.6893 61.1178 40.5393 62.2827 41.295H56.9618C56.6784 41.7043 56.3006 42.0821 55.7969 42.4914H63.4162C62.2512 41.7358 61.9364 40.8542 61.9364 38.1465V38.115Z" fill="#18371F"/>
<path d="M64.9091 22.0286C63.6812 19.321 62.4532 18.3135 60.3753 18.3135C60.1234 18.3135 59.9974 18.3135 59.6511 18.3449L59.7456 35.2522V35.756C59.7456 38.4636 60.0289 39.3137 61.1939 40.1008H53.5746C55.0858 38.9044 55.3377 38.2118 55.3377 35.1263V18.4709C54.9599 18.4394 54.8025 18.3764 54.5506 18.3764C52.3467 18.3764 50.7095 19.6673 49.8594 21.9657L50.0483 15.7947C50.6465 16.078 51.3392 16.141 51.7799 16.141H62.5162C63.9015 16.141 64.4683 16.0466 64.8776 15.7947L64.9405 21.9972L64.9091 22.0286Z" fill="white"/>
<path d="M83.2853 17.494C82.9075 19.2257 82.6871 22.5631 82.6871 26.8135V28.3248L82.8445 36.0385C82.8445 38.7462 83.002 39.124 84.2299 40.1H78.4997V38.148C76.8624 39.8167 74.9734 40.6038 72.8954 40.6038C70.597 40.6038 68.582 39.4388 67.8578 37.6757C67.5115 36.8886 67.2911 35.3458 67.2911 33.7401L67.2281 21.2092C67.2281 17.9978 67.0707 17.3366 66.1577 16.3291L65.9688 16.1087H72.612C72.1397 16.6754 71.9823 17.0218 71.8249 17.7144C71.5415 19.1942 71.51 20.674 71.51 26.0264C71.51 29.5527 71.5415 31.7566 71.7304 33.4882C71.9823 36.3533 73.1158 37.8961 74.9734 37.8961C76.831 37.8961 78.0274 36.1959 78.3107 32.9845C78.4682 31.1584 78.5311 28.9859 78.5311 26.4986C78.5311 20.4221 78.4052 18.3126 77.9329 17.1162C77.744 16.6439 77.5551 16.4236 77.1143 16.1087H83.915C83.5372 16.581 83.4113 16.8643 83.2538 17.494H83.2853Z" fill="white"/>
<path d="M90.0303 16.078H90.3451L95.5086 15.7947H95.9494C98.3107 15.7947 99.6016 16.5818 100.326 18.4079C100.609 19.1635 100.735 19.9821 100.735 20.8637C100.735 23.6973 99.5701 25.6809 96.9254 27.1921L100.861 35.3467C101.994 37.645 102.309 38.1173 103.789 39.8805L104.104 40.1323H101.113C98.846 40.1323 97.7755 39.4082 96.6735 37.1413L92.8324 29.3016C92.675 28.8923 92.3916 28.6719 92.1083 28.6719C92.0453 28.6719 92.0138 28.6719 91.9194 28.7034V34.1817L91.8879 34.2762C91.8879 37.9914 92.1397 39.0619 93.3677 40.1638H85.9688C86.5984 39.723 86.8188 39.4397 87.0077 39.0619C87.5745 37.9914 87.7319 35.693 87.7319 30.1832V28.9553C87.6689 23.8862 87.606 20.5489 87.5115 18.8487C87.4485 18.1245 87.2911 17.4948 87.0077 17.0541C86.8188 16.6762 86.6614 16.5503 86.1891 16.1725L89.9988 16.1095L90.0303 16.078ZM91.9194 26.7828C92.3916 26.9717 92.612 27.0032 93.1158 27.0032C95.4456 27.0032 96.6106 25.3975 96.6106 22.1861C96.6106 18.9746 95.4771 17.5263 93.2732 17.5263C92.5176 17.5263 92.3916 17.5263 91.9508 17.7782V26.8143L91.9194 26.7828Z" fill="white"/>
<path d="M108.355 15.9549H108.701L113.361 15.7345C113.581 15.7345 113.802 15.703 114.054 15.703C115.565 15.703 115.817 15.7975 116.006 16.1123L115.911 20.9609H115.785C114.967 18.6311 113.518 17.5921 111.031 17.5921C110.401 17.5921 110.118 17.6236 109.362 17.718V26.5652C109.835 26.6912 110.024 26.6912 110.496 26.6912C112.857 26.6912 113.77 26.03 114.431 23.9205H114.62L114.557 31.2249H114.305C113.77 28.9581 113.078 28.3913 110.779 28.3913H109.362V37.8682C110.212 38.1201 110.559 38.1831 111.409 38.1831C114.368 38.1831 115.911 37.0811 116.887 34.1845L117.171 34.4049L116.289 39.7888C116.194 40.0721 116.132 40.1351 115.659 40.1351H111.377L108.512 40.0407L104.23 40.1351H103.727C104.23 39.6943 104.451 39.348 104.608 38.8128C105.08 37.2385 105.238 34.4364 105.238 27.4468C105.238 21.1184 105.08 18.5681 104.64 17.3402C104.451 16.8679 104.293 16.6161 103.853 16.2068L108.292 16.0178L108.355 15.9549Z" fill="white"/>
<path d="M118.705 18.5954C118.705 17.7768 118.642 17.462 118.359 16.8323L121.885 15.2896C121.916 15.4785 121.948 15.6359 121.979 15.7618C122.231 16.7378 122.294 17.3046 122.294 17.6194C122.294 18.5325 121.822 19.5085 121.161 19.8863L117.414 22.5625C118.264 21.1142 118.673 19.9178 118.673 18.5954H118.705Z" fill="white"/>
<path d="M134.641 21.6536H134.358C133.35 18.883 132.028 17.5291 130.233 17.5291C128.785 17.5291 127.746 18.694 127.746 20.3627C127.746 21.7795 128.407 23.2593 129.509 24.2668L132.5 26.9745C134.421 28.7062 135.46 30.9101 135.46 33.1455C135.46 37.3015 132.532 40.324 128.533 40.324C126.424 40.324 124.377 39.6314 123.023 38.3405V32.5158H123.307C124.22 36.3255 125.668 38.0571 127.935 38.0571C129.635 38.0571 130.737 36.7663 130.737 34.6883C130.737 33.2085 130.422 32.5788 129.289 31.5713C129.226 31.4453 129.163 31.4453 129.131 31.4139L126.077 28.5802C124.22 26.8486 123.307 24.8021 123.307 22.2518C123.307 19.7016 124.44 17.3717 126.077 16.4901C127.179 15.9234 128.061 15.703 129.572 15.703C130.422 15.703 131.304 15.7975 132.185 15.9234L133.476 16.1438L134.012 16.2068H134.452L134.578 16.1753H134.799L134.673 21.6536H134.641Z" fill="white"/>
<path d="M245.248 41.2667V40.9518C244.177 41.5185 243.012 41.8019 241.816 41.8019C240.43 41.8019 239.171 41.3926 238.227 40.6685C239.14 42.0853 240.934 42.9668 242.949 42.9668C244.586 42.9668 246.098 42.4631 247.42 41.4556V41.2667H245.279H245.248Z" fill="#18371F"/>
<path d="M277.894 19.67C276.918 19.8589 276.099 20.3312 275.438 21.0554L275.344 24.3298C275.879 22.85 276.792 21.7795 277.925 21.2128V19.6385L277.894 19.67Z" fill="#18371F"/>
<path d="M209.344 25.177C209.848 25.4603 210.257 25.8067 210.635 26.216C212.303 24.8621 213.311 22.6897 213.311 20.2653C213.311 19.1634 213.059 18.1244 212.555 17.3688C212.272 16.8965 211.925 16.5502 211.485 16.2983C211.988 17.0539 212.209 18.0299 212.209 19.1004C212.209 21.6192 211.17 23.8546 209.375 25.177H209.344Z" fill="#18371F"/>
<path d="M204.952 16.3924C204.763 16.3609 204.574 16.3294 204.354 16.3294C203.41 16.3294 202.969 16.5813 202.969 17.1795V24.1376C203.347 24.0432 203.724 23.9172 204.071 23.6653V18.5648V18.3129C204.071 17.7147 204.48 17.4943 205.425 17.4943C205.425 17.4943 205.425 17.4943 205.488 17.4943C205.33 17.0536 205.141 16.6757 204.889 16.3609L204.952 16.3924Z" fill="#18371F"/>
<path d="M285.202 38.117V37.6132L285.108 20.7059C285.454 20.6745 285.58 20.6745 285.832 20.6745C286.147 20.6745 286.367 20.7059 286.651 20.7689C286.367 20.2652 285.989 19.8873 285.643 19.604C285.297 19.541 285.139 19.5095 284.73 19.5095C284.447 19.5095 284.352 19.5095 283.974 19.5095L284.069 36.4168V36.9205C284.069 39.6282 284.352 40.4783 285.517 41.2339H280.228C279.944 41.6432 279.566 42.0211 279.031 42.4304H286.651C285.486 41.6747 285.234 40.7932 285.234 38.0855L285.202 38.117Z" fill="#18371F"/>
<path d="M272.376 22.661L272.502 18.5365C272.502 18.5365 272.439 18.6624 272.407 18.6939C271.903 20.0478 271.589 23.3222 271.589 27.1318L271.463 41.2684H268.094L268.692 42.4649H272.565L272.691 28.3282C272.691 26.1873 272.785 24.2667 272.974 22.6925H272.344L272.376 22.661Z" fill="#18371F"/>
<path d="M240.839 36.0063C241.091 36.51 241.469 36.8878 241.972 37.1082C241.878 36.7304 241.815 36.3211 241.752 35.8803C241.595 34.1487 241.563 31.9448 241.563 28.4185C241.563 23.0346 241.563 21.5548 241.878 20.1065C242.035 19.3824 242.193 19.0675 242.665 18.5008H240.87C240.87 18.5008 240.808 18.7842 240.776 18.9416C240.493 20.3899 240.43 21.8697 240.43 27.222C240.43 30.7483 240.493 32.9523 240.65 34.6839C240.713 35.1562 240.776 35.597 240.87 36.0063H240.839Z" fill="#18371F"/>
<path d="M224.811 19.1042C224.811 19.1042 224.685 19.1042 224.559 19.1042C221.694 19.1042 219.805 23.1972 219.805 29.4627C219.805 31.5722 220.057 33.3983 220.466 34.941C220.844 35.8226 221.347 36.4838 221.883 36.9246C221.284 35.2559 220.938 33.1464 220.938 30.6276C220.938 24.3622 222.796 20.2377 225.724 20.2377C225.724 20.2377 225.787 20.2377 225.818 20.2377C225.503 19.7339 225.22 19.3561 224.842 19.0728L224.811 19.1042Z" fill="#18371F"/>
<path d="M205.677 28.8296C205.394 28.3258 205.048 27.948 204.607 27.6646C204.324 27.6332 204.072 27.5702 203.757 27.5702C203.285 27.5702 203.19 27.5702 202.844 27.7276V34.8746V35.4414C202.844 36.3544 202.844 37.0471 202.907 37.6138C203.064 37.6453 203.222 37.6768 203.473 37.6768C203.599 37.6768 203.82 37.6453 203.977 37.6138C203.977 37.3304 203.977 36.9841 203.977 36.6063V28.8611C204.292 28.7036 204.386 28.7036 204.859 28.7036C205.142 28.7036 205.394 28.7036 205.614 28.7666L205.677 28.8296Z" fill="#18371F"/>
<path d="M52.2195 21.0554L52.125 24.3298C52.6602 22.85 53.5733 21.7795 54.7067 21.2128V19.6385C53.7307 19.8275 52.9121 20.2997 52.2195 21.0239V21.0554Z" fill="#18371F"/>
<path d="M113.554 18.8785C113.145 18.784 112.641 18.7526 112.169 18.7526C111.539 18.7526 111.224 18.784 110.469 18.8785V25.994C110.878 25.994 111.224 25.994 111.539 25.9311V20.0749C112.326 19.949 112.61 19.9175 113.239 19.9175C113.712 19.9175 114.152 19.949 114.593 20.0434C114.278 19.5397 113.932 19.1619 113.523 18.847L113.554 18.8785Z" fill="#18371F"/>
<path d="M113.452 30.7531C113.295 30.2493 113.137 29.8715 112.917 29.6196C112.602 29.5881 112.256 29.5566 111.847 29.5566H110.43V37.4278C110.713 37.4593 110.965 37.4908 111.374 37.4908C111.437 37.4908 111.5 37.4908 111.595 37.4908V30.7531H112.98C113.137 30.7531 113.295 30.7531 113.452 30.7531Z" fill="#18371F"/>
<path d="M131.772 18.7526C131.772 18.7526 131.488 18.7526 131.362 18.7526C129.883 18.7526 128.875 19.9175 128.875 21.5862C128.875 21.901 128.906 22.1844 128.969 22.4992C129.221 22.9715 129.568 23.4438 129.977 23.8216C129.977 23.8216 130.04 23.8846 130.166 24.0105C130.04 23.6012 130.008 23.1919 130.008 22.7826C130.008 21.0824 131.016 19.949 132.496 19.949C132.59 19.949 132.685 19.949 132.779 19.949C132.433 19.4137 132.086 19.0359 131.772 18.784V18.7526Z" fill="#18371F"/>
<path d="M126.714 37.1397C126.494 36.3841 126.336 35.5655 126.21 34.7154L125.266 34.8728V35.7859C125.738 36.51 126.242 36.9508 126.714 37.1397Z" fill="#18371F"/>
<path d="M93.0469 18.9422V26.3411H93.1098C93.4247 26.3411 93.8025 26.3097 94.1803 26.1837V20.1072C94.6211 19.8868 94.747 19.8553 95.5027 19.8553H95.5971C95.4082 19.3201 95.1563 18.9737 94.873 18.7219C94.7156 18.7219 94.5581 18.6904 94.4007 18.6904C93.6136 18.6904 93.4877 18.7219 93.0469 18.9422Z" fill="#18371F"/>
<path d="M94.1533 36.6064V33.5523L93.0513 31.254V35.3785L93.0198 35.4414C93.0198 39.1251 93.2717 40.2271 94.5311 41.2976H89.3361C89.3361 41.2976 89.3361 41.3605 89.3046 41.4235C89.1157 41.7698 88.8953 42.0532 88.2656 42.494H95.6645C94.4366 41.4235 94.1847 40.3216 94.1847 36.6064H94.1533Z" fill="#18371F"/>
<path d="M118.022 18.5993V18.2214C117.865 18.127 117.613 18.0955 117.109 18.064V21.5273C117.109 21.5273 117.109 21.6218 117.172 21.6533C117.771 20.5198 118.022 19.5753 118.022 18.5678V18.5993Z" fill="#18371F"/>
<path d="M118.705 18.5954C118.705 17.7768 118.642 17.462 118.359 16.8323L121.885 15.2896C121.916 15.4785 121.948 15.6359 121.979 15.7618C122.231 16.7378 122.294 17.3046 122.294 17.6194C122.294 18.5325 121.822 19.5085 121.161 19.8863L117.414 22.5625C118.264 21.1142 118.673 19.9178 118.673 18.5954H118.705Z" fill="white"/>
<path d="M122.553 22.2503C122.553 21.7465 122.616 21.2428 122.679 20.739C122.584 20.865 122.427 20.9909 122.301 21.0539L120.821 22.0929C120.664 23.0059 120.286 23.8875 119.688 24.895L122.584 22.8485C122.584 22.6596 122.584 22.4707 122.584 22.2503H122.553Z" fill="#18371F"/>
<path d="M33.0087 37.8339L33.1031 26.8772C33.1031 22.6583 33.4495 19.1005 34.0162 17.5893C34.2051 16.991 34.457 16.6447 35.0552 16.0465H33.0087C33.0087 16.0465 32.9142 16.2984 32.8827 16.4243C32.316 17.9356 31.9697 21.4934 31.9697 25.6808L31.8438 39.66C32.2845 39.0618 32.6309 38.4951 32.9772 37.8024L33.0087 37.8339Z" fill="#18371F"/>
<path d="M31.8797 40.7617L31.8482 41.2655H28.1016L28.6998 42.4619H32.9817L33.0132 40.7617H31.8797Z" fill="#18371F"/>
<path d="M66.5989 21.2412C66.5989 19.8558 66.5989 19.0057 66.473 18.4075C66.3156 18.4075 66.1266 18.4705 65.9062 18.502V22.4061C66.1581 22.6894 66.3785 23.0358 66.5989 23.4451V21.2412Z" fill="#18371F"/>
<path d="M73.0968 36.0063C73.3487 36.51 73.7265 36.8878 74.1988 37.1082C74.1043 36.7304 74.0413 36.3211 74.0099 35.8803C73.8209 34.1487 73.7895 31.9448 73.7895 28.4185C73.7895 23.0346 73.8209 21.5548 74.1358 20.1065C74.2932 19.3824 74.4506 19.0675 74.9229 18.5008H73.1283C73.1283 18.5008 73.0653 18.7842 73.0338 18.9416C72.7505 20.3899 72.6875 21.8697 72.6875 27.222C72.6875 30.7483 72.7505 32.9523 72.9079 34.6839C72.9394 35.1562 73.0338 35.597 73.1283 36.0063H73.0968Z" fill="#18371F"/>
<path d="M79.6388 41.2671H77.4664V40.9522C76.3959 41.519 75.2625 41.7708 74.0346 41.7708C72.6492 41.7708 71.3899 41.3615 70.4453 40.6374C71.3584 42.0542 73.1215 42.9358 75.168 42.9358C76.8997 42.9358 78.4739 42.4005 79.8907 41.2356H79.6388V41.2671Z" fill="#18371F"/>
<path d="M251.035 17.4944C250.657 19.226 250.437 22.5634 250.437 26.8139V28.3251L250.626 36.0389C250.626 38.7465 250.814 39.1244 252.011 40.1004H246.281V38.1483C244.643 39.817 242.754 40.6041 240.676 40.6041C238.378 40.6041 236.363 39.4392 235.639 37.6761C235.293 36.8889 235.104 35.3462 235.104 33.7405V21.2096C235.072 17.9981 234.915 17.337 233.97 16.298L233.781 16.0776H240.456C239.984 16.6443 239.826 16.9906 239.669 17.6833C239.386 19.1316 239.323 20.6429 239.323 25.9952C239.323 29.5215 239.354 31.7255 239.511 33.4571C239.795 36.3222 240.928 37.865 242.786 37.865C244.643 37.865 245.84 36.1648 246.092 32.9534C246.249 31.1273 246.344 28.9548 246.344 26.4675C246.344 20.391 246.218 18.25 245.745 17.0851C245.557 16.6128 245.399 16.3924 244.958 16.0776H251.759C251.35 16.5498 251.224 16.8332 251.066 17.4314L251.035 17.4944Z" fill="white"/>
</g>
<defs>
<linearGradient id="paint0_linear_130_897" x1="160.607" y1="55.4853" x2="160.607" y2="24.8287" gradientUnits="userSpaceOnUse">
<stop stop-color="white"/>
<stop offset="0.1" stop-color="#FFFEF9"/>
<stop offset="0.22" stop-color="#FFFDE8"/>
<stop offset="0.36" stop-color="#FFFBCD"/>
<stop offset="0.51" stop-color="#FFF8A7"/>
<stop offset="0.68" stop-color="#FFF477"/>
<stop offset="0.84" stop-color="#FFEF3C"/>
<stop offset="1" stop-color="#FFEB00"/>
</linearGradient>
<clipPath id="clip0_130_897">
<rect width="316.012" height="56.515" fill="white" transform="translate(0.515625 0.0214844)"/>
</clipPath>
</defs>
</svg>
