<svg xmlns="http://www.w3.org/2000/svg" width="255" height="150" viewBox="0 0 255 150">
  <defs>
    <radialGradient id="natural-wealth-a" cx="50.824%" cy="50%" r="47.38%" fx="50.824%" fy="50%">
      <stop offset="0%" stop-color="#FFED00"/>
      <stop offset="23.799%" stop-color="#FEF200"/>
      <stop offset="100%" stop-color="#FF9016"/>
    </radialGradient>
    <radialGradient id="natural-wealth-b" cx="50.824%" cy="0%" r="88.261%" fx="50.824%" fy="0%" gradientTransform="matrix(-.00934 .99993 -.76634 -.01218 .513 -.509)">
      <stop offset="0%" stop-color="#FAB64B"/>
      <stop offset="100%" stop-color="#FDF101" stop-opacity="0"/>
    </radialGradient>
  </defs>
  <g fill="none" fill-rule="evenodd" transform="translate(31 15)">
    <circle cx="79.342" cy="60" r="60" fill="url(#natural-wealth-a)" fill-rule="nonzero"/>
    <ellipse cx="79.342" cy="39.276" fill="url(#natural-wealth-b)" fill-rule="nonzero" rx="48.158" ry="36.908"/>
    <path fill="#763323" d="M141.29793,53.9306909 C141.716428,55.0918919 137.873987,64.3456851 135.68956,65.9077194 C137.791277,66.1556656 141.13086,68.5638526 145.708309,73.1322804 L145.169941,73.241139 C143.665358,73.5389192 142.60019,73.6919646 141.974438,73.700275 C140.294034,73.722592 139.109481,73.2502516 138.72166,73.2382477 L138.687645,73.2385002 C137.901715,73.279689 134.571403,70.6865126 132.729194,67.5652706 L127.252485,70.8161522 C114.677225,78.2922661 106.887836,83.0120577 103.884311,84.975657 L103.444922,85.2653321 C97.3923357,89.2815137 65.4242085,111.313584 62.7631579,113.604415 C62.2805304,112.753007 61.9302529,112.073268 61.7123252,111.565198 L64.2994541,109.728887 C84.4749531,95.4255565 97.3844264,86.6830083 103.027874,83.501242 L103.683032,83.1333604 C111.681413,78.6142299 127.819217,68.2437527 132.451902,65.8029807 C132.771676,62.450871 134.192713,58.3308555 137.159715,56.4580536 C138.523888,55.4931305 140.079711,54.8024628 141.29793,53.9306909 Z M148.403193,51.5622698 C148.821691,52.7234708 144.97925,61.9772641 142.794823,63.5392983 C144.89654,63.7872445 148.236123,66.1954315 152.813572,70.7638593 L152.275204,70.8727179 C150.770621,71.1704982 149.705453,71.3235435 149.079701,71.331854 C147.399298,71.3541709 146.214744,70.8818306 145.826923,70.8698267 L145.792908,70.8700791 C144.954857,70.9139995 141.223757,67.9625573 139.488754,64.5695137 C139.567159,61.0717158 140.952726,56.18036 144.264978,54.0896326 C145.629151,53.1247094 147.184974,52.4340418 148.403193,51.5622698 Z M155.508456,49.5885856 C155.926955,50.7497866 152.084513,60.0035799 149.900086,61.5656141 C152.001803,61.8135603 155.341387,64.2217473 159.918835,68.7901751 L159.380468,68.8990337 C157.875884,69.196814 156.810717,69.3498593 156.184964,69.3581697 C154.504561,69.3804867 153.320008,68.9081464 152.932186,68.8961425 L152.898171,68.8963949 C152.06012,68.9403153 148.32902,65.9888731 146.594017,62.5958294 C146.672423,59.0980316 148.057989,54.2066758 151.370242,52.1159484 C152.734414,51.1510252 154.290237,50.4603575 155.508456,49.5885856 Z M162.61372,46.8254277 C163.032218,47.9866287 159.189776,57.240422 157.005349,58.8024562 C159.107067,59.0504024 162.44665,61.4585894 167.024099,66.0270172 L166.485731,66.1358758 C164.981147,66.4336561 163.91598,66.5867014 163.290227,66.5950119 C161.609824,66.6173288 160.425271,66.1449885 160.037449,66.1329846 L160.003435,66.133237 C159.165383,66.1771574 155.434283,63.2257152 153.69928,59.8326715 C153.777686,56.3348737 155.163252,51.4435179 158.475505,49.3527905 C159.839677,48.3878673 161.3955,47.6971997 162.61372,46.8254277 Z M170.508456,44.0622698 C170.926955,45.2234708 167.084513,54.4772641 164.900086,56.0392983 C167.001803,56.2872445 170.341387,58.6954315 174.918835,63.2638593 L174.380468,63.3727179 C172.875884,63.6704982 171.810717,63.8235435 171.184964,63.831854 C169.504561,63.8541709 168.320008,63.3818306 167.932186,63.3698267 L167.898171,63.3700791 C167.06012,63.4139995 163.32902,60.4625573 161.594017,57.0695137 C161.672423,53.5717158 163.057989,48.68036 166.370242,46.5896326 C167.734414,45.6247094 169.290237,44.9340418 170.508456,44.0622698 Z M178.79793,41.6938488 C179.216428,42.8550498 175.373987,52.108843 173.18956,53.6708773 C175.291277,53.9188235 178.63086,56.3270105 183.208309,60.8954383 L182.669941,61.0042969 C181.165358,61.3020771 180.10019,61.4551225 179.474438,61.4634329 C177.794034,61.4857499 176.609481,61.0134095 176.22166,61.0014056 L176.187645,61.0016581 C175.349594,61.0455785 171.618494,58.0941362 169.88349,54.7010926 C169.961896,51.2032948 171.347463,46.3119389 174.659715,44.2212115 C176.023888,43.2562884 177.579711,42.5656207 178.79793,41.6938488 Z M185.903193,40.1149014 C186.321691,41.2761024 182.47925,50.5298956 180.294823,52.0919299 C182.39654,52.3398761 185.736123,54.7480631 190.313572,59.3164909 L189.775204,59.4253495 C188.270621,59.7231298 187.205453,59.8761751 186.579701,59.8844855 C184.899298,59.9068025 183.714744,59.4344621 183.326923,59.4224583 L183.292908,59.4227107 C182.454857,59.4666311 178.723757,56.5151889 176.988754,53.1221452 C177.067159,49.6243474 178.452726,44.7329916 181.764978,42.6422641 C183.129151,41.677341 184.684974,40.9866733 185.903193,40.1149014 Z M193.92758,47.0106908 C192.820338,49.6038497 191.561986,51.1153372 190.152524,51.5451532 C188.743061,51.9749692 186.075247,51.8599018 182.14908,51.1999512 C183.88916,48.6949399 185.626799,47.2985197 187.361996,47.0106908 C189.097194,46.7228618 191.285722,46.7228618 193.92758,47.0106908 Z"/>
    <path fill="#763323" d="M131.085481,31.2481199 C131.825195,32.2362249 130.856197,42.2090926 129.223914,44.3415379 C131.306289,43.9641674 135.204034,45.2907285 140.917149,48.3212212 L140.434132,48.5827267 C139.082355,49.3073929 138.108476,49.7651758 137.512495,49.9560754 C135.912042,50.4687197 134.64115,50.3633482 134.266765,50.4652568 L134.23431,50.4754432 C133.494764,50.7446159 129.551799,49.2384381 126.877523,46.7921892 L116.495022,58.1870615 C110.276124,64.9881069 106.381133,69.2030266 104.605263,71.3326204 L103.203673,72.9229551 L102.355613,73.9705607 C96.0330399,81.8632829 72.3211875,112.759716 70.5399363,115.580027 L70.0924782,115.149883 C69.6009946,114.669734 69.2164388,114.265489 68.9388107,113.937148 L73.7652857,107.120375 L86.6547122,90.424992 C93.8513271,81.1394959 98.4260771,75.3907659 101.403809,72.2622841 L103.710317,69.3589362 L104.609082,68.4079632 C111.142165,61.4631431 122.549396,48.7089002 126.097104,45.1879753 C125.422843,41.888844 125.577212,37.5333827 127.867016,34.8749458 C128.889464,33.5533397 130.175373,32.4379724 131.085481,31.2481199 Z M137.187818,26.9058096 C137.927533,27.8939147 136.958535,37.8667823 135.326252,39.9992277 C137.408626,39.6218572 141.306371,40.9484183 147.019486,43.978911 L146.53647,44.2404165 L145.980273,44.5346479 C144.914153,45.0904312 144.125673,45.450137 143.614833,45.6137652 C142.01438,46.1264095 140.743487,46.021038 140.369102,46.1229466 L140.336648,46.133133 C139.548056,46.4201567 135.117069,44.6885466 132.465848,41.9510287 C131.51817,38.5831443 131.4131,33.5004171 133.969353,30.5326356 C134.991802,29.2110295 136.277711,28.0956622 137.187818,26.9058096 Z M143.405566,22.9409881 C144.14528,23.9290932 143.176282,33.9019608 141.543999,36.0344062 C143.626374,35.6570357 147.524119,36.9835968 153.237234,40.0140895 L152.754217,40.275595 C151.40244,41.0002612 150.428561,41.4580441 149.832581,41.6489437 C148.232128,42.161588 146.961235,42.0562165 146.58685,42.1581251 L146.554395,42.1683115 C145.765804,42.4553352 141.334817,40.7237251 138.683595,37.9862072 C137.735918,34.6183228 137.630847,29.5355956 140.187101,26.5678141 C141.209549,25.246208 142.495458,24.1308407 143.405566,22.9409881 Z M149.392494,18.2211892 C150.132208,19.2092942 149.16321,29.1821619 147.530927,31.3146073 C149.613302,30.9372367 153.511046,32.2637978 159.224162,35.2942905 L158.741145,35.5557961 C157.389368,36.2804623 156.415489,36.7382452 155.819508,36.9291448 C154.219055,37.441789 152.948163,37.3364175 152.573778,37.4383261 L152.541323,37.4485125 C151.752732,37.7355363 147.321745,36.0039262 144.670523,33.2664082 C143.722846,29.8985239 143.617775,24.8157966 146.174029,21.8480151 C147.196477,20.526409 148.482386,19.4110417 149.392494,18.2211892 Z M156.134399,13.2705705 C156.874113,14.2586755 155.905115,24.2315432 154.272832,26.3639886 C156.355207,25.986618 160.252952,27.3131791 165.966067,30.3436718 L165.48305,30.6051774 L164.666108,31.0342697 C163.731249,31.5137814 163.029684,31.8285335 162.561414,31.9785261 C160.960961,32.4911703 159.690068,32.3857988 159.315683,32.4877074 L159.283228,32.4978938 C158.494637,32.7849175 154.06365,31.0533075 151.412428,28.3157895 C150.491075,25.0414575 150.366168,20.1462285 152.709034,17.1495252 L152.915934,16.8973964 C153.938382,15.5757903 155.224291,14.460423 156.134399,13.2705705 Z M163.810357,8.49787981 C164.550071,9.48598485 163.581073,19.4588525 161.94879,21.5912979 C164.031165,21.2139273 167.92891,22.5404884 173.642025,25.5709811 L173.159008,25.8324867 L172.342066,26.261579 C171.407207,26.7410907 170.705642,27.0558429 170.237372,27.2058354 C168.636919,27.7184796 167.366026,27.6131081 166.991641,27.7150167 L166.959186,27.7252031 C166.170595,28.0122269 161.739608,26.2806168 159.088386,23.5430989 C158.140709,20.1752145 158.035638,15.0924873 160.591892,12.1247057 C161.61434,10.8030997 162.900249,9.68773234 163.810357,8.49787981 Z M170.143514,4.91054703 C170.883229,5.89865207 169.914231,15.8715197 168.281948,18.0039651 C170.364322,17.6265946 174.262067,18.9531557 179.975182,21.9836484 L179.492166,22.2451539 L178.675223,22.6742462 C177.740364,23.1537579 177.038799,23.4685101 176.570529,23.6185026 C174.970076,24.1311469 173.699183,24.0257754 173.324798,24.127684 L173.292344,24.1378703 C172.503752,24.4248941 168.072765,22.693284 165.421543,19.9557661 C164.473866,16.5878817 164.368796,11.5051545 166.925049,8.53737296 C167.947498,7.21576687 169.233407,6.10039956 170.143514,4.91054703 Z M179.833408,9.15891952 C179.532713,11.962496 178.771261,13.7758452 177.549052,14.5989672 C176.326842,15.4220892 173.741956,16.0920432 169.794393,16.6088293 C170.726045,13.7045249 171.979484,11.8610853 173.554708,11.0785105 C175.129933,10.2959357 177.222833,9.65607202 179.833408,9.15891952 Z"/>
    <path fill="#EF3D41" fill-rule="nonzero" d="M27.9792008 95.9210526L35.2475849 77.1005639 42.5702106 95.9210526 48.7537613 95.9210526 58.3545373 71.0526316C59.2224041 68.8956767 60.1987542 68.3035714 62.3684211 68.0921053L62.3684211 66.3157895 50.8149448 66.3157895 50.8149448 68.0921053C54.2321702 68.3035714 54.9373119 68.8533835 54.0694452 71.0526316L48.4825529 85.2631579 42.8956607 71.0526316C42.0277939 68.8956767 42.7871773 68.3035714 46.2044027 68.0921053L46.2044027 66.3157895 29.1182759 66.3157895 29.1182759 68.0921053C31.3421844 68.3035714 32.0473262 68.8533835 32.9151929 71.0526316L33.1321596 71.5601504 27.7079924 85.2631579 22.1211001 71.0526316C21.2532334 68.8533835 21.9583751 68.3035714 25.4298422 68.0921053L25.4298422 66.3157895 8.28947368 66.3157895 8.28947368 68.0921053C10.4591406 68.3035714 11.2727657 68.8956767 12.1406324 71.0526316L21.7956501 95.9210526 27.9792008 95.9210526zM66.6746411 90C70.5861244 90 72.9186603 88.2023797 74.6052632 84.9182656L72.6315789 83.8466074C71.3755981 86.3010505 69.4736842 87.6838354 67.3564593 87.6838354 64.2344498 87.6838354 62.9066986 85.6442277 62.9066986 81.4958731 62.9066986 81.1156072 62.9066986 80.8044807 62.9425837 80.5970629L74.1028708 80.5970629C74.1028708 75.8955944 71.2320574 73.0263158 66.1004785 73.0263158 63.4808612 73.0263158 61.3277512 73.8214171 59.6770335 75.4116197 58.062201 77.0018223 57.2368421 79.0414299 57.2368421 81.4958731 57.2368421 84.0194555 58.062201 86.0590631 59.7488038 87.6492657 61.4354067 89.2048987 63.7679426 90 66.6746411 90zM68.6842105 78.1578947L62.7631579 78.1578947C63.0900872 75.9972299 64.0345496 75 65.9597998 75 67.5944462 75 68.6842105 76.1966759 68.6842105 78.1578947zM85.0308674 73.0263158C89.1100764 73.0263158 91.9258135 74.5883113 91.9258135 78.2329674L91.9258135 78.2329674 91.9258135 86.2512108C91.9258135 87.1189861 92.2507063 87.5702293 92.9004918 87.5702293 93.2614837 87.5702293 93.6224757 87.5008072 93.9473684 87.3272522L93.9473684 87.3272522 93.9473684 89.0975137C92.9726902 89.6876009 91.7092184 89.965289 90.2291514 89.965289 88.0992989 89.965289 86.8358271 89.2363578 86.4748352 87.8132063 84.4893795 89.2710688 82.540023 90 80.6628649 90 77.7388302 90 75.7894737 88.4032935 75.7894737 86.0429448 75.7894737 83.9602841 77.2334415 82.6412657 79.1105996 81.6346464 79.7242859 81.3222473 80.4823689 81.0098482 81.3487496 80.7668712 83.0815109 80.246206 84.3810819 79.9338069 86.3665376 79.6214078L86.3665376 79.6214078 86.3665376 77.9899903C86.3665376 75.7684856 86.0055457 75.0742654 84.4532803 75.0742654 83.1898085 75.0742654 82.2873287 75.8379077 81.7819399 77.3999031 81.3126504 78.7883436 80.3740714 79.4825638 78.9662028 79.4825638 77.702731 79.4825638 76.9085487 78.7189215 76.9085487 77.3304811 76.9085487 76.0461737 77.6666318 75.0395544 79.1827979 74.2412012 80.6989641 73.4428479 82.6483206 73.0263158 85.0308674 73.0263158zM86.0526316 81.7105263C82.9298246 82.2960085 81.3157895 83.1914518 81.3157895 84.9823384 81.3157895 86.1877428 82.122807 86.8421053 83.245614 86.8421053 84.1578947 86.8421053 85.1052632 86.497704 86.0526316 85.8433416L86.0526316 85.8433416zM104.605263 89.6052632L104.605263 88.1444608C102.996524 87.9705558 102.603277 87.6923077 102.603277 86.6140964L102.603277 64.7368421 100.601291 64.7368421 95.1315789 67.6584468 95.1315789 69.0149061 96.2398213 69.0149061C96.847567 69.0149061 97.133565 69.3627162 97.133565 70.0583364L97.133565 86.6140964C97.133565 87.6923077 96.7403178 87.9705558 95.1315789 88.1444608L95.1315789 89.6052632 104.605263 89.6052632zM110.526316 90C111.889952 90 112.407002 89.5521577 114.473684 89.5521577L114.685508 88.0615877C113.89112 88.0615877 113.134881 88.0234063 112.538838 87.8508237 111.262882 87.4813743 110.526316 86.843997 110.526316 85.2833361L110.526316 75.7459644 114.473684 75.7459644 114.473684 73.5263578 110.526316 73.5263578 110.526316 68.2894737 108.480861 68.2894737C107.727273 71.3067513 105.933014 73.3529511 103.026316 74.3933916L103.026316 75.7459644 105 75.7459644 105 85.2833361C105 88.71679 106.901914 90 110.526316 90zM138.451632 97.5C140.98324 97.5 143.008527 96.840572 144.527492 95.4870094 146.082623 94.1334467 146.842105 92.5022302 146.842105 90.5239463 146.842105 88.5803691 146.19112 86.9838593 144.925316 85.7691236 143.659512 84.5196811 142.104381 83.8949599 140.259924 83.8949599 137.366657 83.8949599 135.594531 85.317936 135.594531 87.157393 135.594531 88.6844893 136.824169 89.8298116 138.126139 89.8298116 140.440753 89.8298116 140.11526 87.539167 141.670391 87.539167 143.117024 87.539167 144.238165 88.719196 144.238165 90.5239463 144.238165 91.738682 143.768009 92.8145908 142.863864 93.7169659 141.959718 94.619341 140.730079 95.0705285 139.138783 95.0705285 137.51132 95.0705285 136.100853 94.4458073 134.90738 93.2310716 133.750074 92.0163359 133.17142 90.419826 133.17142 88.4415421L133.17142 78.4460025C133.17142 74.836502 131.254631 73.0317518 127.457218 73.0317518 125.648927 73.0317518 123.840635 73.5870595 122.032343 74.7323818L122.032343 64.7368421 120.007057 64.7368421 114.473684 67.6522079 114.473684 69.0057705 115.594825 69.0057705C116.209644 69.0057705 116.498971 69.3528379 116.498971 70.0469726L116.498971 86.5673785C116.498971 87.6432872 116.101147 87.9209411 114.473684 88.0944748L114.473684 89.5521577 124.05763 89.5521577 124.05763 88.0944748C122.430168 87.9209411 122.032343 87.6432872 122.032343 86.5673785L122.032343 77.0230263C123.081153 76.3288916 124.166128 75.9818243 125.287268 75.9818243 126.842399 75.9818243 127.638048 76.7453724 127.638048 78.3071755L127.638048 86.7062054C127.638048 90.0033452 128.650691 92.6410571 130.639812 94.5846343 132.628933 96.5282114 135.232873 97.5 138.451632 97.5zM12.2505324 61.5789474L12.2505324 59.85C10.5375342 59.7265038 9.39553544 59.5206767 8.87644509 59.1913534 8.35735473 58.8620301 8.09780955 58.1210526 8.09780955 56.9684211L8.09780955 38.8968045 26.317881 61.5789474 31.8721479 61.5789474 31.8721479 37.3736842C31.8721479 36.2210526 32.131693 35.4800752 32.5988744 35.1507519 33.0660557 34.8214286 34.2080545 34.6156015 35.9210526 34.4921053L35.9210526 32.7631579 23.7743383 32.7631579 23.7743383 34.4921053C25.4873365 34.6156015 26.6293353 34.8214286 27.0965166 35.1507519 27.6156069 35.4800752 27.8751521 36.2210526 27.8751521 37.3736842L27.8751521 49.8879699 14.0673486 32.7631579 0 32.7631579 0 34.4921053C1.71299817 34.6156015 2.85499696 34.8214286 3.32217828 35.1507519 3.84126863 35.4800752 4.10081381 36.2210526 4.10081381 37.3736842L4.10081381 56.9684211C4.10081381 58.1210526 3.84126863 58.8620301 3.32217828 59.1913534 2.80308792 59.5206767 1.71299817 59.7265038 0 59.85L0 61.5789474 12.2505324 61.5789474zM43.583499 45C47.5720589 45 50.3526773 46.4933448 50.4742907 49.9667542L50.4784451 50.2066516 50.4784451 58.2248951C50.4784451 59.0926703 50.8033379 59.5439135 51.4531234 59.5439135 51.75395 59.5439135 52.0547766 59.4957037 52.3347125 59.3791969L52.5 59.3009364 52.5 61.0711979C51.5253218 61.6612851 50.26185 61.9389732 48.781783 61.9389732 46.6519305 61.9389732 45.3884587 61.210042 45.0274668 59.7868905 43.0420111 61.244753 41.0926546 61.9736842 39.2154965 61.9736842 36.2914618 61.9736842 34.3421053 60.3769777 34.3421053 58.016629 34.3421053 55.9339684 35.786073 54.61495 37.6632311 53.6083306 38.2769174 53.2959315 39.0350005 52.9835325 39.9013812 52.7405554 41.4897457 52.263279 42.7141101 51.9610039 44.4364469 51.6733123L44.9191692 51.595092 44.9191692 49.9636745C44.9191692 47.7421698 44.5581773 47.0479496 43.0059119 47.0479496 41.7424401 47.0479496 40.8399602 47.8115919 40.3345715 49.3735873 39.865282 50.7620278 38.9267029 51.456248 37.5188344 51.456248 36.2553626 51.456248 35.4611803 50.6926057 35.4611803 49.3041653 35.4611803 48.0198579 36.2192634 47.0132386 37.7354295 46.2148854 39.2515957 45.4165321 41.2009522 45 43.583499 45zM58.8157895 40.2631579L58.8157895 45.500042 62.7631579 45.500042 62.7631579 47.7196486 58.8157895 47.7196486 58.8157895 57.2570203C58.8157895 58.8176812 59.4617225 59.6153523 60.7535885 59.6153523 61.507177 59.6153523 62.15311 59.5113082 62.7631579 59.2685388L62.7631579 59.2685388 62.7631579 61.3841012C61.507177 61.7655961 60.1794258 61.9736842 58.8157895 61.9736842 55.1913876 61.9736842 53.2894737 60.6904742 53.2894737 57.2570203L53.2894737 57.2570203 53.2894737 47.7196486 51.3157895 47.7196486 51.3157895 46.3670758C54.222488 45.3266353 56.0167464 43.2804355 56.7703349 40.2631579L56.7703349 40.2631579 58.8157895 40.2631579zM71.4342794 45L71.4342794 56.7191017C71.4342794 58.2747347 72.2223753 59.0352664 73.7627446 59.0352664 74.7657757 59.0352664 75.8404519 58.6895702 76.9867732 57.9981777L76.9867732 57.9981777 76.9867732 50.2891521C76.9867732 49.5977597 76.6643703 49.2520635 76.0553872 49.2520635L76.0553872 49.2520635 74.9807109 49.2520635 74.9807109 47.9038482 80.4615597 45 82.4676219 45 82.4676219 58.4821524C82.4676219 59.5538107 82.8616699 59.8303677 84.4736842 60.0032158L84.4736842 60.0032158 84.4736842 61.4551399C81.7153486 61.4551399 79.2435933 61.627988 76.9867732 61.9736842L76.9867732 61.9736842 76.9867732 60.3143424C75.1598236 61.4205703 73.3686966 61.9736842 71.5775696 61.9736842 67.8162028 61.9736842 65.9176082 60.1760639 65.9176082 56.5808232L65.9176082 56.5808232 65.9176082 50.2891521C65.9176082 49.5977597 65.6310278 49.2520635 65.0220446 49.2520635L65.0220446 49.2520635 63.9473684 49.2520635 63.9473684 47.9038482 69.4282171 45 71.4342794 45zM92.3327068 45L92.3327068 47.0549536C93.5827068 45.6965944 95.0469925 45 96.7255639 45 98.6898496 45 99.8684211 46.0797214 99.8684211 47.7863777 99.8684211 49.4582043 98.7969925 50.5379257 97.4041353 50.5379257 95.4755639 50.5379257 95.1184211 48.7267802 94.1898496 48.7267802 93.4398496 48.7267802 92.8327068 49.0402477 92.3327068 49.7020124L92.3327068 49.7020124 92.3327068 58.5835913C92.3327068 59.6633127 92.7255639 59.9419505 94.3327068 60.1160991L94.3327068 60.1160991 94.3327068 61.5789474 84.8684211 61.5789474 84.8684211 60.1160991C86.4755639 59.9419505 86.8684211 59.6633127 86.8684211 58.5835913L86.8684211 58.5835913 86.8684211 50.3289474C86.8684211 49.6323529 86.5827068 49.2840557 85.9755639 49.2840557L85.9755639 49.2840557 84.8684211 49.2840557 84.8684211 47.9256966 90.3327068 45 92.3327068 45zM44.9191692 53.6083306C41.7063409 54.1984178 40.045778 55.1009041 40.045778 56.9058767 40.045778 58.120762 40.8760594 58.7802712 42.0312337 58.7802712 42.8915978 58.7802712 43.7822953 58.4886023 44.6755205 57.9320008L44.9191692 57.7736519 44.9191692 53.6083306zM111.939678 61.9389732C109.809825 61.9389732 108.546353 61.210042 108.185362 59.7868905 106.199906 61.244753 104.250549 61.9736842 102.373391 61.9736842 99.4493565 61.9736842 97.5 60.3769777 97.5 58.016629 97.5 55.9339684 98.9439678 54.61495 100.821126 53.6083306 101.434812 53.2959315 102.192895 52.9835325 103.059276 52.7405554 104.64764 52.263279 105.872005 51.9610039 107.594342 51.6733123L108.077064 51.595092 108.077064 49.9636745C108.077064 47.7421698 107.716072 47.0479496 106.163807 47.0479496 104.900335 47.0479496 103.997855 47.8115919 103.492466 49.3735873 103.023177 50.7620278 102.084598 51.456248 100.676729 51.456248 99.4132573 51.456248 98.619075 50.6926057 98.619075 49.3041653 98.619075 48.0198579 99.3771581 47.0132386 100.893324 46.2148854 102.40949 45.4165321 104.358847 45 106.741394 45 110.729954 45 113.510572 46.4933448 113.632185 49.9667542L113.63634 50.2066516 113.63634 58.2248951C113.63634 59.054941 114.335531 60.0273995 115.842166 60.110392L116.052632 60.1160991C117.66137 59.94424 118.054618 59.6659919 118.054618 58.5877806L118.054618 58.5877806 118.054618 42.0320206C118.054618 41.3364004 117.76862 40.9885904 117.160874 40.9885904L117.160874 40.9885904 116.052632 40.9885904 116.052632 39.632131 121.522344 36.7105263 123.52433 36.7105263 123.52433 58.5877806C123.52433 59.6659919 123.917577 59.94424 125.526316 60.118145L125.526316 60.118145 125.526316 61.5789474 116.052632 61.5789474C115.091376 61.5789474 113.419745 61.9389732 111.939678 61.9389732zM108.077064 53.6083306C104.864236 54.1984178 103.203673 55.1009041 103.203673 56.9058767 103.203673 58.120762 104.033954 58.7802712 105.189128 58.7802712 106.049493 58.7802712 106.94019 58.4886023 107.833415 57.9320008L108.077064 57.7736519 108.077064 53.6083306z"/>
  </g>
</svg>
