<svg width="113" height="112" viewBox="0 0 113 112" fill="none" xmlns="http://www.w3.org/2000/svg">
<g id="Layer_1" clip-path="url(#clip0_325_439)">
<path id="Vector" d="M65.0931 95.3664C62.5866 95.793 60.1374 96.2064 57.6882 96.6242C50.6797 97.825 43.6712 99.0345 36.6627 100.218C34.5967 100.569 33.262 99.5622 32.8787 97.3675C31.9669 92.1469 31.0858 86.9218 30.1872 81.6967C28.4604 71.6468 26.738 61.5925 25.0112 51.5426C23.6721 43.7622 22.3021 35.9861 21.007 28.1969C20.8308 27.1501 20.4476 27.1589 19.6326 27.4404C14.6813 29.1601 9.72119 30.8754 4.74784 32.5292C3.81837 32.837 3.78313 33.2197 4.07827 34.0333C7.61556 43.7666 11.122 53.5086 14.6329 63.2506C14.8795 63.9412 15.135 64.6273 15.3597 65.3222C15.7738 66.5845 15.4346 67.5565 14.4743 67.9171C13.4259 68.3086 12.4964 67.8072 12.025 66.5229C10.6771 62.846 9.35556 59.1603 8.02523 55.479C5.48349 48.4243 2.94176 41.3652 0.391216 34.3104C-0.525042 31.7815 0.135721 30.3784 2.7171 29.4944C8.09571 27.6471 13.4611 25.7779 18.8573 23.9922C19.9542 23.6316 20.2009 23.1126 19.9586 22.0614C19.6767 20.8519 19.5313 19.6116 19.3331 18.3889C19.0071 16.4141 19.8749 15.0639 21.8308 14.7032C25.6544 14.0083 29.4868 13.3794 33.3148 12.724C35.2663 12.3898 37.2089 11.9939 39.1692 11.7344C40.1339 11.6069 40.3453 11.1671 40.3277 10.2918C40.2793 8.02233 40.3057 5.75286 40.3145 3.48338C40.3233 1.18752 41.4598 0.0131946 43.7593 0.0131946C61.1946 0 78.6299 0.00879642 96.0653 0C97.0344 0 97.8581 0.272689 98.5629 0.945615C103.074 5.24266 107.589 9.53532 112.104 13.8324C112.699 14.3953 112.937 15.0771 112.937 15.8995C112.928 39.6894 112.932 63.4793 112.924 87.2693C112.924 89.2572 111.778 90.3964 109.774 90.4008C105.003 90.414 100.228 90.326 95.4574 90.4316C92.0082 90.5063 88.5634 91.0297 85.3169 92.1777C67.4807 98.4935 49.6753 104.906 31.8611 111.288C29.685 112.066 28.2093 111.429 27.4252 109.265C23.236 97.6666 19.0644 86.0641 14.8795 74.4617C14.5932 73.67 14.4214 72.9135 15.0293 72.1922C15.9632 71.0926 17.5755 71.4885 18.1393 72.9971C19.126 75.636 20.0687 78.2925 21.0202 80.9446C24.1302 89.5871 27.249 98.2252 30.3414 106.872C30.5969 107.585 30.8656 107.879 31.6849 107.585C42.658 103.631 53.6355 99.6986 64.613 95.7622C64.7759 95.705 64.9786 95.6918 65.0931 95.3664ZM72.432 90.4799C72.432 90.4536 72.4276 90.4272 72.4232 90.4008C62.9346 90.4008 53.4417 90.4008 43.9531 90.4008C41.3365 90.4008 40.3101 89.3628 40.3057 86.7239C40.3057 76.4013 40.3057 66.0831 40.3057 55.7605C40.3057 55.3603 40.2837 54.9424 40.3762 54.5598C40.5744 53.7285 41.1383 53.2139 42.0016 53.1655C42.8783 53.1128 43.4509 53.579 43.7505 54.3926C43.9575 54.9556 43.9179 55.5494 43.9179 56.1299C43.9179 65.828 43.9179 75.526 43.9179 85.2241C43.9179 86.3618 44.47 86.9321 45.5742 86.935C66.3486 86.935 87.1229 86.935 107.897 86.935C108.931 86.935 109.448 86.4116 109.448 85.3648C109.448 68.8584 109.448 52.3519 109.448 35.8454C109.448 30.2817 109.448 24.7179 109.448 19.1586C109.448 18.1675 108.937 17.6705 107.915 17.6676C105.052 17.6676 102.188 17.6764 99.325 17.6588C98.6687 17.6588 98.0035 17.6016 97.3604 17.4829C95.3428 17.1134 94.2195 15.9875 94.0169 13.9687C93.7218 11.0527 93.9376 8.11909 93.8847 5.19428C93.8583 3.62412 93.8759 3.61973 92.2945 3.61973C76.7666 3.61973 61.2431 3.61973 45.7151 3.61973C44.5199 3.61973 43.9223 4.22081 43.9223 5.42299C43.9223 19.1102 43.9223 32.7974 43.9223 46.4847C43.9223 48.0856 43.2351 49.0224 42.1074 49.0268C40.94 49.0312 40.3189 48.1648 40.3101 46.5111C40.3101 46.1812 40.3101 45.8513 40.3101 45.5215C40.3101 35.8586 40.3101 26.1957 40.3101 16.5373C40.3101 15.1078 40.3101 15.1254 38.9225 15.3673C33.9756 16.225 29.0287 17.0914 24.073 17.8963C23.1787 18.0415 22.8924 18.3449 23.0554 19.2378C23.6236 22.3649 24.1478 25.5008 24.6897 28.6367C26.5662 39.5135 28.4428 50.3947 30.3194 61.2714C32.2928 72.7244 34.2707 84.1817 36.2178 95.639C36.3587 96.4747 36.6407 96.6155 37.4468 96.4747C44.1249 95.3048 50.8162 94.1876 57.4987 93.0485C62.4809 92.1996 67.4586 91.3332 72.4408 90.4756L72.432 90.4799ZM106.761 14.0347C106.805 13.9467 106.849 13.8632 106.893 13.7752C103.845 10.8768 100.801 7.98275 97.5101 4.85562C97.5101 7.89478 97.5101 10.5469 97.5101 13.2034C97.5101 13.74 97.7965 14.0259 98.3207 14.0303C101.131 14.0391 103.946 14.0303 106.756 14.0303L106.761 14.0347Z" fill="#72BE44"/>
<path id="Vector_2" d="M76.9607 23.9442C84.5154 23.9442 92.0701 23.9442 99.6249 23.9442C101.462 23.9442 102.347 24.5467 102.33 25.7694C102.312 26.9833 101.435 27.5595 99.5764 27.5595C84.5374 27.5595 69.5029 27.5595 54.4639 27.5595C53.9882 27.5595 53.5036 27.5595 53.0455 27.4583C52.1028 27.256 51.5522 26.6315 51.5962 25.6683C51.6447 24.7095 52.2482 24.1421 53.1953 23.9882C53.5873 23.9222 54.0014 23.9486 54.4022 23.9486C61.9217 23.9486 69.4412 23.9486 76.9563 23.9486L76.9607 23.9442Z" fill="#72BE44"/>
<path id="Vector_3" d="M76.9257 74.3525C69.371 74.3525 61.8162 74.3525 54.2615 74.3525C52.5083 74.3525 51.6185 73.7631 51.5832 72.5932C51.5436 71.3969 52.4951 70.7372 54.2924 70.7372C69.437 70.7372 84.5861 70.7372 99.7308 70.7372C100.096 70.7372 100.471 70.724 100.823 70.8031C101.757 71.001 102.33 71.586 102.321 72.558C102.312 73.5344 101.731 74.1106 100.792 74.2909C100.365 74.3745 99.9158 74.3481 99.4753 74.3481C91.9558 74.3481 84.4408 74.3481 76.9213 74.3481L76.9257 74.3525Z" fill="#72BE44"/>
<path id="Vector_4" d="M77.0523 39.2232C69.5285 39.2232 62.0046 39.2232 54.4807 39.2232C54.1151 39.2232 53.745 39.2408 53.3794 39.21C52.3751 39.1221 51.6614 38.4623 51.591 37.5827C51.5205 36.6767 52.1989 35.863 53.2208 35.6871C53.6129 35.6167 54.0226 35.6255 54.4278 35.6211C69.4404 35.6211 84.4529 35.6211 99.4654 35.6211C99.9764 35.6211 100.501 35.6431 100.994 35.7574C101.901 35.9642 102.351 36.6063 102.329 37.5211C102.307 38.4096 101.765 38.9373 100.941 39.1397C100.523 39.2408 100.069 39.2188 99.6284 39.2188C92.1045 39.2188 84.5806 39.2188 77.0567 39.2188L77.0523 39.2232Z" fill="#72BE44"/>
<path id="Vector_5" d="M77.0066 59.0625C84.5657 59.0625 92.1293 59.0625 99.6884 59.0625C101.477 59.0625 102.331 59.6343 102.336 60.8262C102.345 62.0401 101.481 62.6646 99.7368 62.6646C84.5393 62.6646 69.3462 62.6646 54.1486 62.6646C53.7477 62.6646 53.3381 62.6338 52.9504 62.5371C52.0518 62.304 51.576 61.6574 51.6069 60.7646C51.6377 59.8542 52.2192 59.2956 53.1134 59.1197C53.5055 59.0449 53.9195 59.0669 54.3204 59.0669C61.8795 59.0669 69.4431 59.0669 77.0022 59.0669L77.0066 59.0625Z" fill="#72BE44"/>
<path id="Vector_6" d="M76.929 47.4172C84.5233 47.4172 92.1177 47.4172 99.7121 47.4172C100.117 47.4172 100.531 47.3733 100.919 47.4612C101.813 47.6591 102.329 48.2441 102.324 49.1677C102.315 50.0914 101.813 50.6763 100.893 50.839C100.536 50.9006 100.161 50.8742 99.7958 50.8742C84.5718 50.8742 69.3478 50.8742 54.1194 50.8742C53.7891 50.8742 53.4543 50.8918 53.1283 50.8522C52.2473 50.7423 51.5733 49.9814 51.5821 49.1325C51.5909 48.2837 52.2693 47.536 53.1547 47.4392C53.5159 47.3997 53.886 47.4172 54.256 47.4172C61.8151 47.4172 69.3699 47.4172 76.929 47.4172Z" fill="#72BE44"/>
</g>
<defs>
<clipPath id="clip0_325_439">
<rect width="112.933" height="111.605" fill="white"/>
</clipPath>
</defs>
</svg>
