<svg width="306" height="41" viewBox="0 0 306 41" fill="none" xmlns="http://www.w3.org/2000/svg">
<g clip-path="url(#clip0_277_1360)">
<mask id="mask0_277_1360" style="mask-type:luminance" maskUnits="userSpaceOnUse" x="-1" y="0" width="307" height="41">
<path d="M-0.00195312 0.828125H305.894V40.1758H-0.00195312V0.828125Z" fill="white"/>
</mask>
<g mask="url(#mask0_277_1360)">
<path d="M94.5632 22.4385V10.055H101.436V22.1691C101.436 24.3159 102.931 25.7343 105.154 25.7343C107.377 25.7343 108.873 24.3159 108.873 22.1691V10.055H115.745V22.4356C115.745 27.7626 111.502 31.3279 105.154 31.3279C98.8066 31.3279 94.5632 27.7626 94.5632 22.4356M90.4634 18.5654V30.9459H83.591V18.8318C83.591 16.685 82.0954 15.2666 79.8724 15.2666C77.6492 15.2666 76.1536 16.685 76.1536 18.8318V30.9459H69.2812V18.5654C69.2812 13.2382 73.5246 9.67302 79.8724 9.67302C86.2201 9.67302 90.4634 13.2382 90.4634 18.5654ZM133.49 25.0829V30.2976C131.751 31.026 129.649 31.331 127.751 31.331C123.467 31.331 120.557 28.5327 120.557 24.3545V3.92266H127.43V8.14228C127.43 9.1994 128.332 10.0552 129.447 10.0552H133.168V15.3823H127.43V22.9717C127.43 24.621 128.482 25.7315 129.977 25.7315C131.148 25.7315 132.322 25.539 133.493 25.0801M150.278 15.6516C146.075 15.6516 144.284 17.4904 144.284 20.2147V30.9489H137.411V19.7349C137.411 19.7349 137.302 9.83886 150.251 10.058L150.275 15.6546L150.278 15.6516ZM160.991 10.055H154.119V30.9459H160.991V10.055ZM189.436 20.4606C189.436 27.0077 185.068 31.3488 178.91 31.3488C174.543 31.3488 171.632 29.4151 170.134 26.457V40.1759H167.14V10.0848H170.052L170.137 14.5828C171.635 11.6246 174.546 9.69095 178.913 9.69095C185.071 9.69095 189.438 13.9906 189.438 20.4606M186.319 20.4991C186.319 15.4889 183.076 12.1753 178.208 12.1753C173.34 12.1753 170.14 15.4889 170.14 20.5376C170.14 25.5863 173.384 28.8999 178.208 28.8999C183.032 28.8999 186.319 25.5479 186.319 20.4962M213.378 17.8162V30.9548H210.383V18.37C210.383 14.6212 207.596 12.1752 203.437 12.1752C199.278 12.1752 196.449 14.6212 196.449 18.37V30.9548H193.455V0.828125H196.449V13.5551C197.864 11.1092 200.567 9.68787 204.352 9.68787C209.759 9.68787 213.378 12.9214 213.378 17.8132M239.797 10.0848V30.9549H236.928L236.803 26.457C235.304 29.4151 232.434 31.3488 228.025 31.3488C221.868 31.3488 217.5 27.0491 217.5 20.5791C217.5 14.109 221.868 9.69095 228.025 9.69095C232.434 9.69095 235.304 11.6246 236.803 14.5828L236.928 10.0848H239.797ZM236.803 20.5376C236.803 15.5274 233.559 12.1753 228.732 12.1753C223.905 12.1753 220.619 15.5274 220.619 20.5791C220.619 25.6308 223.863 28.9028 228.732 28.9028C233.599 28.9028 236.803 25.5508 236.803 20.5376ZM257.688 9.69095L257.438 12.2938C252.07 12.2938 248.992 14.8582 248.992 18.8438V30.9549H245.998V10.0848H248.911L248.951 13.5967C250.531 10.9939 253.485 9.69095 257.688 9.69095ZM294.922 17.8163V30.9549H291.927V18.3701C291.927 14.6213 289.434 12.1753 285.689 12.1753C281.945 12.1753 279.451 14.6213 279.451 18.3701V30.9549H276.457V18.3701C276.457 14.6213 273.962 12.1753 270.258 12.1753C266.556 12.1753 264.019 14.6213 264.019 18.3701V30.9549H261.026V10.0848H263.939L263.98 13.3983C265.31 11.0708 267.764 9.69095 271.177 9.69095C274.589 9.69095 277.334 11.3077 278.623 13.952C279.954 11.3492 282.576 9.69095 286.28 9.69095C291.477 9.69095 294.931 12.9245 294.931 17.8163" fill="#232B38"/>
<path d="M46.4603 4.83382L32.2349 18.3425L21.1661 7.85419C21.1661 7.85419 2.42256 25.6329 2.30703 25.7425C-0.771614 28.6621 -0.771614 33.3999 2.30703 36.3197C5.38568 39.2394 10.3815 39.2394 13.4601 36.3197L27.6855 22.811L38.7543 33.2993C38.7543 33.2993 57.4979 15.5206 57.6134 15.411C60.692 12.4913 60.692 7.75647 57.6134 4.83382C56.074 3.37399 54.0539 2.64258 52.0369 2.64258C50.0198 2.64258 47.9996 3.37102 46.4603 4.83382Z" fill="url(#paint0_linear_277_1360)"/>
<path d="M299.335 7.31154V3.18675H301.521C301.697 3.18675 301.887 3.23519 302.093 3.33207C302.3 3.42521 302.476 3.57054 302.62 3.76802C302.768 3.96177 302.842 4.2077 302.842 4.50579C302.842 4.8076 302.765 5.0647 302.614 5.2771C302.462 5.48576 302.277 5.64412 302.059 5.75217C301.844 5.86023 301.642 5.91426 301.451 5.91426H299.872V5.24356H301.158C301.287 5.24356 301.425 5.18207 301.573 5.05911C301.726 4.93615 301.801 4.75172 301.801 4.50579C301.801 4.25242 301.726 4.08101 301.573 3.99158C301.425 3.90216 301.295 3.85745 301.181 3.85745H300.281V7.31154H299.335ZM301.941 5.36652L303.018 7.31154H301.977L300.925 5.36652H301.941ZM300.971 9.77077C300.325 9.77077 299.719 9.65526 299.154 9.42425C298.588 9.19323 298.092 8.87278 297.663 8.46291C297.235 8.05304 296.898 7.57797 296.657 7.03768C296.416 6.49739 296.295 5.91798 296.295 5.29945C296.295 4.68092 296.416 4.10151 296.657 3.56123C296.898 3.02094 297.235 2.54586 297.663 2.13599C298.092 1.72612 298.588 1.40567 299.154 1.17465C299.719 0.943634 300.325 0.828125 300.971 0.828125C301.619 0.828125 302.224 0.943634 302.789 1.17465C303.354 1.40567 303.852 1.72612 304.28 2.13599C304.709 2.54586 305.044 3.02094 305.285 3.56123C305.527 4.10151 305.647 4.68092 305.647 5.29945C305.647 5.91798 305.527 6.49739 305.285 7.03768C305.044 7.57797 304.709 8.05304 304.28 8.46291C303.852 8.87278 303.354 9.19323 302.789 9.42425C302.224 9.65526 301.619 9.77077 300.971 9.77077ZM300.971 8.69766C301.625 8.69766 302.222 8.54488 302.76 8.23935C303.298 7.9338 303.727 7.52393 304.047 7.00973C304.366 6.49553 304.525 5.92543 304.525 5.29945C304.525 4.67347 304.366 4.10337 304.047 3.58916C303.727 3.07497 303.298 2.6651 302.76 2.35955C302.222 2.05401 301.625 1.90124 300.971 1.90124C300.317 1.90124 299.72 2.05401 299.182 2.35955C298.645 2.6651 298.217 3.07497 297.897 3.58916C297.577 4.10337 297.417 4.67347 297.417 5.29945C297.417 5.92543 297.577 6.49553 297.897 7.00973C298.217 7.52393 298.645 7.9338 299.182 8.23935C299.72 8.54488 300.317 8.69766 300.971 8.69766Z" fill="#232B38"/>
</g>
</g>
<defs>
<linearGradient id="paint0_linear_277_1360" x1="7.8336" y1="41.5609" x2="49.6098" y2="-2.4899" gradientUnits="userSpaceOnUse">
<stop stop-color="#C1C1C1"/>
<stop offset="0.64" stop-color="#858585"/>
<stop offset="1" stop-color="#4C4C4C"/>
</linearGradient>
<clipPath id="clip0_277_1360">
<rect width="305.896" height="39.3477" fill="white" transform="translate(0 0.828125)"/>
</clipPath>
</defs>
</svg>
