<svg width="197" height="27" viewBox="0 0 197 27" fill="none" xmlns="http://www.w3.org/2000/svg">
<g clip-path="url(#clip0_130_878)">
<mask id="mask0_130_878" style="mask-type:luminance" maskUnits="userSpaceOnUse" x="0" y="0" width="197" height="27">
<path d="M0.0234375 0.819946H196.634V26.1101H0.0234375V0.819946Z" fill="white"/>
</mask>
<g mask="url(#mask0_130_878)">
<path d="M60.8043 14.7097V6.75042H65.2215V14.5366C65.2215 15.9164 66.1828 16.828 67.6116 16.828C69.0405 16.828 70.0018 15.9164 70.0018 14.5366V6.75042H74.4189V14.7079C74.4189 18.1318 71.6916 20.4233 67.6116 20.4233C63.5317 20.4233 60.8043 18.1318 60.8043 14.7079M58.1692 12.2203V20.1777H53.7521V12.3916C53.7521 11.0117 52.7908 10.1001 51.362 10.1001C49.9331 10.1001 48.9718 11.0117 48.9718 12.3916V20.1777H44.5547V12.2203C44.5547 8.79638 47.282 6.50488 51.362 6.50488C55.4419 6.50488 58.1692 8.79638 58.1692 12.2203ZM85.824 16.4094V19.761C84.7061 20.2292 83.3555 20.4252 82.1354 20.4252C79.3819 20.4252 77.5116 18.6267 77.5116 15.9412V2.80892H81.9287V5.52102C81.9287 6.20047 82.5087 6.75051 83.2251 6.75051H85.6172V10.1744H81.9287V15.0524C81.9287 16.1125 82.6049 16.8263 83.5663 16.8263C84.3188 16.8263 85.0734 16.7025 85.826 16.4075M96.6144 10.3475C93.913 10.3475 92.7615 11.5294 92.7615 13.2804V20.1797H88.3444V12.972C88.3444 12.972 88.2739 6.61147 96.5968 6.75231L96.6126 10.3495L96.6144 10.3475ZM103.5 6.75042H99.083V20.1777H103.5V6.75042ZM121.782 13.4385C121.782 17.6465 118.975 20.4367 115.017 20.4367C112.21 20.4367 110.339 19.1939 109.376 17.2925V26.1102H107.452V6.76955H109.324L109.378 9.66055C110.341 7.75923 112.212 6.51641 115.019 6.51641C118.977 6.51641 121.784 9.27993 121.784 13.4385M119.779 13.4632C119.779 10.243 117.695 8.11322 114.566 8.11322C111.437 8.11322 109.38 10.243 109.38 13.488C109.38 16.7329 111.465 18.8627 114.566 18.8627C117.667 18.8627 119.779 16.7082 119.779 13.4613M137.171 11.7388V20.1835H135.246V12.0947C135.246 9.68525 133.455 8.11314 130.781 8.11314C128.108 8.11314 126.29 9.68525 126.29 12.0947V20.1835H124.366V0.819946H126.29V9.00005C127.199 7.42798 128.937 6.51443 131.37 6.51443C134.845 6.51443 137.171 8.59276 137.171 11.7369M154.152 6.76955V20.1835H152.307L152.227 17.2925C151.263 19.1939 149.419 20.4367 146.585 20.4367C142.627 20.4367 139.82 17.6732 139.82 13.5146C139.82 9.35606 142.627 6.51641 146.585 6.51641C149.419 6.51641 151.263 7.75923 152.227 9.66055L152.307 6.76955H154.152ZM152.227 13.488C152.227 10.2677 150.142 8.11322 147.039 8.11322C143.937 8.11322 141.825 10.2677 141.825 13.5146C141.825 16.7615 143.91 18.8646 147.039 18.8646C150.167 18.8646 152.227 16.7101 152.227 13.488ZM165.65 6.51641L165.49 8.18935C162.04 8.18935 160.061 9.83758 160.061 12.3993V20.1835H158.137V6.76955H160.009L160.035 9.02678C161.051 7.35383 162.949 6.51641 165.65 6.51641ZM189.582 11.7389V20.1835H187.658V12.0948C187.658 9.68534 186.055 8.11322 183.648 8.11322C181.242 8.11322 179.639 9.68534 179.639 12.0948V20.1835H177.714V12.0948C177.714 9.68534 176.11 8.11322 173.73 8.11322C171.35 8.11322 169.72 9.68534 169.72 12.0948V20.1835H167.796V6.76955H169.668L169.695 8.89926C170.55 7.40332 172.127 6.51641 174.321 6.51641C176.513 6.51641 178.277 7.55558 179.106 9.25515C179.961 7.58222 181.647 6.51641 184.028 6.51641C187.368 6.51641 189.588 8.59475 189.588 11.7389" fill="#232B38"/>
<path d="M29.8864 3.39509L20.7432 12.0776L13.6289 5.33639C13.6289 5.33639 1.58176 16.7634 1.50751 16.8339C-0.471252 18.7104 -0.471252 21.7556 1.50751 23.6322C3.48626 25.5088 6.69723 25.5088 8.67599 23.6322L17.8192 14.9497L24.9335 21.6909C24.9335 21.6909 36.9807 10.2639 37.0549 10.1934C39.0337 8.31685 39.0337 5.27358 37.0549 3.39509C36.0655 2.4568 34.7671 1.98669 33.4707 1.98669C32.1742 1.98669 30.8758 2.45489 29.8864 3.39509Z" fill="url(#paint0_linear_130_878)"/>
<path d="M192.415 4.98708V2.33592H193.82C193.933 2.33592 194.055 2.36706 194.188 2.42932C194.321 2.48919 194.434 2.5826 194.526 2.70953C194.621 2.83406 194.669 2.99212 194.669 3.18372C194.669 3.3777 194.62 3.54295 194.523 3.67946C194.425 3.81358 194.306 3.91536 194.166 3.98481C194.027 4.05427 193.898 4.08899 193.775 4.08899H192.76V3.65791H193.586C193.669 3.65791 193.758 3.61839 193.854 3.53936C193.951 3.46033 194 3.34178 194 3.18372C194 3.02087 193.951 2.91069 193.854 2.85322C193.758 2.79574 193.675 2.767 193.601 2.767H193.023V4.98708H192.415ZM194.09 3.73694L194.782 4.98708H194.113L193.437 3.73694H194.09ZM193.467 6.56771C193.051 6.56771 192.662 6.49347 192.298 6.34499C191.935 6.1965 191.616 5.99054 191.34 5.7271C191.065 5.46366 190.849 5.15832 190.694 4.81106C190.539 4.46379 190.461 4.09138 190.461 3.69383C190.461 3.29628 190.539 2.92387 190.694 2.57661C190.849 2.22935 191.065 1.924 191.34 1.66056C191.616 1.39712 191.935 1.19116 192.298 1.04267C192.662 0.894188 193.051 0.819946 193.467 0.819946C193.883 0.819946 194.271 0.894188 194.635 1.04267C194.998 1.19116 195.318 1.39712 195.593 1.66056C195.869 1.924 196.084 2.22935 196.239 2.57661C196.395 2.92387 196.472 3.29628 196.472 3.69383C196.472 4.09138 196.395 4.46379 196.239 4.81106C196.084 5.15832 195.869 5.46366 195.593 5.7271C195.318 5.99054 194.998 6.1965 194.635 6.34499C194.271 6.49347 193.883 6.56771 193.467 6.56771ZM193.467 5.87798C193.887 5.87798 194.271 5.77979 194.616 5.58341C194.962 5.38702 195.238 5.12358 195.443 4.79309C195.649 4.46259 195.751 4.09617 195.751 3.69383C195.751 3.29149 195.649 2.92507 195.443 2.59457C195.238 2.26407 194.962 2.00064 194.616 1.80425C194.271 1.60787 193.887 1.50968 193.467 1.50968C193.046 1.50968 192.662 1.60787 192.317 1.80425C191.971 2.00064 191.696 2.26407 191.491 2.59457C191.285 2.92507 191.182 3.29149 191.182 3.69383C191.182 4.09617 191.285 4.46259 191.491 4.79309C191.696 5.12358 191.971 5.38702 192.317 5.58341C192.662 5.77979 193.046 5.87798 193.467 5.87798Z" fill="#232B38"/>
</g>
</g>
<defs>
<linearGradient id="paint0_linear_130_878" x1="5.05964" y1="27.0009" x2="31.9108" y2="-1.31214" gradientUnits="userSpaceOnUse">
<stop stop-color="#009AD4"/>
<stop offset="0.64" stop-color="#29BBAD"/>
<stop offset="1" stop-color="#3CCA9C"/>
</linearGradient>
<clipPath id="clip0_130_878">
<rect width="196.611" height="25.2902" fill="white" transform="translate(0.03125 0.820312)"/>
</clipPath>
</defs>
</svg>
