<svg width="151" height="93" viewBox="0 0 151 93" fill="none" xmlns="http://www.w3.org/2000/svg">
<g clip-path="url(#clip0_130_813)">
<path d="M11.4469 50.9476C9.54687 50.9476 8.25688 50.4876 7.51687 49.5276C6.67687 48.4476 6.56687 46.7576 7.17688 44.3676L13.5469 19.2476C14.7869 14.1676 17.8969 11.5376 23.6169 10.7176L36.3469 8.90761C39.5869 8.44761 41.5769 8.83761 42.5769 10.1176C43.4169 11.1876 43.5369 12.8876 42.9369 15.3076L36.5669 40.4376C35.2469 45.5976 32.2269 48.1476 26.4869 48.9576L13.7569 50.7676C12.8969 50.8876 12.1169 50.9476 11.4369 50.9476H11.4469ZM34.8169 15.7876L22.0969 17.5976C21.9669 17.6176 21.7869 17.8076 21.7069 18.2976L15.3369 43.4476C15.2769 43.6876 15.2669 43.8176 15.2669 43.8876L27.9569 42.0876C28.0569 42.0776 28.2269 42.0476 28.4169 41.3476L34.7869 16.2276C34.8269 15.9776 34.8269 15.8576 34.8269 15.7876H34.8169ZM44.8069 46.1476C43.0069 46.1476 41.7569 45.6676 40.9969 44.6976C39.9469 43.3576 39.8569 41.0376 40.7069 37.6276L40.7469 37.4776L48.7969 36.3376L48.7169 36.6776C48.2569 38.5376 48.2669 39.1176 48.2969 39.2976L57.2369 38.0276C57.4469 37.9976 57.6369 37.7076 57.7669 37.2276L58.8969 32.6676C59.0169 32.2076 58.9469 32.1076 58.9469 32.1076L49.8769 33.3976C46.6969 33.8476 44.7269 33.4576 43.7369 32.1876C42.9069 31.1276 42.7869 29.4676 43.3669 27.1076L44.0069 24.6276C45.3169 19.5476 48.3069 17.0276 54.0069 16.2176L63.0469 14.9276C65.8869 14.5276 67.7169 14.9276 68.7369 16.1976C69.7369 17.4376 69.8969 19.5176 69.2269 22.5676L69.1969 22.7276L61.1469 23.8676L61.2269 23.5376C61.5169 22.2376 61.4969 21.7476 61.4669 21.5876L52.5369 22.8576C52.3969 22.8776 52.1669 23.0976 52.0169 23.6576L51.3769 26.1376C51.2869 26.4676 51.3169 26.6276 51.3569 26.6676L60.4569 25.3876C63.6569 24.9376 65.6169 25.3176 66.6069 26.5876C67.4169 27.6476 67.5169 29.3176 66.9069 31.6976L65.7769 36.2576C64.4669 41.3876 61.4669 43.9176 55.7669 44.7176L46.7269 46.0076C46.0369 46.1076 45.3969 46.1576 44.8169 46.1576L44.8069 46.1476ZM74.8869 41.8476C73.0269 41.8476 71.7769 41.3976 71.0569 40.4676C70.2369 39.4076 70.1369 37.7376 70.7469 35.3576L74.6969 19.6976L71.4869 20.1576L73.1469 13.4776L76.3569 13.0176L78.9269 2.92761L86.9269 1.79761L84.3569 11.8876L91.7969 10.8276L90.1269 17.5076L82.6969 18.5676L78.6969 34.4176C78.5769 34.8676 78.6469 34.9776 78.6469 34.9776L85.9769 33.9376L84.3169 40.6676L77.1969 41.6776C76.3469 41.7976 75.5669 41.8576 74.8869 41.8576V41.8476ZM92.7669 39.3076C90.8869 39.3076 89.6269 38.8576 88.8969 37.9176C88.0669 36.8576 87.9669 35.1976 88.5669 32.8276L92.3669 17.7376C93.6769 12.6576 96.6669 10.1376 102.367 9.32761L112.487 7.88761C115.707 7.42761 117.687 7.81761 118.677 9.09761C119.497 10.1476 119.597 11.7976 118.997 14.1276L117.857 18.6876C116.557 23.7476 113.447 26.3576 107.787 27.1576L97.3469 28.6376L96.5669 31.8576C96.4469 32.3176 96.5169 32.4176 96.5169 32.4176L114.777 29.8176L113.117 36.5576L95.0669 39.1176C94.2169 39.2376 93.4369 39.2976 92.7569 39.2976L92.7669 39.3076ZM111.027 14.5376L100.897 15.9776C100.757 15.9976 100.527 16.2176 100.367 16.7876L99.0769 21.9076L109.317 20.4476C109.477 20.4276 109.697 20.1676 109.837 19.6476L110.967 15.0976C111.067 14.7276 111.017 14.5676 110.997 14.5376H111.027ZM122.617 35.0676C120.747 35.0676 119.477 34.6176 118.747 33.6776C117.927 32.6176 117.817 30.9576 118.427 28.5876L122.227 13.4976C123.537 8.40761 126.527 5.89761 132.227 5.08761L142.347 3.64761C145.567 3.18761 147.547 3.57761 148.537 4.85761C149.357 5.90761 149.457 7.55761 148.857 9.88761L145.057 24.9776C143.747 30.0976 140.757 32.6276 135.047 33.4376L124.937 34.8776C124.077 34.9976 123.307 35.0576 122.617 35.0576V35.0676ZM140.887 10.2976L130.757 11.7376C130.607 11.7576 130.377 12.0176 130.237 12.5476L126.437 27.6376C126.327 28.0876 126.387 28.1976 126.397 28.1976L136.537 26.7476C136.747 26.7176 136.937 26.4276 137.067 25.9476L140.857 10.8576C140.967 10.4776 140.917 10.3276 140.897 10.2976H140.887ZM2.54688 88.4876L11.1269 54.4476L28.9869 51.9076C31.7169 51.5176 33.3769 51.8376 34.2069 52.8976C34.8969 53.7776 34.9869 55.1976 34.4969 57.2276L32.6369 64.5576C32.2569 65.9876 31.6969 67.1676 30.9569 68.0876C31.2469 68.8676 31.2369 69.9476 30.9069 71.3976L29.0469 78.7276C27.9269 83.0876 25.3869 85.2376 20.5269 85.9276L2.54688 88.4876ZM24.1369 71.7076L12.9069 73.2976L10.7169 81.8776L21.8169 80.2976C22.0069 80.2776 22.1669 80.1376 22.3069 79.5676L24.1669 72.2376C24.1869 72.1176 24.2469 71.7676 24.1869 71.6976H24.1269L24.1369 71.7076ZM27.6769 57.5376L16.4469 59.1376L14.2969 67.7076L25.6069 66.1076C25.6669 66.0476 25.7669 65.8276 25.8969 65.4076L27.7569 58.0776C27.8169 57.7076 27.7969 57.5876 27.7569 57.5576L27.6769 57.5376ZM30.1969 84.5576L36.5769 59.1476L43.3369 58.1876L36.9669 83.5876L30.1969 84.5476V84.5576ZM37.0369 57.4576L38.7669 50.5176L45.5369 49.5576L43.7969 56.4976L37.0369 57.4576ZM42.6369 71.9976L44.2669 66.3276L53.7169 64.9876L52.0769 70.6576L42.6369 71.9976ZM52.1969 81.4276L59.2269 53.5976C60.2769 49.3076 62.8969 47.0876 67.7469 46.4076L81.7569 44.4176L80.3069 50.0676L66.3969 52.0376C66.1869 52.0676 66.0269 52.3276 65.9569 52.7476L63.9369 60.6576L78.5069 58.5876L77.1169 64.1776L62.5469 66.2476L58.9569 80.4676L52.1869 81.4276H52.1969ZM75.6369 78.0976L84.2769 44.0476L91.0369 43.0876L82.4069 77.1376L75.6469 78.0976H75.6369ZM93.1369 70.1576L108.957 67.9276L103.117 74.2676L91.9269 75.7876C91.2069 75.8876 90.5369 75.9476 89.9569 75.9476C88.3669 75.9476 87.2969 75.5576 86.6869 74.7776C85.9969 73.8876 85.9069 72.4776 86.4269 70.4776L89.6769 57.5576C90.7869 53.2276 93.3369 51.0976 98.1869 50.4076L106.847 49.1776C109.567 48.7876 111.267 49.1176 112.087 50.1876C112.777 51.0776 112.857 52.4676 112.347 54.4376L111.377 58.3376C110.267 62.6376 107.627 64.8676 102.807 65.5476L93.8369 66.8176L93.1569 69.6176C93.0569 70.0276 93.1169 70.1376 93.1269 70.1576H93.1369ZM105.587 54.7376L96.9169 55.9676C96.7269 55.9976 96.5369 56.2776 96.4169 56.6976L95.2969 61.1676L104.157 59.9076C104.347 59.8776 104.537 59.5976 104.657 59.1776L105.637 55.2776C105.717 54.9776 105.697 54.8076 105.657 54.7576L105.587 54.7376ZM91.2269 90.5276L119.267 59.5876L112.867 48.3176L120.847 47.1776L124.587 53.7576L132.067 45.5776L140.187 44.4276L127.347 58.5176L133.747 69.8376L125.717 70.9776L121.977 64.4376L99.3569 89.3576H99.3069L91.2369 90.5076L91.2269 90.5276Z" fill="white" stroke="white" stroke-width="3.41" stroke-linecap="round" stroke-linejoin="round"/>
<path d="M11.4469 50.9476C9.54687 50.9476 8.25688 50.4876 7.51687 49.5276C6.67687 48.4476 6.56687 46.7576 7.17688 44.3676L13.5469 19.2476C14.7869 14.1676 17.8969 11.5376 23.6169 10.7176L36.3469 8.90761C39.5869 8.44761 41.5769 8.83761 42.5769 10.1176C43.4169 11.1876 43.5369 12.8876 42.9369 15.3076L36.5669 40.4376C35.2469 45.5976 32.2269 48.1476 26.4869 48.9576L13.7569 50.7676C12.8969 50.8876 12.1169 50.9476 11.4369 50.9476H11.4469ZM34.8169 15.7876L22.0969 17.5976C21.9669 17.6176 21.7869 17.8076 21.7069 18.2976L15.3369 43.4476C15.2769 43.6876 15.2669 43.8176 15.2669 43.8876L27.9569 42.0876C28.0569 42.0776 28.2269 42.0476 28.4169 41.3476L34.7869 16.2276C34.8269 15.9776 34.8269 15.8576 34.8269 15.7876H34.8169ZM44.8069 46.1476C43.0069 46.1476 41.7569 45.6676 40.9969 44.6976C39.9469 43.3576 39.8569 41.0376 40.7069 37.6276L40.7469 37.4776L48.7969 36.3276L48.7169 36.6676C48.2569 38.5276 48.2669 39.1076 48.2969 39.2876L57.2369 38.0176C57.4469 37.9876 57.6369 37.6976 57.7669 37.2176L58.8969 32.6576C59.0169 32.1976 58.9469 32.0976 58.9469 32.0976L49.8769 33.3876C46.6969 33.8376 44.7269 33.4476 43.7369 32.1776C42.9069 31.1176 42.7869 29.4576 43.3669 27.0976L44.0069 24.6176C45.3169 19.5376 48.3069 17.0176 54.0069 16.2076L63.0469 14.9176C65.8869 14.5176 67.7169 14.9176 68.7369 16.1876C69.7369 17.4276 69.8969 19.5076 69.2269 22.5576L69.1969 22.7176L61.1469 23.8576L61.2269 23.5276C61.5169 22.2276 61.4969 21.7376 61.4669 21.5776L52.5369 22.8476C52.3969 22.8676 52.1669 23.0876 52.0169 23.6476L51.3769 26.1276C51.2869 26.4576 51.3169 26.6176 51.3569 26.6576L60.4569 25.3776C63.6569 24.9276 65.6169 25.3076 66.6069 26.5776C67.4169 27.6376 67.5169 29.3076 66.9069 31.6876L65.7769 36.2476C64.4669 41.3776 61.4669 43.9076 55.7669 44.7076L46.7269 45.9976C46.0369 46.0976 45.3969 46.1476 44.8169 46.1476H44.8069ZM74.8869 41.8476C73.0269 41.8476 71.7769 41.3976 71.0569 40.4676C70.2369 39.4076 70.1369 37.7376 70.7469 35.3576L74.6969 19.6976L71.4869 20.1576L73.1469 13.4776L76.3569 13.0176L78.9269 2.92761L86.9269 1.79761L84.3569 11.8876L91.7969 10.8276L90.1269 17.5076L82.6969 18.5676L78.6969 34.4176C78.5769 34.8676 78.6469 34.9776 78.6469 34.9776L85.9769 33.9376L84.3169 40.6676L77.1969 41.6776C76.3469 41.7976 75.5669 41.8576 74.8869 41.8576V41.8476ZM92.7669 39.3076C90.8869 39.3076 89.6269 38.8576 88.8969 37.9176C88.0669 36.8576 87.9669 35.1976 88.5669 32.8276L92.3669 17.7376C93.6769 12.6576 96.6669 10.1376 102.367 9.32761L112.487 7.88761C115.707 7.42761 117.687 7.81761 118.677 9.09761C119.497 10.1476 119.597 11.7976 118.997 14.1276L117.857 18.6876C116.557 23.7476 113.447 26.3576 107.787 27.1576L97.3469 28.6376L96.5669 31.8576C96.4469 32.3176 96.5169 32.4176 96.5169 32.4176L114.777 29.8176L113.117 36.5576L95.0669 39.1176C94.2169 39.2376 93.4369 39.2976 92.7569 39.2976L92.7669 39.3076ZM111.027 14.5376L100.897 15.9776C100.757 15.9976 100.527 16.2176 100.367 16.7876L99.0769 21.9076L109.317 20.4476C109.477 20.4276 109.697 20.1676 109.837 19.6476L110.967 15.0976C111.067 14.7276 111.017 14.5676 110.997 14.5376H111.027ZM122.617 35.0676C120.747 35.0676 119.477 34.6176 118.747 33.6776C117.927 32.6176 117.817 30.9576 118.427 28.5876L122.227 13.4976C123.537 8.40761 126.527 5.89761 132.227 5.08761L142.347 3.64761C145.567 3.18761 147.547 3.57761 148.537 4.85761C149.357 5.90761 149.457 7.55761 148.857 9.88761L145.057 24.9776C143.747 30.0976 140.757 32.6276 135.047 33.4376L124.937 34.8776C124.077 34.9976 123.307 35.0576 122.617 35.0576V35.0676ZM140.887 10.2976L130.757 11.7376C130.607 11.7576 130.377 12.0176 130.237 12.5476L126.437 27.6376C126.327 28.0876 126.387 28.1976 126.397 28.1976L136.537 26.7476C136.747 26.7176 136.937 26.4276 137.067 25.9476L140.857 10.8576C140.967 10.4776 140.917 10.3276 140.897 10.2976H140.887ZM2.54688 88.4876L11.1269 54.4476L28.9869 51.9076C31.7169 51.5176 33.3769 51.8376 34.2069 52.8976C34.8969 53.7776 34.9869 55.1976 34.4969 57.2276L32.6369 64.5576C32.2569 65.9876 31.6969 67.1676 30.9569 68.0876C31.2469 68.8676 31.2369 69.9476 30.9069 71.3976L29.0469 78.7276C27.9269 83.0876 25.3869 85.2376 20.5269 85.9276L2.54688 88.4876ZM24.1369 71.7076L12.9069 73.2976L10.7169 81.8776L21.8169 80.2976C22.0069 80.2776 22.1669 80.1376 22.3069 79.5676L24.1669 72.2376C24.1869 72.1176 24.2469 71.7676 24.1869 71.6976H24.1269L24.1369 71.7076ZM27.6769 57.5376L16.4469 59.1376L14.2969 67.7076L25.6069 66.1076C25.6669 66.0476 25.7669 65.8276 25.8969 65.4076L27.7569 58.0776C27.8169 57.7076 27.7969 57.5876 27.7569 57.5576L27.6769 57.5376ZM30.1969 84.5576L36.5769 59.1476L43.3369 58.1876L36.9669 83.5876L30.1969 84.5476V84.5576ZM37.0369 57.4576L38.7669 50.5176L45.5369 49.5576L43.7969 56.4976L37.0369 57.4576ZM42.6369 71.9976L44.2669 66.3276L53.7169 64.9876L52.0769 70.6576L42.6369 71.9976ZM52.1969 81.4276L59.2269 53.5976C60.2769 49.3076 62.8969 47.0876 67.7469 46.4076L81.7569 44.4176L80.3069 50.0676L66.3969 52.0376C66.1869 52.0676 66.0269 52.3276 65.9569 52.7476L63.9369 60.6576L78.5069 58.5876L77.1169 64.1776L62.5469 66.2476L58.9569 80.4676L52.1869 81.4276H52.1969ZM75.6369 78.0976L84.2769 44.0476L91.0369 43.0876L82.4069 77.1376L75.6469 78.0976H75.6369ZM93.1369 70.1576L108.957 67.9276L103.117 74.2676L91.9269 75.7876C91.2069 75.8876 90.5369 75.9476 89.9569 75.9476C88.3669 75.9476 87.2969 75.5576 86.6869 74.7776C85.9969 73.8876 85.9069 72.4776 86.4269 70.4776L89.6769 57.5576C90.7869 53.2276 93.3369 51.0976 98.1869 50.4076L106.847 49.1776C109.567 48.7876 111.267 49.1176 112.087 50.1876C112.777 51.0776 112.857 52.4676 112.347 54.4376L111.377 58.3376C110.267 62.6376 107.627 64.8676 102.807 65.5476L93.8369 66.8176L93.1569 69.6176C93.0569 70.0276 93.1169 70.1376 93.1269 70.1576H93.1369ZM105.587 54.7376L96.9169 55.9676C96.7269 55.9976 96.5369 56.2776 96.4169 56.6976L95.2969 61.1676L104.157 59.9076C104.347 59.8776 104.537 59.5976 104.657 59.1776L105.637 55.2776C105.717 54.9776 105.697 54.8076 105.657 54.7576L105.587 54.7376ZM91.2269 90.5276L119.267 59.5876L112.867 48.3176L120.847 47.1776L124.587 53.7576L132.067 45.5776L140.187 44.4276L127.347 58.5176L133.747 69.8376L125.717 70.9776L121.977 64.4376L99.3569 89.3576H99.3069L91.2369 90.5076L91.2269 90.5276Z" fill="#22317F"/>
<path d="M60.4588 25.3677L51.3588 26.6277L51.2388 27.0777C51.1588 27.4077 51.1888 27.5677 51.2188 27.6077L61.6588 26.1577C63.7588 25.8577 65.3188 25.9277 66.4288 26.3677C65.4088 25.2577 63.4888 24.9277 60.4688 25.3577L60.4588 25.3677Z" fill="url(#paint0_linear_130_813)"/>
<path d="M48.234 40.2177L58.434 38.7877C58.644 38.7577 58.834 38.4677 58.954 37.9877L60.094 33.4277C60.214 32.9677 60.144 32.8677 60.144 32.8677L58.784 33.0577L57.754 37.1877C57.634 37.6677 57.444 37.9577 57.224 37.9877L48.294 39.2477C48.194 39.8577 48.204 40.1177 48.224 40.2277L48.234 40.2177Z" fill="url(#paint1_linear_130_813)"/>
<path d="M39.9691 51.2976L45.2891 50.5376L45.5391 49.5376L38.7691 50.4976L37.0391 57.4376L38.4891 57.2376L39.9691 51.2976Z" fill="url(#paint2_linear_130_813)"/>
<path d="M40.6996 37.6076C39.8496 41.0176 39.9396 43.3376 40.9896 44.6776C41.3496 45.1376 41.8296 45.4876 42.4196 45.7276C42.3396 45.6476 42.2596 45.5676 42.1896 45.4676C41.1396 44.1276 41.0496 41.8176 41.8996 38.3976L41.9396 38.2476L48.5496 37.3076C48.5896 37.1076 48.6496 36.8876 48.7096 36.6376L48.7896 36.3076L40.7396 37.4476L40.6996 37.5976V37.6076Z" fill="url(#paint3_linear_130_813)"/>
<path d="M27.0859 66.1776L28.9459 58.8576C29.0059 58.4876 28.9859 58.3676 28.9459 58.3276H28.8659L27.6359 58.4876L25.8859 65.3776C25.7559 65.7976 25.6559 66.0176 25.5959 66.0776L14.3359 67.6676L14.0859 68.6676L26.7959 66.8676C26.8559 66.8076 26.9659 66.5876 27.0859 66.1676V66.1776Z" fill="url(#paint4_linear_130_813)"/>
<path d="M28.4134 41.3276C28.2334 42.0276 28.0534 42.0576 27.9534 42.0676L15.2334 43.8776L15.0934 44.4376C15.0334 44.6776 15.0234 44.8076 15.0234 44.8776L29.1534 42.8576C29.2534 42.8476 29.4234 42.8176 29.6134 42.1176L35.9834 16.9976C36.0234 16.7576 36.0234 16.6276 36.0234 16.5576L34.6534 16.7476L28.4234 41.3176L28.4134 41.3276Z" fill="url(#paint5_linear_130_813)"/>
<path d="M96.4257 32.8376C96.3157 33.2976 96.3757 33.3976 96.3757 33.3976L114.536 30.8176L114.786 29.8176L96.5257 32.4176L96.4157 32.8476L96.4257 32.8376Z" fill="url(#paint6_linear_130_813)"/>
<path d="M140.733 11.2676L137.043 25.9276C136.913 26.4076 136.723 26.6976 136.513 26.7276L126.383 28.1676L126.273 28.5976C126.153 29.0576 126.223 29.1576 126.223 29.1576L137.713 27.5176C137.923 27.4876 138.113 27.1976 138.233 26.7176L142.033 11.6276C142.143 11.2476 142.093 11.0976 142.063 11.0676L140.723 11.2576L140.733 11.2676Z" fill="url(#paint7_linear_130_813)"/>
<path d="M118.75 33.6577C119.09 34.0877 119.55 34.4177 120.12 34.6477C120.06 34.5877 120 34.5277 119.95 34.4577C119.13 33.3977 119.02 31.7377 119.63 29.3677L123.42 14.2777C124.73 9.18767 127.73 6.67767 133.42 5.86767L143.53 4.42767C145.65 4.12767 147.23 4.19767 148.35 4.64767C147.31 3.53767 145.38 3.19767 142.34 3.63767L132.22 5.07767C126.52 5.88767 123.53 8.39767 122.22 13.4877L118.42 28.5777C117.81 30.9477 117.92 32.6077 118.74 33.6677L118.75 33.6577Z" fill="url(#paint8_linear_130_813)"/>
<path d="M125.047 53.2376L125.787 54.5376L133.257 46.3576L139.177 45.5276L140.187 44.4176L132.067 45.5676L125.047 53.2376Z" fill="url(#paint9_linear_130_813)"/>
<path d="M23.4963 80.3577L25.3563 73.0277C25.3763 72.9077 25.4363 72.5577 25.3763 72.4877H25.3162L24.0363 72.6577L22.2863 79.5477C22.1463 80.1177 21.9862 80.2477 21.7962 80.2777L10.6663 81.8577L10.4062 82.8577L22.9963 81.0677C23.1862 81.0477 23.3463 80.9077 23.4963 80.3477V80.3577Z" fill="url(#paint10_linear_130_813)"/>
<path d="M63.6562 61.6476L78.2663 59.5676L78.5163 58.5676L63.9163 60.6376L63.6562 61.6476Z" fill="url(#paint11_linear_130_813)"/>
<path d="M110.899 15.5076L109.869 19.6276C109.729 20.1476 109.509 20.4076 109.349 20.4276L99.0391 21.8776L98.7891 22.8776L110.549 21.2176C110.709 21.1976 110.929 20.9376 111.079 20.4176L112.209 15.8676C112.309 15.4976 112.259 15.3376 112.239 15.3076L110.899 15.4976V15.5076Z" fill="url(#paint12_linear_130_813)"/>
<path d="M88.5787 32.8176C87.9787 35.1776 88.0787 36.8476 88.9087 37.9076C89.2387 38.3376 89.6987 38.6676 90.2787 38.8976C90.2187 38.8376 90.1587 38.7776 90.0987 38.7076C89.2787 37.6476 89.1787 35.9876 89.7787 33.6176L93.5787 18.5276C94.8887 13.4376 97.8787 10.9276 103.579 10.1176L113.689 8.67761C115.809 8.37761 117.389 8.44761 118.509 8.89761C117.469 7.78761 115.539 7.44761 112.499 7.87761L102.379 9.30761C96.6787 10.1176 93.6887 12.6376 92.3787 17.7176L88.5787 32.8076V32.8176Z" fill="url(#paint13_linear_130_813)"/>
<path d="M72.429 41.4377C72.369 41.3777 72.309 41.3177 72.259 41.2577C71.439 40.1977 71.339 38.5277 71.949 36.1377L75.899 20.4777L74.449 20.6877L70.759 35.3477C70.139 37.7277 70.239 39.4077 71.069 40.4577C71.399 40.8877 71.859 41.2177 72.429 41.4377Z" fill="url(#paint14_linear_130_813)"/>
<path d="M106.789 55.5177L105.519 55.6977L104.659 59.1677C104.539 59.5877 104.349 59.8677 104.159 59.8977L95.2991 61.1877L95.0391 62.1877L105.349 60.6977C105.539 60.6677 105.729 60.3977 105.849 59.9677L106.819 56.0677C106.909 55.7677 106.889 55.5977 106.839 55.5377L106.779 55.5177H106.789Z" fill="url(#paint15_linear_130_813)"/>
<path d="M60.4275 54.3777C61.4775 50.0877 64.0975 47.8677 68.9375 47.1777L81.4975 45.3877L81.7475 44.3877L67.7375 46.3777C62.8975 47.0677 60.2675 49.2877 59.2175 53.5777L52.1875 81.4077L53.6375 81.1977L60.4075 54.3777H60.4275Z" fill="url(#paint16_linear_130_813)"/>
<path d="M85.4728 44.8276L90.7828 44.0676L91.0328 43.0676L84.2728 44.0276L75.6328 78.0776L77.0828 77.8776L85.4728 44.8276Z" fill="url(#paint17_linear_130_813)"/>
<path d="M87.8926 75.5476C87.2026 74.6576 87.1126 73.2476 87.6326 71.2476L90.8826 58.3276C92.0126 54.0076 94.5526 51.8676 99.4026 51.1776L108.063 49.9476C109.783 49.6976 111.093 49.7476 112.023 50.0776C111.173 49.0776 109.513 48.7776 106.863 49.1476L98.2026 50.3776C93.3526 51.0676 90.8026 53.1976 89.6926 57.5276L86.4426 70.4476C85.9226 72.4576 86.0126 73.8576 86.7026 74.7576C87.0126 75.1476 87.4326 75.4476 87.9826 75.6376C87.9526 75.6076 87.9326 75.5876 87.9026 75.5576L87.8926 75.5476Z" fill="url(#paint18_linear_130_813)"/>
<path d="M123.169 65.2277L122.719 65.7277L125.709 70.9677L126.389 70.8677L123.169 65.2277Z" fill="#22317F"/>
<path d="M78.4765 35.4177C78.3565 35.8677 78.4265 35.9677 78.4265 35.9777L85.7265 34.9077L85.9765 33.9077L78.5865 34.9877L78.4765 35.4277V35.4177Z" fill="url(#paint19_linear_130_813)"/>
<path d="M120.467 60.3677L114.067 49.0877L121.357 48.0477L120.847 47.1577L112.867 48.2877L119.267 59.5677L91.2266 90.5077L93.4266 90.1877L120.467 60.3677Z" fill="url(#paint20_linear_130_813)"/>
<path d="M93.0023 70.6077C92.9023 71.0177 92.9623 71.1377 92.9723 71.1477L107.932 69.0077L108.962 67.8977L93.1123 70.1577L93.0023 70.5977V70.6077Z" fill="url(#paint21_linear_130_813)"/>
<path d="M74.3444 14.2576L77.5544 13.8076L80.1344 3.7176L86.6744 2.7876L86.9244 1.7876L78.9344 2.9176L76.3644 13.0076L73.1444 13.4576L71.4844 20.1376L72.9344 19.9376L74.3444 14.2576Z" fill="url(#paint22_linear_130_813)"/>
<path d="M43.3675 27.0776C42.7875 29.4376 42.9075 31.0976 43.7375 32.1576C44.0775 32.5976 44.5375 32.9176 45.1175 33.1476C45.0575 33.0876 44.9875 33.0276 44.9375 32.9576C44.1075 31.8976 43.9875 30.2376 44.5675 27.8776L45.2075 25.3876C46.5175 20.3076 49.5175 17.7876 55.2075 16.9776L64.2475 15.6876C66.0775 15.4276 67.4775 15.5076 68.5175 15.9276C67.4775 14.8476 65.7075 14.5076 63.0475 14.8876L54.0075 16.1776C48.3075 16.9876 45.3175 19.4976 44.0075 24.5776L43.3675 27.0676V27.0776Z" fill="url(#paint23_linear_130_813)"/>
<path d="M45.4628 67.1077L53.4128 65.9776L53.7128 64.9677L44.2628 66.3176L42.6328 71.9876L44.1128 71.7776L45.4628 67.1077Z" fill="url(#paint24_linear_130_813)"/>
<path d="M84.0469 12.9176L91.5369 11.8176L91.7969 10.8176L84.2969 11.9076L84.0469 12.9176Z" fill="url(#paint25_linear_130_813)"/>
<path d="M37.7653 59.9276L43.0853 59.1776L43.3353 58.1676L36.5753 59.1276L30.1953 84.5376L31.6453 84.3276L37.7653 59.9276Z" fill="url(#paint26_linear_130_813)"/>
<path d="M12.3169 55.2277L30.1769 52.6877C31.9069 52.4477 33.1969 52.4877 34.1369 52.8077C33.2869 51.8077 31.6469 51.5077 28.9869 51.8877L11.1269 54.4277L2.54688 88.4677L3.99688 88.2577L12.3269 55.2277H12.3169Z" fill="url(#paint27_linear_130_813)"/>
<path d="M8.89452 50.5077C8.83452 50.4377 8.76451 50.3777 8.70451 50.2977C7.86452 49.2177 7.75452 47.5277 8.36452 45.1377L14.7345 20.0177C15.9745 14.9377 19.0845 12.3077 24.8045 11.4877L37.5345 9.67772C39.6745 9.37772 41.2645 9.44772 42.3845 9.89772C41.3345 8.77772 39.4045 8.44772 36.3345 8.87772L23.6045 10.6877C17.8745 11.4977 14.7745 14.1277 13.5345 19.2177L7.16452 44.3377C6.54452 46.7277 6.66452 48.4177 7.50452 49.4977C7.84452 49.9377 8.31452 50.2777 8.89452 50.5077Z" fill="url(#paint28_linear_130_813)"/>
<path d="M119.267 59.5676L91.2266 90.5076L93.4266 90.1876L120.467 60.3676" fill="url(#paint29_linear_130_813)"/>
<path d="M144.164 38.9977C145.184 38.8577 146.094 39.4577 146.094 40.6077C146.094 41.7577 145.184 42.6177 144.164 42.7677C143.144 42.9177 142.234 42.2977 142.234 41.1577C142.234 40.0177 143.144 39.1577 144.164 39.0077V38.9977ZM144.164 42.3577C144.944 42.2477 145.584 41.5277 145.584 40.6677C145.584 39.8077 144.944 39.2877 144.164 39.3977C143.374 39.5077 142.744 40.2177 142.744 41.0677C142.744 41.9177 143.374 42.4677 144.164 42.3577ZM143.414 39.9277L144.204 39.8177C144.734 39.7377 145.024 39.8677 145.024 40.3277C145.024 40.7077 144.784 40.8977 144.474 40.9677L145.034 41.8077L144.594 41.8677L144.084 41.0377L143.834 41.0677V41.9677L143.414 42.0277V39.9177V39.9277ZM143.844 40.7477L144.214 40.6977C144.434 40.6677 144.614 40.6077 144.614 40.3477C144.614 40.1177 144.374 40.1177 144.194 40.1477L143.844 40.1977V40.7477Z" fill="#22317F"/>
</g>
<defs>
<linearGradient id="paint0_linear_130_813" x1="52.3888" y1="28.7177" x2="65.2288" y2="24.3377" gradientUnits="userSpaceOnUse">
<stop stop-color="#0093D2"/>
<stop offset="0.87" stop-color="#0093D2"/>
<stop offset="1" stop-color="#0093D2"/>
</linearGradient>
<linearGradient id="paint1_linear_130_813" x1="49.524" y1="38.3377" x2="58.914" y2="35.8477" gradientUnits="userSpaceOnUse">
<stop offset="0.52" stop-color="#0093D2"/>
<stop offset="1" stop-color="#0093D2"/>
</linearGradient>
<linearGradient id="paint2_linear_130_813" x1="37.7991" y1="57.6276" x2="43.3891" y2="48.2476" gradientUnits="userSpaceOnUse">
<stop stop-color="#0093D2"/>
<stop offset="0.5" stop-color="#0093D2"/>
</linearGradient>
<linearGradient id="paint3_linear_130_813" x1="40.4096" y1="41.8676" x2="50.5196" y2="39.4776" gradientUnits="userSpaceOnUse">
<stop stop-color="#0093D2"/>
<stop offset="0.27" stop-color="#0093D2"/>
<stop offset="1" stop-color="#0093D2"/>
</linearGradient>
<linearGradient id="paint4_linear_130_813" x1="14.0859" y1="63.4976" x2="28.9859" y2="63.4976" gradientUnits="userSpaceOnUse">
<stop offset="0.5" stop-color="#0093D2"/>
<stop offset="1" stop-color="#0093D2"/>
</linearGradient>
<linearGradient id="paint5_linear_130_813" x1="15.8634" y1="42.2376" x2="33.5434" y2="28.5576" gradientUnits="userSpaceOnUse">
<stop offset="0.23" stop-color="#0093D2"/>
<stop offset="0.88" stop-color="#0093D2"/>
</linearGradient>
<linearGradient id="paint6_linear_130_813" x1="101.236" y1="32.1076" x2="127.836" y2="29.0476" gradientUnits="userSpaceOnUse">
<stop offset="0.31" stop-color="#0093D2"/>
<stop offset="1" stop-color="#0093D2"/>
</linearGradient>
<linearGradient id="paint7_linear_130_813" x1="126.213" y1="20.1176" x2="142.103" y2="20.1176" gradientUnits="userSpaceOnUse">
<stop offset="0.5" stop-color="#0093D2"/>
<stop offset="1" stop-color="#0093D2"/>
</linearGradient>
<linearGradient id="paint8_linear_130_813" x1="122.64" y1="21.2077" x2="150.77" y2="4.84768" gradientUnits="userSpaceOnUse">
<stop stop-color="#0093D2"/>
<stop offset="0.28" stop-color="#0093D2"/>
<stop offset="0.77" stop-color="#0093D2"/>
<stop offset="1" stop-color="#0093D2"/>
</linearGradient>
<linearGradient id="paint9_linear_130_813" x1="125.627" y1="54.5776" x2="132.547" y2="48.3276" gradientUnits="userSpaceOnUse">
<stop stop-color="#0093D2"/>
<stop offset="0.5" stop-color="#0093D2"/>
</linearGradient>
<linearGradient id="paint10_linear_130_813" x1="10.4163" y1="77.6777" x2="25.4063" y2="77.6777" gradientUnits="userSpaceOnUse">
<stop offset="0.5" stop-color="#0093D2"/>
<stop offset="1" stop-color="#0093D2"/>
</linearGradient>
<linearGradient id="paint11_linear_130_813" x1="64.8562" y1="61.0676" x2="83.4162" y2="58.2076" gradientUnits="userSpaceOnUse">
<stop offset="0.51" stop-color="#0093D2"/>
<stop offset="1" stop-color="#0093D2"/>
</linearGradient>
<linearGradient id="paint12_linear_130_813" x1="101.229" y1="19.6276" x2="112.009" y2="18.2976" gradientUnits="userSpaceOnUse">
<stop offset="0.71" stop-color="#0093D2"/>
<stop offset="1" stop-color="#0093D2"/>
</linearGradient>
<linearGradient id="paint13_linear_130_813" x1="89.3687" y1="26.5676" x2="129.869" y2="10.6076" gradientUnits="userSpaceOnUse">
<stop stop-color="#0093D2"/>
<stop offset="0.3" stop-color="#0093D2"/>
<stop offset="0.64" stop-color="#0093D2"/>
<stop offset="1" stop-color="#0093D2"/>
</linearGradient>
<linearGradient id="paint14_linear_130_813" x1="74.269" y1="21.7577" x2="70.679" y2="44.2377" gradientUnits="userSpaceOnUse">
<stop stop-color="#0093D2"/>
<stop offset="0.5" stop-color="#0093D2"/>
<stop offset="1" stop-color="#0093D2"/>
</linearGradient>
<linearGradient id="paint15_linear_130_813" x1="95.4391" y1="60.9177" x2="106.679" y2="57.8577" gradientUnits="userSpaceOnUse">
<stop offset="0.5" stop-color="#0093D2"/>
<stop offset="1" stop-color="#0093D2"/>
</linearGradient>
<linearGradient id="paint16_linear_130_813" x1="49.6875" y1="74.7877" x2="79.8075" y2="38.0777" gradientUnits="userSpaceOnUse">
<stop stop-color="#0093D2"/>
<stop offset="0.5" stop-color="#0093D2"/>
</linearGradient>
<linearGradient id="paint17_linear_130_813" x1="74.2028" y1="73.3576" x2="92.9528" y2="37.4476" gradientUnits="userSpaceOnUse">
<stop stop-color="#0093D2"/>
<stop offset="0.5" stop-color="#0093D2"/>
</linearGradient>
<linearGradient id="paint18_linear_130_813" x1="83.0426" y1="73.3276" x2="108.783" y2="43.7976" gradientUnits="userSpaceOnUse">
<stop stop-color="#0093D2"/>
<stop offset="0.44" stop-color="#0093D2"/>
<stop offset="0.77" stop-color="#0093D2"/>
<stop offset="1" stop-color="#0093D2"/>
</linearGradient>
<linearGradient id="paint19_linear_130_813" x1="76.8665" y1="36.2777" x2="101.207" y2="30.1877" gradientUnits="userSpaceOnUse">
<stop stop-color="#0093D2"/>
<stop offset="1" stop-color="#0093D2"/>
</linearGradient>
<linearGradient id="paint20_linear_130_813" x1="111.247" y1="62.2777" x2="121.217" y2="53.6977" gradientUnits="userSpaceOnUse">
<stop stop-color="#0093D2"/>
<stop offset="0.22" stop-color="#0093D2"/>
<stop offset="0.53" stop-color="#0093D2"/>
<stop offset="1" stop-color="#0093D2"/>
</linearGradient>
<linearGradient id="paint21_linear_130_813" x1="92.5823" y1="70.8077" x2="112.192" y2="67.8077" gradientUnits="userSpaceOnUse">
<stop offset="0.57" stop-color="#0093D2"/>
<stop offset="1" stop-color="#0093D2"/>
</linearGradient>
<linearGradient id="paint22_linear_130_813" x1="69.6744" y1="16.0776" x2="83.1044" y2="6.0976" gradientUnits="userSpaceOnUse">
<stop stop-color="#0093D2"/>
<stop offset="0.01" stop-color="#0093D2"/>
<stop offset="0.38" stop-color="#0093D2"/>
<stop offset="0.63" stop-color="#0093D2"/>
<stop offset="0.97" stop-color="#0093D2"/>
<stop offset="1" stop-color="#0093D2"/>
</linearGradient>
<linearGradient id="paint23_linear_130_813" x1="40.6475" y1="28.1976" x2="71.3675" y2="14.7676" gradientUnits="userSpaceOnUse">
<stop stop-color="#0093D2"/>
<stop offset="0.52" stop-color="#0093D2"/>
<stop offset="0.78" stop-color="#0093D2"/>
<stop offset="1" stop-color="#0093D2"/>
</linearGradient>
<linearGradient id="paint24_linear_130_813" x1="44.2028" y1="69.0376" x2="52.8828" y2="65.8476" gradientUnits="userSpaceOnUse">
<stop stop-color="#0093D2"/>
<stop offset="0.5" stop-color="#0093D2"/>
</linearGradient>
<linearGradient id="paint25_linear_130_813" x1="78.7369" y1="13.6476" x2="96.4969" y2="10.1976" gradientUnits="userSpaceOnUse">
<stop stop-color="#0093D2"/>
<stop offset="0.5" stop-color="#0093D2"/>
<stop offset="1" stop-color="#0093D2"/>
</linearGradient>
<linearGradient id="paint26_linear_130_813" x1="31.2653" y1="77.0176" x2="44.0353" y2="53.2776" gradientUnits="userSpaceOnUse">
<stop stop-color="#0093D2"/>
<stop offset="0.29" stop-color="#0093D2"/>
</linearGradient>
<linearGradient id="paint27_linear_130_813" x1="3.86688" y1="73.9377" x2="39.5869" y2="48.7977" gradientUnits="userSpaceOnUse">
<stop stop-color="#0093D2"/>
<stop offset="0.24" stop-color="#0093D2"/>
<stop offset="0.68" stop-color="#0093D2"/>
<stop offset="1" stop-color="#0093D2"/>
</linearGradient>
<linearGradient id="paint28_linear_130_813" x1="10.6345" y1="33.2477" x2="46.4145" y2="11.4377" gradientUnits="userSpaceOnUse">
<stop stop-color="#0093D2"/>
<stop offset="0.44" stop-color="#0093D2"/>
<stop offset="0.77" stop-color="#0093D2"/>
<stop offset="1" stop-color="#0093D2"/>
</linearGradient>
<linearGradient id="paint29_linear_130_813" x1="119.157" y1="59.5376" x2="116.757" y2="62.3976" gradientUnits="userSpaceOnUse">
<stop stop-color="#0093D2"/>
<stop offset="1" stop-color="#0093D2"/>
</linearGradient>
<clipPath id="clip0_130_813">
<rect width="150.11" height="92.13" fill="white" transform="translate(0.835938 0.0976562)"/>
</clipPath>
</defs>
</svg>
