<svg width="79" height="79" viewBox="0 0 79 79" fill="none" xmlns="http://www.w3.org/2000/svg">
<path d="M23.4306 10.9127C28.3915 8.03509 34.0265 6.52379 39.7616 6.53275C57.8008 6.53275 72.4236 21.1947 72.4236 39.2796C72.4236 65.9056 45.7649 47.0956 40.6174 55.284C39.3272 57.3351 40.7219 59.8893 42.4301 61.6041C43.4553 62.6326 44.0309 64.0256 44.0309 65.4778C44.0309 66.93 43.4553 68.3229 42.4301 69.3515C40.7219 71.0662 38.3963 72.0885 35.9957 71.8109C19.73 69.9394 7.09966 56.0875 7.09966 39.2796C7.08992 33.5159 8.60557 27.8522 11.4927 22.8637" stroke="#72BE44" stroke-width="4.34" stroke-linecap="round"/>
<path d="M57.7255 42.4612C60.4313 42.4612 62.6248 40.2677 62.6248 37.5619C62.6248 34.8561 60.4313 32.6626 57.7255 32.6626C55.0197 32.6626 52.8262 34.8561 52.8262 37.5619C52.8262 40.2677 55.0197 42.4612 57.7255 42.4612Z" stroke="#72BE44" stroke-width="4.34"/>
<path d="M21.7977 42.4612C24.5035 42.4612 26.697 40.2677 26.697 37.5619C26.697 34.8561 24.5035 32.6626 21.7977 32.6626C19.0919 32.6626 16.8984 34.8561 16.8984 37.5619C16.8984 40.2677 19.0919 42.4612 21.7977 42.4612Z" stroke="#72BE44" stroke-width="4.34"/>
<path d="M36.7732 22.8636C36.7732 24.163 36.257 25.4092 35.3382 26.328C34.4194 27.2468 33.1733 27.7629 31.8739 27.7629C30.5745 27.7629 29.3284 27.2468 28.4096 26.328C27.4908 25.4092 26.9746 24.163 26.9746 22.8636C26.9746 21.5643 27.4908 20.3181 28.4096 19.3993C29.3284 18.4805 30.5745 17.9644 31.8739 17.9644C33.1733 17.9644 34.4194 18.4805 35.3382 19.3993C36.257 20.3181 36.7732 21.5643 36.7732 22.8636ZM52.8265 22.8636C52.8265 24.163 52.3104 25.4092 51.3916 26.328C50.4728 27.2468 49.2266 27.7629 47.9272 27.7629C46.6279 27.7629 45.3817 27.2468 44.4629 26.328C43.5441 25.4092 43.028 24.163 43.028 22.8636C43.028 21.5643 43.5441 20.3181 44.4629 19.3993C45.3817 18.4805 46.6279 17.9644 47.9272 17.9644C49.2266 17.9644 50.4728 18.4805 51.3916 19.3993C52.3104 20.3181 52.8265 21.5643 52.8265 22.8636Z" stroke="#72BE44" stroke-width="4.34"/>
</svg>
