<svg width="99" height="99" viewBox="0 0 99 99" fill="none" xmlns="http://www.w3.org/2000/svg">
<g clip-path="url(#clip0_354_821)">
<path d="M98.2622 66.1835C98.0247 65.7698 97.4233 65.356 96.9521 65.3216C95.4389 65.2143 93.9142 65.2794 92.3091 65.2794C92.3091 64.1417 92.3321 63.1265 92.3053 62.1152C92.2555 60.4373 91.0871 59.2306 89.4169 59.1578C88.3979 59.1118 87.375 59.1195 86.356 59.1463C84.5096 59.1999 83.3374 60.399 83.3144 62.2377C83.2991 63.2146 83.3106 64.1915 83.3106 65.1951H80.0582V64.0727C80.0582 60.9812 80.0659 57.8898 80.0544 54.7983C80.0505 52.6799 78.8668 51.5 76.7407 51.4732C75.9439 51.4617 75.1471 51.4617 74.3503 51.4732C72.2012 51.5 71.0596 52.6454 71.0558 54.7945C71.0443 57.9166 71.052 61.0425 71.052 64.1646V65.2219H60.1303V63.9578C60.1303 48.8184 60.1303 33.6791 60.1265 18.5397C60.1265 18.0953 60.1342 17.6433 60.0614 17.2066C59.8468 15.9118 59.0884 14.9579 57.8089 14.797C56.3723 14.6208 54.8745 14.6016 53.4417 14.7894C51.8711 14.9962 51.1164 16.2834 51.1126 18.2294V65.1951H47.8488V4.89055C47.8488 4.47299 47.8602 4.05926 47.8219 3.64553C47.6879 2.06724 46.5195 0.933321 44.9412 0.883521C43.8915 0.849043 42.8304 0.795412 41.7884 0.906506C41.1563 0.971629 40.4821 1.22446 39.9573 1.58456C38.9383 2.28943 38.8234 3.41185 38.8234 4.57259C38.8349 24.3319 38.831 44.095 38.831 63.8544V65.1951H27.9094V64.0765C27.9094 58.4376 27.9094 52.7948 27.9056 47.152C27.9056 44.957 26.7525 43.8154 24.5421 43.7962C23.8411 43.7886 23.14 43.7924 22.439 43.7962C20.0639 43.8039 18.907 44.9455 18.907 47.3014C18.9032 52.8791 18.9032 58.4567 18.9032 64.0344V65.2028H15.6508V44.4934C15.6508 44.2061 15.6661 43.9188 15.6393 43.6315C15.5627 42.8155 15.0915 42.3367 14.287 42.2946C13.4749 42.2563 12.9731 42.7198 12.8083 43.5051C12.7471 43.8116 12.7777 44.141 12.7777 44.459C12.7739 50.9943 12.7739 57.5259 12.7739 64.0612V65.199H9.59813V35.989H12.7241C12.7432 36.2917 12.7662 36.5407 12.7739 36.7897C12.7854 37.077 12.7585 37.3681 12.793 37.6516C12.8926 38.4752 13.4826 39.0001 14.2641 38.9809C15.0455 38.9618 15.5895 38.4178 15.6431 37.5673C15.67 37.123 15.6546 36.6748 15.6508 36.2304C15.624 34.338 14.4556 33.1236 12.567 33.0546C11.8047 33.0278 11.0385 33.0508 10.2724 33.0508C7.77083 33.0546 6.64841 34.1732 6.64841 36.6594V65.2334C6.31896 65.2526 6.13508 65.2717 5.94737 65.2717C4.60659 65.2794 3.26963 65.2641 1.93268 65.2947C1.10906 65.3101 0.637867 65.7966 0.542097 66.5934C0.446327 67.348 0.994132 67.9916 1.81393 68.118C2.15487 68.1717 2.51113 68.1525 2.86357 68.1525H96.0786C96.3966 68.1525 96.7375 68.2138 97.0287 68.1257C97.4079 68.0108 97.9098 67.8614 98.0745 67.5702C98.2967 67.1795 98.4499 66.5168 98.2622 66.1835ZM24.9558 65.2219H21.8414V46.7421H24.9558V65.2219ZM43.8762 65.2909C43.2173 65.2143 42.5469 65.2756 41.7616 65.2756V3.81792H44.9105C44.9297 4.13205 44.968 4.46533 44.968 4.80244C44.9718 24.5924 44.968 44.3862 44.9871 64.1761C44.9871 65.0457 44.7726 65.3905 43.8762 65.2909ZM57.1615 65.2143H54.047V17.6127H57.1615V65.2143ZM77.1123 65.2181H73.9979V54.4076H77.1123V65.2181ZM89.39 65.2411H86.2679V62.0807H89.39V65.2411Z" fill="#72BE44"/>
<path d="M49.5233 86.7407C51.0824 86.7407 52.6454 86.7254 54.2045 86.7407C58.0047 86.7905 61.1651 89.6291 61.5597 93.4254C61.6938 94.6858 61.667 95.9691 61.644 97.2409C61.6248 98.214 61.0119 98.8039 60.1806 98.7886C59.3493 98.7733 58.8168 98.1757 58.79 97.1835C58.767 96.3254 58.79 95.4634 58.7785 94.6053C58.7287 91.5254 56.8018 89.6176 53.7295 89.6138C50.8641 89.61 47.9986 89.6061 45.1332 89.6138C42.1911 89.6215 40.2413 91.5445 40.1761 94.5019C40.157 95.36 40.1838 96.2219 40.1685 97.08C40.1493 98.145 39.6322 98.7694 38.7779 98.7886C37.9198 98.8077 37.3145 98.1871 37.3069 97.1528C37.2954 95.881 37.2685 94.5977 37.4065 93.3373C37.8125 89.6138 40.9883 86.7905 44.7463 86.7407C46.3399 86.7177 47.9297 86.7407 49.5233 86.7407Z" fill="#72BE44"/>
<path d="M29.4331 95.4216C29.4331 96.0575 29.4561 96.6972 29.4293 97.3332C29.3909 98.1798 28.8431 98.7506 28.0885 98.7927C27.2955 98.8348 26.6404 98.2679 26.5868 97.3868C26.5293 96.4674 26.5715 95.5403 26.5638 94.6171C26.5408 91.5218 24.6331 89.6217 21.5493 89.6179C18.6838 89.6141 15.8184 89.6141 12.9529 89.6179C9.96491 89.6256 8.01503 91.5908 7.99588 94.598C7.99205 95.5212 8.01886 96.4444 7.98056 97.3676C7.94608 98.1989 7.35996 98.7697 6.60146 98.7965C5.84296 98.8195 5.15342 98.2679 5.14576 97.4557C5.1266 95.9617 5.05765 94.4447 5.2875 92.9814C5.86212 89.3383 8.96124 86.7716 12.6426 86.7448C15.6039 86.7218 18.5651 86.7371 21.5263 86.741C26.1961 86.7486 29.3948 89.9091 29.4407 94.5635C29.4407 94.8508 29.4407 95.1381 29.4407 95.4216H29.4369H29.4331Z" fill="#72BE44"/>
<path d="M81.7404 86.7409C83.2689 86.7409 84.7974 86.7255 86.3259 86.7409C90.4287 86.783 93.7232 90.02 93.8343 94.1152C93.8611 95.1342 93.8573 96.1532 93.8381 97.1722C93.819 98.1797 93.2099 98.8232 92.3518 98.7887C91.532 98.7581 90.9918 98.1375 90.9727 97.1645C90.9573 96.2106 90.9842 95.2529 90.9612 94.299C90.8999 91.606 88.8925 89.6293 86.1918 89.614C83.1655 89.5986 80.143 89.5986 77.1166 89.614C74.4542 89.6293 72.4699 91.583 72.4047 94.2378C72.3817 95.1916 72.4124 96.1493 72.3894 97.1032C72.3664 98.1452 71.811 98.7811 70.9567 98.7887C70.1024 98.8002 69.5086 98.1605 69.5278 97.13C69.5546 95.6054 69.4627 94.0462 69.7538 92.5675C70.4357 89.1543 73.4774 86.7792 76.9596 86.737C78.5532 86.7179 80.143 86.737 81.7366 86.737L81.7404 86.7409Z" fill="#72BE44"/>
<path d="M81.7091 71.4121C78.3609 71.4007 75.6755 74.0401 75.6564 77.3729C75.6334 80.744 78.338 83.483 81.6861 83.4754C84.9768 83.4677 87.7043 80.7363 87.712 77.4418C87.7196 74.132 85.0266 71.4275 81.7091 71.4121ZM81.7052 80.5984C79.9775 80.6214 78.5448 79.2117 78.5295 77.4687C78.5142 75.6988 79.8741 74.3082 81.6363 74.2929C83.3946 74.2776 84.8159 75.6528 84.835 77.3959C84.858 79.1082 83.4214 80.5754 81.7052 80.5984Z" fill="#72BE44"/>
<path d="M17.3105 71.4161C13.9853 71.4046 11.2731 74.0785 11.2501 77.3845C11.2272 80.7173 13.9892 83.4908 17.3143 83.4754C20.628 83.4601 23.3095 80.7556 23.3095 77.4304C23.3057 74.09 20.6509 71.4237 17.3105 71.4161ZM17.3143 80.5985C15.6019 80.6138 14.1386 79.1734 14.1232 77.4572C14.1079 75.7181 15.5177 74.3007 17.2645 74.2892C19.0305 74.2815 20.4211 75.6491 20.4326 77.4074C20.4403 79.1581 19.0497 80.5832 17.3143 80.5985Z" fill="#72BE44"/>
<path d="M49.1447 71.4249C50.2097 71.3981 50.8418 71.8731 50.8916 72.7465C50.9414 73.6161 50.3821 74.1716 49.3248 74.2942C47.4936 74.5087 46.2869 75.8035 46.3329 77.5082C46.375 79.1363 47.6507 80.4694 49.2826 80.5959C50.9452 80.7223 52.3588 79.5194 52.6078 77.7189C52.7035 77.0255 52.8376 76.3858 53.5731 76.1023C54.6113 75.7001 55.5537 76.5046 55.5 77.7342C55.3736 80.661 53.1671 83.0169 50.1599 83.4383C47.4553 83.8176 44.6512 82.0209 43.7586 79.3432C42.5059 75.5813 45.2641 71.5322 49.1447 71.4287V71.4249Z" fill="#72BE44"/>
</g>
<defs>
<clipPath id="clip0_354_821">
<rect width="97.8159" height="97.9538" fill="white" transform="translate(0.53125 0.841797)"/>
</clipPath>
</defs>
</svg>
