<svg width="84" height="84" viewBox="0 0 84 84" fill="none" xmlns="http://www.w3.org/2000/svg">
<g clip-path="url(#clip0_348_814)">
<path d="M74.2367 64.4023C72.4034 64.3777 70.5667 64.3988 68.5967 64.3988V63.3575C68.5967 60.5564 68.6037 57.7587 68.5967 54.9611C68.5932 53.6954 68.1095 53.2011 66.8616 53.2011C63.3634 53.1941 59.8651 53.1941 56.3669 53.1976C55.0699 53.2011 54.6002 53.6849 54.5967 55.0101C54.5932 57.8113 54.5967 60.609 54.5967 63.4066V64.3287H49.0023C49.0023 61.1419 49.0058 58.0252 49.0023 54.905C48.9988 53.706 48.5011 53.2011 47.3023 53.2011C43.776 53.1941 40.2462 53.1941 36.7199 53.2011C35.5106 53.2011 35.0128 53.6954 35.0058 54.8909C34.9953 56.2617 35.0023 57.6325 35.0023 58.9998V64.3392H28.0093C28.0093 61.1699 28.0128 58.0567 28.0058 54.94C28.0058 53.6884 27.5116 53.2011 26.2532 53.2011C22.755 53.1941 19.2567 53.1941 15.7585 53.2011C14.5001 53.2011 14.0128 53.6884 14.0093 54.9435C14.0023 57.7727 14.0058 60.5984 14.0058 63.4277V64.4058C12.4004 64.4058 10.9142 64.3707 9.43147 64.4128C3.31129 64.5951 -1.18245 70.527 0.28275 76.4624C1.41845 81.048 5.26723 83.9964 10.1641 83.9964C31.3849 84.0035 52.6057 84 73.8301 84C74.1491 84 74.4715 83.9964 74.7905 83.9789C79.7084 83.73 83.799 79.5861 83.9848 74.6674C84.1951 69.037 79.8801 64.4794 74.2402 64.4023H74.2367ZM57.464 56.0023H60.1491V58.7439H62.9638V56.0724H65.7364V64.3497H57.464V56.0023ZM37.8591 56.0444H40.6037V58.7509H43.3554V56.0619H46.1491V64.3287H37.8591V56.0444ZM16.8556 56.0689H19.5617V58.7614H22.3764V56.0549H25.1315V64.3392H16.8556V56.0689ZM74.2717 81.1813C69.6939 81.2303 65.116 81.1953 60.5381 81.1953H41.9112C31.2692 81.1953 20.6273 81.2023 9.98881 81.1883C5.85261 81.1848 2.72592 78.026 2.81705 73.9978C2.89767 70.4008 5.82456 67.3928 9.42446 67.214C9.65581 67.2035 9.89066 67.2035 10.122 67.2035C31.3744 67.2 52.6268 67.2 73.8791 67.2035C77.5141 67.2035 80.3744 69.4507 81.0334 72.7883C81.8887 77.1355 78.7024 81.1357 74.2717 81.1813Z" fill="#72BE44"/>
<path d="M54.8228 9.81296C54.297 9.66922 53.7677 9.5395 53.1648 9.38174C53.4628 8.86988 53.7151 8.41763 53.985 7.97589C54.4232 7.2572 54.3846 6.59109 53.7887 5.98808C52.5339 4.72598 51.279 3.46738 50.0136 2.21229C49.4142 1.61629 48.7447 1.57773 48.0296 2.01947C47.5879 2.29292 47.1358 2.54885 46.631 2.84685C46.4838 2.29643 46.3541 1.82665 46.2279 1.35336C45.9475 0.322639 45.5584 0.0106186 44.4998 0.00360689C42.8103 -0.0034048 41.1172 0.0141244 39.4277 0.000101043C38.5829 -0.00691064 38.0361 0.350685 37.8153 1.17105C37.6716 1.70043 37.5419 2.23332 37.3841 2.83983C36.8268 2.5173 36.3361 2.2193 35.8278 1.93883C35.1969 1.59175 34.5834 1.64084 34.0612 2.15269C32.7537 3.43933 31.4532 4.74 30.1633 6.04768C29.6235 6.5981 29.592 7.23266 29.967 7.89175C30.2404 8.36504 30.5314 8.83132 30.8538 9.37122C30.272 9.52898 29.7812 9.67973 29.28 9.79192C28.4107 9.98825 27.9936 10.5141 28.0006 11.4046C28.0076 13.126 27.9936 14.8473 28.0041 16.5687C28.0111 17.5609 28.3476 17.9605 29.3326 18.2235C29.8093 18.3497 30.2825 18.4759 30.8398 18.6266C30.5664 19.0964 30.3175 19.5171 30.0722 19.9413C29.5359 20.8739 29.5849 21.3717 30.3281 22.1255C31.4953 23.3105 32.6696 24.4849 33.8508 25.6559C34.636 26.4307 35.1303 26.4797 36.1082 25.9083C36.5183 25.6699 36.9285 25.428 37.4613 25.116C37.619 27.1353 38.264 28.5061 40.5985 27.9452C40.5985 28.8041 40.5704 29.5298 40.609 30.2485C40.6405 30.7989 40.4898 31.1039 39.9535 31.3914C38.597 32.1171 37.7277 33.3407 37.8503 34.8657C38.0081 36.8185 37.3596 38.3716 36.1853 39.816C35.8769 40.2016 35.6385 40.6433 35.3546 41.0465C34.9655 41.6004 34.9059 42.1614 35.2144 42.7714C36.1082 44.5418 36.9775 46.3193 37.8784 48.0827C38.32 48.9452 39.0912 49.2186 39.8308 48.84C40.5739 48.4544 40.7948 47.6971 40.3741 46.8171C39.8974 45.818 39.4873 44.7662 38.8669 43.8617C38.0081 42.6101 38.1728 41.632 39.0632 40.454C39.7116 39.5951 40.297 39.234 41.4187 39.1393C43.4167 38.9746 44.7206 39.5741 45.5514 41.4041C45.7862 41.923 45.9335 42.2841 45.6425 42.8205C44.9485 44.1001 44.314 45.4113 43.6691 46.719C43.2064 47.662 43.3886 48.4263 44.1458 48.8295C44.9275 49.2432 45.6951 48.9206 46.1894 47.946C46.7993 46.754 47.3917 45.5515 47.9875 44.3525C49.3616 41.5689 49.4422 42.1824 47.6686 39.6196C46.7011 38.2208 46.0246 36.85 46.1613 35.055C46.291 33.3512 45.3726 32.0645 43.8478 31.2477C43.6726 31.1495 43.4342 30.9497 43.4272 30.7884C43.3886 29.8699 43.4097 28.9478 43.4097 27.8996C45.8844 28.5692 46.3225 26.967 46.5854 25.13C47.1638 25.4771 47.63 25.761 48.1067 26.0345C48.7622 26.4131 49.4037 26.3886 49.9505 25.8487C51.2615 24.5585 52.5584 23.2614 53.8448 21.9502C54.3846 21.3998 54.4057 20.7582 54.0271 20.1026C53.7537 19.6293 53.4698 19.1595 53.1543 18.6302C53.7712 18.4689 54.304 18.3392 54.8298 18.1954C55.601 17.9816 56.0041 17.4802 56.0006 16.6669V11.331C56.0006 10.5176 55.594 10.0233 54.8228 9.81296ZM43.3851 36.3662H40.6475C40.637 35.4687 40.3005 34.4906 41.2189 33.9086C41.5834 33.6772 42.267 33.6387 42.6525 33.828C43.7146 34.3433 43.3501 35.3916 43.3851 36.3662ZM53.1718 15.7098C52.3831 15.9061 51.598 16.0919 50.8198 16.3023C49.6385 16.6213 49.2529 17.5118 49.8453 18.5776C50.2414 19.2857 50.6726 19.9764 51.1002 20.6951C50.273 21.4699 49.4668 22.2236 48.5975 23.037C48.0331 22.7004 47.3671 22.2938 46.6871 21.9081C45.4813 21.2175 44.633 21.5891 44.2755 22.9529C44.0827 23.6821 43.8969 24.4113 43.7006 25.165H40.3005C40.1042 24.3832 39.9184 23.5944 39.7046 22.8161C39.3786 21.6347 38.4918 21.256 37.4297 21.8485C36.7216 22.2482 36.0311 22.6794 35.3371 23.0966C34.5344 22.2797 33.7632 21.4909 32.936 20.6495C33.269 20.0851 33.637 19.461 34.0016 18.8405C34.8113 17.4627 34.4958 16.6634 32.971 16.2567C32.2735 16.0674 31.5689 15.8886 30.8433 15.6958V12.3126C31.5654 12.1233 32.291 11.9375 33.0131 11.7447C34.4748 11.352 34.8008 10.5246 34.0261 9.20294C33.6581 8.5789 33.2865 7.95486 32.9184 7.33783C33.7317 6.53499 34.5168 5.7602 35.3651 4.92581C36.0031 5.30795 36.6866 5.73566 37.3912 6.13533C38.4953 6.76638 39.3786 6.38424 39.7151 5.14668C39.8238 4.75402 39.9149 4.35786 40.0166 3.9617C40.1077 3.5971 40.2024 3.23599 40.304 2.84334H43.7006C43.8969 3.62164 44.0827 4.40695 44.2965 5.18524C44.6225 6.37022 45.5023 6.74885 46.5714 6.15987C47.283 5.76721 47.9735 5.3395 48.6746 4.92581C49.4668 5.73566 50.2344 6.52097 51.0722 7.37289C50.7006 7.99693 50.273 8.68407 49.8769 9.38875C49.2494 10.4966 49.6315 11.3836 50.8619 11.7166C51.5664 11.9059 52.2745 12.0742 52.979 12.2565C53.0316 12.2706 53.0772 12.3056 53.1718 12.3547V15.7098Z" fill="#72BE44"/>
<path d="M83.798 12.7267C83.2547 10.9948 81.6563 9.80984 79.7634 9.80634C72.9702 9.79582 66.177 9.80283 59.3839 9.80634C59.1911 9.80634 58.9983 9.85191 58.8125 9.87645V12.6075H79.129C79.4199 12.6075 79.7179 12.583 79.9983 12.6356C80.7134 12.7758 81.127 13.228 81.1795 13.9573C81.2286 14.6409 80.7134 15.2544 80.0088 15.3736C79.7214 15.4192 79.4269 15.4017 79.136 15.4017H58.8546V18.2169H69.9943C69.9943 21.025 70.0083 23.707 69.9697 26.3855C69.9662 26.6344 69.6648 26.9639 69.4194 27.1112C68.0629 27.9175 67.127 29.0955 67.2497 30.6521C67.4004 32.6048 66.7484 34.1544 65.5917 35.6058C65.2657 36.016 64.8941 36.4402 64.7399 36.9205C64.5751 37.4289 64.4419 38.0985 64.6417 38.5437C65.4409 40.3527 66.3663 42.1057 67.2672 43.8691C67.7088 44.735 68.4695 45.019 69.2091 44.6474C69.9592 44.2723 70.1906 43.5045 69.7769 42.6315C69.3283 41.685 68.9357 40.6928 68.3538 39.8304C67.46 38.4946 67.4845 37.4008 68.5431 36.1177C69.174 35.3499 69.6823 34.9467 70.7164 34.9748C73.5521 35.0589 73.5661 34.9993 75.0383 37.4289C75.1926 37.6848 75.2101 38.1546 75.0839 38.4315C74.453 39.8058 73.7449 41.1451 73.0789 42.5053C72.5987 43.487 72.802 44.2758 73.6152 44.6579C74.3793 45.0225 75.1049 44.7035 75.5852 43.7639C76.2722 42.4107 76.8471 40.9943 77.6427 39.7147C78.5191 38.3018 78.5015 37.1169 77.4009 35.8512C76.0864 34.3402 75.3678 32.6469 75.5326 30.5259C75.6483 29.0534 74.7404 27.8614 73.4049 27.1638C72.9001 26.8973 72.781 26.6063 72.788 26.0875C72.816 24.1347 72.7985 22.1785 72.7985 20.2257V18.2063C75.1645 18.2063 77.4114 18.28 79.6442 18.1678C80.5311 18.1257 81.502 17.8312 82.2487 17.3579C83.791 16.3798 84.3448 14.4586 83.798 12.7267ZM72.7634 32.079C72.7003 32.1105 72.6302 32.1806 72.5566 32.1806C71.7504 32.1876 70.9407 32.1876 70.0819 32.1876C69.8506 30.3085 70.2677 29.4391 71.3648 29.4145C72.4444 29.3865 72.8616 30.1718 72.7634 32.079Z" fill="#72BE44"/>
<path d="M4.04309 12.6279C4.32702 12.5788 4.62497 12.6069 4.9159 12.6069H25.1377V9.86179C24.9625 9.83374 24.8783 9.8057 24.7907 9.8057C17.8819 9.8057 10.9695 9.78466 4.06062 9.81621C1.82427 9.82673 0.0400894 11.7199 0.0120473 13.9391C-0.0159947 16.2074 1.75416 18.111 4.01856 18.1917C5.26993 18.2408 6.52482 18.2057 7.7797 18.2057H11.2043C11.2043 21.0314 11.2184 23.7379 11.1833 26.4479C11.1798 26.6723 10.8854 26.9668 10.654 27.1C9.25541 27.9134 8.34054 29.1159 8.45271 30.7145C8.58591 32.5937 8.02156 34.1152 6.85782 35.5105C6.54585 35.8892 6.32151 36.3414 6.02707 36.7376C5.56087 37.3686 5.5153 37.9892 5.87985 38.6938C6.74915 40.3766 7.57289 42.0805 8.42817 43.7703C8.90138 44.7064 9.63749 45.0219 10.4051 44.6503C11.2078 44.2611 11.4041 43.4758 10.9204 42.4907C10.2649 41.1549 9.61295 39.8192 8.91891 38.5045C8.68406 38.0593 8.79622 37.7578 8.98551 37.3196C9.83378 35.3773 11.2359 34.599 13.3145 34.9987C13.5669 35.0478 13.8368 34.9987 14.0997 35.0057C14.7166 35.0197 16.627 37.5089 16.4692 38.1084C16.4167 38.3012 16.301 38.48 16.2098 38.6623C15.5719 39.9384 14.9269 41.211 14.2995 42.4907C13.8122 43.4793 14.0085 44.2646 14.8112 44.6538C15.5789 45.0219 16.315 44.7099 16.7917 43.7738C17.4647 42.4486 18.0115 41.0463 18.8107 39.8052C19.7747 38.2977 19.673 37.0356 18.5198 35.7139C17.2614 34.273 16.5954 32.6498 16.7532 30.6269C16.8723 29.0738 15.954 27.8503 14.5519 27.1246C14.1102 26.8967 13.998 26.6408 14.0015 26.185C14.0261 24.4636 14.012 22.7423 14.012 21.0244V18.1636H24.98V15.401H4.9159C4.62497 15.401 4.32702 15.4291 4.04309 15.3765C3.28946 15.2398 2.83378 14.777 2.83378 14.0022C2.83378 13.2274 3.28946 12.7646 4.04309 12.6279ZM11.8283 29.7049C12.1893 29.477 12.8763 29.4384 13.2619 29.6277C14.3205 30.1466 13.9595 31.1948 13.9875 32.166H11.2534C11.2464 31.265 10.9064 30.2868 11.8283 29.7049Z" fill="#72BE44"/>
<path d="M14.0644 69.9981C11.7229 69.9841 9.81602 71.8632 9.81252 74.1876C9.80551 76.4769 11.6703 78.3701 13.9557 78.3946C16.2832 78.4192 18.1901 76.54 18.2076 74.2051C18.2216 71.9193 16.3393 70.0121 14.0644 69.9981ZM13.9768 75.5899C13.2231 75.5724 12.6027 74.9238 12.6167 74.1701C12.6343 73.4128 13.2827 72.7888 14.0364 72.8063C14.7935 72.8238 15.4139 73.4724 15.3964 74.2262C15.3789 74.9799 14.7304 75.604 13.9768 75.5899Z" fill="#72BE44"/>
<path d="M28.0011 69.9981C25.6666 70.0121 23.7843 71.9193 23.8088 74.2472C23.8299 76.5295 25.7227 78.3981 28.0151 78.3946C30.3356 78.3911 32.2179 76.4839 32.2039 74.142C32.1899 71.8667 30.283 69.9841 28.0011 69.9981ZM28.0292 75.5899C27.2755 75.604 26.6271 74.9799 26.613 74.2227C26.599 73.4689 27.223 72.8203 27.9801 72.8063C28.7337 72.7923 29.3822 73.4163 29.3962 74.1736C29.4067 74.9273 28.7828 75.5724 28.0292 75.5899Z" fill="#72BE44"/>
<path d="M42.0496 69.9981C39.7115 69.9876 37.8082 71.8737 37.8047 74.1981C37.8047 76.4839 39.673 78.3735 41.9584 78.3946C44.2859 78.4156 46.1893 76.5295 46.1998 74.1946C46.2103 71.9123 44.3245 70.0086 42.0496 69.9981ZM41.9689 75.5899C41.2153 75.5724 40.5949 74.9238 40.6089 74.1665C40.6264 73.4128 41.2784 72.7887 42.032 72.8063C42.7892 72.8238 43.4096 73.4759 43.3921 74.2261C43.371 74.9834 42.7226 75.6039 41.9689 75.5899Z" fill="#72BE44"/>
<path d="M56.0072 69.9981C53.6692 70.0086 51.7834 71.9087 51.8009 74.2366C51.8184 76.5189 53.7078 78.3911 55.9967 78.3946C58.3207 78.3946 60.2065 76.4944 60.196 74.156C60.189 71.8772 58.2856 69.9911 56.0072 69.9981ZM56.0318 75.5899C55.2781 75.6074 54.6261 74.9904 54.6086 74.2296C54.5876 73.4759 55.208 72.8238 55.9652 72.8062C56.7188 72.7852 57.3708 73.4092 57.3883 74.163C57.4058 74.9168 56.7854 75.5688 56.0318 75.5899Z" fill="#72BE44"/>
<path d="M70.0351 69.9981C67.6971 69.9911 65.7973 71.8772 65.8008 74.2051C65.8008 76.4909 67.6726 78.377 69.958 78.3946C72.2855 78.4121 74.1854 76.5259 74.1924 74.1875C74.2029 71.9052 72.3136 70.0051 70.0351 69.9981ZM69.9826 75.5899C69.2254 75.5829 68.598 74.9413 68.605 74.184C68.612 73.4303 69.2535 72.7992 70.0071 72.8062C70.7642 72.8133 71.3952 73.4548 71.3847 74.2086C71.3776 74.9658 70.7362 75.5934 69.9826 75.5899Z" fill="#72BE44"/>
<path d="M42.067 8.40264C38.9648 8.37109 36.42 10.8672 36.4025 13.9594C36.3814 17.0621 38.8842 19.5933 41.9793 19.6038C45.0394 19.6143 47.5702 17.1322 47.6018 14.0891C47.6333 10.9794 45.1551 8.43419 42.067 8.40264ZM42.0214 16.7956C40.4581 16.8026 39.1821 15.5125 39.2102 13.9559C39.2347 12.4344 40.5071 11.1968 42.0249 11.2108C43.5532 11.2283 44.7906 12.4799 44.7941 14.0085C44.7941 15.5195 43.5322 16.7921 42.0214 16.7956Z" fill="#72BE44"/>
</g>
<defs>
<clipPath id="clip0_348_814">
<rect width="84" height="84" fill="white"/>
</clipPath>
</defs>
</svg>
