<svg width="83" height="83" viewBox="0 0 83 83" fill="none" xmlns="http://www.w3.org/2000/svg">
<g clip-path="url(#clip0_325_575)">
<path d="M82.7981 41.6419C82.721 39.7712 81.4803 38.2251 79.7253 37.7847C79.3942 37.7012 79.0471 37.669 78.6839 37.6112C78.6581 37.3701 78.626 37.1612 78.6131 36.9522C78.4299 34.1172 77.9928 31.324 77.1828 28.5983C75.0228 21.3501 71.0371 15.304 65.2128 10.4793C62.0338 7.85004 58.4917 5.85075 54.6377 4.38182C54.326 4.26289 53.9917 3.92218 53.8824 3.61039C53.246 1.82003 51.806 0.685385 49.8999 0.678956C44.442 0.65967 38.9841 0.65967 33.5327 0.675742C31.6652 0.685385 30.1706 1.80074 29.6338 3.5686C29.4891 4.05075 29.2288 4.24682 28.8077 4.41718C27.6473 4.88968 26.4709 5.34289 25.3588 5.91504C14.533 11.4661 7.89873 20.2251 5.44944 32.1308C5.08301 33.9244 4.95765 35.7662 4.71979 37.6047C4.62658 37.6305 4.52372 37.6658 4.42086 37.6819C1.99407 38.0547 0.666571 39.6008 0.647285 42.0662C0.640856 42.9244 0.611928 43.7826 0.660142 44.6344C0.756571 46.2962 1.55693 47.5594 3.09336 48.2055C3.78122 48.498 4.59765 48.5976 5.35622 48.6008C29.6113 48.6201 53.8695 48.6169 78.1246 48.6137C78.3914 48.6137 78.6614 48.6073 78.9249 48.5783C81.3131 48.3148 82.7756 46.698 82.8046 44.2873C82.8174 43.4065 82.8303 42.5226 82.7949 41.6387L82.7981 41.6419ZM13.8355 19.1933C17.7762 13.6551 22.9384 9.64683 29.3863 7.13004V8.10397C29.3863 15.4326 29.3831 22.7579 29.3895 30.0865C29.3895 30.4304 29.3959 30.7872 29.4795 31.1183C29.6627 31.8383 30.1609 32.1951 30.9002 32.1308C31.6009 32.0665 32.0123 31.6454 32.1023 30.9479C32.1441 30.6297 32.1313 30.3083 32.1313 29.9869C32.1345 21.829 32.1345 13.6743 32.1345 5.51646C32.1345 3.79039 32.5234 3.4111 34.272 3.4111C36.0109 3.40789 37.7466 3.4111 39.4856 3.4111H40.347V4.52646C40.347 13.9122 40.347 23.3011 40.347 32.6869C40.347 33.0854 40.3502 33.4969 40.437 33.8794C40.5881 34.5319 41.0509 34.8694 41.7163 34.8726C42.3816 34.8758 42.8509 34.5415 43.0052 33.8922C43.0984 33.5097 43.0984 33.0983 43.0984 32.6997C43.1049 23.314 43.1016 13.9251 43.1016 4.53932V3.41432C45.4577 3.41432 47.6724 3.39182 49.887 3.42718C50.7324 3.43682 51.1952 3.93825 51.2981 4.78361C51.3302 5.04718 51.3142 5.31718 51.3142 5.58397C51.3174 13.7676 51.3142 21.9511 51.3174 30.1347C51.3174 31.5297 51.7481 32.1565 52.6963 32.1469C53.622 32.1372 54.0624 31.4783 54.0624 30.0994C54.0656 22.7708 54.0656 15.4422 54.0656 8.11683V7.22325C65.1742 11.0611 75.3667 22.8254 75.8617 37.563H7.5773C7.86658 30.8129 9.9398 24.6801 13.8387 19.1933H13.8355ZM80.0628 44.3644C80.0274 45.2933 79.5517 45.7658 78.6131 45.8526C78.3753 45.8751 78.1342 45.8655 77.8931 45.8655H5.61015C3.71372 45.8655 3.38586 45.5312 3.38586 43.6058C3.38586 43.0433 3.36979 42.4808 3.39229 41.9183C3.43086 40.9444 3.90658 40.4655 4.88372 40.3915C5.17622 40.3722 5.47194 40.3851 5.76765 40.3851H41.7066C53.7152 40.3851 65.7238 40.3819 77.7292 40.3851C78.0249 40.3851 78.3206 40.3722 78.6099 40.3947C79.5485 40.4751 80.0274 40.9444 80.0628 41.8765C80.0949 42.7058 80.0949 43.5351 80.0628 44.3644Z" fill="#72BE44"/>
<path d="M81.0195 60.9188C79.5216 60.9027 78.0238 60.8963 76.5259 60.9252C76.0245 60.9349 75.777 60.7966 75.6163 60.292C74.8513 57.8556 73.2023 56.3063 70.7306 55.6827C70.0652 55.5156 69.358 55.4416 68.6702 55.4416C50.7248 55.4288 32.7826 55.432 14.8372 55.432C12.3976 55.432 10.3404 56.2516 8.8458 58.2509C7.97472 59.4145 7.54722 60.7452 7.50222 62.2913C5.73758 62.2913 4.08222 62.2881 2.42686 62.2945C1.12185 62.2977 0.649353 62.7767 0.649353 64.0977C0.642924 67.4663 0.642924 70.8381 0.649353 74.2067C0.649353 75.5149 1.11543 75.9713 2.44936 75.9777C3.97293 75.9874 5.49972 76.0163 7.02329 75.9649C7.69187 75.9424 7.97472 76.1706 8.23187 76.791C9.6558 80.1981 12.2112 82.3806 15.8883 82.6699C19.4465 82.9495 23.0433 82.7856 26.624 82.7278C28.7005 82.6956 30.674 82.0945 32.5673 81.2428C35.743 79.8092 38.2726 77.6235 40.2044 74.7242C41.2909 73.0913 42.1234 73.1299 43.2869 74.7402C43.9748 75.6917 44.6723 76.6528 45.4952 77.482C48.4748 80.4906 52.0748 82.3678 56.3112 82.6635C59.667 82.8981 63.0452 82.837 66.4105 82.8242C70.917 82.8081 74.7741 79.6453 75.7223 75.2417C75.8381 74.7145 76.0598 74.6213 76.5259 74.6277C78.0238 74.6502 79.5216 74.6438 81.0195 74.6342C82.3181 74.6245 82.8066 74.1295 82.8099 72.8277C82.8131 69.4592 82.8131 66.0874 82.8099 62.7188C82.8066 61.4106 82.3374 60.9317 81.0195 60.9188ZM7.45401 73.1845H3.42971V69.2052H7.45401V73.1845ZM6.37722 66.4056H3.41686V65.0781H7.38972C7.67258 66.3734 7.64687 66.4056 6.37722 66.4056ZM73.1927 73.1781C73.1348 77.0995 70.3641 79.9731 66.433 80.0695C63.148 80.1531 59.847 80.182 56.5748 79.9313C52.2548 79.6003 48.7962 77.4853 46.1412 74.0652C45.733 73.5381 45.3826 72.966 44.9809 72.4356C43.3126 70.2434 40.2109 70.2435 38.4944 72.4035C37.5173 73.6377 36.6173 74.9588 35.4891 76.0388C32.9337 78.4849 29.8223 79.8831 26.2737 80.002C22.8858 80.1145 19.4819 80.1435 16.1037 79.941C13.0533 79.761 10.4272 76.987 10.3244 73.927C10.1926 69.922 10.2376 65.9074 10.2987 61.8992C10.3276 60.0477 11.9154 58.4888 13.7669 58.267C14.2169 58.2124 14.6733 58.1899 15.1265 58.1866C24.0012 58.1866 32.8791 58.1866 41.7537 58.1866C50.6284 58.1866 59.6123 58.1963 68.5416 58.1834C70.3963 58.1802 71.9198 58.7588 72.762 60.5041C73.032 61.0602 73.1798 61.732 73.1863 62.3524C73.2248 65.962 73.2473 69.5717 73.1927 73.1813V73.1781ZM80.0231 71.8442H76.0245V67.8038H80.0231V71.8442ZM80.0391 64.9624H76.0181V63.7506H80.0391V64.9624Z" fill="#72BE44"/>
<path d="M36.2443 62.2808C36.2572 63.123 35.6208 63.6501 34.5343 63.6726C33.7051 63.6887 32.8758 63.6758 32.0465 63.6758H17.8522C16.0747 63.6758 15.7243 64.0198 15.7243 65.7651C15.7243 67.1826 15.7275 68.5969 15.7211 70.0144C15.7211 70.2812 15.7082 70.5544 15.6472 70.8083C15.4736 71.4962 14.8854 71.943 14.2393 71.8562C13.5225 71.7598 13.0211 71.3483 13.0114 70.6026C12.9825 68.5455 12.9247 66.4819 13.05 64.4312C13.1561 62.6569 14.7504 61.0755 16.544 61.0176C19.6682 60.918 22.7958 60.9919 25.9233 60.9919V60.918H33.9461C34.1326 60.918 34.319 60.918 34.5054 60.918C35.6047 60.9501 36.2347 61.4451 36.2443 62.2808Z" fill="#72BE44"/>
<path d="M44.4352 62.3091C44.4288 63.0323 44.0206 63.5144 43.2813 63.6077C42.7542 63.6752 42.2206 63.6687 41.6902 63.6977C41.1824 63.6687 40.6745 63.6752 40.1763 63.6109C39.437 63.5144 39.0288 63.0355 39.0159 62.3155C39.0031 61.5955 39.392 61.0427 40.1345 60.9944C41.1888 60.9237 42.2592 60.9237 43.3134 60.9944C44.0559 61.0427 44.4449 61.5891 44.4352 62.3091Z" fill="#72BE44"/>
</g>
<defs>
<clipPath id="clip0_325_575">
<rect width="82.1862" height="82.1798" fill="white" transform="translate(0.632812 0.662109)"/>
</clipPath>
</defs>
</svg>
