<svg width="79" height="79" viewBox="0 0 79 79" fill="none" xmlns="http://www.w3.org/2000/svg">
<path d="M39.5676 52.2592C20.7544 52.2592 17.4228 33.5113 16.8349 18.637C16.6684 14.502 16.5867 12.4313 18.1414 10.5205C19.6928 8.60654 21.5513 8.29299 25.2715 7.66588C29.9971 6.89138 34.779 6.51228 39.5676 6.53251C45.3945 6.53251 50.1926 7.0453 53.8638 7.66588C57.584 8.29299 59.4424 8.60654 60.9971 10.5205C62.5519 12.4345 62.4669 14.502 62.3036 18.637C61.7157 33.508 58.3842 52.2592 39.5709 52.2592H39.5676Z" stroke="#72BE44" stroke-width="4.34"/>
<path d="M39.5674 52.2593V62.0579" stroke="#72BE44" stroke-width="4.34" stroke-linecap="round"/>
<path d="M50.9991 71.8564H28.1357L29.2462 66.3169C29.3942 65.5768 29.7939 64.9107 30.3774 64.432C30.961 63.9532 31.6923 63.6914 32.4471 63.6909H46.6877C47.4425 63.6914 48.1739 63.9532 48.7574 64.432C49.3409 64.9107 49.7407 65.5768 49.8886 66.3169L50.9991 71.8564Z" stroke="#72BE44" stroke-width="4.34" stroke-linecap="round" stroke-linejoin="round"/>
<path d="M62.4306 16.3311L65.5302 17.3632C68.7637 18.441 70.3805 18.9799 71.3048 20.2636C72.2292 21.5472 72.2292 23.2521 72.2292 26.6588V26.8972C72.2292 29.7061 72.2292 31.1139 71.5531 32.2636C70.877 33.4133 69.6456 34.0959 67.1894 35.4644L57.5313 40.8275M16.7039 16.3311L13.6042 17.3632C10.3707 18.441 8.75394 18.9799 7.82961 20.2636C6.90527 21.5472 6.90527 23.2554 6.90527 26.6588V26.8972C6.90527 29.7061 6.90527 31.1139 7.58138 32.2636C8.25748 33.4133 9.48883 34.0959 11.945 35.4644L21.6031 40.8275M36.7779 19.6724C38.019 17.4416 38.6396 16.3311 39.5672 16.3311C40.4948 16.3311 41.1154 17.4416 42.3565 19.6724L42.6766 20.2472C43.0294 20.8809 43.2058 21.1944 43.4801 21.4035C43.7577 21.6125 44.1007 21.6909 44.7866 21.8444L45.4072 21.9881C47.8176 22.5336 49.0229 22.8047 49.3103 23.7257C49.5977 24.6501 48.7746 25.6103 47.1317 27.5308L46.7071 28.0273C46.2401 28.5728 46.0049 28.8438 45.9004 29.1835C45.7959 29.5232 45.8318 29.8858 45.9004 30.6141L45.9657 31.2772C46.2139 33.8411 46.338 35.1247 45.5901 35.6931C44.8389 36.2614 43.7088 35.742 41.4518 34.7034L40.8704 34.4356C40.227 34.1416 39.9069 33.9946 39.5672 33.9946C39.2275 33.9946 38.9074 34.1416 38.264 34.4356L37.6826 34.7034C35.4257 35.7453 34.2956 36.2614 33.5444 35.6931C32.7931 35.1247 32.9205 33.8411 33.1687 31.2772L33.2341 30.6141C33.3027 29.8858 33.3386 29.5232 33.2341 29.1835C33.1295 28.8471 32.8944 28.5728 32.4273 28.0273L32.0027 27.5308C30.3598 25.6103 29.5367 24.6501 29.8242 23.7257C30.1116 22.8047 31.3168 22.5336 33.7273 21.9881L34.3478 21.8444C35.0337 21.6909 35.3767 21.6158 35.6543 21.4035C35.9287 21.1944 36.1051 20.8809 36.4578 20.2472L36.7779 19.6724Z" stroke="#72BE44" stroke-width="4.34"/>
<path d="M59.1641 71.8564H19.9697" stroke="#72BE44" stroke-width="4.34" stroke-linecap="round"/>
</svg>
