<svg width="79" height="79" viewBox="0 0 79 79" fill="none" xmlns="http://www.w3.org/2000/svg">
<path d="M31.1567 62.6946C31.1567 60.3626 31.1567 59.1998 31.0293 58.4257C30.6308 55.9336 30.5623 55.7736 28.9716 53.8138C28.4752 53.2031 26.6461 51.5667 22.9879 48.2874C19.2902 44.9802 16.6838 40.6281 15.5136 35.8072C14.3433 30.9862 14.6644 25.9236 16.4343 21.2891C18.2043 16.6546 21.3396 12.6667 25.4255 9.85308C29.5114 7.03946 34.3553 5.53272 39.3163 5.53223C44.2772 5.53173 49.1214 7.0375 53.2079 9.8503C57.2944 12.6631 60.4305 16.6504 62.2014 21.2845C63.9722 25.9186 64.2943 30.9812 63.125 35.8024C61.9558 40.6236 59.3502 44.9762 55.6532 48.2842C51.9918 51.5634 50.1627 53.2031 49.6695 53.8106C48.0789 55.7703 48.0103 55.9303 47.6085 58.4225C47.4844 59.1965 47.4844 60.3626 47.4844 62.6914H31.1534C31.1534 65.7453 31.1534 67.2706 31.8099 68.4072C32.2399 69.1519 32.8584 69.7704 33.6031 70.2003C34.7397 70.8569 36.265 70.8569 39.3189 70.8569C42.3728 70.8569 43.8981 70.8568 45.038 70.2036C45.7828 69.7736 46.4012 69.1552 46.8312 68.4105C47.4877 67.2738 47.4877 65.7485 47.4877 62.6946" stroke="#72BE44" stroke-width="4.34"/>
<path d="M41.8862 26.7632L34.8867 36.5618H44.6853L37.6858 46.3604" stroke="#72BE44" stroke-width="4.34" stroke-linecap="round" stroke-linejoin="round"/>
</svg>
